G04 #@! TF.GenerationSoftware,KiCad,Pcbnew,(5.1.9)-1*
G04 #@! TF.CreationDate,2021-06-30T07:56:35+01:00*
G04 #@! TF.ProjectId,Paul-PCB-KICAD,5061756c-2d50-4434-922d-4b494341442e,rev?*
G04 #@! TF.SameCoordinates,Original*
G04 #@! TF.FileFunction,Legend,Top*
G04 #@! TF.FilePolarity,Positive*
%FSLAX46Y46*%
G04 Gerber Fmt 4.6, Leading zero omitted, Abs format (unit mm)*
G04 Created by KiCad (PCBNEW (5.1.9)-1) date 2021-06-30 07:56:35*
%MOMM*%
%LPD*%
G01*
G04 APERTURE LIST*
%ADD10C,0.253125*%
%ADD11C,0.300000*%
%ADD12C,0.250000*%
%ADD13C,0.120000*%
%ADD14C,0.150000*%
%ADD15C,2.000000*%
%ADD16C,3.000000*%
%ADD17C,3.987800*%
%ADD18C,1.750000*%
%ADD19C,3.048000*%
%ADD20C,5.000000*%
%ADD21R,3.200000X2.000000*%
%ADD22R,2.000000X2.000000*%
%ADD23C,0.650000*%
%ADD24R,0.300000X1.450000*%
%ADD25R,0.600000X1.450000*%
G04 APERTURE END LIST*
D10*
X123339484Y48072069D02*
X125748364Y48072069D01*
X133172153Y51817774D02*
X131920000Y51817774D01*
X126730347Y46062680D02*
X127982500Y46062680D01*
X123889268Y49197069D02*
X124543924Y50536661D01*
X122357500Y46062680D02*
X123339484Y48072069D01*
X121105347Y46062680D02*
X122357500Y46062680D01*
X125170000Y51817774D02*
X123917847Y51817774D01*
X129107500Y46062680D02*
X135984653Y46062680D01*
X129720861Y49880000D02*
X127369139Y49880000D01*
X127982500Y46062680D02*
X125170000Y51817774D01*
X130909438Y47187680D02*
X133172153Y51817774D01*
X123917847Y51817774D02*
X121105347Y46062680D01*
X125198579Y49197069D02*
X123889268Y49197069D01*
X135984653Y46062680D02*
X135434868Y47187680D01*
X125748364Y48072069D02*
X126730347Y46062680D01*
X131920000Y51817774D02*
X129107500Y46062680D01*
X124543924Y50536661D02*
X125198579Y49197069D01*
X135434868Y47187680D02*
X130909438Y47187680D01*
X124159241Y54873955D02*
G75*
G02*
X125170000Y55505000I1010759J-493955D01*
G01*
X135984653Y43812680D02*
X121105347Y43812680D01*
X126819354Y51005000D02*
X128071508Y51005000D01*
X127445431Y52286113D02*
X126422154Y54380000D01*
X126422154Y54380000D02*
X125170000Y54380000D01*
X133941517Y55367911D02*
X138006170Y47050591D01*
X135984653Y44937680D02*
X121105347Y44937680D01*
X132930758Y54873956D02*
X136995412Y46556635D01*
X131919999Y56630000D02*
G75*
G02*
X133941517Y55367911I1J-2250000D01*
G01*
X120094588Y46556635D02*
X124159242Y54873956D01*
X127369139Y49880000D02*
X128545000Y47473887D01*
X129018492Y51005000D02*
X130270646Y51005000D01*
X128545000Y51973887D02*
X129018492Y51005000D01*
X125170000Y54380000D02*
X126819354Y51005000D01*
X129644569Y52286113D02*
X129171076Y53255000D01*
X128545000Y47473887D02*
X129720861Y49880000D01*
X130667846Y54380000D02*
X129644569Y52286113D01*
X119083830Y47050591D02*
X123148483Y55367911D01*
X131920000Y54380000D02*
X130667846Y54380000D01*
X130270646Y51005000D02*
X131920000Y54380000D01*
X128071508Y51005000D02*
X128545000Y51973887D01*
X127918924Y53255000D02*
X127445431Y52286113D01*
X136995412Y46556635D02*
G75*
G02*
X135984653Y44937680I-1010759J-493955D01*
G01*
X129171076Y53255000D02*
X127918924Y53255000D01*
X138006170Y47050590D02*
G75*
G02*
X135984653Y43812680I-2021517J-987910D01*
G01*
X125170000Y55505000D02*
X131920000Y55505000D01*
X121105347Y44937680D02*
G75*
G02*
X120094588Y46556635I0J1125000D01*
G01*
X131919999Y55505000D02*
G75*
G02*
X132930758Y54873956I1J-1125000D01*
G01*
X125170000Y56630000D02*
X131920000Y56630000D01*
X121105346Y43812680D02*
G75*
G02*
X119083830Y47050591I1J2250000D01*
G01*
X123148483Y55367910D02*
G75*
G02*
X125170000Y56630000I2021517J-987910D01*
G01*
D11*
X121169285Y40109047D02*
X121169285Y42609047D01*
X121645476Y42609047D01*
X121764523Y42490000D01*
X121824047Y42370952D01*
X121883571Y42132857D01*
X121883571Y41775714D01*
X121824047Y41537619D01*
X121764523Y41418571D01*
X121645476Y41299523D01*
X121169285Y41299523D01*
X122955000Y40109047D02*
X122955000Y41418571D01*
X122895476Y41656666D01*
X122776428Y41775714D01*
X122538333Y41775714D01*
X122419285Y41656666D01*
X122955000Y40228095D02*
X122835952Y40109047D01*
X122538333Y40109047D01*
X122419285Y40228095D01*
X122359761Y40466190D01*
X122359761Y40704285D01*
X122419285Y40942380D01*
X122538333Y41061428D01*
X122835952Y41061428D01*
X122955000Y41180476D01*
X124085952Y41775714D02*
X124085952Y40109047D01*
X123550238Y41775714D02*
X123550238Y40466190D01*
X123609761Y40228095D01*
X123728809Y40109047D01*
X123907380Y40109047D01*
X124026428Y40228095D01*
X124085952Y40347142D01*
X124859761Y40109047D02*
X124740714Y40228095D01*
X124681190Y40466190D01*
X124681190Y42609047D01*
X125335952Y40109047D02*
X125335952Y42609047D01*
X125812142Y42609047D01*
X125931190Y42490000D01*
X125990714Y42370952D01*
X126050238Y42132857D01*
X126050238Y41775714D01*
X125990714Y41537619D01*
X125931190Y41418571D01*
X125812142Y41299523D01*
X125335952Y41299523D01*
X127300238Y40347142D02*
X127240714Y40228095D01*
X127062142Y40109047D01*
X126943095Y40109047D01*
X126764523Y40228095D01*
X126645476Y40466190D01*
X126585952Y40704285D01*
X126526428Y41180476D01*
X126526428Y41537619D01*
X126585952Y42013809D01*
X126645476Y42251904D01*
X126764523Y42490000D01*
X126943095Y42609047D01*
X127062142Y42609047D01*
X127240714Y42490000D01*
X127300238Y42370952D01*
X128252619Y41418571D02*
X128431190Y41299523D01*
X128490714Y41180476D01*
X128550238Y40942380D01*
X128550238Y40585238D01*
X128490714Y40347142D01*
X128431190Y40228095D01*
X128312142Y40109047D01*
X127835952Y40109047D01*
X127835952Y42609047D01*
X128252619Y42609047D01*
X128371666Y42490000D01*
X128431190Y42370952D01*
X128490714Y42132857D01*
X128490714Y41894761D01*
X128431190Y41656666D01*
X128371666Y41537619D01*
X128252619Y41418571D01*
X127835952Y41418571D01*
X130038333Y41061428D02*
X130990714Y41061428D01*
X132359761Y42609047D02*
X132776428Y40109047D01*
X133193095Y42609047D01*
X134264523Y40109047D02*
X133550238Y40109047D01*
X133907380Y40109047D02*
X133907380Y42609047D01*
X133788333Y42251904D01*
X133669285Y42013809D01*
X133550238Y41894761D01*
X134800238Y40347142D02*
X134859761Y40228095D01*
X134800238Y40109047D01*
X134740714Y40228095D01*
X134800238Y40347142D01*
X134800238Y40109047D01*
X135633571Y42609047D02*
X135752619Y42609047D01*
X135871666Y42490000D01*
X135931190Y42370952D01*
X135990714Y42132857D01*
X136050238Y41656666D01*
X136050238Y41061428D01*
X135990714Y40585238D01*
X135931190Y40347142D01*
X135871666Y40228095D01*
X135752619Y40109047D01*
X135633571Y40109047D01*
X135514523Y40228095D01*
X135455000Y40347142D01*
X135395476Y40585238D01*
X135335952Y41061428D01*
X135335952Y41656666D01*
X135395476Y42132857D01*
X135455000Y42370952D01*
X135514523Y42490000D01*
X135633571Y42609047D01*
D12*
X20441750Y80200000D02*
G75*
G03*
X20441750Y80200000I-3250000J0D01*
G01*
X97231649Y74572360D02*
G75*
G03*
X97231649Y74572360I-3250000J0D01*
G01*
X166109822Y72980677D02*
G75*
G03*
X166109822Y72980677I-3250000J0D01*
G01*
X223135384Y80385180D02*
G75*
G03*
X223135384Y80385180I-3250000J0D01*
G01*
X4402750Y54625000D02*
G75*
G03*
X4402750Y54625000I-3250000J0D01*
G01*
X22156250Y7000000D02*
G75*
G03*
X22156250Y7000000I-3250000J0D01*
G01*
X136386887Y35392650D02*
G75*
G03*
X136386887Y35392650I-3250000J0D01*
G01*
X80508161Y3003314D02*
G75*
G03*
X80508161Y3003314I-3250000J0D01*
G01*
X152646946Y-2325869D02*
G75*
G03*
X152646946Y-2325869I-3250000J0D01*
G01*
X235897250Y16524999D02*
G75*
G03*
X235897250Y16524999I-3250000J0D01*
G01*
X298000249Y11573500D02*
G75*
G03*
X298000249Y11573500I-3249999J0D01*
G01*
X305599874Y47386750D02*
G75*
G03*
X305599874Y47386750I-3249999J0D01*
G01*
X304762249Y83200000D02*
G75*
G03*
X304762249Y83200000I-3249999J0D01*
G01*
D13*
X319080000Y83200000D02*
G75*
G03*
X319080000Y83200000I-3000000J0D01*
G01*
X314080000Y77300000D02*
X309980000Y77300000D01*
X309980000Y89100000D02*
X314080000Y89100000D01*
X318080000Y89100000D02*
X322180000Y89100000D01*
X318080000Y77300000D02*
X322180000Y77300000D01*
X322180000Y77300000D02*
X322180000Y89100000D01*
X323580000Y79400000D02*
X323880000Y79100000D01*
X323880000Y79100000D02*
X323280000Y79100000D01*
X323280000Y79100000D02*
X323580000Y79400000D01*
X309980000Y77300000D02*
X309980000Y79700000D01*
X309980000Y81900000D02*
X309980000Y84500000D01*
X309980000Y86700000D02*
X309980000Y89100000D01*
X316080000Y82700000D02*
X316080000Y83700000D01*
X316580000Y83200000D02*
X315580000Y83200000D01*
D14*
X299386666Y93527619D02*
X299053333Y94003809D01*
X298815238Y93527619D02*
X298815238Y94527619D01*
X299196190Y94527619D01*
X299291428Y94480000D01*
X299339047Y94432380D01*
X299386666Y94337142D01*
X299386666Y94194285D01*
X299339047Y94099047D01*
X299291428Y94051428D01*
X299196190Y94003809D01*
X298815238Y94003809D01*
X299815238Y94051428D02*
X300148571Y94051428D01*
X300291428Y93527619D02*
X299815238Y93527619D01*
X299815238Y94527619D01*
X300291428Y94527619D01*
X301053333Y94051428D02*
X300720000Y94051428D01*
X300720000Y93527619D02*
X300720000Y94527619D01*
X301196190Y94527619D01*
X301720000Y94527619D02*
X301720000Y94289523D01*
X301481904Y94384761D02*
X301720000Y94289523D01*
X301958095Y94384761D01*
X301577142Y94099047D02*
X301720000Y94289523D01*
X301862857Y94099047D01*
X302481904Y94527619D02*
X302481904Y94289523D01*
X302243809Y94384761D02*
X302481904Y94289523D01*
X302720000Y94384761D01*
X302339047Y94099047D02*
X302481904Y94289523D01*
X302624761Y94099047D01*
X-5873333Y92797619D02*
X-6206666Y93273809D01*
X-6444761Y92797619D02*
X-6444761Y93797619D01*
X-6063809Y93797619D01*
X-5968571Y93750000D01*
X-5920952Y93702380D01*
X-5873333Y93607142D01*
X-5873333Y93464285D01*
X-5920952Y93369047D01*
X-5968571Y93321428D01*
X-6063809Y93273809D01*
X-6444761Y93273809D01*
X-5444761Y93321428D02*
X-5111428Y93321428D01*
X-4968571Y92797619D02*
X-5444761Y92797619D01*
X-5444761Y93797619D01*
X-4968571Y93797619D01*
X-4206666Y93321428D02*
X-4540000Y93321428D01*
X-4540000Y92797619D02*
X-4540000Y93797619D01*
X-4063809Y93797619D01*
X-3540000Y93797619D02*
X-3540000Y93559523D01*
X-3778095Y93654761D02*
X-3540000Y93559523D01*
X-3301904Y93654761D01*
X-3682857Y93369047D02*
X-3540000Y93559523D01*
X-3397142Y93369047D01*
X-2778095Y93797619D02*
X-2778095Y93559523D01*
X-3016190Y93654761D02*
X-2778095Y93559523D01*
X-2540000Y93654761D01*
X-2920952Y93369047D02*
X-2778095Y93559523D01*
X-2635238Y93369047D01*
X-1303333Y-4852380D02*
X-1636666Y-4376190D01*
X-1874761Y-4852380D02*
X-1874761Y-3852380D01*
X-1493809Y-3852380D01*
X-1398571Y-3900000D01*
X-1350952Y-3947619D01*
X-1303333Y-4042857D01*
X-1303333Y-4185714D01*
X-1350952Y-4280952D01*
X-1398571Y-4328571D01*
X-1493809Y-4376190D01*
X-1874761Y-4376190D01*
X-874761Y-4328571D02*
X-541428Y-4328571D01*
X-398571Y-4852380D02*
X-874761Y-4852380D01*
X-874761Y-3852380D01*
X-398571Y-3852380D01*
X363333Y-4328571D02*
X29999Y-4328571D01*
X29999Y-4852380D02*
X29999Y-3852380D01*
X506190Y-3852380D01*
X1029999Y-3852380D02*
X1029999Y-4090476D01*
X791904Y-3995238D02*
X1029999Y-4090476D01*
X1268095Y-3995238D01*
X887142Y-4280952D02*
X1029999Y-4090476D01*
X1172857Y-4280952D01*
X1791904Y-3852380D02*
X1791904Y-4090476D01*
X1553809Y-3995238D02*
X1791904Y-4090476D01*
X2029999Y-3995238D01*
X1649047Y-4280952D02*
X1791904Y-4090476D01*
X1934761Y-4280952D01*
X307926666Y-8732380D02*
X307593333Y-8256190D01*
X307355238Y-8732380D02*
X307355238Y-7732380D01*
X307736190Y-7732380D01*
X307831428Y-7780000D01*
X307879047Y-7827619D01*
X307926666Y-7922857D01*
X307926666Y-8065714D01*
X307879047Y-8160952D01*
X307831428Y-8208571D01*
X307736190Y-8256190D01*
X307355238Y-8256190D01*
X308355238Y-8208571D02*
X308688571Y-8208571D01*
X308831428Y-8732380D02*
X308355238Y-8732380D01*
X308355238Y-7732380D01*
X308831428Y-7732380D01*
X309593333Y-8208571D02*
X309260000Y-8208571D01*
X309260000Y-8732380D02*
X309260000Y-7732380D01*
X309736190Y-7732380D01*
X310260000Y-7732380D02*
X310260000Y-7970476D01*
X310021904Y-7875238D02*
X310260000Y-7970476D01*
X310498095Y-7875238D01*
X310117142Y-8160952D02*
X310260000Y-7970476D01*
X310402857Y-8160952D01*
X311021904Y-7732380D02*
X311021904Y-7970476D01*
X310783809Y-7875238D02*
X311021904Y-7970476D01*
X311260000Y-7875238D01*
X310879047Y-8160952D02*
X311021904Y-7970476D01*
X311164761Y-8160952D01*
X132150000Y31802380D02*
X132197619Y31850000D01*
X132292857Y31897619D01*
X132530952Y31897619D01*
X132626190Y31850000D01*
X132673809Y31802380D01*
X132721428Y31707142D01*
X132721428Y31611904D01*
X132673809Y31469047D01*
X132102380Y30897619D01*
X132721428Y30897619D01*
X133150000Y30992857D02*
X133197619Y30945238D01*
X133150000Y30897619D01*
X133102380Y30945238D01*
X133150000Y30992857D01*
X133150000Y30897619D01*
X134102380Y31897619D02*
X133626190Y31897619D01*
X133578571Y31421428D01*
X133626190Y31469047D01*
X133721428Y31516666D01*
X133959523Y31516666D01*
X134054761Y31469047D01*
X134102380Y31421428D01*
X134150000Y31326190D01*
X134150000Y31088095D01*
X134102380Y30992857D01*
X134054761Y30945238D01*
X133959523Y30897619D01*
X133721428Y30897619D01*
X133626190Y30945238D01*
X133578571Y30992857D01*
X76275361Y7530694D02*
X76322980Y7578314D01*
X76418218Y7625933D01*
X76656313Y7625933D01*
X76751551Y7578314D01*
X76799170Y7530694D01*
X76846789Y7435456D01*
X76846789Y7340218D01*
X76799170Y7197361D01*
X76227741Y6625933D01*
X76846789Y6625933D01*
X77275361Y6721171D02*
X77322980Y6673552D01*
X77275361Y6625933D01*
X77227741Y6673552D01*
X77275361Y6721171D01*
X77275361Y6625933D01*
X78227741Y7625933D02*
X77751551Y7625933D01*
X77703932Y7149742D01*
X77751551Y7197361D01*
X77846789Y7244980D01*
X78084884Y7244980D01*
X78180122Y7197361D01*
X78227741Y7149742D01*
X78275361Y7054504D01*
X78275361Y6816409D01*
X78227741Y6721171D01*
X78180122Y6673552D01*
X78084884Y6625933D01*
X77846789Y6625933D01*
X77751551Y6673552D01*
X77703932Y6721171D01*
X218902584Y84912560D02*
X218950203Y84960180D01*
X219045441Y85007799D01*
X219283536Y85007799D01*
X219378774Y84960180D01*
X219426393Y84912560D01*
X219474012Y84817322D01*
X219474012Y84722084D01*
X219426393Y84579227D01*
X218854964Y84007799D01*
X219474012Y84007799D01*
X219902584Y84103037D02*
X219950203Y84055418D01*
X219902584Y84007799D01*
X219854964Y84055418D01*
X219902584Y84103037D01*
X219902584Y84007799D01*
X220854964Y85007799D02*
X220378774Y85007799D01*
X220331155Y84531608D01*
X220378774Y84579227D01*
X220474012Y84626846D01*
X220712107Y84626846D01*
X220807345Y84579227D01*
X220854964Y84531608D01*
X220902584Y84436370D01*
X220902584Y84198275D01*
X220854964Y84103037D01*
X220807345Y84055418D01*
X220712107Y84007799D01*
X220474012Y84007799D01*
X220378774Y84055418D01*
X220331155Y84103037D01*
X17923450Y11527380D02*
X17971069Y11575000D01*
X18066307Y11622619D01*
X18304402Y11622619D01*
X18399640Y11575000D01*
X18447259Y11527380D01*
X18494878Y11432142D01*
X18494878Y11336904D01*
X18447259Y11194047D01*
X17875830Y10622619D01*
X18494878Y10622619D01*
X18923450Y10717857D02*
X18971069Y10670238D01*
X18923450Y10622619D01*
X18875830Y10670238D01*
X18923450Y10717857D01*
X18923450Y10622619D01*
X19875830Y11622619D02*
X19399640Y11622619D01*
X19352021Y11146428D01*
X19399640Y11194047D01*
X19494878Y11241666D01*
X19732973Y11241666D01*
X19828211Y11194047D01*
X19875830Y11146428D01*
X19923450Y11051190D01*
X19923450Y10813095D01*
X19875830Y10717857D01*
X19828211Y10670238D01*
X19732973Y10622619D01*
X19494878Y10622619D01*
X19399640Y10670238D01*
X19352021Y10717857D01*
X161877022Y77508057D02*
X161924641Y77555677D01*
X162019879Y77603296D01*
X162257974Y77603296D01*
X162353212Y77555677D01*
X162400831Y77508057D01*
X162448450Y77412819D01*
X162448450Y77317581D01*
X162400831Y77174724D01*
X161829402Y76603296D01*
X162448450Y76603296D01*
X162877022Y76698534D02*
X162924641Y76650915D01*
X162877022Y76603296D01*
X162829402Y76650915D01*
X162877022Y76698534D01*
X162877022Y76603296D01*
X163829402Y77603296D02*
X163353212Y77603296D01*
X163305593Y77127105D01*
X163353212Y77174724D01*
X163448450Y77222343D01*
X163686545Y77222343D01*
X163781783Y77174724D01*
X163829402Y77127105D01*
X163877022Y77031867D01*
X163877022Y76793772D01*
X163829402Y76698534D01*
X163781783Y76650915D01*
X163686545Y76603296D01*
X163448450Y76603296D01*
X163353212Y76650915D01*
X163305593Y76698534D01*
X293767450Y16100880D02*
X293815069Y16148500D01*
X293910307Y16196119D01*
X294148402Y16196119D01*
X294243640Y16148500D01*
X294291259Y16100880D01*
X294338878Y16005642D01*
X294338878Y15910404D01*
X294291259Y15767547D01*
X293719830Y15196119D01*
X294338878Y15196119D01*
X294767450Y15291357D02*
X294815069Y15243738D01*
X294767450Y15196119D01*
X294719830Y15243738D01*
X294767450Y15291357D01*
X294767450Y15196119D01*
X295719830Y16196119D02*
X295243640Y16196119D01*
X295196021Y15719928D01*
X295243640Y15767547D01*
X295338878Y15815166D01*
X295576973Y15815166D01*
X295672211Y15767547D01*
X295719830Y15719928D01*
X295767450Y15624690D01*
X295767450Y15386595D01*
X295719830Y15291357D01*
X295672211Y15243738D01*
X295576973Y15196119D01*
X295338878Y15196119D01*
X295243640Y15243738D01*
X295196021Y15291357D01*
X92998849Y79099740D02*
X93046468Y79147360D01*
X93141706Y79194979D01*
X93379801Y79194979D01*
X93475039Y79147360D01*
X93522658Y79099740D01*
X93570277Y79004502D01*
X93570277Y78909264D01*
X93522658Y78766407D01*
X92951229Y78194979D01*
X93570277Y78194979D01*
X93998849Y78290217D02*
X94046468Y78242598D01*
X93998849Y78194979D01*
X93951229Y78242598D01*
X93998849Y78290217D01*
X93998849Y78194979D01*
X94951229Y79194979D02*
X94475039Y79194979D01*
X94427420Y78718788D01*
X94475039Y78766407D01*
X94570277Y78814026D01*
X94808372Y78814026D01*
X94903610Y78766407D01*
X94951229Y78718788D01*
X94998849Y78623550D01*
X94998849Y78385455D01*
X94951229Y78290217D01*
X94903610Y78242598D01*
X94808372Y78194979D01*
X94570277Y78194979D01*
X94475039Y78242598D01*
X94427420Y78290217D01*
X148414146Y2201511D02*
X148461765Y2249131D01*
X148557003Y2296750D01*
X148795098Y2296750D01*
X148890336Y2249131D01*
X148937955Y2201511D01*
X148985574Y2106273D01*
X148985574Y2011035D01*
X148937955Y1868178D01*
X148366526Y1296750D01*
X148985574Y1296750D01*
X149414146Y1391988D02*
X149461765Y1344369D01*
X149414146Y1296750D01*
X149366526Y1344369D01*
X149414146Y1391988D01*
X149414146Y1296750D01*
X150366526Y2296750D02*
X149890336Y2296750D01*
X149842717Y1820559D01*
X149890336Y1868178D01*
X149985574Y1915797D01*
X150223669Y1915797D01*
X150318907Y1868178D01*
X150366526Y1820559D01*
X150414146Y1725321D01*
X150414146Y1487226D01*
X150366526Y1391988D01*
X150318907Y1344369D01*
X150223669Y1296750D01*
X149985574Y1296750D01*
X149890336Y1344369D01*
X149842717Y1391988D01*
X301367075Y51914130D02*
X301414694Y51961750D01*
X301509932Y52009369D01*
X301748027Y52009369D01*
X301843265Y51961750D01*
X301890884Y51914130D01*
X301938503Y51818892D01*
X301938503Y51723654D01*
X301890884Y51580797D01*
X301319455Y51009369D01*
X301938503Y51009369D01*
X302367075Y51104607D02*
X302414694Y51056988D01*
X302367075Y51009369D01*
X302319455Y51056988D01*
X302367075Y51104607D01*
X302367075Y51009369D01*
X303319455Y52009369D02*
X302843265Y52009369D01*
X302795646Y51533178D01*
X302843265Y51580797D01*
X302938503Y51628416D01*
X303176598Y51628416D01*
X303271836Y51580797D01*
X303319455Y51533178D01*
X303367075Y51437940D01*
X303367075Y51199845D01*
X303319455Y51104607D01*
X303271836Y51056988D01*
X303176598Y51009369D01*
X302938503Y51009369D01*
X302843265Y51056988D01*
X302795646Y51104607D01*
X16209200Y84727380D02*
X16256819Y84775000D01*
X16352057Y84822619D01*
X16590152Y84822619D01*
X16685390Y84775000D01*
X16733009Y84727380D01*
X16780628Y84632142D01*
X16780628Y84536904D01*
X16733009Y84394047D01*
X16161580Y83822619D01*
X16780628Y83822619D01*
X17209200Y83917857D02*
X17256819Y83870238D01*
X17209200Y83822619D01*
X17161580Y83870238D01*
X17209200Y83917857D01*
X17209200Y83822619D01*
X18161580Y84822619D02*
X17685390Y84822619D01*
X17637771Y84346428D01*
X17685390Y84394047D01*
X17780628Y84441666D01*
X18018723Y84441666D01*
X18113961Y84394047D01*
X18161580Y84346428D01*
X18209200Y84251190D01*
X18209200Y84013095D01*
X18161580Y83917857D01*
X18113961Y83870238D01*
X18018723Y83822619D01*
X17780628Y83822619D01*
X17685390Y83870238D01*
X17637771Y83917857D01*
X231664450Y21052379D02*
X231712069Y21099999D01*
X231807307Y21147618D01*
X232045402Y21147618D01*
X232140640Y21099999D01*
X232188259Y21052379D01*
X232235878Y20957141D01*
X232235878Y20861903D01*
X232188259Y20719046D01*
X231616830Y20147618D01*
X232235878Y20147618D01*
X232664450Y20242856D02*
X232712069Y20195237D01*
X232664450Y20147618D01*
X232616830Y20195237D01*
X232664450Y20242856D01*
X232664450Y20147618D01*
X233616830Y21147618D02*
X233140640Y21147618D01*
X233093021Y20671427D01*
X233140640Y20719046D01*
X233235878Y20766665D01*
X233473973Y20766665D01*
X233569211Y20719046D01*
X233616830Y20671427D01*
X233664450Y20576189D01*
X233664450Y20338094D01*
X233616830Y20242856D01*
X233569211Y20195237D01*
X233473973Y20147618D01*
X233235878Y20147618D01*
X233140640Y20195237D01*
X233093021Y20242856D01*
X300529450Y87727380D02*
X300577069Y87775000D01*
X300672307Y87822619D01*
X300910402Y87822619D01*
X301005640Y87775000D01*
X301053259Y87727380D01*
X301100878Y87632142D01*
X301100878Y87536904D01*
X301053259Y87394047D01*
X300481830Y86822619D01*
X301100878Y86822619D01*
X301529450Y86917857D02*
X301577069Y86870238D01*
X301529450Y86822619D01*
X301481830Y86870238D01*
X301529450Y86917857D01*
X301529450Y86822619D01*
X302481830Y87822619D02*
X302005640Y87822619D01*
X301958021Y87346428D01*
X302005640Y87394047D01*
X302100878Y87441666D01*
X302338973Y87441666D01*
X302434211Y87394047D01*
X302481830Y87346428D01*
X302529450Y87251190D01*
X302529450Y87013095D01*
X302481830Y86917857D01*
X302434211Y86870238D01*
X302338973Y86822619D01*
X302100878Y86822619D01*
X302005640Y86870238D01*
X301958021Y86917857D01*
X170000Y59152380D02*
X217619Y59200000D01*
X312857Y59247619D01*
X550952Y59247619D01*
X646190Y59200000D01*
X693809Y59152380D01*
X741428Y59057142D01*
X741428Y58961904D01*
X693809Y58819047D01*
X122380Y58247619D01*
X741428Y58247619D01*
X1170000Y58342857D02*
X1217619Y58295238D01*
X1170000Y58247619D01*
X1122380Y58295238D01*
X1170000Y58342857D01*
X1170000Y58247619D01*
X2122380Y59247619D02*
X1646190Y59247619D01*
X1598571Y58771428D01*
X1646190Y58819047D01*
X1741428Y58866666D01*
X1979523Y58866666D01*
X2074761Y58819047D01*
X2122380Y58771428D01*
X2170000Y58676190D01*
X2170000Y58438095D01*
X2122380Y58342857D01*
X2074761Y58295238D01*
X1979523Y58247619D01*
X1741428Y58247619D01*
X1646190Y58295238D01*
X1598571Y58342857D01*
X311166190Y74857619D02*
X310832857Y75333809D01*
X310594761Y74857619D02*
X310594761Y75857619D01*
X310975714Y75857619D01*
X311070952Y75810000D01*
X311118571Y75762380D01*
X311166190Y75667142D01*
X311166190Y75524285D01*
X311118571Y75429047D01*
X311070952Y75381428D01*
X310975714Y75333809D01*
X310594761Y75333809D01*
X311737619Y74857619D02*
X311642380Y74905238D01*
X311594761Y74952857D01*
X311547142Y75048095D01*
X311547142Y75333809D01*
X311594761Y75429047D01*
X311642380Y75476666D01*
X311737619Y75524285D01*
X311880476Y75524285D01*
X311975714Y75476666D01*
X312023333Y75429047D01*
X312070952Y75333809D01*
X312070952Y75048095D01*
X312023333Y74952857D01*
X311975714Y74905238D01*
X311880476Y74857619D01*
X311737619Y74857619D01*
X312356666Y75524285D02*
X312737619Y75524285D01*
X312499523Y75857619D02*
X312499523Y75000476D01*
X312547142Y74905238D01*
X312642380Y74857619D01*
X312737619Y74857619D01*
X313499523Y74857619D02*
X313499523Y75381428D01*
X313451904Y75476666D01*
X313356666Y75524285D01*
X313166190Y75524285D01*
X313070952Y75476666D01*
X313499523Y74905238D02*
X313404285Y74857619D01*
X313166190Y74857619D01*
X313070952Y74905238D01*
X313023333Y75000476D01*
X313023333Y75095714D01*
X313070952Y75190952D01*
X313166190Y75238571D01*
X313404285Y75238571D01*
X313499523Y75286190D01*
X313975714Y74857619D02*
X313975714Y75524285D01*
X313975714Y75333809D02*
X314023333Y75429047D01*
X314070952Y75476666D01*
X314166190Y75524285D01*
X314261428Y75524285D01*
X314499523Y75524285D02*
X314737619Y74857619D01*
X314975714Y75524285D02*
X314737619Y74857619D01*
X314642380Y74619523D01*
X314594761Y74571904D01*
X314499523Y74524285D01*
X315356666Y75381428D02*
X315690000Y75381428D01*
X315832857Y74857619D02*
X315356666Y74857619D01*
X315356666Y75857619D01*
X315832857Y75857619D01*
X316261428Y75524285D02*
X316261428Y74857619D01*
X316261428Y75429047D02*
X316309047Y75476666D01*
X316404285Y75524285D01*
X316547142Y75524285D01*
X316642380Y75476666D01*
X316690000Y75381428D01*
X316690000Y74857619D01*
X317594761Y74905238D02*
X317499523Y74857619D01*
X317309047Y74857619D01*
X317213809Y74905238D01*
X317166190Y74952857D01*
X317118571Y75048095D01*
X317118571Y75333809D01*
X317166190Y75429047D01*
X317213809Y75476666D01*
X317309047Y75524285D01*
X317499523Y75524285D01*
X317594761Y75476666D01*
X318166190Y74857619D02*
X318070952Y74905238D01*
X318023333Y74952857D01*
X317975714Y75048095D01*
X317975714Y75333809D01*
X318023333Y75429047D01*
X318070952Y75476666D01*
X318166190Y75524285D01*
X318309047Y75524285D01*
X318404285Y75476666D01*
X318451904Y75429047D01*
X318499523Y75333809D01*
X318499523Y75048095D01*
X318451904Y74952857D01*
X318404285Y74905238D01*
X318309047Y74857619D01*
X318166190Y74857619D01*
X319356666Y74857619D02*
X319356666Y75857619D01*
X319356666Y74905238D02*
X319261428Y74857619D01*
X319070952Y74857619D01*
X318975714Y74905238D01*
X318928095Y74952857D01*
X318880476Y75048095D01*
X318880476Y75333809D01*
X318928095Y75429047D01*
X318975714Y75476666D01*
X319070952Y75524285D01*
X319261428Y75524285D01*
X319356666Y75476666D01*
X320213809Y74905238D02*
X320118571Y74857619D01*
X319928095Y74857619D01*
X319832857Y74905238D01*
X319785238Y75000476D01*
X319785238Y75381428D01*
X319832857Y75476666D01*
X319928095Y75524285D01*
X320118571Y75524285D01*
X320213809Y75476666D01*
X320261428Y75381428D01*
X320261428Y75286190D01*
X319785238Y75190952D01*
X320690000Y74857619D02*
X320690000Y75524285D01*
X320690000Y75333809D02*
X320737619Y75429047D01*
X320785238Y75476666D01*
X320880476Y75524285D01*
X320975714Y75524285D01*
X321832857Y74857619D02*
X321261428Y74857619D01*
X321547142Y74857619D02*
X321547142Y75857619D01*
X321451904Y75714761D01*
X321356666Y75619523D01*
X321261428Y75571904D01*
X157891904Y86977619D02*
X157891904Y86168095D01*
X157939523Y86072857D01*
X157987142Y86025238D01*
X158082380Y85977619D01*
X158272857Y85977619D01*
X158368095Y86025238D01*
X158415714Y86072857D01*
X158463333Y86168095D01*
X158463333Y86977619D01*
X158891904Y86025238D02*
X159034761Y85977619D01*
X159272857Y85977619D01*
X159368095Y86025238D01*
X159415714Y86072857D01*
X159463333Y86168095D01*
X159463333Y86263333D01*
X159415714Y86358571D01*
X159368095Y86406190D01*
X159272857Y86453809D01*
X159082380Y86501428D01*
X158987142Y86549047D01*
X158939523Y86596666D01*
X158891904Y86691904D01*
X158891904Y86787142D01*
X158939523Y86882380D01*
X158987142Y86930000D01*
X159082380Y86977619D01*
X159320476Y86977619D01*
X159463333Y86930000D01*
X160225238Y86501428D02*
X160368095Y86453809D01*
X160415714Y86406190D01*
X160463333Y86310952D01*
X160463333Y86168095D01*
X160415714Y86072857D01*
X160368095Y86025238D01*
X160272857Y85977619D01*
X159891904Y85977619D01*
X159891904Y86977619D01*
X160225238Y86977619D01*
X160320476Y86930000D01*
X160368095Y86882380D01*
X160415714Y86787142D01*
X160415714Y86691904D01*
X160368095Y86596666D01*
X160320476Y86549047D01*
X160225238Y86501428D01*
X159891904Y86501428D01*
X161415714Y85977619D02*
X160844285Y85977619D01*
X161130000Y85977619D02*
X161130000Y86977619D01*
X161034761Y86834761D01*
X160939523Y86739523D01*
X160844285Y86691904D01*
%LPC*%
D15*
X296690000Y88250000D03*
X1090000Y90020000D03*
X240000Y290000D03*
X309470000Y-3590000D03*
D16*
X244710000Y69227500D03*
D17*
X242170000Y64147500D03*
D16*
X238360000Y66687500D03*
D18*
X237090000Y64147500D03*
X247250000Y64147500D03*
X71140562Y80813001D03*
X61079438Y82226999D03*
D16*
X62690578Y84565530D03*
D17*
X66110000Y81520000D03*
D16*
X69332280Y86197062D03*
X103801313Y23630114D03*
D17*
X100579033Y18953052D03*
D16*
X97159611Y21998582D03*
D18*
X95548471Y19660051D03*
X105609595Y18246053D03*
D16*
X289463750Y88297500D03*
D17*
X286923750Y83217500D03*
D16*
X283113750Y85757500D03*
D18*
X281843750Y83217500D03*
X292003750Y83217500D03*
D16*
X125912280Y78247062D03*
D17*
X122690000Y73570000D03*
D16*
X119270578Y76615530D03*
D18*
X117659438Y74276999D03*
X127720562Y72863001D03*
D16*
X306790000Y7140000D03*
D17*
X304250000Y2060000D03*
D16*
X300440000Y4600000D03*
D18*
X299170000Y2060000D03*
X309330000Y2060000D03*
D16*
X287760000Y7130000D03*
D17*
X285220000Y2050000D03*
D16*
X281410000Y4590000D03*
D18*
X280140000Y2050000D03*
X290300000Y2050000D03*
D16*
X268730000Y7140000D03*
D17*
X266190000Y2060000D03*
D16*
X262380000Y4600000D03*
D18*
X261110000Y2060000D03*
X271270000Y2060000D03*
D16*
X244720000Y12090000D03*
D17*
X242180000Y7010000D03*
D16*
X238370000Y9550000D03*
D18*
X237100000Y7010000D03*
X247260000Y7010000D03*
D16*
X225650000Y12090000D03*
D17*
X223110000Y7010000D03*
D16*
X219300000Y9550000D03*
D18*
X218030000Y7010000D03*
X228190000Y7010000D03*
D16*
X203143558Y9862189D03*
D17*
X201335276Y4478128D03*
D16*
X197208855Y6463159D03*
D18*
X196304714Y3771129D03*
X206365838Y5185127D03*
D16*
X148614642Y21435865D03*
D17*
X146806360Y16051804D03*
D16*
X142679939Y18036835D03*
D18*
X141775798Y15344805D03*
X151836922Y16758803D03*
D16*
X318620000Y45820000D03*
D17*
X316080000Y40740000D03*
D16*
X312270000Y43280000D03*
D18*
X311000000Y40740000D03*
X321160000Y40740000D03*
D16*
X287760000Y26180000D03*
D17*
X285220000Y21100000D03*
D16*
X281410000Y23640000D03*
D18*
X280140000Y21100000D03*
X290300000Y21100000D03*
D16*
X263760000Y31127500D03*
D17*
X261220000Y26047500D03*
D16*
X257410000Y28587500D03*
D18*
X256140000Y26047500D03*
X266300000Y26047500D03*
D16*
X244710000Y31127500D03*
D17*
X242170000Y26047500D03*
D16*
X238360000Y28587500D03*
D18*
X237090000Y26047500D03*
X247250000Y26047500D03*
D16*
X225660000Y31127500D03*
D17*
X223120000Y26047500D03*
D16*
X219310000Y28587500D03*
D18*
X218040000Y26047500D03*
X228200000Y26047500D03*
D16*
X205208462Y29389608D03*
D17*
X203400180Y24005547D03*
D16*
X199273759Y25990578D03*
D18*
X198369618Y23298548D03*
X208430742Y24712546D03*
D16*
X186343855Y26738360D03*
D17*
X184535573Y21354299D03*
D16*
X180409152Y23339330D03*
D18*
X179505011Y20647300D03*
X189566135Y22061298D03*
D16*
X167479249Y24087113D03*
D17*
X165670967Y18703052D03*
D16*
X161544546Y20688083D03*
D18*
X160640405Y17996053D03*
X170701529Y19410051D03*
D16*
X122665920Y20978866D03*
D17*
X119443640Y16301804D03*
D16*
X116024218Y19347334D03*
D18*
X114413078Y17008803D03*
X124474202Y15594805D03*
D16*
X84936707Y26281361D03*
D17*
X81714427Y21604299D03*
D16*
X78295005Y24649829D03*
D18*
X76683865Y22311298D03*
X86744989Y20897300D03*
D16*
X66072100Y28932609D03*
D17*
X62849820Y24255547D03*
D16*
X59430398Y27301077D03*
D18*
X57819258Y24962546D03*
X67880382Y23548548D03*
D16*
X45260000Y31120000D03*
D17*
X42720000Y26040000D03*
D16*
X38910000Y28580000D03*
D18*
X37640000Y26040000D03*
X47800000Y26040000D03*
D16*
X318620000Y64840000D03*
D17*
X316080000Y59760000D03*
D16*
X312270000Y62300000D03*
D18*
X311000000Y59760000D03*
X321160000Y59760000D03*
D16*
X251853750Y50177500D03*
D17*
X249313750Y45097500D03*
D16*
X245503750Y47637500D03*
D18*
X244233750Y45097500D03*
X254393750Y45097500D03*
D16*
X232803750Y50177500D03*
D17*
X230263750Y45097500D03*
D16*
X226453750Y47637500D03*
D18*
X225183750Y45097500D03*
X235343750Y45097500D03*
D16*
X211989518Y49579838D03*
D17*
X210181236Y44195777D03*
D16*
X206054815Y46180808D03*
D18*
X205150674Y43488778D03*
X215211798Y44902776D03*
D16*
X193124911Y46928591D03*
D17*
X191316629Y41544530D03*
D16*
X187190208Y43529561D03*
D18*
X186286067Y40837531D03*
X196347191Y42251529D03*
D16*
X174260304Y44277343D03*
D17*
X172452022Y38893282D03*
D16*
X168325601Y40878313D03*
D18*
X167421460Y38186283D03*
X177482584Y39600281D03*
D16*
X155395698Y41626096D03*
D17*
X153587416Y36242035D03*
D16*
X149460995Y38227066D03*
D18*
X148556854Y35535036D03*
X158617978Y36949034D03*
D16*
X115884864Y41169097D03*
D17*
X112662584Y36492035D03*
D16*
X109243162Y39537565D03*
D18*
X107632022Y37199034D03*
X117693146Y35785036D03*
D16*
X97020258Y43820344D03*
D17*
X93797978Y39143282D03*
D16*
X90378556Y42188812D03*
D18*
X88767416Y39850281D03*
X98828540Y38436283D03*
D16*
X78155651Y46471592D03*
D17*
X74933371Y41794530D03*
D16*
X71513949Y44840060D03*
D18*
X69902809Y42501529D03*
X79963933Y41087531D03*
D16*
X59291044Y49122839D03*
D17*
X56068764Y44445777D03*
D16*
X52649342Y47491307D03*
D18*
X51038202Y45152776D03*
X61099326Y43738778D03*
D16*
X38430000Y50140000D03*
D17*
X35890000Y45060000D03*
D16*
X32080000Y47600000D03*
D18*
X30810000Y45060000D03*
X40970000Y45060000D03*
D16*
X263760000Y69227500D03*
D17*
X261220000Y64147500D03*
D16*
X257410000Y66687500D03*
D18*
X256140000Y64147500D03*
X266300000Y64147500D03*
D16*
X225660000Y69227500D03*
D17*
X223120000Y64147500D03*
D16*
X219310000Y66687500D03*
D18*
X218040000Y64147500D03*
X228200000Y64147500D03*
D16*
X204622119Y67781633D03*
D17*
X202813837Y62397572D03*
D16*
X198687416Y64382603D03*
D18*
X197783275Y61690573D03*
X207844399Y63104571D03*
D16*
X185757512Y65130386D03*
D17*
X183949230Y59746325D03*
D16*
X179822809Y61731356D03*
D18*
X178918668Y59039326D03*
X188979792Y60453324D03*
D16*
X166892905Y62479138D03*
D17*
X165084623Y57095077D03*
D16*
X160958202Y59080108D03*
D18*
X160054061Y56388078D03*
X170115185Y57802076D03*
D16*
X148028299Y59827890D03*
D17*
X146220017Y54443829D03*
D16*
X142093596Y56428860D03*
D18*
X141189455Y53736830D03*
X151250579Y55150828D03*
D16*
X113819960Y60696515D03*
D17*
X110597680Y56019453D03*
D16*
X107178258Y59064983D03*
D18*
X105567118Y56726452D03*
X115628242Y55312454D03*
D16*
X94955353Y63347763D03*
D17*
X91733073Y58670701D03*
D16*
X88313651Y61716231D03*
D18*
X86702511Y59377700D03*
X96763635Y57963702D03*
D16*
X76090747Y65999010D03*
D17*
X72868467Y61321948D03*
D16*
X69449045Y64367478D03*
D18*
X67837905Y62028947D03*
X77899029Y60614949D03*
D16*
X57226140Y68650258D03*
D17*
X54003860Y63973196D03*
D16*
X50584438Y67018726D03*
D18*
X48973298Y64680195D03*
X59034422Y63266197D03*
D16*
X36310000Y69220000D03*
D17*
X33770000Y64140000D03*
D16*
X29960000Y66680000D03*
D18*
X28690000Y64140000D03*
X38850000Y64140000D03*
D16*
X270413750Y88297500D03*
D17*
X267873750Y83217500D03*
D16*
X264063750Y85757500D03*
D18*
X262793750Y83217500D03*
X272953750Y83217500D03*
D16*
X251363750Y88297500D03*
D17*
X248823750Y83217500D03*
D16*
X245013750Y85757500D03*
D18*
X243743750Y83217500D03*
X253903750Y83217500D03*
D16*
X232313750Y88297500D03*
D17*
X229773750Y83217500D03*
D16*
X225963750Y85757500D03*
D18*
X224693750Y83217500D03*
X234853750Y83217500D03*
D16*
X211403174Y87971864D03*
D17*
X209594892Y82587803D03*
D16*
X205468471Y84572834D03*
D18*
X204564330Y81880804D03*
X214625454Y83294802D03*
D16*
X192538568Y85320616D03*
D17*
X190730286Y79936555D03*
D16*
X186603865Y81921586D03*
D18*
X185699724Y79229556D03*
X195760848Y80643554D03*
D16*
X173673961Y82669368D03*
D17*
X171865679Y77285307D03*
D16*
X167739258Y79270338D03*
D18*
X166835117Y76578308D03*
X176896241Y77992306D03*
D16*
X154809354Y80018121D03*
D17*
X153001072Y74634060D03*
D16*
X148874651Y76619091D03*
D18*
X147970510Y73927061D03*
X158031634Y75341059D03*
D16*
X107062280Y80887062D03*
D17*
X103840000Y76210000D03*
D16*
X100420578Y79255530D03*
D18*
X98809438Y76916999D03*
X108870562Y75503001D03*
D16*
X88182280Y83547062D03*
D17*
X84960000Y78870000D03*
D16*
X81540578Y81915530D03*
D18*
X79929438Y79576999D03*
X89990562Y78163001D03*
D16*
X50462280Y88837062D03*
D17*
X47240000Y84160000D03*
D16*
X43820578Y87205530D03*
D18*
X42209438Y84866999D03*
X52270562Y83453001D03*
D16*
X29250000Y88290000D03*
D17*
X26710000Y83210000D03*
D16*
X22900000Y85750000D03*
D18*
X21630000Y83210000D03*
X31790000Y83210000D03*
D16*
X10210000Y88260000D03*
D17*
X7670000Y83180000D03*
D16*
X3860000Y85720000D03*
D18*
X2590000Y83180000D03*
X12750000Y83180000D03*
D16*
X287572500Y69227500D03*
D17*
X285032500Y64147500D03*
D16*
X281222500Y66687500D03*
D18*
X279952500Y64147500D03*
X290112500Y64147500D03*
D16*
X12500000Y69220000D03*
D17*
X9960000Y64140000D03*
D16*
X6150000Y66680000D03*
D18*
X4880000Y64140000D03*
X15040000Y64140000D03*
D16*
X14210000Y31110000D03*
D17*
X11670000Y26030000D03*
D16*
X7860000Y28570000D03*
D18*
X6590000Y26030000D03*
X16750000Y26030000D03*
D19*
X23608000Y33015000D03*
X-268000Y33015000D03*
D17*
X23608000Y17775000D03*
X-268000Y17775000D03*
D16*
X282810000Y50177500D03*
D17*
X280270000Y45097500D03*
D16*
X276460000Y47637500D03*
D18*
X275190000Y45097500D03*
X285350000Y45097500D03*
D19*
X292208000Y52082500D03*
X268332000Y52082500D03*
D17*
X292208000Y36842500D03*
X268332000Y36842500D03*
D16*
X12200000Y50160000D03*
D17*
X9660000Y45080000D03*
D16*
X5850000Y47620000D03*
D18*
X4580000Y45080000D03*
X14740000Y45080000D03*
D16*
X65778928Y9736596D03*
D17*
X62556648Y5059534D03*
D16*
X59137226Y8105064D03*
D18*
X57526086Y5766533D03*
X67587210Y4352535D03*
D16*
X33360000Y12080000D03*
D17*
X30820000Y7000000D03*
D16*
X27010000Y9540000D03*
D18*
X25740000Y7000000D03*
X35900000Y7000000D03*
D16*
X9520000Y12060000D03*
D17*
X6980000Y6980000D03*
D16*
X3170000Y9520000D03*
D18*
X1900000Y6980000D03*
X12060000Y6980000D03*
D16*
X172488572Y5553912D03*
D17*
X170680290Y169851D03*
D16*
X166553869Y2154882D03*
D18*
X165649728Y-537148D03*
X175710852Y876850D03*
D19*
X183474234Y-5085723D03*
X159830594Y-8408620D03*
D17*
X181353236Y10005962D03*
X157709596Y6683065D03*
D16*
X103508142Y4434101D03*
D17*
X100285862Y-242961D03*
D16*
X96866440Y2802569D03*
D18*
X95255300Y464038D03*
X105316424Y-949960D03*
D19*
X111135558Y-8821432D03*
X87491918Y-5498535D03*
D17*
X113256556Y6270253D03*
X89612916Y9593150D03*
D20*
X133136887Y35392650D03*
X77258161Y3003314D03*
X219885384Y80385180D03*
X18906250Y7000000D03*
X162859822Y72980677D03*
X294750250Y11573500D03*
X93981649Y74572360D03*
X149396946Y-2325869D03*
X302349875Y47386750D03*
X17192000Y80200000D03*
X232647250Y16524999D03*
X301512250Y83200000D03*
X1152800Y54625000D03*
D15*
X309080000Y85700000D03*
X309080000Y80700000D03*
D21*
X316080000Y88800000D03*
X316080000Y77600000D03*
D15*
X323580000Y85700000D03*
X323580000Y83200000D03*
D22*
X323580000Y80700000D03*
D23*
X162520000Y89430000D03*
X156740000Y89430000D03*
D24*
X159880000Y87985000D03*
X159380000Y87985000D03*
X158880000Y87985000D03*
X160380000Y87985000D03*
X158380000Y87985000D03*
X160880000Y87985000D03*
X157880000Y87985000D03*
X161380000Y87985000D03*
D25*
X162080000Y87985000D03*
X157180000Y87985000D03*
X162855000Y87985000D03*
X156405000Y87985000D03*
M02*
