G04 #@! TF.GenerationSoftware,KiCad,Pcbnew,(5.1.9)-1*
G04 #@! TF.CreationDate,2021-06-30T07:56:35+01:00*
G04 #@! TF.ProjectId,Paul-PCB-KICAD,5061756c-2d50-4434-922d-4b494341442e,rev?*
G04 #@! TF.SameCoordinates,Original*
G04 #@! TF.FileFunction,Copper,L1,Top*
G04 #@! TF.FilePolarity,Positive*
%FSLAX46Y46*%
G04 Gerber Fmt 4.6, Leading zero omitted, Abs format (unit mm)*
G04 Created by KiCad (PCBNEW (5.1.9)-1) date 2021-06-30 07:56:35*
%MOMM*%
%LPD*%
G01*
G04 APERTURE LIST*
G04 #@! TA.AperFunction,ComponentPad*
%ADD10C,2.000000*%
G04 #@! TD*
G04 #@! TA.AperFunction,ComponentPad*
%ADD11C,5.000000*%
G04 #@! TD*
G04 #@! TA.AperFunction,ComponentPad*
%ADD12R,3.200000X2.000000*%
G04 #@! TD*
G04 #@! TA.AperFunction,ComponentPad*
%ADD13R,2.000000X2.000000*%
G04 #@! TD*
G04 #@! TA.AperFunction,ComponentPad*
%ADD14O,1.000000X1.600000*%
G04 #@! TD*
G04 #@! TA.AperFunction,ComponentPad*
%ADD15O,1.000000X2.100000*%
G04 #@! TD*
G04 #@! TA.AperFunction,SMDPad,CuDef*
%ADD16R,0.300000X1.450000*%
G04 #@! TD*
G04 #@! TA.AperFunction,SMDPad,CuDef*
%ADD17R,0.600000X1.450000*%
G04 #@! TD*
G04 #@! TA.AperFunction,ViaPad*
%ADD18C,0.800000*%
G04 #@! TD*
G04 #@! TA.AperFunction,Conductor*
%ADD19C,0.400000*%
G04 #@! TD*
G04 #@! TA.AperFunction,Conductor*
%ADD20C,0.250000*%
G04 #@! TD*
G04 #@! TA.AperFunction,Conductor*
%ADD21C,0.200000*%
G04 #@! TD*
G04 #@! TA.AperFunction,Conductor*
%ADD22C,0.254000*%
G04 #@! TD*
G04 #@! TA.AperFunction,Conductor*
%ADD23C,0.100000*%
G04 #@! TD*
G04 APERTURE END LIST*
D10*
X296690000Y88250000D03*
X1090000Y90020000D03*
X240000Y290000D03*
X309470000Y-3590000D03*
D11*
X133136887Y35392650D03*
X77258161Y3003314D03*
X219885384Y80385180D03*
X18906250Y7000000D03*
X162859822Y72980677D03*
X294750250Y11573500D03*
X93981649Y74572360D03*
X149396946Y-2325869D03*
X302349875Y47386750D03*
X17192000Y80200000D03*
X232647250Y16524999D03*
X301512250Y83200000D03*
X1152800Y54625000D03*
D10*
X309080000Y85700000D03*
X309080000Y80700000D03*
D12*
X316080000Y88800000D03*
X316080000Y77600000D03*
D10*
X323580000Y85700000D03*
X323580000Y83200000D03*
D13*
X323580000Y80700000D03*
D14*
X155310000Y93080000D03*
X163950000Y93080000D03*
D15*
X155310000Y88900000D03*
X163950000Y88900000D03*
D16*
X159880000Y87985000D03*
X159380000Y87985000D03*
X158880000Y87985000D03*
X160380000Y87985000D03*
X158380000Y87985000D03*
X160880000Y87985000D03*
X157880000Y87985000D03*
X161380000Y87985000D03*
D17*
X162080000Y87985000D03*
X157180000Y87985000D03*
X162855000Y87985000D03*
X156405000Y87985000D03*
D18*
X118000000Y43600000D03*
X118900000Y54900000D03*
X136950000Y50950000D03*
X132570000Y59170000D03*
X136100000Y63400000D03*
X132930000Y41390000D03*
X123170000Y59170000D03*
X131820000Y76870000D03*
X126750000Y62100000D03*
X154970000Y87130000D03*
X164101262Y87126262D03*
X123200000Y62100000D03*
X132720000Y74420000D03*
X319730000Y83200000D03*
X116900000Y51700000D03*
X138420000Y31110000D03*
X118850000Y53290000D03*
X17390000Y34560000D03*
X135580000Y54280000D03*
X128600000Y27200000D03*
X130970000Y63910000D03*
X132645000Y62245000D03*
X123190000Y38150000D03*
X140700000Y41120000D03*
X156725000Y86125000D03*
X162075000Y86150000D03*
X585000Y85685000D03*
X2875000Y66775000D03*
X2700000Y47750000D03*
X4600000Y28585000D03*
X-105000Y9520000D03*
X5190000Y53970000D03*
X165198819Y88378819D03*
X143019117Y78380883D03*
X141687367Y78172633D03*
X93650000Y3300000D03*
X93900000Y22450000D03*
X87100000Y42650000D03*
X85100000Y62200000D03*
X78300000Y82350000D03*
X86230000Y51320000D03*
X160450000Y84375000D03*
X157875000Y85100000D03*
X307970000Y56850000D03*
X296820000Y56850000D03*
X23735000Y9585000D03*
X35635000Y28580000D03*
X28805000Y47600000D03*
X26685000Y66685000D03*
X19625000Y85750000D03*
X27055000Y54795000D03*
X55950000Y8600000D03*
X56150000Y27800000D03*
X49400000Y47850000D03*
X47350000Y67500000D03*
X40600000Y87650000D03*
X49400000Y55180000D03*
X75100000Y25200000D03*
X68250000Y45400000D03*
X66200000Y64850000D03*
X59400000Y85000000D03*
X68250000Y53610000D03*
X139500000Y17600000D03*
X112750000Y19850000D03*
X106000000Y40000000D03*
X103950000Y59550000D03*
X97200000Y79700000D03*
X104840000Y50110000D03*
X163300000Y1700000D03*
X158300000Y20250000D03*
X146200000Y37800000D03*
X138850000Y55950000D03*
X116050000Y77050000D03*
X129250000Y70850000D03*
X138850000Y62190000D03*
X136350000Y70850000D03*
X177150000Y22900000D03*
X165050000Y40450000D03*
X157750000Y58650000D03*
X145650000Y76200000D03*
X145210000Y62190000D03*
X193950000Y6000000D03*
X196050000Y25550000D03*
X183900000Y43000000D03*
X176550000Y61300000D03*
X164500000Y78800000D03*
X180700000Y52250000D03*
X216000000Y9500000D03*
X216000000Y28600000D03*
X202850000Y45650000D03*
X195450000Y63950000D03*
X183400000Y81450000D03*
X199925000Y54675000D03*
X235100000Y9500000D03*
X235050000Y28500000D03*
X223150000Y47500000D03*
X216100000Y66750000D03*
X202250000Y84100000D03*
X221895000Y55055000D03*
X259100000Y4600000D03*
X254150000Y28550000D03*
X242200000Y47550000D03*
X235100000Y66700000D03*
X222650000Y85750000D03*
X241270000Y54630000D03*
X278150000Y4500000D03*
X278150000Y23650000D03*
X273200000Y47650000D03*
X254150000Y66650000D03*
X241800000Y85750000D03*
X273200000Y39700000D03*
X278000000Y66650000D03*
X260800000Y85750000D03*
X274785000Y73315000D03*
X143130000Y60530000D03*
X143130000Y63690000D03*
X297150000Y4500000D03*
X309050000Y43300000D03*
X309000000Y62300000D03*
X279850000Y85800000D03*
X301840000Y34180000D03*
X144180000Y66220000D03*
X144200000Y57023458D03*
X126910000Y60050000D03*
X135976150Y77383850D03*
X128500000Y60040000D03*
X136855249Y75474751D03*
D19*
X131810000Y76530000D02*
X131840000Y71710000D01*
X131840000Y71710000D02*
X125730000Y65460000D01*
X123170000Y59170000D02*
X125730000Y59170000D01*
X118000000Y54000000D02*
X118900000Y54900000D01*
X118000000Y43600000D02*
X118000000Y54000000D01*
X118900000Y54900000D02*
X123170000Y59170000D01*
X136900000Y51000000D02*
X136950000Y50950000D01*
X136900000Y58740000D02*
X136900000Y51000000D01*
X136470000Y59170000D02*
X136900000Y58740000D01*
X125730000Y59170000D02*
X132570000Y59170000D01*
X136100000Y59200000D02*
X136070000Y59170000D01*
X136100000Y63400000D02*
X136100000Y59200000D01*
X136070000Y59170000D02*
X136470000Y59170000D01*
X132570000Y59170000D02*
X136070000Y59170000D01*
X125730000Y65460000D02*
X125730000Y59170000D01*
X132930000Y40680000D02*
X132930000Y41390000D01*
X121065000Y39815000D02*
X132065000Y39815000D01*
X118000000Y42880000D02*
X121065000Y39815000D01*
X118000000Y43600000D02*
X118000000Y42880000D01*
X132065000Y39815000D02*
X132930000Y40680000D01*
X123170000Y59170000D02*
X123170000Y59170000D01*
X131810000Y76530000D02*
X131820000Y76870000D01*
X131820000Y76870000D02*
X131820000Y76870000D01*
X126750000Y62100000D02*
X126750000Y62100000D01*
X123200000Y62100000D02*
X123200000Y62100000D01*
X122250000Y61150000D02*
X122250000Y59850000D01*
X122250000Y59850000D02*
X116900000Y54500000D01*
X116900000Y54500000D02*
X116900000Y51700000D01*
X156405000Y87985000D02*
X156405000Y87080000D01*
X156405000Y87080000D02*
X155925000Y86650000D01*
X145286122Y84388878D02*
X132700000Y78650000D01*
X155110185Y86464815D02*
X154992414Y87192414D01*
X155925000Y86650000D02*
X155110185Y86464815D01*
X155110185Y86464815D02*
X154275000Y86275000D01*
X164101262Y87126262D02*
X162850000Y87125000D01*
X162850000Y87125000D02*
X162855000Y87985000D01*
X123200000Y62100000D02*
X122250000Y61150000D01*
X132750000Y74390000D02*
X132720000Y74420000D01*
X132750000Y71300000D02*
X132750000Y74390000D01*
X126800000Y65100000D02*
X132750000Y71300000D01*
X126750000Y62100000D02*
X126800000Y65100000D01*
D20*
X323580000Y83200000D02*
X319730000Y83200000D01*
X319730000Y83200000D02*
X319730000Y83200000D01*
D19*
X154275000Y86275000D02*
X152892898Y86057102D01*
X152892898Y86057102D02*
X148725000Y85400000D01*
X132700000Y78650000D02*
X132720000Y74420000D01*
X145286122Y84388878D02*
X146940644Y85089356D01*
X148725000Y85400000D02*
X146940644Y85089356D01*
X116900000Y51700000D02*
X116900000Y51700000D01*
D20*
X154275000Y88075000D02*
X154260000Y88090000D01*
X154275000Y86275000D02*
X154275000Y88075000D01*
X154260000Y88090000D02*
X154260000Y89850000D01*
X154260000Y89850000D02*
X154930000Y90520000D01*
X154930000Y90520000D02*
X155610000Y90520000D01*
X130970000Y63910000D02*
X132490000Y62390000D01*
X132490000Y62390000D02*
X132500000Y62390000D01*
X132500000Y62390000D02*
X132645000Y62245000D01*
X132645000Y62245000D02*
X132820000Y62070000D01*
X123190000Y38150000D02*
X124329990Y39289990D01*
X124329990Y39289990D02*
X138869990Y39289990D01*
X138869990Y39289990D02*
X140700000Y41120000D01*
X140700000Y41120000D02*
X140700000Y41120000D01*
D19*
X157180000Y87985000D02*
X157175000Y86975000D01*
X157175000Y86975000D02*
X156725000Y86125000D01*
X156725000Y86125000D02*
X156725000Y86125000D01*
X162080000Y87985000D02*
X162075000Y86150000D01*
X162075000Y86150000D02*
X162075000Y86150000D01*
D20*
X-105000Y12495000D02*
X-105000Y9520000D01*
X4585000Y17185000D02*
X-105000Y12495000D01*
X4585000Y28570000D02*
X4585000Y17185000D01*
X2875000Y79225000D02*
X2875000Y66775000D01*
X585000Y81515000D02*
X2875000Y79225000D01*
X585000Y85720000D02*
X585000Y85685000D01*
X585000Y85685000D02*
X585000Y81515000D01*
X4600000Y38050000D02*
X4600000Y28585000D01*
X5200000Y52800000D02*
X2700000Y50300000D01*
X5200000Y56350000D02*
X5200000Y54050000D01*
X2700000Y50300000D02*
X2700000Y47750000D01*
X2875000Y58675000D02*
X5200000Y56350000D01*
X2700000Y39950000D02*
X4600000Y38050000D01*
X2875000Y66775000D02*
X2875000Y58675000D01*
X2700000Y47750000D02*
X2700000Y39950000D01*
X4600000Y28585000D02*
X4600000Y28585000D01*
X-105000Y9520000D02*
X-105000Y9520000D01*
X5200000Y54050000D02*
X5200000Y52800000D01*
X165198819Y88378819D02*
X165198819Y82028819D01*
X162859822Y79689822D02*
X162859822Y72980677D01*
X165198819Y82028819D02*
X162859822Y79689822D01*
X159355001Y87960001D02*
X159380000Y87985000D01*
X160380000Y87730000D02*
X160355001Y87705001D01*
X160380000Y87985000D02*
X160380000Y87730000D01*
X159880002Y86525000D02*
X159355001Y87050001D01*
X159355001Y87050001D02*
X159355001Y87960001D01*
X160355001Y87705001D02*
X160355001Y86999999D01*
X160355001Y86999999D02*
X159880002Y86525000D01*
X142925000Y78175000D02*
X142925000Y78175000D01*
X143019117Y78380883D02*
X142925000Y78175000D01*
X143325000Y79050000D02*
X143019117Y78380883D01*
X157893200Y82975000D02*
X144950000Y81125000D01*
X159880002Y86525000D02*
X159880002Y84961802D01*
X159880002Y84961802D02*
X157893200Y82975000D01*
X144950000Y81125000D02*
X143325000Y79050000D01*
X158880000Y87830000D02*
X158875000Y87825000D01*
X158880000Y87985000D02*
X158880000Y87830000D01*
X158880000Y87985000D02*
X158900000Y89000000D01*
X158900000Y89000000D02*
X159250000Y89250000D01*
X159250000Y89250000D02*
X159500000Y89250000D01*
X159500000Y89250000D02*
X159875000Y89000000D01*
X159875000Y89000000D02*
X159880000Y87985000D01*
X158880000Y87985000D02*
X158880000Y86920000D01*
X159454992Y85173192D02*
X157706800Y83425000D01*
X158880000Y86920000D02*
X159454992Y86345008D01*
X143075000Y79475000D02*
X142335000Y79735000D01*
X157706800Y83425000D02*
X144750000Y81575000D01*
X144750000Y81575000D02*
X144650000Y81550000D01*
X159454992Y86345008D02*
X159454992Y85173192D01*
X142335000Y79735000D02*
X141687367Y78172633D01*
X143075000Y79475000D02*
X144650000Y81550000D01*
X78300000Y82350000D02*
X78300000Y72050000D01*
X85100000Y65250000D02*
X85100000Y62200000D01*
X78300000Y72050000D02*
X85100000Y65250000D01*
X85100000Y62200000D02*
X85100000Y52450000D01*
X87100000Y50450000D02*
X87100000Y42650000D01*
X85100000Y52450000D02*
X86230000Y51320000D01*
X87100000Y42650000D02*
X87100000Y35450000D01*
X93900000Y28650000D02*
X93900000Y22450000D01*
X87100000Y35450000D02*
X93900000Y28650000D01*
X93900000Y22450000D02*
X93900000Y12550000D01*
X93650000Y12300000D02*
X93650000Y3300000D01*
X93900000Y12550000D02*
X93650000Y12300000D01*
X86230000Y51320000D02*
X87100000Y50450000D01*
X160880000Y87985000D02*
X160875000Y86125000D01*
X160875000Y86125000D02*
X160450000Y85625000D01*
X160450000Y85625000D02*
X160450000Y84375000D01*
X157880000Y87985000D02*
X157875000Y85100000D01*
X157875000Y85100000D02*
X157875000Y85100000D01*
X296820000Y56850000D02*
X307970000Y56850000D01*
X19625000Y83025000D02*
X20950000Y81700000D01*
X20950000Y81700000D02*
X20950000Y74700000D01*
X26685000Y68965000D02*
X26685000Y66685000D01*
X20950000Y74700000D02*
X26685000Y68965000D01*
X26685000Y66680000D02*
X26685000Y55165000D01*
X28805000Y53045000D02*
X28805000Y47600000D01*
X26685000Y55165000D02*
X27055000Y54795000D01*
X28805000Y47600000D02*
X28805000Y41395000D01*
X35635000Y34565000D02*
X35635000Y28580000D01*
X28805000Y41395000D02*
X35635000Y34565000D01*
X35635000Y28580000D02*
X35635000Y25285000D01*
X23735000Y13385000D02*
X23735000Y9585000D01*
X35635000Y25285000D02*
X23735000Y13385000D01*
X19625000Y85750000D02*
X19625000Y83025000D01*
X27055000Y54795000D02*
X28805000Y53045000D01*
X40600000Y87650000D02*
X40600000Y79550000D01*
X47350000Y72800000D02*
X47350000Y67500000D01*
X40600000Y79550000D02*
X47350000Y72800000D01*
X47350000Y67500000D02*
X47350000Y58300000D01*
X49400000Y56250000D02*
X49400000Y55180000D01*
X47350000Y58300000D02*
X49400000Y56250000D01*
X49400000Y47850000D02*
X49400000Y38150000D01*
X56150000Y31400000D02*
X56150000Y27800000D01*
X49400000Y38150000D02*
X56150000Y31400000D01*
X56150000Y27800000D02*
X56150000Y18050000D01*
X55950000Y17850000D02*
X55950000Y8600000D01*
X56150000Y18050000D02*
X55950000Y17850000D01*
X49400000Y55180000D02*
X49400000Y47850000D01*
X59400000Y85000000D02*
X59400000Y76850000D01*
X66200000Y70050000D02*
X66200000Y64850000D01*
X59400000Y76850000D02*
X66200000Y70050000D01*
X66200000Y64850000D02*
X66200000Y55800000D01*
X68250000Y53750000D02*
X68250000Y53610000D01*
X66200000Y55800000D02*
X68250000Y53750000D01*
X68250000Y45400000D02*
X68250000Y36100000D01*
X75100000Y29250000D02*
X75100000Y25200000D01*
X68250000Y36100000D02*
X75100000Y29250000D01*
X68250000Y53610000D02*
X68250000Y45400000D01*
X103950000Y63050000D02*
X103950000Y59550000D01*
X98550000Y68450000D02*
X103950000Y63050000D01*
X98550000Y75000000D02*
X98550000Y68450000D01*
X97200000Y76350000D02*
X98550000Y75000000D01*
X97200000Y79700000D02*
X97200000Y76350000D01*
X103950000Y59550000D02*
X103950000Y51000000D01*
X106000000Y48950000D02*
X106000000Y40000000D01*
X103950000Y51000000D02*
X104840000Y50110000D01*
X106000000Y40000000D02*
X106000000Y32250000D01*
X112750000Y25500000D02*
X112750000Y19850000D01*
X106000000Y32250000D02*
X112750000Y25500000D01*
X112750000Y25500000D02*
X134200000Y25500000D01*
X139500000Y20200000D02*
X139500000Y17600000D01*
X134200000Y25500000D02*
X139500000Y20200000D01*
X104840000Y50110000D02*
X106000000Y48950000D01*
X116050000Y77050000D02*
X116050000Y74110435D01*
X116050000Y74110435D02*
X116050000Y73450000D01*
X116050000Y73450000D02*
X118650000Y70850000D01*
X118650000Y70850000D02*
X118650000Y70850000D01*
X146200000Y37800000D02*
X146200000Y35650000D01*
X158300000Y23550000D02*
X158300000Y20250000D01*
X146200000Y35650000D02*
X158300000Y23550000D01*
X158300000Y20250000D02*
X158300000Y15650000D01*
X163300000Y10650000D02*
X163300000Y1700000D01*
X158300000Y15650000D02*
X163300000Y10650000D01*
X138850000Y42690364D02*
X139690364Y41850000D01*
X138850000Y55950000D02*
X138850000Y42690364D01*
X139690364Y41850000D02*
X144900000Y41850000D01*
X146200000Y40550000D02*
X146200000Y37800000D01*
X144900000Y41850000D02*
X146200000Y40550000D01*
X118650000Y70850000D02*
X129250000Y70850000D01*
X129250000Y70850000D02*
X129250000Y70850000D01*
X138850000Y62190000D02*
X138850000Y55950000D01*
X136350000Y70850000D02*
X138790000Y68410000D01*
X138850000Y68350000D02*
X138790000Y68410000D01*
X138850000Y62190000D02*
X138850000Y68350000D01*
X157750000Y61550000D02*
X157750000Y58650000D01*
X145650000Y76200000D02*
X145650000Y73650000D01*
X157750000Y58650000D02*
X157750000Y53150000D01*
X165050000Y45850000D02*
X165050000Y40450000D01*
X157750000Y53150000D02*
X165050000Y45850000D01*
X165050000Y40450000D02*
X165050000Y37900000D01*
X177150000Y25800000D02*
X177150000Y22900000D01*
X165050000Y37900000D02*
X177150000Y25800000D01*
X155035000Y64265000D02*
X155035000Y64005000D01*
X145650000Y73650000D02*
X155035000Y64265000D01*
X155035000Y64265000D02*
X157750000Y61550000D01*
X155035000Y64005000D02*
X154160000Y63130000D01*
X154160000Y63130000D02*
X152740000Y63130000D01*
X152740000Y63130000D02*
X152030000Y62420000D01*
X152030000Y62420000D02*
X146030000Y62420000D01*
X146030000Y62420000D02*
X145470000Y62420000D01*
X145470000Y62420000D02*
X145440000Y62420000D01*
X145440000Y62420000D02*
X145210000Y62190000D01*
X164500000Y78800000D02*
X164500000Y76800000D01*
X176550000Y64750000D02*
X176550000Y61300000D01*
X164500000Y76800000D02*
X176550000Y64750000D01*
X176550000Y61300000D02*
X176550000Y56400000D01*
X183900000Y49050000D02*
X183900000Y43000000D01*
X176550000Y56400000D02*
X180700000Y52250000D01*
X183900000Y43000000D02*
X183900000Y40200000D01*
X196050000Y28050000D02*
X196050000Y25550000D01*
X183900000Y40200000D02*
X196050000Y28050000D01*
X196050000Y25550000D02*
X196050000Y17850000D01*
X193950000Y15750000D02*
X193950000Y6000000D01*
X196050000Y17850000D02*
X193950000Y15750000D01*
X180700000Y52250000D02*
X183900000Y49050000D01*
X183400000Y81450000D02*
X183400000Y79000000D01*
X195450000Y66950000D02*
X195450000Y63950000D01*
X183400000Y79000000D02*
X195450000Y66950000D01*
X195450000Y63950000D02*
X195450000Y59150000D01*
X202850000Y51750000D02*
X202850000Y45650000D01*
X195450000Y59150000D02*
X199925000Y54675000D01*
X202850000Y45650000D02*
X202850000Y43600000D01*
X216000000Y30450000D02*
X216000000Y28600000D01*
X202850000Y43600000D02*
X216000000Y30450000D01*
X216000000Y28600000D02*
X216000000Y9500000D01*
X199925000Y54675000D02*
X202850000Y51750000D01*
X202250000Y84100000D02*
X202250000Y82050000D01*
X216100000Y68200000D02*
X216100000Y66750000D01*
X202250000Y82050000D02*
X216100000Y68200000D01*
X216100000Y66750000D02*
X216100000Y60850000D01*
X223150000Y53800000D02*
X223150000Y47500000D01*
X216100000Y60850000D02*
X221895000Y55055000D01*
X223150000Y47500000D02*
X223150000Y44650000D01*
X235050000Y32750000D02*
X235050000Y28500000D01*
X223150000Y44650000D02*
X235050000Y32750000D01*
X235050000Y28500000D02*
X235050000Y20050000D01*
X235050000Y20050000D02*
X236800000Y18300000D01*
X236800000Y18300000D02*
X236800000Y14600000D01*
X235100000Y12900000D02*
X235100000Y9500000D01*
X236800000Y14600000D02*
X235100000Y12900000D01*
X221895000Y55055000D02*
X223150000Y53800000D01*
X222650000Y85750000D02*
X222650000Y83050000D01*
X235100000Y70600000D02*
X235100000Y66700000D01*
X222650000Y83050000D02*
X235100000Y70600000D01*
X235100000Y66700000D02*
X235100000Y60800000D01*
X242200000Y53700000D02*
X242200000Y47550000D01*
X235100000Y60800000D02*
X241270000Y54630000D01*
X242200000Y47550000D02*
X242200000Y44250000D01*
X254150000Y32300000D02*
X254150000Y28550000D01*
X242200000Y44250000D02*
X254150000Y32300000D01*
X254150000Y28550000D02*
X254150000Y19950000D01*
X259100000Y15000000D02*
X259100000Y4600000D01*
X254150000Y19950000D02*
X259100000Y15000000D01*
X241270000Y54630000D02*
X242200000Y53700000D01*
X241800000Y85750000D02*
X241800000Y82850000D01*
X241800000Y82850000D02*
X254050000Y70600000D01*
X254050000Y66750000D02*
X254150000Y66650000D01*
X254050000Y70600000D02*
X254050000Y66750000D01*
X273200000Y50700000D02*
X273200000Y47650000D01*
X269450000Y54450000D02*
X273200000Y50700000D01*
X263227978Y54450000D02*
X269450000Y54450000D01*
X254150000Y63527978D02*
X263227978Y54450000D01*
X254150000Y66650000D02*
X254150000Y63527978D01*
X273200000Y47650000D02*
X273200000Y39700000D01*
X278150000Y33700000D02*
X278150000Y23650000D01*
X273200000Y38650000D02*
X278150000Y33700000D01*
X278150000Y23650000D02*
X278150000Y4500000D01*
X273200000Y39700000D02*
X273200000Y38650000D01*
X260800000Y85750000D02*
X260800000Y82950000D01*
X260800000Y82950000D02*
X267900000Y75850000D01*
X267900000Y75850000D02*
X272250000Y75850000D01*
X278000000Y70100000D02*
X278000000Y66650000D01*
X272250000Y75850000D02*
X274785000Y73315000D01*
X274785000Y73315000D02*
X278000000Y70100000D01*
X143130000Y60530000D02*
X143130000Y63690000D01*
X309080000Y85700000D02*
X311350000Y83430000D01*
X311350000Y83430000D02*
X311350000Y68350000D01*
X309000000Y66000000D02*
X309000000Y62300000D01*
X311350000Y68350000D02*
X309000000Y66000000D01*
X309000000Y43350000D02*
X309050000Y43300000D01*
X309000000Y62300000D02*
X309000000Y43350000D01*
X298750000Y9800000D02*
X297150000Y8200000D01*
X298750000Y13250000D02*
X298750000Y9800000D01*
X296250000Y15750000D02*
X298750000Y13250000D01*
X296250000Y27500000D02*
X296250000Y15750000D01*
X297150000Y8200000D02*
X297150000Y4500000D01*
X309050000Y43300000D02*
X309050000Y40300000D01*
X297285248Y66000000D02*
X309000000Y66000000D01*
X279850000Y83435248D02*
X297285248Y66000000D01*
X279850000Y85800000D02*
X279850000Y83435248D01*
X302930000Y34180000D02*
X302965000Y34215000D01*
X301840000Y34180000D02*
X302930000Y34180000D01*
X302965000Y34215000D02*
X296250000Y27500000D01*
X309050000Y40300000D02*
X302965000Y34215000D01*
X144200000Y66200000D02*
X144180000Y66220000D01*
X144200000Y57023458D02*
X144200000Y66200000D01*
D21*
X126910000Y60050000D02*
X126910000Y60050000D01*
D20*
X134732638Y76817362D02*
X135976150Y77383850D01*
X134730000Y70208200D02*
X134730000Y76573200D01*
X127485000Y62963200D02*
X134730000Y70208200D01*
X127485000Y60625000D02*
X127485000Y62963200D01*
X126910000Y60050000D02*
X127485000Y60625000D01*
X134730000Y76573200D02*
X134732638Y76817362D01*
D21*
X128500000Y60040000D02*
X128500000Y60040000D01*
D20*
X135200000Y74725000D02*
X136855249Y75474751D01*
X135200000Y73425000D02*
X135200000Y74725000D01*
X135210000Y70051800D02*
X135200000Y73425000D01*
X133413656Y68255456D02*
X135210000Y70051800D01*
X133371770Y68202933D02*
X133413656Y68255456D01*
X133342622Y68142407D02*
X133371770Y68202933D01*
X133327673Y68076913D02*
X133342622Y68142407D01*
X133327673Y68009734D02*
X133327673Y68076913D01*
X132718473Y66669577D02*
X132718473Y66736756D01*
X132632492Y66491035D02*
X132674377Y66543557D01*
X132494094Y67095711D02*
X132479145Y67161206D01*
X133567001Y67518105D02*
X133567001Y67585284D01*
X132386771Y66405053D02*
X132453950Y66405053D01*
X132674377Y66862776D02*
X132632492Y66915299D01*
X132321276Y66420002D02*
X132386771Y66405053D01*
X132579970Y66449150D02*
X132632492Y66491035D01*
X128500000Y60040000D02*
X127935000Y60605000D01*
X132674377Y66543557D02*
X132703524Y66604083D01*
X127935000Y60605000D02*
X127935000Y62776800D01*
X127935000Y62776800D02*
X131716600Y66558400D01*
X131716600Y66558400D02*
X131769122Y66600285D01*
X131769122Y66600285D02*
X131829648Y66629432D01*
X131829648Y66629432D02*
X131895142Y66644381D01*
X132632492Y66915299D02*
X132565127Y66982663D01*
X131895142Y66644381D02*
X131962321Y66644381D01*
X132523242Y67035186D02*
X132494094Y67095711D01*
X133371770Y67883714D02*
X133342622Y67944239D01*
X131962321Y66644381D02*
X132027815Y66629432D01*
X132565127Y66982663D02*
X132523242Y67035186D01*
X133413655Y67831191D02*
X133371770Y67883714D01*
X132027815Y66629432D02*
X132088341Y66600285D01*
X132718473Y66736756D02*
X132703524Y66802250D01*
X132088341Y66600285D02*
X132140864Y66558400D01*
X132140864Y66558400D02*
X132208228Y66491035D01*
X132703524Y66802250D02*
X132674377Y66862776D01*
X132208228Y66491035D02*
X132260751Y66449150D01*
X132703524Y66604083D02*
X132718473Y66669577D01*
X132260751Y66449150D02*
X132321276Y66420002D01*
X132479145Y67161206D02*
X132479145Y67228385D01*
X133342622Y67944239D02*
X133327673Y68009734D01*
X132479145Y67228385D02*
X132494094Y67293879D01*
X133552052Y67650778D02*
X133522905Y67711304D01*
X132494094Y67293879D02*
X132523242Y67354405D01*
X133567001Y67585284D02*
X133552052Y67650778D01*
X132523242Y67354405D02*
X132565128Y67406928D01*
X132565128Y67406928D02*
X132617650Y67448813D01*
X133481020Y67763827D02*
X133413655Y67831191D01*
X132617650Y67448813D02*
X132678176Y67477960D01*
X132678176Y67477960D02*
X132743670Y67492909D01*
X132743670Y67492909D02*
X132810849Y67492909D01*
X132810849Y67492909D02*
X132876343Y67477960D01*
X133522905Y67711304D02*
X133481020Y67763827D01*
X132453950Y66405053D02*
X132519444Y66420002D01*
X132876343Y67477960D02*
X132936869Y67448813D01*
X132936869Y67448813D02*
X132989392Y67406928D01*
X132989392Y67406928D02*
X133056756Y67339563D01*
X133056756Y67339563D02*
X133109279Y67297678D01*
X133109279Y67297678D02*
X133169804Y67268530D01*
X133169804Y67268530D02*
X133235299Y67253581D01*
X133235299Y67253581D02*
X133302478Y67253581D01*
X133302478Y67253581D02*
X133367972Y67268530D01*
X132519444Y66420002D02*
X132579970Y66449150D01*
X133367972Y67268530D02*
X133428498Y67297678D01*
X133428498Y67297678D02*
X133481020Y67339563D01*
X133481020Y67339563D02*
X133522905Y67392085D01*
X133522905Y67392085D02*
X133552052Y67452611D01*
X133552052Y67452611D02*
X133567001Y67518105D01*
D22*
X163043004Y93755691D02*
X162987137Y93571525D01*
X162973000Y93427993D01*
X162973000Y92732008D01*
X162987137Y92588476D01*
X163043003Y92404310D01*
X163133724Y92234582D01*
X163255814Y92085814D01*
X163404582Y91963724D01*
X163574309Y91873003D01*
X163758475Y91817137D01*
X163950000Y91798273D01*
X163965486Y91799798D01*
X163988350Y90427950D01*
X163950000Y90431727D01*
X163758476Y90412863D01*
X163574310Y90356997D01*
X163404583Y90266276D01*
X163255815Y90144186D01*
X163133725Y89995418D01*
X163118070Y89966129D01*
X163031245Y90052954D01*
X162899890Y90140724D01*
X162753935Y90201180D01*
X162598990Y90232000D01*
X162441010Y90232000D01*
X162286065Y90201180D01*
X162140110Y90140724D01*
X162008755Y90052954D01*
X161897046Y89941245D01*
X161809276Y89809890D01*
X161748820Y89663935D01*
X161718000Y89508990D01*
X161718000Y89351010D01*
X161748820Y89196065D01*
X161752732Y89186621D01*
X161686492Y89180097D01*
X161655000Y89170544D01*
X161623508Y89180097D01*
X161530000Y89189307D01*
X161230000Y89189307D01*
X161136492Y89180097D01*
X161130000Y89178128D01*
X161123508Y89180097D01*
X161030000Y89189307D01*
X160730000Y89189307D01*
X160636492Y89180097D01*
X160630000Y89178128D01*
X160623508Y89180097D01*
X160530000Y89189307D01*
X160446645Y89189307D01*
X160433623Y89232075D01*
X160433065Y89233117D01*
X160432718Y89234240D01*
X160405135Y89285238D01*
X160377614Y89336597D01*
X160376864Y89337510D01*
X160376304Y89338544D01*
X160339314Y89383166D01*
X160302289Y89428184D01*
X160301374Y89428933D01*
X160300624Y89429838D01*
X160255491Y89466508D01*
X160233529Y89484493D01*
X160232560Y89485139D01*
X160208589Y89504615D01*
X160183347Y89517947D01*
X159858796Y89734316D01*
X159836071Y89752966D01*
X159809586Y89767122D01*
X159809329Y89767294D01*
X159784086Y89780753D01*
X159731490Y89808866D01*
X159731181Y89808960D01*
X159730905Y89809107D01*
X159674956Y89826015D01*
X159618012Y89843289D01*
X159617695Y89843320D01*
X159617391Y89843412D01*
X159559015Y89849100D01*
X159529566Y89852000D01*
X159529246Y89852000D01*
X159499368Y89854911D01*
X159470127Y89852000D01*
X159270140Y89852000D01*
X159231128Y89854617D01*
X159181662Y89848181D01*
X159131988Y89843289D01*
X159122924Y89840539D01*
X159113536Y89839318D01*
X159066267Y89823353D01*
X159018510Y89808866D01*
X159010159Y89804402D01*
X159001187Y89801372D01*
X158957935Y89776488D01*
X158913929Y89752966D01*
X158883695Y89728153D01*
X158586675Y89515996D01*
X158573903Y89509489D01*
X158538527Y89481604D01*
X158526036Y89472682D01*
X158515298Y89463294D01*
X158480773Y89436080D01*
X158470752Y89424349D01*
X158459128Y89414186D01*
X158432301Y89379335D01*
X158403753Y89345914D01*
X158396212Y89332450D01*
X158386795Y89320217D01*
X158367291Y89280818D01*
X158345803Y89242455D01*
X158341031Y89227771D01*
X158334185Y89213942D01*
X158327544Y89189307D01*
X158230000Y89189307D01*
X158136492Y89180097D01*
X158130000Y89178128D01*
X158123508Y89180097D01*
X158030000Y89189307D01*
X157730000Y89189307D01*
X157636492Y89180097D01*
X157605000Y89170544D01*
X157573508Y89180097D01*
X157507268Y89186621D01*
X157511180Y89196065D01*
X157542000Y89351010D01*
X157542000Y89508990D01*
X157511180Y89663935D01*
X157450724Y89809890D01*
X157362954Y89941245D01*
X157251245Y90052954D01*
X157119890Y90140724D01*
X156973935Y90201180D01*
X156818990Y90232000D01*
X156661010Y90232000D01*
X156506065Y90201180D01*
X156360110Y90140724D01*
X156228755Y90052954D01*
X156141931Y89966130D01*
X156126276Y89995418D01*
X156004186Y90144186D01*
X155855418Y90266276D01*
X155685691Y90356997D01*
X155501525Y90412863D01*
X155310000Y90431727D01*
X155277000Y90428477D01*
X155277000Y91801523D01*
X155310000Y91798273D01*
X155501524Y91817137D01*
X155685690Y91873003D01*
X155855418Y91963724D01*
X156004186Y92085814D01*
X156126276Y92234582D01*
X156216997Y92404309D01*
X156272863Y92588475D01*
X156287000Y92732007D01*
X156287000Y93427992D01*
X156272863Y93571524D01*
X156216997Y93755691D01*
X156188369Y93809251D01*
X163071632Y93809251D01*
X163043004Y93755691D01*
G04 #@! TA.AperFunction,Conductor*
D23*
G36*
X163043004Y93755691D02*
G01*
X162987137Y93571525D01*
X162973000Y93427993D01*
X162973000Y92732008D01*
X162987137Y92588476D01*
X163043003Y92404310D01*
X163133724Y92234582D01*
X163255814Y92085814D01*
X163404582Y91963724D01*
X163574309Y91873003D01*
X163758475Y91817137D01*
X163950000Y91798273D01*
X163965486Y91799798D01*
X163988350Y90427950D01*
X163950000Y90431727D01*
X163758476Y90412863D01*
X163574310Y90356997D01*
X163404583Y90266276D01*
X163255815Y90144186D01*
X163133725Y89995418D01*
X163118070Y89966129D01*
X163031245Y90052954D01*
X162899890Y90140724D01*
X162753935Y90201180D01*
X162598990Y90232000D01*
X162441010Y90232000D01*
X162286065Y90201180D01*
X162140110Y90140724D01*
X162008755Y90052954D01*
X161897046Y89941245D01*
X161809276Y89809890D01*
X161748820Y89663935D01*
X161718000Y89508990D01*
X161718000Y89351010D01*
X161748820Y89196065D01*
X161752732Y89186621D01*
X161686492Y89180097D01*
X161655000Y89170544D01*
X161623508Y89180097D01*
X161530000Y89189307D01*
X161230000Y89189307D01*
X161136492Y89180097D01*
X161130000Y89178128D01*
X161123508Y89180097D01*
X161030000Y89189307D01*
X160730000Y89189307D01*
X160636492Y89180097D01*
X160630000Y89178128D01*
X160623508Y89180097D01*
X160530000Y89189307D01*
X160446645Y89189307D01*
X160433623Y89232075D01*
X160433065Y89233117D01*
X160432718Y89234240D01*
X160405135Y89285238D01*
X160377614Y89336597D01*
X160376864Y89337510D01*
X160376304Y89338544D01*
X160339314Y89383166D01*
X160302289Y89428184D01*
X160301374Y89428933D01*
X160300624Y89429838D01*
X160255491Y89466508D01*
X160233529Y89484493D01*
X160232560Y89485139D01*
X160208589Y89504615D01*
X160183347Y89517947D01*
X159858796Y89734316D01*
X159836071Y89752966D01*
X159809586Y89767122D01*
X159809329Y89767294D01*
X159784086Y89780753D01*
X159731490Y89808866D01*
X159731181Y89808960D01*
X159730905Y89809107D01*
X159674956Y89826015D01*
X159618012Y89843289D01*
X159617695Y89843320D01*
X159617391Y89843412D01*
X159559015Y89849100D01*
X159529566Y89852000D01*
X159529246Y89852000D01*
X159499368Y89854911D01*
X159470127Y89852000D01*
X159270140Y89852000D01*
X159231128Y89854617D01*
X159181662Y89848181D01*
X159131988Y89843289D01*
X159122924Y89840539D01*
X159113536Y89839318D01*
X159066267Y89823353D01*
X159018510Y89808866D01*
X159010159Y89804402D01*
X159001187Y89801372D01*
X158957935Y89776488D01*
X158913929Y89752966D01*
X158883695Y89728153D01*
X158586675Y89515996D01*
X158573903Y89509489D01*
X158538527Y89481604D01*
X158526036Y89472682D01*
X158515298Y89463294D01*
X158480773Y89436080D01*
X158470752Y89424349D01*
X158459128Y89414186D01*
X158432301Y89379335D01*
X158403753Y89345914D01*
X158396212Y89332450D01*
X158386795Y89320217D01*
X158367291Y89280818D01*
X158345803Y89242455D01*
X158341031Y89227771D01*
X158334185Y89213942D01*
X158327544Y89189307D01*
X158230000Y89189307D01*
X158136492Y89180097D01*
X158130000Y89178128D01*
X158123508Y89180097D01*
X158030000Y89189307D01*
X157730000Y89189307D01*
X157636492Y89180097D01*
X157605000Y89170544D01*
X157573508Y89180097D01*
X157507268Y89186621D01*
X157511180Y89196065D01*
X157542000Y89351010D01*
X157542000Y89508990D01*
X157511180Y89663935D01*
X157450724Y89809890D01*
X157362954Y89941245D01*
X157251245Y90052954D01*
X157119890Y90140724D01*
X156973935Y90201180D01*
X156818990Y90232000D01*
X156661010Y90232000D01*
X156506065Y90201180D01*
X156360110Y90140724D01*
X156228755Y90052954D01*
X156141931Y89966130D01*
X156126276Y89995418D01*
X156004186Y90144186D01*
X155855418Y90266276D01*
X155685691Y90356997D01*
X155501525Y90412863D01*
X155310000Y90431727D01*
X155277000Y90428477D01*
X155277000Y91801523D01*
X155310000Y91798273D01*
X155501524Y91817137D01*
X155685690Y91873003D01*
X155855418Y91963724D01*
X156004186Y92085814D01*
X156126276Y92234582D01*
X156216997Y92404309D01*
X156272863Y92588475D01*
X156287000Y92732007D01*
X156287000Y93427992D01*
X156272863Y93571524D01*
X156216997Y93755691D01*
X156188369Y93809251D01*
X163071632Y93809251D01*
X163043004Y93755691D01*
G37*
G04 #@! TD.AperFunction*
M02*
