%FSLAX45Y45*%
G04 Gerber Fmt 4.5, Leading zero omitted, Abs format (unit mm)*
G04 Created by KiCad (PCBNEW (5.1.9)-1) date 2021-06-30 09:07:26*
%MOMM*%
%LPD*%
G01*
G04 APERTURE LIST*
%TA.AperFunction,Profile*%
%ADD10C,0.100000*%
%TD*%
%ADD11C,0.200000*%
%ADD12C,0.300000*%
G04 APERTURE END LIST*
D10*
X-350000Y1705000D02*
X-200000Y1555000D01*
X16676077Y8908506D02*
G75*
G02*
X16495700Y9183625I119623J275119D01*
G01*
X17196080Y8682408D02*
X16676077Y8908506D01*
X17357454Y8660446D02*
G75*
G02*
X17196080Y8682408I-41752J297080D01*
G01*
X21611421Y9258303D02*
X17357454Y8660446D01*
X21611421Y9258303D02*
G75*
G02*
X21734021Y9220000I20876J-148540D01*
G01*
X29562946Y9220000D02*
X21734021Y9220000D01*
X29562946Y9220000D02*
G75*
G02*
X29683139Y9159742I0J-150000D01*
G01*
X30724811Y9159742D02*
G75*
G02*
X29683139Y9159742I-520836J388883D01*
G01*
X30724811Y9159742D02*
G75*
G02*
X30845004Y9220000I120193J-89742D01*
G01*
X31882446Y9220000D02*
X30845004Y9220000D01*
X31882446Y9220000D02*
G75*
G02*
X32002639Y9159742I0J-150000D01*
G01*
X32389412Y8912601D02*
G75*
G02*
X32002639Y9159742I134063J636025D01*
G01*
X32389412Y8912601D02*
G75*
G02*
X32508475Y8765826I-30938J-146775D01*
G01*
X32508475Y3021850D02*
X32508475Y8765826D01*
X32508475Y3021850D02*
G75*
G02*
X32358475Y2871850I-150000J0D01*
G01*
X30022525Y2871850D02*
X32358475Y2871850D01*
X29722525Y2571850D02*
G75*
G02*
X30022525Y2871850I300000J0D01*
G01*
X29722525Y1704850D02*
X29722525Y2571850D01*
X30022525Y1404850D02*
G75*
G02*
X29722525Y1704850I0J300000D01*
G01*
X31177525Y1404850D02*
X30022525Y1404850D01*
X31177525Y1404850D02*
G75*
G02*
X31327525Y1254850I0J-150000D01*
G01*
X31327525Y-545150D02*
X31327525Y1254850D01*
X31327525Y-545150D02*
G75*
G02*
X31177525Y-695150I-150000J0D01*
G01*
X25867525Y-695150D02*
X31177525Y-695150D01*
X25867525Y-695150D02*
G75*
G02*
X25717525Y-545150I0J150000D01*
G01*
X25717525Y-200000D02*
X25717525Y-545150D01*
X21134093Y-200000D02*
X25717525Y-200000D01*
X21134093Y-200000D02*
G75*
G02*
X21005244Y-339466I-149725J9075D01*
G01*
X15365651Y-1132059D02*
X21005244Y-339466D01*
X15365651Y-1132059D02*
G75*
G02*
X15344775Y-1133519I-20876J148540D01*
G01*
X14685254Y-1133519D02*
X15344775Y-1133519D01*
X14685254Y-1133519D02*
G75*
G02*
X14535254Y-983519I0J150000D01*
G01*
X14535254Y-327779D02*
X14535254Y-983519D01*
X13035254Y-327779D02*
G75*
G02*
X14535254Y-327779I750000J0D01*
G01*
X13035254Y-327779D02*
X13035254Y-983519D01*
X13035254Y-983519D02*
G75*
G02*
X12885254Y-1133519I-150000J0D01*
G01*
X11471914Y-1133519D02*
X12885254Y-1133519D01*
X11471914Y-1133519D02*
G75*
G02*
X11451038Y-1132059I0J150000D01*
G01*
X5029602Y-229585D02*
X11451038Y-1132059D01*
X5029602Y-229585D02*
G75*
G02*
X4901937Y-60169I20876J148540D01*
G01*
X4901937Y-60169D02*
X5128790Y1553968D01*
X5128790Y1553968D02*
X4943563Y1580000D01*
X4943563Y1580000D02*
X4344375Y1580000D01*
X4344375Y1580000D02*
X4344375Y-50000D01*
X4344375Y-50000D02*
G75*
G02*
X4194375Y-200000I-150000J0D01*
G01*
X-50000Y-200000D02*
X4194375Y-200000D01*
X-50000Y-200000D02*
G75*
G02*
X-200000Y-50000I0J150000D01*
G01*
X-200000Y1555000D02*
X-200000Y-50000D01*
X-427075Y1705000D02*
X-350000Y1705000D01*
X-427075Y1705000D02*
G75*
G02*
X-577075Y1855000I0J150000D01*
G01*
X-577075Y3359802D02*
X-577075Y1855000D01*
X-577075Y3359802D02*
G75*
G02*
X-464725Y3505000I150000J0D01*
G01*
X-464725Y5275423D02*
X-464725Y3505000D01*
X-464725Y5275423D02*
G75*
G02*
X-380975Y5410000I150000J0D01*
G01*
X-380975Y7165000D02*
X-380975Y5410000D01*
X-380975Y7165000D02*
G75*
G02*
X-230975Y7315000I150000J0D01*
G01*
X-133325Y7315000D02*
X-230975Y7315000D01*
X-133325Y9070000D02*
X-133325Y7315000D01*
X-133325Y9070000D02*
G75*
G02*
X16675Y9220000I150000J0D01*
G01*
X3927757Y9220000D02*
X16675Y9220000D01*
X3936904Y9285085D02*
X3927757Y9220000D01*
X3936904Y9285085D02*
G75*
G02*
X4106320Y9412749I148540J-20876D01*
G01*
X13324561Y8117210D02*
X4106320Y9412749D01*
X13485936Y8139171D02*
G75*
G02*
X13324561Y8117210I-119623J275119D01*
G01*
X15255322Y8908506D02*
X13485936Y8139171D01*
X15435700Y9183625D02*
G75*
G02*
X15255322Y8908506I-300000J0D01*
G01*
X15435700Y9333625D02*
X15435700Y9183625D01*
X15435700Y9333625D02*
G75*
G02*
X15535700Y9433625I100000J0D01*
G01*
X16395700Y9433625D02*
X15535700Y9433625D01*
X16395700Y9433625D02*
G75*
G02*
X16495700Y9333625I0J-100000D01*
G01*
X16495700Y9183625D02*
X16495700Y9333625D01*
D11*
X15641500Y8975500D02*
X15706500Y8910500D01*
X15706500Y8975500D02*
X15641500Y8910500D01*
X16219500Y8975500D02*
X16284500Y8910500D01*
X16284500Y8975500D02*
X16219500Y8910500D01*
X277500Y698000D02*
G75*
G03*
X277500Y698000I-87500J0D01*
G01*
X346500Y8318000D02*
G75*
G03*
X346500Y8318000I-87500J0D01*
G01*
X545500Y4508000D02*
G75*
G03*
X545500Y4508000I-87500J0D01*
G01*
X575500Y6414000D02*
G75*
G03*
X575500Y6414000I-87500J0D01*
G01*
X746500Y2603000D02*
G75*
G03*
X746500Y2603000I-87500J0D01*
G01*
X1293500Y698000D02*
G75*
G03*
X1293500Y698000I-87500J0D01*
G01*
X1362500Y8318000D02*
G75*
G03*
X1362500Y8318000I-87500J0D01*
G01*
X1561500Y4508000D02*
G75*
G03*
X1561500Y4508000I-87500J0D01*
G01*
X1591500Y6414000D02*
G75*
G03*
X1591500Y6414000I-87500J0D01*
G01*
X1762500Y2603000D02*
G75*
G03*
X1762500Y2603000I-87500J0D01*
G01*
X2250500Y8321000D02*
G75*
G03*
X2250500Y8321000I-87500J0D01*
G01*
X2661500Y700000D02*
G75*
G03*
X2661500Y700000I-87500J0D01*
G01*
X2956500Y6414000D02*
G75*
G03*
X2956500Y6414000I-87500J0D01*
G01*
X3168500Y4506000D02*
G75*
G03*
X3168500Y4506000I-87500J0D01*
G01*
X3266500Y8321000D02*
G75*
G03*
X3266500Y8321000I-87500J0D01*
G01*
X3677500Y700000D02*
G75*
G03*
X3677500Y700000I-87500J0D01*
G01*
X3851500Y2604000D02*
G75*
G03*
X3851500Y2604000I-87500J0D01*
G01*
X3972500Y6414000D02*
G75*
G03*
X3972500Y6414000I-87500J0D01*
G01*
X4184500Y4506000D02*
G75*
G03*
X4184500Y4506000I-87500J0D01*
G01*
X4308444Y8486700D02*
G75*
G03*
X4308444Y8486700I-87500J0D01*
G01*
X4867500Y2604000D02*
G75*
G03*
X4867500Y2604000I-87500J0D01*
G01*
X4984830Y6468019D02*
G75*
G03*
X4984830Y6468019I-87500J0D01*
G01*
X5191320Y4515278D02*
G75*
G03*
X5191320Y4515278I-87500J0D01*
G01*
X5314556Y8345300D02*
G75*
G03*
X5314556Y8345300I-87500J0D01*
G01*
X5840109Y576653D02*
G75*
G03*
X5840109Y576653I-87500J0D01*
G01*
X5869426Y2496255D02*
G75*
G03*
X5869426Y2496255I-87500J0D01*
G01*
X5990942Y6326620D02*
G75*
G03*
X5990942Y6326620I-87500J0D01*
G01*
X6195444Y8222700D02*
G75*
G03*
X6195444Y8222700I-87500J0D01*
G01*
X6197433Y4373878D02*
G75*
G03*
X6197433Y4373878I-87500J0D01*
G01*
X6846221Y435253D02*
G75*
G03*
X6846221Y435253I-87500J0D01*
G01*
X6871290Y6202895D02*
G75*
G03*
X6871290Y6202895I-87500J0D01*
G01*
X6875538Y2354855D02*
G75*
G03*
X6875538Y2354855I-87500J0D01*
G01*
X7077781Y4250153D02*
G75*
G03*
X7077781Y4250153I-87500J0D01*
G01*
X7201556Y8081300D02*
G75*
G03*
X7201556Y8081300I-87500J0D01*
G01*
X7755886Y2231130D02*
G75*
G03*
X7755886Y2231130I-87500J0D01*
G01*
X7877403Y6061495D02*
G75*
G03*
X7877403Y6061495I-87500J0D01*
G01*
X8080444Y7957700D02*
G75*
G03*
X8080444Y7957700I-87500J0D01*
G01*
X8083893Y4108753D02*
G75*
G03*
X8083893Y4108753I-87500J0D01*
G01*
X8757751Y5937770D02*
G75*
G03*
X8757751Y5937770I-87500J0D01*
G01*
X8761999Y2089730D02*
G75*
G03*
X8761999Y2089730I-87500J0D01*
G01*
X8964242Y3985028D02*
G75*
G03*
X8964242Y3985028I-87500J0D01*
G01*
X9086556Y7816300D02*
G75*
G03*
X9086556Y7816300I-87500J0D01*
G01*
X9613030Y46404D02*
G75*
G03*
X9613030Y46404I-87500J0D01*
G01*
X9642347Y1966005D02*
G75*
G03*
X9642347Y1966005I-87500J0D01*
G01*
X9763864Y5796370D02*
G75*
G03*
X9763864Y5796370I-87500J0D01*
G01*
X9968444Y7691700D02*
G75*
G03*
X9968444Y7691700I-87500J0D01*
G01*
X9970354Y3843628D02*
G75*
G03*
X9970354Y3843628I-87500J0D01*
G01*
X10619142Y-94996D02*
G75*
G03*
X10619142Y-94996I-87500J0D01*
G01*
X10644212Y5672645D02*
G75*
G03*
X10644212Y5672645I-87500J0D01*
G01*
X10648460Y1824605D02*
G75*
G03*
X10648460Y1824605I-87500J0D01*
G01*
X10850702Y3719903D02*
G75*
G03*
X10850702Y3719903I-87500J0D01*
G01*
X10974556Y7550300D02*
G75*
G03*
X10974556Y7550300I-87500J0D01*
G01*
X11528808Y1700880D02*
G75*
G03*
X11528808Y1700880I-87500J0D01*
G01*
X11650324Y5531245D02*
G75*
G03*
X11650324Y5531245I-87500J0D01*
G01*
X11853444Y7427700D02*
G75*
G03*
X11853444Y7427700I-87500J0D01*
G01*
X11856815Y3578504D02*
G75*
G03*
X11856815Y3578504I-87500J0D01*
G01*
X12534920Y1559480D02*
G75*
G03*
X12534920Y1559480I-87500J0D01*
G01*
X12859556Y7286300D02*
G75*
G03*
X12859556Y7286300I-87500J0D01*
G01*
X14206445Y5373683D02*
G75*
G03*
X14206445Y5373683I-87500J0D01*
G01*
X14265080Y1534480D02*
G75*
G03*
X14265080Y1534480I-87500J0D01*
G01*
X14884551Y7392706D02*
G75*
G03*
X14884551Y7392706I-87500J0D01*
G01*
X14943185Y3553504D02*
G75*
G03*
X14943185Y3553504I-87500J0D01*
G01*
X15212558Y5515083D02*
G75*
G03*
X15212558Y5515083I-87500J0D01*
G01*
X15271192Y1675880D02*
G75*
G03*
X15271192Y1675880I-87500J0D01*
G01*
X15890663Y7534106D02*
G75*
G03*
X15890663Y7534106I-87500J0D01*
G01*
X15949298Y3694903D02*
G75*
G03*
X15949298Y3694903I-87500J0D01*
G01*
X16092906Y5638808D02*
G75*
G03*
X16092906Y5638808I-87500J0D01*
G01*
X16151540Y1799605D02*
G75*
G03*
X16151540Y1799605I-87500J0D01*
G01*
X16652473Y-53715D02*
G75*
G03*
X16652473Y-53715I-87500J0D01*
G01*
X16771012Y7657831D02*
G75*
G03*
X16771012Y7657831I-87500J0D01*
G01*
X16829646Y3818628D02*
G75*
G03*
X16829646Y3818628I-87500J0D01*
G01*
X17099019Y5780208D02*
G75*
G03*
X17099019Y5780208I-87500J0D01*
G01*
X17157653Y1941005D02*
G75*
G03*
X17157653Y1941005I-87500J0D01*
G01*
X17658585Y87685D02*
G75*
G03*
X17658585Y87685I-87500J0D01*
G01*
X17777124Y7799231D02*
G75*
G03*
X17777124Y7799231I-87500J0D01*
G01*
X17835758Y3960028D02*
G75*
G03*
X17835758Y3960028I-87500J0D01*
G01*
X17979367Y5903933D02*
G75*
G03*
X17979367Y5903933I-87500J0D01*
G01*
X18038001Y2064730D02*
G75*
G03*
X18038001Y2064730I-87500J0D01*
G01*
X18657472Y7922956D02*
G75*
G03*
X18657472Y7922956I-87500J0D01*
G01*
X18716107Y4083753D02*
G75*
G03*
X18716107Y4083753I-87500J0D01*
G01*
X18985479Y6045332D02*
G75*
G03*
X18985479Y6045332I-87500J0D01*
G01*
X19044114Y2206130D02*
G75*
G03*
X19044114Y2206130I-87500J0D01*
G01*
X19663585Y8064355D02*
G75*
G03*
X19663585Y8064355I-87500J0D01*
G01*
X19717971Y377113D02*
G75*
G03*
X19717971Y377113I-87500J0D01*
G01*
X19722219Y4225153D02*
G75*
G03*
X19722219Y4225153I-87500J0D01*
G01*
X19865828Y6169057D02*
G75*
G03*
X19865828Y6169057I-87500J0D01*
G01*
X19924462Y2329855D02*
G75*
G03*
X19924462Y2329855I-87500J0D01*
G01*
X20543933Y8188080D02*
G75*
G03*
X20543933Y8188080I-87500J0D01*
G01*
X20602567Y4348878D02*
G75*
G03*
X20602567Y4348878I-87500J0D01*
G01*
X20724084Y518513D02*
G75*
G03*
X20724084Y518513I-87500J0D01*
G01*
X20871940Y6310457D02*
G75*
G03*
X20871940Y6310457I-87500J0D01*
G01*
X20930574Y2471255D02*
G75*
G03*
X20930574Y2471255I-87500J0D01*
G01*
X21550045Y8329480D02*
G75*
G03*
X21550045Y8329480I-87500J0D01*
G01*
X21608680Y4490278D02*
G75*
G03*
X21608680Y4490278I-87500J0D01*
G01*
X21890500Y701000D02*
G75*
G03*
X21890500Y701000I-87500J0D01*
G01*
X21891500Y6414750D02*
G75*
G03*
X21891500Y6414750I-87500J0D01*
G01*
X21891500Y2604750D02*
G75*
G03*
X21891500Y2604750I-87500J0D01*
G01*
X22556875Y8321750D02*
G75*
G03*
X22556875Y8321750I-87500J0D01*
G01*
X22605875Y4509750D02*
G75*
G03*
X22605875Y4509750I-87500J0D01*
G01*
X22906500Y701000D02*
G75*
G03*
X22906500Y701000I-87500J0D01*
G01*
X22907500Y6414750D02*
G75*
G03*
X22907500Y6414750I-87500J0D01*
G01*
X22907500Y2604750D02*
G75*
G03*
X22907500Y2604750I-87500J0D01*
G01*
X23572875Y8321750D02*
G75*
G03*
X23572875Y8321750I-87500J0D01*
G01*
X23621875Y4509750D02*
G75*
G03*
X23621875Y4509750I-87500J0D01*
G01*
X23796500Y6414750D02*
G75*
G03*
X23796500Y6414750I-87500J0D01*
G01*
X23796500Y2604750D02*
G75*
G03*
X23796500Y2604750I-87500J0D01*
G01*
X23797500Y701000D02*
G75*
G03*
X23797500Y701000I-87500J0D01*
G01*
X24461875Y8321750D02*
G75*
G03*
X24461875Y8321750I-87500J0D01*
G01*
X24510875Y4509750D02*
G75*
G03*
X24510875Y4509750I-87500J0D01*
G01*
X24812500Y6414750D02*
G75*
G03*
X24812500Y6414750I-87500J0D01*
G01*
X24812500Y2604750D02*
G75*
G03*
X24812500Y2604750I-87500J0D01*
G01*
X24813500Y701000D02*
G75*
G03*
X24813500Y701000I-87500J0D01*
G01*
X25477875Y8321750D02*
G75*
G03*
X25477875Y8321750I-87500J0D01*
G01*
X25526875Y4509750D02*
G75*
G03*
X25526875Y4509750I-87500J0D01*
G01*
X25701500Y6414750D02*
G75*
G03*
X25701500Y6414750I-87500J0D01*
G01*
X25701500Y2604750D02*
G75*
G03*
X25701500Y2604750I-87500J0D01*
G01*
X26198500Y206000D02*
G75*
G03*
X26198500Y206000I-87500J0D01*
G01*
X26366875Y8321750D02*
G75*
G03*
X26366875Y8321750I-87500J0D01*
G01*
X26717500Y6414750D02*
G75*
G03*
X26717500Y6414750I-87500J0D01*
G01*
X26717500Y2604750D02*
G75*
G03*
X26717500Y2604750I-87500J0D01*
G01*
X27214500Y206000D02*
G75*
G03*
X27214500Y206000I-87500J0D01*
G01*
X27382875Y8321750D02*
G75*
G03*
X27382875Y8321750I-87500J0D01*
G01*
X27606500Y4509750D02*
G75*
G03*
X27606500Y4509750I-87500J0D01*
G01*
X28082750Y6414750D02*
G75*
G03*
X28082750Y6414750I-87500J0D01*
G01*
X28101500Y2110000D02*
G75*
G03*
X28101500Y2110000I-87500J0D01*
G01*
X28101500Y205000D02*
G75*
G03*
X28101500Y205000I-87500J0D01*
G01*
X28271875Y8321750D02*
G75*
G03*
X28271875Y8321750I-87500J0D01*
G01*
X28622500Y4509750D02*
G75*
G03*
X28622500Y4509750I-87500J0D01*
G01*
X29098750Y6414750D02*
G75*
G03*
X29098750Y6414750I-87500J0D01*
G01*
X29117500Y2110000D02*
G75*
G03*
X29117500Y2110000I-87500J0D01*
G01*
X29117500Y205000D02*
G75*
G03*
X29117500Y205000I-87500J0D01*
G01*
X29287875Y8321750D02*
G75*
G03*
X29287875Y8321750I-87500J0D01*
G01*
X30004500Y206000D02*
G75*
G03*
X30004500Y206000I-87500J0D01*
G01*
X31020500Y206000D02*
G75*
G03*
X31020500Y206000I-87500J0D01*
G01*
X31187500Y5976000D02*
G75*
G03*
X31187500Y5976000I-87500J0D01*
G01*
X31187500Y4074000D02*
G75*
G03*
X31187500Y4074000I-87500J0D01*
G01*
X32203500Y5976000D02*
G75*
G03*
X32203500Y5976000I-87500J0D01*
G01*
X32203500Y4074000D02*
G75*
G03*
X32203500Y4074000I-87500J0D01*
G01*
X317000Y1102000D02*
X317000Y802000D01*
X167000Y952000D02*
X467000Y952000D01*
X386000Y8722000D02*
X386000Y8422000D01*
X236000Y8572000D02*
X536000Y8572000D01*
X585000Y4912000D02*
X585000Y4612000D01*
X435000Y4762000D02*
X735000Y4762000D01*
X615000Y6818000D02*
X615000Y6518000D01*
X465000Y6668000D02*
X765000Y6668000D01*
X786000Y3007000D02*
X786000Y2707000D01*
X636000Y2857000D02*
X936000Y2857000D01*
X952000Y1356000D02*
X952000Y1056000D01*
X802000Y1206000D02*
X1102000Y1206000D01*
X1021000Y8976000D02*
X1021000Y8676000D01*
X871000Y8826000D02*
X1171000Y8826000D01*
X1220000Y5166000D02*
X1220000Y4866000D01*
X1070000Y5016000D02*
X1370000Y5016000D01*
X1250000Y7072000D02*
X1250000Y6772000D01*
X1100000Y6922000D02*
X1400000Y6922000D01*
X1421000Y3261000D02*
X1421000Y2961000D01*
X1271000Y3111000D02*
X1571000Y3111000D01*
X2290000Y8725000D02*
X2290000Y8425000D01*
X2140000Y8575000D02*
X2440000Y8575000D01*
X2701000Y1104000D02*
X2701000Y804000D01*
X2551000Y954000D02*
X2851000Y954000D01*
X2925000Y8979000D02*
X2925000Y8679000D01*
X2775000Y8829000D02*
X3075000Y8829000D01*
X2996000Y6818000D02*
X2996000Y6518000D01*
X2846000Y6668000D02*
X3146000Y6668000D01*
X3208000Y4910000D02*
X3208000Y4610000D01*
X3058000Y4760000D02*
X3358000Y4760000D01*
X3336000Y1358000D02*
X3336000Y1058000D01*
X3186000Y1208000D02*
X3486000Y1208000D01*
X3631000Y7072000D02*
X3631000Y6772000D01*
X3481000Y6922000D02*
X3781000Y6922000D01*
X3843000Y5164000D02*
X3843000Y4864000D01*
X3693000Y5014000D02*
X3993000Y5014000D01*
X3891000Y3008000D02*
X3891000Y2708000D01*
X3741000Y2858000D02*
X4041000Y2858000D01*
X4382058Y8870553D02*
X4382058Y8570553D01*
X4232058Y8720553D02*
X4532058Y8720553D01*
X4526000Y3262000D02*
X4526000Y2962000D01*
X4376000Y3112000D02*
X4676000Y3112000D01*
X5046228Y9033706D02*
X5046228Y8733706D01*
X4896228Y8883706D02*
X5196228Y8883706D01*
X5058444Y6851873D02*
X5058444Y6551873D01*
X4908444Y6701873D02*
X5208444Y6701873D01*
X5264934Y4899131D02*
X5264934Y4599131D01*
X5114934Y4749131D02*
X5414934Y4749131D01*
X5722614Y7015026D02*
X5722614Y6715026D01*
X5572614Y6865026D02*
X5872614Y6865026D01*
X5913723Y960506D02*
X5913723Y660506D01*
X5763723Y810506D02*
X6063723Y810506D01*
X5929104Y5062284D02*
X5929104Y4762284D01*
X5779104Y4912284D02*
X6079104Y4912284D01*
X5943040Y2880108D02*
X5943040Y2580108D01*
X5793040Y2730108D02*
X6093040Y2730108D01*
X6269058Y8606553D02*
X6269058Y8306553D01*
X6119058Y8456553D02*
X6419058Y8456553D01*
X6577893Y1123660D02*
X6577893Y823660D01*
X6427893Y973660D02*
X6727893Y973660D01*
X6607210Y3043261D02*
X6607210Y2743261D01*
X6457210Y2893261D02*
X6757210Y2893261D01*
X6933228Y8769706D02*
X6933228Y8469706D01*
X6783228Y8619706D02*
X7083228Y8619706D01*
X6944904Y6586748D02*
X6944904Y6286748D01*
X6794904Y6436748D02*
X7094904Y6436748D01*
X7151395Y4634006D02*
X7151395Y4334006D01*
X7001395Y4484006D02*
X7301395Y4484006D01*
X7609075Y6749901D02*
X7609075Y6449901D01*
X7459075Y6599901D02*
X7759075Y6599901D01*
X7815565Y4797159D02*
X7815565Y4497159D01*
X7665565Y4647159D02*
X7965565Y4647159D01*
X7829500Y2614983D02*
X7829500Y2314983D01*
X7679500Y2464983D02*
X7979500Y2464983D01*
X8154058Y8341553D02*
X8154058Y8041553D01*
X8004058Y8191553D02*
X8304058Y8191553D01*
X8493671Y2778136D02*
X8493671Y2478136D01*
X8343671Y2628136D02*
X8643671Y2628136D01*
X8818228Y8504706D02*
X8818228Y8204706D01*
X8668228Y8354706D02*
X8968228Y8354706D01*
X8831365Y6321623D02*
X8831365Y6021623D01*
X8681365Y6171623D02*
X8981365Y6171623D01*
X9037856Y4368881D02*
X9037856Y4068881D01*
X8887856Y4218881D02*
X9187856Y4218881D01*
X9495535Y6484776D02*
X9495535Y6184776D01*
X9345535Y6334776D02*
X9645535Y6334776D01*
X9686644Y430257D02*
X9686644Y130257D01*
X9536644Y280257D02*
X9836644Y280257D01*
X9702026Y4532034D02*
X9702026Y4232034D01*
X9552026Y4382034D02*
X9852026Y4382034D01*
X9715961Y2349858D02*
X9715961Y2049858D01*
X9565961Y2199858D02*
X9865961Y2199858D01*
X10042058Y8075553D02*
X10042058Y7775553D01*
X9892058Y7925553D02*
X10192058Y7925553D01*
X10350814Y593410D02*
X10350814Y293410D01*
X10200814Y443410D02*
X10500814Y443410D01*
X10380131Y2513011D02*
X10380131Y2213011D01*
X10230131Y2363011D02*
X10530131Y2363011D01*
X10706228Y8238706D02*
X10706228Y7938706D01*
X10556228Y8088706D02*
X10856228Y8088706D01*
X10717826Y6056498D02*
X10717826Y5756498D01*
X10567826Y5906498D02*
X10867826Y5906498D01*
X10924316Y4103756D02*
X10924316Y3803756D01*
X10774316Y3953756D02*
X11074316Y3953756D01*
X11381996Y6219651D02*
X11381996Y5919651D01*
X11231996Y6069651D02*
X11531996Y6069651D01*
X11588486Y4266910D02*
X11588486Y3966910D01*
X11438486Y4116910D02*
X11738486Y4116910D01*
X11602422Y2084733D02*
X11602422Y1784733D01*
X11452422Y1934733D02*
X11752422Y1934733D01*
X11927058Y7811553D02*
X11927058Y7511553D01*
X11777058Y7661553D02*
X12077058Y7661553D01*
X12266592Y2247887D02*
X12266592Y1947887D01*
X12116592Y2097887D02*
X12416592Y2097887D01*
X12591228Y7974706D02*
X12591228Y7674706D01*
X12441228Y7824706D02*
X12741228Y7824706D01*
X14209360Y5792886D02*
X14209360Y5492886D01*
X14059360Y5642886D02*
X14359360Y5642886D01*
X14267994Y1953683D02*
X14267994Y1653683D01*
X14117994Y1803683D02*
X14417994Y1803683D01*
X14802830Y6132789D02*
X14802830Y5832789D01*
X14652830Y5982789D02*
X14952830Y5982789D01*
X14861464Y2293587D02*
X14861464Y1993586D01*
X14711464Y2143587D02*
X15011464Y2143587D01*
X14887465Y7811909D02*
X14887465Y7511909D01*
X14737465Y7661909D02*
X15037465Y7661909D01*
X14946099Y3972707D02*
X14946099Y3672707D01*
X14796099Y3822707D02*
X15096099Y3822707D01*
X15480935Y8151812D02*
X15480935Y7851812D01*
X15330935Y8001812D02*
X15630935Y8001812D01*
X15539570Y4312610D02*
X15539570Y4012610D01*
X15389570Y4162610D02*
X15689570Y4162610D01*
X16095820Y6058011D02*
X16095820Y5758011D01*
X15945820Y5908011D02*
X16245820Y5908011D01*
X16154455Y2218808D02*
X16154455Y1918808D01*
X16004455Y2068808D02*
X16304455Y2068808D01*
X16655387Y365488D02*
X16655387Y65488D01*
X16505387Y215488D02*
X16805387Y215488D01*
X16689290Y6397914D02*
X16689290Y6097914D01*
X16539290Y6247914D02*
X16839291Y6247914D01*
X16747925Y2558711D02*
X16747925Y2258711D01*
X16597925Y2408711D02*
X16897925Y2408711D01*
X16773926Y8077034D02*
X16773926Y7777034D01*
X16623926Y7927034D02*
X16923926Y7927034D01*
X16832560Y4237831D02*
X16832560Y3937831D01*
X16682560Y4087831D02*
X16982560Y4087831D01*
X17248857Y705391D02*
X17248857Y405391D01*
X17098857Y555391D02*
X17398857Y555391D01*
X17367396Y8416937D02*
X17367396Y8116937D01*
X17217396Y8266937D02*
X17517396Y8266937D01*
X17426030Y4577734D02*
X17426030Y4277734D01*
X17276030Y4427734D02*
X17576030Y4427734D01*
X17982281Y6323136D02*
X17982281Y6023136D01*
X17832281Y6173136D02*
X18132281Y6173136D01*
X18040915Y2483933D02*
X18040915Y2183933D01*
X17890915Y2333933D02*
X18190915Y2333933D01*
X18575751Y6663039D02*
X18575751Y6363039D01*
X18425751Y6513039D02*
X18725751Y6513039D01*
X18634386Y2823836D02*
X18634386Y2523836D01*
X18484386Y2673836D02*
X18784386Y2673836D01*
X18660387Y8342159D02*
X18660387Y8042159D01*
X18510387Y8192159D02*
X18810387Y8192159D01*
X18719021Y4502956D02*
X18719021Y4202956D01*
X18569021Y4352956D02*
X18869021Y4352956D01*
X19253857Y8682062D02*
X19253857Y8382062D01*
X19103857Y8532062D02*
X19403857Y8532062D01*
X19312491Y4842859D02*
X19312491Y4542859D01*
X19162491Y4692859D02*
X19462491Y4692859D01*
X19720886Y796316D02*
X19720886Y496316D01*
X19570886Y646316D02*
X19870886Y646316D01*
X19868742Y6588260D02*
X19868742Y6288260D01*
X19718742Y6438260D02*
X20018742Y6438260D01*
X19927376Y2749058D02*
X19927376Y2449058D01*
X19777376Y2599058D02*
X20077376Y2599058D01*
X20314356Y1136219D02*
X20314356Y836219D01*
X20164356Y986219D02*
X20464356Y986219D01*
X20462212Y6928163D02*
X20462212Y6628163D01*
X20312212Y6778163D02*
X20612212Y6778163D01*
X20520846Y3088961D02*
X20520846Y2788961D01*
X20370846Y2938961D02*
X20670846Y2938961D01*
X20546847Y8607283D02*
X20546847Y8307283D01*
X20396847Y8457283D02*
X20696847Y8457283D01*
X20605482Y4768081D02*
X20605482Y4468081D01*
X20455482Y4618081D02*
X20755482Y4618081D01*
X21140317Y8947186D02*
X21140317Y8647186D01*
X20990317Y8797186D02*
X21290317Y8797186D01*
X21198952Y5107984D02*
X21198952Y4807984D01*
X21048952Y4957984D02*
X21348952Y4957984D01*
X21930000Y1105000D02*
X21930000Y805000D01*
X21780000Y955000D02*
X22080000Y955000D01*
X21931000Y6818750D02*
X21931000Y6518750D01*
X21781000Y6668750D02*
X22081000Y6668750D01*
X21931000Y3008750D02*
X21931000Y2708750D01*
X21781000Y2858750D02*
X22081000Y2858750D01*
X22565000Y1359000D02*
X22565000Y1059000D01*
X22415000Y1209000D02*
X22715000Y1209000D01*
X22566000Y7072750D02*
X22566000Y6772750D01*
X22416000Y6922750D02*
X22716000Y6922750D01*
X22566000Y3262750D02*
X22566000Y2962750D01*
X22416000Y3112750D02*
X22716000Y3112750D01*
X22596375Y8725750D02*
X22596375Y8425750D01*
X22446375Y8575750D02*
X22746375Y8575750D01*
X22645375Y4913750D02*
X22645375Y4613750D01*
X22495375Y4763750D02*
X22795375Y4763750D01*
X23231375Y8979750D02*
X23231375Y8679750D01*
X23081375Y8829750D02*
X23381375Y8829750D01*
X23280375Y5167750D02*
X23280375Y4867750D01*
X23130375Y5017750D02*
X23430375Y5017750D01*
X23836000Y6818750D02*
X23836000Y6518750D01*
X23686000Y6668750D02*
X23986000Y6668750D01*
X23836000Y3008750D02*
X23836000Y2708750D01*
X23686000Y2858750D02*
X23986000Y2858750D01*
X23837000Y1105000D02*
X23837000Y805000D01*
X23687000Y955000D02*
X23987000Y955000D01*
X24471000Y7072750D02*
X24471000Y6772750D01*
X24321000Y6922750D02*
X24621000Y6922750D01*
X24471000Y3262750D02*
X24471000Y2962750D01*
X24321000Y3112750D02*
X24621000Y3112750D01*
X24472000Y1359000D02*
X24472000Y1059000D01*
X24322000Y1209000D02*
X24622000Y1209000D01*
X24501375Y8725750D02*
X24501375Y8425750D01*
X24351375Y8575750D02*
X24651375Y8575750D01*
X24550375Y4913750D02*
X24550375Y4613750D01*
X24400375Y4763750D02*
X24700375Y4763750D01*
X25136375Y8979750D02*
X25136375Y8679750D01*
X24986375Y8829750D02*
X25286375Y8829750D01*
X25185375Y5167750D02*
X25185375Y4867750D01*
X25035375Y5017750D02*
X25335375Y5017750D01*
X25741000Y6818750D02*
X25741000Y6518750D01*
X25591000Y6668750D02*
X25891000Y6668750D01*
X25741000Y3008750D02*
X25741000Y2708750D01*
X25591000Y2858750D02*
X25891000Y2858750D01*
X26238000Y610000D02*
X26238000Y310000D01*
X26088000Y460000D02*
X26388000Y460000D01*
X26376000Y7072750D02*
X26376000Y6772750D01*
X26226000Y6922750D02*
X26526000Y6922750D01*
X26376000Y3262750D02*
X26376000Y2962750D01*
X26226000Y3112750D02*
X26526000Y3112750D01*
X26406375Y8725750D02*
X26406375Y8425750D01*
X26256375Y8575750D02*
X26556375Y8575750D01*
X26873000Y864000D02*
X26873000Y564000D01*
X26723000Y714000D02*
X27023000Y714000D01*
X27041375Y8979750D02*
X27041375Y8679750D01*
X26891375Y8829750D02*
X27191375Y8829750D01*
X27646000Y4913750D02*
X27646000Y4613750D01*
X27496000Y4763750D02*
X27796000Y4763750D01*
X28122250Y6818750D02*
X28122250Y6518750D01*
X27972250Y6668750D02*
X28272250Y6668750D01*
X28141000Y2514000D02*
X28141000Y2214000D01*
X27991000Y2364000D02*
X28291000Y2364000D01*
X28141000Y609000D02*
X28141000Y309000D01*
X27991000Y459000D02*
X28291000Y459000D01*
X28281000Y5167750D02*
X28281000Y4867750D01*
X28131000Y5017750D02*
X28431000Y5017750D01*
X28311375Y8725750D02*
X28311375Y8425750D01*
X28161375Y8575750D02*
X28461375Y8575750D01*
X28757250Y7072750D02*
X28757250Y6772750D01*
X28607250Y6922750D02*
X28907250Y6922750D01*
X28776000Y2768000D02*
X28776000Y2468000D01*
X28626000Y2618000D02*
X28926000Y2618000D01*
X28776000Y863000D02*
X28776000Y563000D01*
X28626000Y713000D02*
X28926000Y713000D01*
X28946375Y8979750D02*
X28946375Y8679750D01*
X28796375Y8829750D02*
X29096375Y8829750D01*
X30044000Y610000D02*
X30044000Y310000D01*
X29894000Y460000D02*
X30194000Y460000D01*
X30679000Y864000D02*
X30679000Y564000D01*
X30529000Y714000D02*
X30829000Y714000D01*
X31227000Y6380000D02*
X31227000Y6080000D01*
X31077000Y6230000D02*
X31377000Y6230000D01*
X31227000Y4478000D02*
X31227000Y4178000D01*
X31077000Y4328000D02*
X31377000Y4328000D01*
X31862000Y6634000D02*
X31862000Y6334000D01*
X31712000Y6484000D02*
X32012000Y6484000D01*
X31862000Y4732000D02*
X31862000Y4432000D01*
X31712000Y4582000D02*
X32012000Y4582000D01*
X80964Y3193736D02*
X80964Y3409264D01*
X-134564Y3409264D01*
X-134564Y3193736D01*
X80964Y3193736D01*
X2468564Y3193736D02*
X2468564Y3409264D01*
X2253036Y3409264D01*
X2253036Y3193736D01*
X2468564Y3193736D01*
X8856956Y-657618D02*
X8856956Y-442089D01*
X8641428Y-442089D01*
X8641428Y-657618D01*
X8856956Y-657618D01*
X11221320Y-989907D02*
X11221320Y-774379D01*
X11005792Y-774379D01*
X11005792Y-989907D01*
X11221320Y-989907D01*
X16090823Y-948626D02*
X16090823Y-733098D01*
X15875295Y-733098D01*
X15875295Y-948626D01*
X16090823Y-948626D01*
X18455188Y-616336D02*
X18455188Y-400808D01*
X18239659Y-400808D01*
X18239659Y-616336D01*
X18455188Y-616336D01*
X26940964Y5100486D02*
X26940964Y5316014D01*
X26725436Y5316014D01*
X26725436Y5100486D01*
X26940964Y5100486D01*
X29328564Y5100486D02*
X29328564Y5316014D01*
X29113036Y5316014D01*
X29113036Y5100486D01*
X29328564Y5100486D01*
X-26800Y1578110D02*
X172590Y1777500D01*
X-26800Y1976890D01*
X-226190Y1777500D01*
X-26800Y1578110D01*
X698000Y498610D02*
X897390Y698000D01*
X698000Y897390D01*
X498610Y698000D01*
X698000Y498610D01*
X767000Y8118610D02*
X966390Y8318000D01*
X767000Y8517390D01*
X567610Y8318000D01*
X767000Y8118610D01*
X966000Y4308610D02*
X1165390Y4508000D01*
X966000Y4707390D01*
X766610Y4508000D01*
X966000Y4308610D01*
X996000Y6214610D02*
X1195390Y6414000D01*
X996000Y6613390D01*
X796610Y6414000D01*
X996000Y6214610D01*
X1167000Y2403610D02*
X1366390Y2603000D01*
X1167000Y2802390D01*
X967610Y2603000D01*
X1167000Y2403610D01*
X2360800Y1578110D02*
X2560190Y1777500D01*
X2360800Y1976890D01*
X2161410Y1777500D01*
X2360800Y1578110D01*
X2671000Y8121610D02*
X2870390Y8321000D01*
X2671000Y8520390D01*
X2471610Y8321000D01*
X2671000Y8121610D01*
X3082000Y500610D02*
X3281390Y700000D01*
X3082000Y899390D01*
X2882610Y700000D01*
X3082000Y500610D01*
X3377000Y6214610D02*
X3576390Y6414000D01*
X3377000Y6613390D01*
X3177610Y6414000D01*
X3377000Y6214610D01*
X3589000Y4306610D02*
X3788390Y4506000D01*
X3589000Y4705390D01*
X3389610Y4506000D01*
X3589000Y4306610D01*
X4272000Y2404610D02*
X4471390Y2604000D01*
X4272000Y2803390D01*
X4072610Y2604000D01*
X4272000Y2404610D01*
X4724000Y8216610D02*
X4923390Y8416000D01*
X4724000Y8615390D01*
X4524610Y8416000D01*
X4724000Y8216610D01*
X5400386Y6197930D02*
X5599776Y6397320D01*
X5400386Y6596710D01*
X5200996Y6397320D01*
X5400386Y6197930D01*
X5606876Y4245188D02*
X5806266Y4444578D01*
X5606876Y4643968D01*
X5407486Y4444578D01*
X5606876Y4245188D01*
X6255665Y306563D02*
X6455055Y505953D01*
X6255665Y705343D01*
X6056275Y505953D01*
X6255665Y306563D01*
X6284982Y2226165D02*
X6484372Y2425555D01*
X6284982Y2624945D01*
X6085592Y2425555D01*
X6284982Y2226165D01*
X6611000Y7952610D02*
X6810390Y8152000D01*
X6611000Y8351390D01*
X6411610Y8152000D01*
X6611000Y7952610D01*
X7286847Y5932805D02*
X7486237Y6132195D01*
X7286847Y6331585D01*
X7087457Y6132195D01*
X7286847Y5932805D01*
X7493337Y3980063D02*
X7692727Y4179453D01*
X7493337Y4378843D01*
X7293947Y4179453D01*
X7493337Y3980063D01*
X8171443Y1961040D02*
X8370833Y2160430D01*
X8171443Y2359820D01*
X7972053Y2160430D01*
X8171443Y1961040D01*
X8496000Y7687610D02*
X8695390Y7887000D01*
X8496000Y8086390D01*
X8296610Y7887000D01*
X8496000Y7687610D01*
X8961292Y759925D02*
X9160682Y959315D01*
X8961292Y1158705D01*
X8761902Y959315D01*
X8961292Y759925D01*
X9173307Y5667680D02*
X9372697Y5867070D01*
X9173307Y6066460D01*
X8973917Y5867070D01*
X9173307Y5667680D01*
X9379798Y3714938D02*
X9579188Y3914328D01*
X9379798Y4113718D01*
X9180408Y3914328D01*
X9379798Y3714938D01*
X10028586Y-223686D02*
X10227976Y-24296D01*
X10028586Y175094D01*
X9829196Y-24296D01*
X10028586Y-223686D01*
X10057903Y1695915D02*
X10257293Y1895305D01*
X10057903Y2094695D01*
X9858513Y1895305D01*
X10057903Y1695915D01*
X10384000Y7421610D02*
X10583390Y7621000D01*
X10384000Y7820390D01*
X10184610Y7621000D01*
X10384000Y7421610D01*
X11059768Y5402555D02*
X11259158Y5601945D01*
X11059768Y5801335D01*
X10860378Y5601945D01*
X11059768Y5402555D01*
X11266258Y3449813D02*
X11465648Y3649203D01*
X11266258Y3848593D01*
X11066868Y3649203D01*
X11266258Y3449813D01*
X11325656Y427635D02*
X11525046Y627025D01*
X11325656Y826415D01*
X11126266Y627025D01*
X11325656Y427635D01*
X11944364Y1430790D02*
X12143754Y1630180D01*
X11944364Y1829570D01*
X11744974Y1630180D01*
X11944364Y1430790D01*
X12269000Y7157610D02*
X12468390Y7357000D01*
X12269000Y7556390D01*
X12069610Y7357000D01*
X12269000Y7157610D01*
X14622002Y5244993D02*
X14821392Y5444383D01*
X14622002Y5643773D01*
X14422612Y5444383D01*
X14622002Y5244993D01*
X14680636Y1405790D02*
X14880026Y1605180D01*
X14680636Y1804570D01*
X14481246Y1605180D01*
X14680636Y1405790D01*
X15300107Y7264016D02*
X15499497Y7463406D01*
X15300107Y7662796D01*
X15100717Y7463406D01*
X15300107Y7264016D01*
X15358742Y3424813D02*
X15558132Y3624203D01*
X15358742Y3823593D01*
X15159352Y3624203D01*
X15358742Y3424813D01*
X15770960Y468916D02*
X15970350Y668307D01*
X15770960Y867696D01*
X15571570Y668307D01*
X15770960Y468916D01*
X16508462Y5510118D02*
X16707852Y5709508D01*
X16508462Y5908898D01*
X16309072Y5709508D01*
X16508462Y5510118D01*
X16567097Y1670915D02*
X16766487Y1870305D01*
X16567097Y2069695D01*
X16367707Y1870305D01*
X16567097Y1670915D01*
X17068029Y-182405D02*
X17267419Y16985D01*
X17068029Y216375D01*
X16868639Y16985D01*
X17068029Y-182405D01*
X17186568Y7529141D02*
X17385958Y7728531D01*
X17186568Y7927921D01*
X16987178Y7728531D01*
X17186568Y7529141D01*
X17245202Y3689938D02*
X17444592Y3889328D01*
X17245202Y4088718D01*
X17045812Y3889328D01*
X17245202Y3689938D01*
X18135324Y801206D02*
X18334714Y1000596D01*
X18135324Y1199986D01*
X17935934Y1000596D01*
X18135324Y801206D01*
X18394923Y5775242D02*
X18594313Y5974632D01*
X18394923Y6174022D01*
X18195533Y5974632D01*
X18394923Y5775242D01*
X18453557Y1936040D02*
X18652947Y2135430D01*
X18453557Y2334820D01*
X18254167Y2135430D01*
X18453557Y1936040D01*
X19073029Y7794265D02*
X19272419Y7993655D01*
X19073029Y8193045D01*
X18873639Y7993655D01*
X19073029Y7794265D01*
X19131663Y3955063D02*
X19331053Y4154453D01*
X19131663Y4353843D01*
X18932273Y4154453D01*
X19131663Y3955063D01*
X20133528Y248423D02*
X20332918Y447813D01*
X20133528Y647203D01*
X19934138Y447813D01*
X20133528Y248423D01*
X20281384Y6040367D02*
X20480774Y6239757D01*
X20281384Y6439147D01*
X20081994Y6239757D01*
X20281384Y6040367D01*
X20340018Y2201165D02*
X20539408Y2400555D01*
X20340018Y2599945D01*
X20140628Y2400555D01*
X20340018Y2201165D01*
X20959489Y8059390D02*
X21158879Y8258780D01*
X20959489Y8458170D01*
X20760099Y8258780D01*
X20959489Y8059390D01*
X21018124Y4220188D02*
X21217514Y4419578D01*
X21018124Y4618968D01*
X20818734Y4419578D01*
X21018124Y4220188D01*
X22311000Y501610D02*
X22510390Y701000D01*
X22311000Y900390D01*
X22111610Y701000D01*
X22311000Y501610D01*
X22312000Y6215360D02*
X22511390Y6414750D01*
X22312000Y6614140D01*
X22112610Y6414750D01*
X22312000Y6215360D01*
X22312000Y2405360D02*
X22511390Y2604750D01*
X22312000Y2804140D01*
X22112610Y2604750D01*
X22312000Y2405360D01*
X22977375Y8122360D02*
X23176765Y8321750D01*
X22977375Y8521140D01*
X22777985Y8321750D01*
X22977375Y8122360D01*
X23026375Y4310360D02*
X23225765Y4509750D01*
X23026375Y4709140D01*
X22826985Y4509750D01*
X23026375Y4310360D01*
X24217000Y6215360D02*
X24416390Y6414750D01*
X24217000Y6614140D01*
X24017610Y6414750D01*
X24217000Y6215360D01*
X24217000Y2405360D02*
X24416390Y2604750D01*
X24217000Y2804140D01*
X24017610Y2604750D01*
X24217000Y2405360D01*
X24218000Y501610D02*
X24417390Y701000D01*
X24218000Y900390D01*
X24018610Y701000D01*
X24218000Y501610D01*
X24882375Y8122360D02*
X25081765Y8321750D01*
X24882375Y8521140D01*
X24682985Y8321750D01*
X24882375Y8122360D01*
X24931375Y4310360D02*
X25130765Y4509750D01*
X24931375Y4709140D01*
X24731985Y4509750D01*
X24931375Y4310360D01*
X26122000Y6215360D02*
X26321390Y6414750D01*
X26122000Y6614140D01*
X25922610Y6414750D01*
X26122000Y6215360D01*
X26122000Y2405360D02*
X26321390Y2604750D01*
X26122000Y2804140D01*
X25922610Y2604750D01*
X26122000Y2405360D01*
X26619000Y6610D02*
X26818390Y206000D01*
X26619000Y405390D01*
X26419610Y206000D01*
X26619000Y6610D01*
X26787375Y8122360D02*
X26986765Y8321750D01*
X26787375Y8521140D01*
X26587985Y8321750D01*
X26787375Y8122360D01*
X26833200Y3484860D02*
X27032590Y3684250D01*
X26833200Y3883640D01*
X26633810Y3684250D01*
X26833200Y3484860D01*
X28027000Y4310360D02*
X28226390Y4509750D01*
X28027000Y4709140D01*
X27827610Y4509750D01*
X28027000Y4310360D01*
X28503250Y6215360D02*
X28702640Y6414750D01*
X28503250Y6614140D01*
X28303860Y6414750D01*
X28503250Y6215360D01*
X28522000Y1910610D02*
X28721390Y2110000D01*
X28522000Y2309390D01*
X28322610Y2110000D01*
X28522000Y1910610D01*
X28522000Y5610D02*
X28721390Y205000D01*
X28522000Y404390D01*
X28322610Y205000D01*
X28522000Y5610D01*
X28692375Y8122360D02*
X28891765Y8321750D01*
X28692375Y8521140D01*
X28492985Y8321750D01*
X28692375Y8122360D01*
X29220800Y3484860D02*
X29420190Y3684250D01*
X29220800Y3883640D01*
X29021410Y3684250D01*
X29220800Y3484860D01*
X30425000Y6610D02*
X30624390Y206000D01*
X30425000Y405390D01*
X30225610Y206000D01*
X30425000Y6610D01*
X31608000Y5776610D02*
X31807390Y5976000D01*
X31608000Y6175390D01*
X31408610Y5976000D01*
X31608000Y5776610D01*
X31608000Y3874610D02*
X31807390Y4074000D01*
X31608000Y4273390D01*
X31408610Y4074000D01*
X31608000Y3874610D01*
D12*
X-295647Y-1604233D02*
X-295647Y-1304233D01*
X-224218Y-1304233D01*
X-181361Y-1318519D01*
X-152789Y-1347090D01*
X-138504Y-1375662D01*
X-124218Y-1432805D01*
X-124218Y-1475662D01*
X-138504Y-1532805D01*
X-152789Y-1561376D01*
X-181361Y-1589947D01*
X-224218Y-1604233D01*
X-295647Y-1604233D01*
X4353Y-1604233D02*
X4353Y-1404233D01*
X4353Y-1461376D02*
X18639Y-1432805D01*
X32925Y-1418519D01*
X61496Y-1404233D01*
X90068Y-1404233D01*
X190068Y-1604233D02*
X190068Y-1404233D01*
X190068Y-1304233D02*
X175782Y-1318519D01*
X190068Y-1332805D01*
X204353Y-1318519D01*
X190068Y-1304233D01*
X190068Y-1332805D01*
X375782Y-1604233D02*
X347211Y-1589947D01*
X332925Y-1561376D01*
X332925Y-1304233D01*
X532925Y-1604233D02*
X504353Y-1589947D01*
X490068Y-1561376D01*
X490068Y-1304233D01*
X875782Y-1604233D02*
X875782Y-1304233D01*
X975782Y-1518519D01*
X1075782Y-1304233D01*
X1075782Y-1604233D01*
X1347211Y-1604233D02*
X1347211Y-1447090D01*
X1332925Y-1418519D01*
X1304353Y-1404233D01*
X1247211Y-1404233D01*
X1218639Y-1418519D01*
X1347211Y-1589947D02*
X1318639Y-1604233D01*
X1247211Y-1604233D01*
X1218639Y-1589947D01*
X1204353Y-1561376D01*
X1204353Y-1532805D01*
X1218639Y-1504233D01*
X1247211Y-1489947D01*
X1318639Y-1489947D01*
X1347211Y-1475662D01*
X1490068Y-1404233D02*
X1490068Y-1704233D01*
X1490068Y-1418519D02*
X1518639Y-1404233D01*
X1575782Y-1404233D01*
X1604353Y-1418519D01*
X1618639Y-1432805D01*
X1632925Y-1461376D01*
X1632925Y-1547090D01*
X1618639Y-1575662D01*
X1604353Y-1589947D01*
X1575782Y-1604233D01*
X1518639Y-1604233D01*
X1490068Y-1589947D01*
X1761496Y-1575662D02*
X1775782Y-1589947D01*
X1761496Y-1604233D01*
X1747211Y-1589947D01*
X1761496Y-1575662D01*
X1761496Y-1604233D01*
X1761496Y-1418519D02*
X1775782Y-1432805D01*
X1761496Y-1447090D01*
X1747211Y-1432805D01*
X1761496Y-1418519D01*
X1761496Y-1447090D01*
X-647075Y-2066019D02*
X-582075Y-2131019D01*
X-582075Y-2066019D02*
X-647075Y-2131019D01*
X-238504Y-1934233D02*
X-209932Y-1934233D01*
X-181361Y-1948519D01*
X-167075Y-1962805D01*
X-152789Y-1991376D01*
X-138504Y-2048519D01*
X-138504Y-2119947D01*
X-152789Y-2177090D01*
X-167075Y-2205662D01*
X-181361Y-2219947D01*
X-209932Y-2234233D01*
X-238504Y-2234233D01*
X-267075Y-2219947D01*
X-281361Y-2205662D01*
X-295647Y-2177090D01*
X-309932Y-2119947D01*
X-309932Y-2048519D01*
X-295647Y-1991376D01*
X-281361Y-1962805D01*
X-267075Y-1948519D01*
X-238504Y-1934233D01*
X-9932Y-2205662D02*
X4353Y-2219947D01*
X-9932Y-2234233D01*
X-24218Y-2219947D01*
X-9932Y-2205662D01*
X-9932Y-2234233D01*
X261496Y-1934233D02*
X204353Y-1934233D01*
X175782Y-1948519D01*
X161496Y-1962805D01*
X132925Y-2005662D01*
X118639Y-2062805D01*
X118639Y-2177090D01*
X132925Y-2205662D01*
X147211Y-2219947D01*
X175782Y-2234233D01*
X232925Y-2234233D01*
X261496Y-2219947D01*
X275782Y-2205662D01*
X290068Y-2177090D01*
X290068Y-2105662D01*
X275782Y-2077090D01*
X261496Y-2062805D01*
X232925Y-2048519D01*
X175782Y-2048519D01*
X147211Y-2062805D01*
X132925Y-2077090D01*
X118639Y-2105662D01*
X561496Y-1934233D02*
X418639Y-1934233D01*
X404353Y-2077090D01*
X418639Y-2062805D01*
X447211Y-2048519D01*
X518639Y-2048519D01*
X547211Y-2062805D01*
X561496Y-2077090D01*
X575782Y-2105662D01*
X575782Y-2177090D01*
X561496Y-2205662D01*
X547211Y-2219947D01*
X518639Y-2234233D01*
X447211Y-2234233D01*
X418639Y-2219947D01*
X404353Y-2205662D01*
X704353Y-2234233D02*
X704353Y-2034233D01*
X704353Y-2062805D02*
X718639Y-2048519D01*
X747211Y-2034233D01*
X790068Y-2034233D01*
X818639Y-2048519D01*
X832925Y-2077090D01*
X832925Y-2234233D01*
X832925Y-2077090D02*
X847211Y-2048519D01*
X875782Y-2034233D01*
X918639Y-2034233D01*
X947211Y-2048519D01*
X961496Y-2077090D01*
X961496Y-2234233D01*
X1104353Y-2234233D02*
X1104353Y-2034233D01*
X1104353Y-2062805D02*
X1118639Y-2048519D01*
X1147211Y-2034233D01*
X1190068Y-2034233D01*
X1218639Y-2048519D01*
X1232925Y-2077090D01*
X1232925Y-2234233D01*
X1232925Y-2077090D02*
X1247211Y-2048519D01*
X1275782Y-2034233D01*
X1318639Y-2034233D01*
X1347211Y-2048519D01*
X1361496Y-2077090D01*
X1361496Y-2234233D01*
X1947211Y-1919947D02*
X1690068Y-2305662D01*
X2332925Y-1934233D02*
X2361496Y-1934233D01*
X2390068Y-1948519D01*
X2404353Y-1962805D01*
X2418639Y-1991376D01*
X2432925Y-2048519D01*
X2432925Y-2119947D01*
X2418639Y-2177090D01*
X2404353Y-2205662D01*
X2390068Y-2219947D01*
X2361496Y-2234233D01*
X2332925Y-2234233D01*
X2304353Y-2219947D01*
X2290068Y-2205662D01*
X2275782Y-2177090D01*
X2261496Y-2119947D01*
X2261496Y-2048519D01*
X2275782Y-1991376D01*
X2290068Y-1962805D01*
X2304353Y-1948519D01*
X2332925Y-1934233D01*
X2561496Y-2205662D02*
X2575782Y-2219947D01*
X2561496Y-2234233D01*
X2547211Y-2219947D01*
X2561496Y-2205662D01*
X2561496Y-2234233D01*
X2761496Y-1934233D02*
X2790068Y-1934233D01*
X2818639Y-1948519D01*
X2832925Y-1962805D01*
X2847211Y-1991376D01*
X2861496Y-2048519D01*
X2861496Y-2119947D01*
X2847211Y-2177090D01*
X2832925Y-2205662D01*
X2818639Y-2219947D01*
X2790068Y-2234233D01*
X2761496Y-2234233D01*
X2732925Y-2219947D01*
X2718639Y-2205662D01*
X2704353Y-2177090D01*
X2690068Y-2119947D01*
X2690068Y-2048519D01*
X2704353Y-1991376D01*
X2718639Y-1962805D01*
X2732925Y-1948519D01*
X2761496Y-1934233D01*
X2975782Y-1962805D02*
X2990068Y-1948519D01*
X3018639Y-1934233D01*
X3090068Y-1934233D01*
X3118639Y-1948519D01*
X3132925Y-1962805D01*
X3147211Y-1991376D01*
X3147211Y-2019947D01*
X3132925Y-2062805D01*
X2961496Y-2234233D01*
X3147211Y-2234233D01*
X3404353Y-1934233D02*
X3347211Y-1934233D01*
X3318639Y-1948519D01*
X3304353Y-1962805D01*
X3275782Y-2005662D01*
X3261496Y-2062805D01*
X3261496Y-2177090D01*
X3275782Y-2205662D01*
X3290068Y-2219947D01*
X3318639Y-2234233D01*
X3375782Y-2234233D01*
X3404353Y-2219947D01*
X3418639Y-2205662D01*
X3432925Y-2177090D01*
X3432925Y-2105662D01*
X3418639Y-2077090D01*
X3404353Y-2062805D01*
X3375782Y-2048519D01*
X3318639Y-2048519D01*
X3290068Y-2062805D01*
X3275782Y-2077090D01*
X3261496Y-2105662D01*
X3547211Y-1934233D02*
X3547211Y-1991376D01*
X3661496Y-1934233D02*
X3661496Y-1991376D01*
X4104353Y-2348519D02*
X4090068Y-2334233D01*
X4061496Y-2291376D01*
X4047211Y-2262805D01*
X4032925Y-2219947D01*
X4018639Y-2148519D01*
X4018639Y-2091376D01*
X4032925Y-2019947D01*
X4047211Y-1977090D01*
X4061496Y-1948519D01*
X4090068Y-1905662D01*
X4104353Y-1891376D01*
X4204353Y-1962805D02*
X4218639Y-1948519D01*
X4247211Y-1934233D01*
X4318639Y-1934233D01*
X4347211Y-1948519D01*
X4361496Y-1962805D01*
X4375782Y-1991376D01*
X4375782Y-2019947D01*
X4361496Y-2062805D01*
X4190068Y-2234233D01*
X4375782Y-2234233D01*
X4732925Y-2234233D02*
X4732925Y-1934233D01*
X4861496Y-2234233D02*
X4861496Y-2077090D01*
X4847211Y-2048519D01*
X4818639Y-2034233D01*
X4775782Y-2034233D01*
X4747211Y-2048519D01*
X4732925Y-2062805D01*
X5047211Y-2234233D02*
X5018639Y-2219947D01*
X5004353Y-2205662D01*
X4990068Y-2177090D01*
X4990068Y-2091376D01*
X5004353Y-2062805D01*
X5018639Y-2048519D01*
X5047211Y-2034233D01*
X5090068Y-2034233D01*
X5118639Y-2048519D01*
X5132925Y-2062805D01*
X5147211Y-2091376D01*
X5147211Y-2177090D01*
X5132925Y-2205662D01*
X5118639Y-2219947D01*
X5090068Y-2234233D01*
X5047211Y-2234233D01*
X5318639Y-2234233D02*
X5290068Y-2219947D01*
X5275782Y-2191376D01*
X5275782Y-1934233D01*
X5547211Y-2219947D02*
X5518639Y-2234233D01*
X5461496Y-2234233D01*
X5432925Y-2219947D01*
X5418639Y-2191376D01*
X5418639Y-2077090D01*
X5432925Y-2048519D01*
X5461496Y-2034233D01*
X5518639Y-2034233D01*
X5547211Y-2048519D01*
X5561496Y-2077090D01*
X5561496Y-2105662D01*
X5418639Y-2134233D01*
X5675782Y-2219947D02*
X5704353Y-2234233D01*
X5761496Y-2234233D01*
X5790068Y-2219947D01*
X5804353Y-2191376D01*
X5804353Y-2177090D01*
X5790068Y-2148519D01*
X5761496Y-2134233D01*
X5718639Y-2134233D01*
X5690068Y-2119947D01*
X5675782Y-2091376D01*
X5675782Y-2077090D01*
X5690068Y-2048519D01*
X5718639Y-2034233D01*
X5761496Y-2034233D01*
X5790068Y-2048519D01*
X5904353Y-2348519D02*
X5918639Y-2334233D01*
X5947211Y-2291376D01*
X5961496Y-2262805D01*
X5975782Y-2219947D01*
X5990068Y-2148519D01*
X5990068Y-2091376D01*
X5975782Y-2019947D01*
X5961496Y-1977090D01*
X5947211Y-1948519D01*
X5918639Y-1905662D01*
X5904353Y-1891376D01*
X6447211Y-2348519D02*
X6432925Y-2334233D01*
X6404353Y-2291376D01*
X6390068Y-2262805D01*
X6375782Y-2219947D01*
X6361496Y-2148519D01*
X6361496Y-2091376D01*
X6375782Y-2019947D01*
X6390068Y-1977090D01*
X6404353Y-1948519D01*
X6432925Y-1905662D01*
X6447211Y-1891376D01*
X6561496Y-2034233D02*
X6561496Y-2234233D01*
X6561496Y-2062805D02*
X6575782Y-2048519D01*
X6604353Y-2034233D01*
X6647211Y-2034233D01*
X6675782Y-2048519D01*
X6690068Y-2077090D01*
X6690068Y-2234233D01*
X6875782Y-2234233D02*
X6847211Y-2219947D01*
X6832925Y-2205662D01*
X6818639Y-2177090D01*
X6818639Y-2091376D01*
X6832925Y-2062805D01*
X6847211Y-2048519D01*
X6875782Y-2034233D01*
X6918639Y-2034233D01*
X6947211Y-2048519D01*
X6961496Y-2062805D01*
X6975782Y-2091376D01*
X6975782Y-2177090D01*
X6961496Y-2205662D01*
X6947211Y-2219947D01*
X6918639Y-2234233D01*
X6875782Y-2234233D01*
X7061496Y-2034233D02*
X7175782Y-2034233D01*
X7104353Y-1934233D02*
X7104353Y-2191376D01*
X7118639Y-2219947D01*
X7147211Y-2234233D01*
X7175782Y-2234233D01*
X7504353Y-2034233D02*
X7504353Y-2334233D01*
X7504353Y-2048519D02*
X7532925Y-2034233D01*
X7590068Y-2034233D01*
X7618639Y-2048519D01*
X7632925Y-2062805D01*
X7647211Y-2091376D01*
X7647211Y-2177090D01*
X7632925Y-2205662D01*
X7618639Y-2219947D01*
X7590068Y-2234233D01*
X7532925Y-2234233D01*
X7504353Y-2219947D01*
X7818639Y-2234233D02*
X7790068Y-2219947D01*
X7775782Y-2191376D01*
X7775782Y-1934233D01*
X8061496Y-2234233D02*
X8061496Y-2077090D01*
X8047211Y-2048519D01*
X8018639Y-2034233D01*
X7961496Y-2034233D01*
X7932925Y-2048519D01*
X8061496Y-2219947D02*
X8032925Y-2234233D01*
X7961496Y-2234233D01*
X7932925Y-2219947D01*
X7918639Y-2191376D01*
X7918639Y-2162805D01*
X7932925Y-2134233D01*
X7961496Y-2119947D01*
X8032925Y-2119947D01*
X8061496Y-2105662D01*
X8161496Y-2034233D02*
X8275782Y-2034233D01*
X8204353Y-1934233D02*
X8204353Y-2191376D01*
X8218639Y-2219947D01*
X8247211Y-2234233D01*
X8275782Y-2234233D01*
X8490068Y-2219947D02*
X8461496Y-2234233D01*
X8404353Y-2234233D01*
X8375782Y-2219947D01*
X8361496Y-2191376D01*
X8361496Y-2077090D01*
X8375782Y-2048519D01*
X8404353Y-2034233D01*
X8461496Y-2034233D01*
X8490068Y-2048519D01*
X8504353Y-2077090D01*
X8504353Y-2105662D01*
X8361496Y-2134233D01*
X8761496Y-2234233D02*
X8761496Y-1934233D01*
X8761496Y-2219947D02*
X8732925Y-2234233D01*
X8675782Y-2234233D01*
X8647211Y-2219947D01*
X8632925Y-2205662D01*
X8618639Y-2177090D01*
X8618639Y-2091376D01*
X8632925Y-2062805D01*
X8647211Y-2048519D01*
X8675782Y-2034233D01*
X8732925Y-2034233D01*
X8761496Y-2048519D01*
X8875782Y-2348519D02*
X8890068Y-2334233D01*
X8918639Y-2291376D01*
X8932925Y-2262805D01*
X8947211Y-2219947D01*
X8961496Y-2148519D01*
X8961496Y-2091376D01*
X8947211Y-2019947D01*
X8932925Y-1977090D01*
X8918639Y-1948519D01*
X8890068Y-1905662D01*
X8875782Y-1891376D01*
X-582075Y-2494519D02*
G75*
G03*
X-582075Y-2494519I-87500J0D01*
G01*
X-138504Y-2630233D02*
X-309932Y-2630233D01*
X-224218Y-2630233D02*
X-224218Y-2330233D01*
X-252789Y-2373090D01*
X-281361Y-2401662D01*
X-309932Y-2415947D01*
X-9932Y-2601662D02*
X4353Y-2615947D01*
X-9932Y-2630233D01*
X-24218Y-2615947D01*
X-9932Y-2601662D01*
X-9932Y-2630233D01*
X104353Y-2330233D02*
X304353Y-2330233D01*
X175782Y-2630233D01*
X561496Y-2330233D02*
X418639Y-2330233D01*
X404353Y-2473090D01*
X418639Y-2458805D01*
X447211Y-2444519D01*
X518639Y-2444519D01*
X547211Y-2458805D01*
X561496Y-2473090D01*
X575782Y-2501662D01*
X575782Y-2573090D01*
X561496Y-2601662D01*
X547211Y-2615947D01*
X518639Y-2630233D01*
X447211Y-2630233D01*
X418639Y-2615947D01*
X404353Y-2601662D01*
X704353Y-2630233D02*
X704353Y-2430233D01*
X704353Y-2458805D02*
X718639Y-2444519D01*
X747211Y-2430233D01*
X790068Y-2430233D01*
X818639Y-2444519D01*
X832925Y-2473090D01*
X832925Y-2630233D01*
X832925Y-2473090D02*
X847211Y-2444519D01*
X875782Y-2430233D01*
X918639Y-2430233D01*
X947211Y-2444519D01*
X961496Y-2473090D01*
X961496Y-2630233D01*
X1104353Y-2630233D02*
X1104353Y-2430233D01*
X1104353Y-2458805D02*
X1118639Y-2444519D01*
X1147211Y-2430233D01*
X1190068Y-2430233D01*
X1218639Y-2444519D01*
X1232925Y-2473090D01*
X1232925Y-2630233D01*
X1232925Y-2473090D02*
X1247211Y-2444519D01*
X1275782Y-2430233D01*
X1318639Y-2430233D01*
X1347211Y-2444519D01*
X1361496Y-2473090D01*
X1361496Y-2630233D01*
X1947211Y-2315947D02*
X1690068Y-2701662D01*
X2332925Y-2330233D02*
X2361496Y-2330233D01*
X2390068Y-2344519D01*
X2404353Y-2358805D01*
X2418639Y-2387376D01*
X2432925Y-2444519D01*
X2432925Y-2515947D01*
X2418639Y-2573090D01*
X2404353Y-2601662D01*
X2390068Y-2615947D01*
X2361496Y-2630233D01*
X2332925Y-2630233D01*
X2304353Y-2615947D01*
X2290068Y-2601662D01*
X2275782Y-2573090D01*
X2261496Y-2515947D01*
X2261496Y-2444519D01*
X2275782Y-2387376D01*
X2290068Y-2358805D01*
X2304353Y-2344519D01*
X2332925Y-2330233D01*
X2561496Y-2601662D02*
X2575782Y-2615947D01*
X2561496Y-2630233D01*
X2547211Y-2615947D01*
X2561496Y-2601662D01*
X2561496Y-2630233D01*
X2761496Y-2330233D02*
X2790068Y-2330233D01*
X2818639Y-2344519D01*
X2832925Y-2358805D01*
X2847211Y-2387376D01*
X2861496Y-2444519D01*
X2861496Y-2515947D01*
X2847211Y-2573090D01*
X2832925Y-2601662D01*
X2818639Y-2615947D01*
X2790068Y-2630233D01*
X2761496Y-2630233D01*
X2732925Y-2615947D01*
X2718639Y-2601662D01*
X2704353Y-2573090D01*
X2690068Y-2515947D01*
X2690068Y-2444519D01*
X2704353Y-2387376D01*
X2718639Y-2358805D01*
X2732925Y-2344519D01*
X2761496Y-2330233D01*
X3118639Y-2330233D02*
X3061496Y-2330233D01*
X3032925Y-2344519D01*
X3018639Y-2358805D01*
X2990068Y-2401662D01*
X2975782Y-2458805D01*
X2975782Y-2573090D01*
X2990068Y-2601662D01*
X3004353Y-2615947D01*
X3032925Y-2630233D01*
X3090068Y-2630233D01*
X3118639Y-2615947D01*
X3132925Y-2601662D01*
X3147211Y-2573090D01*
X3147211Y-2501662D01*
X3132925Y-2473090D01*
X3118639Y-2458805D01*
X3090068Y-2444519D01*
X3032925Y-2444519D01*
X3004353Y-2458805D01*
X2990068Y-2473090D01*
X2975782Y-2501662D01*
X3290068Y-2630233D02*
X3347211Y-2630233D01*
X3375782Y-2615947D01*
X3390068Y-2601662D01*
X3418639Y-2558805D01*
X3432925Y-2501662D01*
X3432925Y-2387376D01*
X3418639Y-2358805D01*
X3404353Y-2344519D01*
X3375782Y-2330233D01*
X3318639Y-2330233D01*
X3290068Y-2344519D01*
X3275782Y-2358805D01*
X3261496Y-2387376D01*
X3261496Y-2458805D01*
X3275782Y-2487376D01*
X3290068Y-2501662D01*
X3318639Y-2515947D01*
X3375782Y-2515947D01*
X3404353Y-2501662D01*
X3418639Y-2487376D01*
X3432925Y-2458805D01*
X3547211Y-2330233D02*
X3547211Y-2387376D01*
X3661496Y-2330233D02*
X3661496Y-2387376D01*
X4104353Y-2744519D02*
X4090068Y-2730233D01*
X4061496Y-2687376D01*
X4047211Y-2658805D01*
X4032925Y-2615947D01*
X4018639Y-2544519D01*
X4018639Y-2487376D01*
X4032925Y-2415947D01*
X4047211Y-2373090D01*
X4061496Y-2344519D01*
X4090068Y-2301662D01*
X4104353Y-2287376D01*
X4375782Y-2630233D02*
X4204353Y-2630233D01*
X4290068Y-2630233D02*
X4290068Y-2330233D01*
X4261496Y-2373090D01*
X4232925Y-2401662D01*
X4204353Y-2415947D01*
X4475782Y-2330233D02*
X4661496Y-2330233D01*
X4561496Y-2444519D01*
X4604353Y-2444519D01*
X4632925Y-2458805D01*
X4647211Y-2473090D01*
X4661496Y-2501662D01*
X4661496Y-2573090D01*
X4647211Y-2601662D01*
X4632925Y-2615947D01*
X4604353Y-2630233D01*
X4518639Y-2630233D01*
X4490068Y-2615947D01*
X4475782Y-2601662D01*
X4832925Y-2458805D02*
X4804353Y-2444519D01*
X4790068Y-2430233D01*
X4775782Y-2401662D01*
X4775782Y-2387376D01*
X4790068Y-2358805D01*
X4804353Y-2344519D01*
X4832925Y-2330233D01*
X4890068Y-2330233D01*
X4918639Y-2344519D01*
X4932925Y-2358805D01*
X4947211Y-2387376D01*
X4947211Y-2401662D01*
X4932925Y-2430233D01*
X4918639Y-2444519D01*
X4890068Y-2458805D01*
X4832925Y-2458805D01*
X4804353Y-2473090D01*
X4790068Y-2487376D01*
X4775782Y-2515947D01*
X4775782Y-2573090D01*
X4790068Y-2601662D01*
X4804353Y-2615947D01*
X4832925Y-2630233D01*
X4890068Y-2630233D01*
X4918639Y-2615947D01*
X4932925Y-2601662D01*
X4947211Y-2573090D01*
X4947211Y-2515947D01*
X4932925Y-2487376D01*
X4918639Y-2473090D01*
X4890068Y-2458805D01*
X5304353Y-2630233D02*
X5304353Y-2330233D01*
X5432925Y-2630233D02*
X5432925Y-2473090D01*
X5418639Y-2444519D01*
X5390068Y-2430233D01*
X5347211Y-2430233D01*
X5318639Y-2444519D01*
X5304353Y-2458805D01*
X5618639Y-2630233D02*
X5590068Y-2615947D01*
X5575782Y-2601662D01*
X5561496Y-2573090D01*
X5561496Y-2487376D01*
X5575782Y-2458805D01*
X5590068Y-2444519D01*
X5618639Y-2430233D01*
X5661496Y-2430233D01*
X5690068Y-2444519D01*
X5704353Y-2458805D01*
X5718639Y-2487376D01*
X5718639Y-2573090D01*
X5704353Y-2601662D01*
X5690068Y-2615947D01*
X5661496Y-2630233D01*
X5618639Y-2630233D01*
X5890068Y-2630233D02*
X5861496Y-2615947D01*
X5847211Y-2587376D01*
X5847211Y-2330233D01*
X6118639Y-2615947D02*
X6090068Y-2630233D01*
X6032925Y-2630233D01*
X6004353Y-2615947D01*
X5990068Y-2587376D01*
X5990068Y-2473090D01*
X6004353Y-2444519D01*
X6032925Y-2430233D01*
X6090068Y-2430233D01*
X6118639Y-2444519D01*
X6132925Y-2473090D01*
X6132925Y-2501662D01*
X5990068Y-2530233D01*
X6247211Y-2615947D02*
X6275782Y-2630233D01*
X6332925Y-2630233D01*
X6361496Y-2615947D01*
X6375782Y-2587376D01*
X6375782Y-2573090D01*
X6361496Y-2544519D01*
X6332925Y-2530233D01*
X6290068Y-2530233D01*
X6261496Y-2515947D01*
X6247211Y-2487376D01*
X6247211Y-2473090D01*
X6261496Y-2444519D01*
X6290068Y-2430233D01*
X6332925Y-2430233D01*
X6361496Y-2444519D01*
X6475782Y-2744519D02*
X6490068Y-2730233D01*
X6518639Y-2687376D01*
X6532925Y-2658805D01*
X6547211Y-2615947D01*
X6561496Y-2544519D01*
X6561496Y-2487376D01*
X6547211Y-2415947D01*
X6532925Y-2373090D01*
X6518639Y-2344519D01*
X6490068Y-2301662D01*
X6475782Y-2287376D01*
X7018639Y-2744519D02*
X7004353Y-2730233D01*
X6975782Y-2687376D01*
X6961496Y-2658805D01*
X6947211Y-2615947D01*
X6932925Y-2544519D01*
X6932925Y-2487376D01*
X6947211Y-2415947D01*
X6961496Y-2373090D01*
X6975782Y-2344519D01*
X7004353Y-2301662D01*
X7018639Y-2287376D01*
X7132925Y-2430233D02*
X7132925Y-2630233D01*
X7132925Y-2458805D02*
X7147211Y-2444519D01*
X7175782Y-2430233D01*
X7218639Y-2430233D01*
X7247211Y-2444519D01*
X7261496Y-2473090D01*
X7261496Y-2630233D01*
X7447211Y-2630233D02*
X7418639Y-2615947D01*
X7404353Y-2601662D01*
X7390068Y-2573090D01*
X7390068Y-2487376D01*
X7404353Y-2458805D01*
X7418639Y-2444519D01*
X7447211Y-2430233D01*
X7490068Y-2430233D01*
X7518639Y-2444519D01*
X7532925Y-2458805D01*
X7547211Y-2487376D01*
X7547211Y-2573090D01*
X7532925Y-2601662D01*
X7518639Y-2615947D01*
X7490068Y-2630233D01*
X7447211Y-2630233D01*
X7632925Y-2430233D02*
X7747211Y-2430233D01*
X7675782Y-2330233D02*
X7675782Y-2587376D01*
X7690068Y-2615947D01*
X7718639Y-2630233D01*
X7747211Y-2630233D01*
X8075782Y-2430233D02*
X8075782Y-2730233D01*
X8075782Y-2444519D02*
X8104353Y-2430233D01*
X8161496Y-2430233D01*
X8190068Y-2444519D01*
X8204353Y-2458805D01*
X8218639Y-2487376D01*
X8218639Y-2573090D01*
X8204353Y-2601662D01*
X8190068Y-2615947D01*
X8161496Y-2630233D01*
X8104353Y-2630233D01*
X8075782Y-2615947D01*
X8390068Y-2630233D02*
X8361496Y-2615947D01*
X8347211Y-2587376D01*
X8347211Y-2330233D01*
X8632925Y-2630233D02*
X8632925Y-2473090D01*
X8618639Y-2444519D01*
X8590068Y-2430233D01*
X8532925Y-2430233D01*
X8504353Y-2444519D01*
X8632925Y-2615947D02*
X8604353Y-2630233D01*
X8532925Y-2630233D01*
X8504353Y-2615947D01*
X8490068Y-2587376D01*
X8490068Y-2558805D01*
X8504353Y-2530233D01*
X8532925Y-2515947D01*
X8604353Y-2515947D01*
X8632925Y-2501662D01*
X8732925Y-2430233D02*
X8847211Y-2430233D01*
X8775782Y-2330233D02*
X8775782Y-2587376D01*
X8790068Y-2615947D01*
X8818639Y-2630233D01*
X8847211Y-2630233D01*
X9061496Y-2615947D02*
X9032925Y-2630233D01*
X8975782Y-2630233D01*
X8947211Y-2615947D01*
X8932925Y-2587376D01*
X8932925Y-2473090D01*
X8947211Y-2444519D01*
X8975782Y-2430233D01*
X9032925Y-2430233D01*
X9061496Y-2444519D01*
X9075782Y-2473090D01*
X9075782Y-2501662D01*
X8932925Y-2530233D01*
X9332925Y-2630233D02*
X9332925Y-2330233D01*
X9332925Y-2615947D02*
X9304353Y-2630233D01*
X9247211Y-2630233D01*
X9218639Y-2615947D01*
X9204353Y-2601662D01*
X9190068Y-2573090D01*
X9190068Y-2487376D01*
X9204353Y-2458805D01*
X9218639Y-2444519D01*
X9247211Y-2430233D01*
X9304353Y-2430233D01*
X9332925Y-2444519D01*
X9447211Y-2744519D02*
X9461496Y-2730233D01*
X9490068Y-2687376D01*
X9504353Y-2658805D01*
X9518639Y-2615947D01*
X9532925Y-2544519D01*
X9532925Y-2487376D01*
X9518639Y-2415947D01*
X9504353Y-2373090D01*
X9490068Y-2344519D01*
X9461496Y-2301662D01*
X9447211Y-2287376D01*
X-732075Y-2740519D02*
X-732075Y-3040519D01*
X-882075Y-2890519D02*
X-582075Y-2890519D01*
X-324218Y-2726233D02*
X-138504Y-2726233D01*
X-238504Y-2840519D01*
X-195646Y-2840519D01*
X-167075Y-2854805D01*
X-152789Y-2869090D01*
X-138504Y-2897662D01*
X-138504Y-2969090D01*
X-152789Y-2997662D01*
X-167075Y-3011947D01*
X-195646Y-3026233D01*
X-281361Y-3026233D01*
X-309932Y-3011947D01*
X-324218Y-2997662D01*
X-9932Y-2997662D02*
X4353Y-3011947D01*
X-9932Y-3026233D01*
X-24218Y-3011947D01*
X-9932Y-2997662D01*
X-9932Y-3026233D01*
X190068Y-2726233D02*
X218639Y-2726233D01*
X247211Y-2740519D01*
X261496Y-2754805D01*
X275782Y-2783376D01*
X290068Y-2840519D01*
X290068Y-2911947D01*
X275782Y-2969090D01*
X261496Y-2997662D01*
X247211Y-3011947D01*
X218639Y-3026233D01*
X190068Y-3026233D01*
X161496Y-3011947D01*
X147211Y-2997662D01*
X132925Y-2969090D01*
X118639Y-2911947D01*
X118639Y-2840519D01*
X132925Y-2783376D01*
X147211Y-2754805D01*
X161496Y-2740519D01*
X190068Y-2726233D01*
X475782Y-2726233D02*
X504353Y-2726233D01*
X532925Y-2740519D01*
X547211Y-2754805D01*
X561496Y-2783376D01*
X575782Y-2840519D01*
X575782Y-2911947D01*
X561496Y-2969090D01*
X547211Y-2997662D01*
X532925Y-3011947D01*
X504353Y-3026233D01*
X475782Y-3026233D01*
X447211Y-3011947D01*
X432925Y-2997662D01*
X418639Y-2969090D01*
X404353Y-2911947D01*
X404353Y-2840519D01*
X418639Y-2783376D01*
X432925Y-2754805D01*
X447211Y-2740519D01*
X475782Y-2726233D01*
X704353Y-3026233D02*
X704353Y-2826233D01*
X704353Y-2854805D02*
X718639Y-2840519D01*
X747211Y-2826233D01*
X790068Y-2826233D01*
X818639Y-2840519D01*
X832925Y-2869090D01*
X832925Y-3026233D01*
X832925Y-2869090D02*
X847211Y-2840519D01*
X875782Y-2826233D01*
X918639Y-2826233D01*
X947211Y-2840519D01*
X961496Y-2869090D01*
X961496Y-3026233D01*
X1104353Y-3026233D02*
X1104353Y-2826233D01*
X1104353Y-2854805D02*
X1118639Y-2840519D01*
X1147211Y-2826233D01*
X1190068Y-2826233D01*
X1218639Y-2840519D01*
X1232925Y-2869090D01*
X1232925Y-3026233D01*
X1232925Y-2869090D02*
X1247211Y-2840519D01*
X1275782Y-2826233D01*
X1318639Y-2826233D01*
X1347211Y-2840519D01*
X1361496Y-2869090D01*
X1361496Y-3026233D01*
X1947211Y-2711947D02*
X1690068Y-3097662D01*
X2332925Y-2726233D02*
X2361496Y-2726233D01*
X2390068Y-2740519D01*
X2404353Y-2754805D01*
X2418639Y-2783376D01*
X2432925Y-2840519D01*
X2432925Y-2911947D01*
X2418639Y-2969090D01*
X2404353Y-2997662D01*
X2390068Y-3011947D01*
X2361496Y-3026233D01*
X2332925Y-3026233D01*
X2304353Y-3011947D01*
X2290068Y-2997662D01*
X2275782Y-2969090D01*
X2261496Y-2911947D01*
X2261496Y-2840519D01*
X2275782Y-2783376D01*
X2290068Y-2754805D01*
X2304353Y-2740519D01*
X2332925Y-2726233D01*
X2561496Y-2997662D02*
X2575782Y-3011947D01*
X2561496Y-3026233D01*
X2547211Y-3011947D01*
X2561496Y-2997662D01*
X2561496Y-3026233D01*
X2861496Y-3026233D02*
X2690068Y-3026233D01*
X2775782Y-3026233D02*
X2775782Y-2726233D01*
X2747211Y-2769090D01*
X2718639Y-2797662D01*
X2690068Y-2811947D01*
X3147211Y-3026233D02*
X2975782Y-3026233D01*
X3061496Y-3026233D02*
X3061496Y-2726233D01*
X3032925Y-2769090D01*
X3004353Y-2797662D01*
X2975782Y-2811947D01*
X3318639Y-2854805D02*
X3290068Y-2840519D01*
X3275782Y-2826233D01*
X3261496Y-2797662D01*
X3261496Y-2783376D01*
X3275782Y-2754805D01*
X3290068Y-2740519D01*
X3318639Y-2726233D01*
X3375782Y-2726233D01*
X3404353Y-2740519D01*
X3418639Y-2754805D01*
X3432925Y-2783376D01*
X3432925Y-2797662D01*
X3418639Y-2826233D01*
X3404353Y-2840519D01*
X3375782Y-2854805D01*
X3318639Y-2854805D01*
X3290068Y-2869090D01*
X3275782Y-2883376D01*
X3261496Y-2911947D01*
X3261496Y-2969090D01*
X3275782Y-2997662D01*
X3290068Y-3011947D01*
X3318639Y-3026233D01*
X3375782Y-3026233D01*
X3404353Y-3011947D01*
X3418639Y-2997662D01*
X3432925Y-2969090D01*
X3432925Y-2911947D01*
X3418639Y-2883376D01*
X3404353Y-2869090D01*
X3375782Y-2854805D01*
X3547211Y-2726233D02*
X3547211Y-2783376D01*
X3661496Y-2726233D02*
X3661496Y-2783376D01*
X4104353Y-3140519D02*
X4090068Y-3126233D01*
X4061496Y-3083376D01*
X4047211Y-3054805D01*
X4032925Y-3011947D01*
X4018639Y-2940519D01*
X4018639Y-2883376D01*
X4032925Y-2811947D01*
X4047211Y-2769090D01*
X4061496Y-2740519D01*
X4090068Y-2697662D01*
X4104353Y-2683376D01*
X4375782Y-3026233D02*
X4204353Y-3026233D01*
X4290068Y-3026233D02*
X4290068Y-2726233D01*
X4261496Y-2769090D01*
X4232925Y-2797662D01*
X4204353Y-2811947D01*
X4475782Y-2726233D02*
X4661496Y-2726233D01*
X4561496Y-2840519D01*
X4604353Y-2840519D01*
X4632925Y-2854805D01*
X4647211Y-2869090D01*
X4661496Y-2897662D01*
X4661496Y-2969090D01*
X4647211Y-2997662D01*
X4632925Y-3011947D01*
X4604353Y-3026233D01*
X4518639Y-3026233D01*
X4490068Y-3011947D01*
X4475782Y-2997662D01*
X4832925Y-2854805D02*
X4804353Y-2840519D01*
X4790068Y-2826233D01*
X4775782Y-2797662D01*
X4775782Y-2783376D01*
X4790068Y-2754805D01*
X4804353Y-2740519D01*
X4832925Y-2726233D01*
X4890068Y-2726233D01*
X4918639Y-2740519D01*
X4932925Y-2754805D01*
X4947211Y-2783376D01*
X4947211Y-2797662D01*
X4932925Y-2826233D01*
X4918639Y-2840519D01*
X4890068Y-2854805D01*
X4832925Y-2854805D01*
X4804353Y-2869090D01*
X4790068Y-2883376D01*
X4775782Y-2911947D01*
X4775782Y-2969090D01*
X4790068Y-2997662D01*
X4804353Y-3011947D01*
X4832925Y-3026233D01*
X4890068Y-3026233D01*
X4918639Y-3011947D01*
X4932925Y-2997662D01*
X4947211Y-2969090D01*
X4947211Y-2911947D01*
X4932925Y-2883376D01*
X4918639Y-2869090D01*
X4890068Y-2854805D01*
X5304353Y-3026233D02*
X5304353Y-2726233D01*
X5432925Y-3026233D02*
X5432925Y-2869090D01*
X5418639Y-2840519D01*
X5390068Y-2826233D01*
X5347211Y-2826233D01*
X5318639Y-2840519D01*
X5304353Y-2854805D01*
X5618639Y-3026233D02*
X5590068Y-3011947D01*
X5575782Y-2997662D01*
X5561496Y-2969090D01*
X5561496Y-2883376D01*
X5575782Y-2854805D01*
X5590068Y-2840519D01*
X5618639Y-2826233D01*
X5661496Y-2826233D01*
X5690068Y-2840519D01*
X5704353Y-2854805D01*
X5718639Y-2883376D01*
X5718639Y-2969090D01*
X5704353Y-2997662D01*
X5690068Y-3011947D01*
X5661496Y-3026233D01*
X5618639Y-3026233D01*
X5890068Y-3026233D02*
X5861496Y-3011947D01*
X5847211Y-2983376D01*
X5847211Y-2726233D01*
X6118639Y-3011947D02*
X6090068Y-3026233D01*
X6032925Y-3026233D01*
X6004353Y-3011947D01*
X5990068Y-2983376D01*
X5990068Y-2869090D01*
X6004353Y-2840519D01*
X6032925Y-2826233D01*
X6090068Y-2826233D01*
X6118639Y-2840519D01*
X6132925Y-2869090D01*
X6132925Y-2897662D01*
X5990068Y-2926233D01*
X6247211Y-3011947D02*
X6275782Y-3026233D01*
X6332925Y-3026233D01*
X6361496Y-3011947D01*
X6375782Y-2983376D01*
X6375782Y-2969090D01*
X6361496Y-2940519D01*
X6332925Y-2926233D01*
X6290068Y-2926233D01*
X6261496Y-2911947D01*
X6247211Y-2883376D01*
X6247211Y-2869090D01*
X6261496Y-2840519D01*
X6290068Y-2826233D01*
X6332925Y-2826233D01*
X6361496Y-2840519D01*
X6475782Y-3140519D02*
X6490068Y-3126233D01*
X6518639Y-3083376D01*
X6532925Y-3054805D01*
X6547211Y-3011947D01*
X6561496Y-2940519D01*
X6561496Y-2883376D01*
X6547211Y-2811947D01*
X6532925Y-2769090D01*
X6518639Y-2740519D01*
X6490068Y-2697662D01*
X6475782Y-2683376D01*
X7018639Y-3140519D02*
X7004353Y-3126233D01*
X6975782Y-3083376D01*
X6961496Y-3054805D01*
X6947211Y-3011947D01*
X6932925Y-2940519D01*
X6932925Y-2883376D01*
X6947211Y-2811947D01*
X6961496Y-2769090D01*
X6975782Y-2740519D01*
X7004353Y-2697662D01*
X7018639Y-2683376D01*
X7132925Y-2826233D02*
X7132925Y-3026233D01*
X7132925Y-2854805D02*
X7147211Y-2840519D01*
X7175782Y-2826233D01*
X7218639Y-2826233D01*
X7247211Y-2840519D01*
X7261496Y-2869090D01*
X7261496Y-3026233D01*
X7447211Y-3026233D02*
X7418639Y-3011947D01*
X7404353Y-2997662D01*
X7390068Y-2969090D01*
X7390068Y-2883376D01*
X7404353Y-2854805D01*
X7418639Y-2840519D01*
X7447211Y-2826233D01*
X7490068Y-2826233D01*
X7518639Y-2840519D01*
X7532925Y-2854805D01*
X7547211Y-2883376D01*
X7547211Y-2969090D01*
X7532925Y-2997662D01*
X7518639Y-3011947D01*
X7490068Y-3026233D01*
X7447211Y-3026233D01*
X7632925Y-2826233D02*
X7747211Y-2826233D01*
X7675782Y-2726233D02*
X7675782Y-2983376D01*
X7690068Y-3011947D01*
X7718639Y-3026233D01*
X7747211Y-3026233D01*
X8075782Y-2826233D02*
X8075782Y-3126233D01*
X8075782Y-2840519D02*
X8104353Y-2826233D01*
X8161496Y-2826233D01*
X8190068Y-2840519D01*
X8204353Y-2854805D01*
X8218639Y-2883376D01*
X8218639Y-2969090D01*
X8204353Y-2997662D01*
X8190068Y-3011947D01*
X8161496Y-3026233D01*
X8104353Y-3026233D01*
X8075782Y-3011947D01*
X8390068Y-3026233D02*
X8361496Y-3011947D01*
X8347211Y-2983376D01*
X8347211Y-2726233D01*
X8632925Y-3026233D02*
X8632925Y-2869090D01*
X8618639Y-2840519D01*
X8590068Y-2826233D01*
X8532925Y-2826233D01*
X8504353Y-2840519D01*
X8632925Y-3011947D02*
X8604353Y-3026233D01*
X8532925Y-3026233D01*
X8504353Y-3011947D01*
X8490068Y-2983376D01*
X8490068Y-2954805D01*
X8504353Y-2926233D01*
X8532925Y-2911947D01*
X8604353Y-2911947D01*
X8632925Y-2897662D01*
X8732925Y-2826233D02*
X8847211Y-2826233D01*
X8775782Y-2726233D02*
X8775782Y-2983376D01*
X8790068Y-3011947D01*
X8818639Y-3026233D01*
X8847211Y-3026233D01*
X9061496Y-3011947D02*
X9032925Y-3026233D01*
X8975782Y-3026233D01*
X8947211Y-3011947D01*
X8932925Y-2983376D01*
X8932925Y-2869090D01*
X8947211Y-2840519D01*
X8975782Y-2826233D01*
X9032925Y-2826233D01*
X9061496Y-2840519D01*
X9075782Y-2869090D01*
X9075782Y-2897662D01*
X8932925Y-2926233D01*
X9332925Y-3026233D02*
X9332925Y-2726233D01*
X9332925Y-3011947D02*
X9304353Y-3026233D01*
X9247211Y-3026233D01*
X9218639Y-3011947D01*
X9204353Y-2997662D01*
X9190068Y-2969090D01*
X9190068Y-2883376D01*
X9204353Y-2854805D01*
X9218639Y-2840519D01*
X9247211Y-2826233D01*
X9304353Y-2826233D01*
X9332925Y-2840519D01*
X9447211Y-3140519D02*
X9461496Y-3126233D01*
X9490068Y-3083376D01*
X9504353Y-3054805D01*
X9518639Y-3011947D01*
X9532925Y-2940519D01*
X9532925Y-2883376D01*
X9518639Y-2811947D01*
X9504353Y-2769090D01*
X9490068Y-2740519D01*
X9461496Y-2697662D01*
X9447211Y-2683376D01*
X-626711Y-3428283D02*
X-626711Y-3212755D01*
X-842239Y-3212755D01*
X-842239Y-3428283D01*
X-626711Y-3428283D01*
X-324218Y-3156233D02*
X-138504Y-3156233D01*
X-238504Y-3270519D01*
X-195646Y-3270519D01*
X-167075Y-3284805D01*
X-152789Y-3299090D01*
X-138504Y-3327662D01*
X-138504Y-3399090D01*
X-152789Y-3427662D01*
X-167075Y-3441947D01*
X-195646Y-3456233D01*
X-281361Y-3456233D01*
X-309932Y-3441947D01*
X-324218Y-3427662D01*
X-9932Y-3427662D02*
X4353Y-3441947D01*
X-9932Y-3456233D01*
X-24218Y-3441947D01*
X-9932Y-3427662D01*
X-9932Y-3456233D01*
X190068Y-3156233D02*
X218639Y-3156233D01*
X247211Y-3170519D01*
X261496Y-3184805D01*
X275782Y-3213376D01*
X290068Y-3270519D01*
X290068Y-3341947D01*
X275782Y-3399090D01*
X261496Y-3427662D01*
X247211Y-3441947D01*
X218639Y-3456233D01*
X190068Y-3456233D01*
X161496Y-3441947D01*
X147211Y-3427662D01*
X132925Y-3399090D01*
X118639Y-3341947D01*
X118639Y-3270519D01*
X132925Y-3213376D01*
X147211Y-3184805D01*
X161496Y-3170519D01*
X190068Y-3156233D01*
X561496Y-3156233D02*
X418639Y-3156233D01*
X404353Y-3299090D01*
X418639Y-3284805D01*
X447211Y-3270519D01*
X518639Y-3270519D01*
X547211Y-3284805D01*
X561496Y-3299090D01*
X575782Y-3327662D01*
X575782Y-3399090D01*
X561496Y-3427662D01*
X547211Y-3441947D01*
X518639Y-3456233D01*
X447211Y-3456233D01*
X418639Y-3441947D01*
X404353Y-3427662D01*
X704353Y-3456233D02*
X704353Y-3256233D01*
X704353Y-3284805D02*
X718639Y-3270519D01*
X747211Y-3256233D01*
X790068Y-3256233D01*
X818639Y-3270519D01*
X832925Y-3299090D01*
X832925Y-3456233D01*
X832925Y-3299090D02*
X847211Y-3270519D01*
X875782Y-3256233D01*
X918639Y-3256233D01*
X947211Y-3270519D01*
X961496Y-3299090D01*
X961496Y-3456233D01*
X1104353Y-3456233D02*
X1104353Y-3256233D01*
X1104353Y-3284805D02*
X1118639Y-3270519D01*
X1147211Y-3256233D01*
X1190068Y-3256233D01*
X1218639Y-3270519D01*
X1232925Y-3299090D01*
X1232925Y-3456233D01*
X1232925Y-3299090D02*
X1247211Y-3270519D01*
X1275782Y-3256233D01*
X1318639Y-3256233D01*
X1347211Y-3270519D01*
X1361496Y-3299090D01*
X1361496Y-3456233D01*
X1947211Y-3141947D02*
X1690068Y-3527662D01*
X2332925Y-3156233D02*
X2361496Y-3156233D01*
X2390068Y-3170519D01*
X2404353Y-3184805D01*
X2418639Y-3213376D01*
X2432925Y-3270519D01*
X2432925Y-3341947D01*
X2418639Y-3399090D01*
X2404353Y-3427662D01*
X2390068Y-3441947D01*
X2361496Y-3456233D01*
X2332925Y-3456233D01*
X2304353Y-3441947D01*
X2290068Y-3427662D01*
X2275782Y-3399090D01*
X2261496Y-3341947D01*
X2261496Y-3270519D01*
X2275782Y-3213376D01*
X2290068Y-3184805D01*
X2304353Y-3170519D01*
X2332925Y-3156233D01*
X2561496Y-3427662D02*
X2575782Y-3441947D01*
X2561496Y-3456233D01*
X2547211Y-3441947D01*
X2561496Y-3427662D01*
X2561496Y-3456233D01*
X2861496Y-3456233D02*
X2690068Y-3456233D01*
X2775782Y-3456233D02*
X2775782Y-3156233D01*
X2747211Y-3199090D01*
X2718639Y-3227662D01*
X2690068Y-3241947D01*
X2975782Y-3184805D02*
X2990068Y-3170519D01*
X3018639Y-3156233D01*
X3090068Y-3156233D01*
X3118639Y-3170519D01*
X3132925Y-3184805D01*
X3147211Y-3213376D01*
X3147211Y-3241947D01*
X3132925Y-3284805D01*
X2961496Y-3456233D01*
X3147211Y-3456233D01*
X3332925Y-3156233D02*
X3361496Y-3156233D01*
X3390068Y-3170519D01*
X3404353Y-3184805D01*
X3418639Y-3213376D01*
X3432925Y-3270519D01*
X3432925Y-3341947D01*
X3418639Y-3399090D01*
X3404353Y-3427662D01*
X3390068Y-3441947D01*
X3361496Y-3456233D01*
X3332925Y-3456233D01*
X3304353Y-3441947D01*
X3290068Y-3427662D01*
X3275782Y-3399090D01*
X3261496Y-3341947D01*
X3261496Y-3270519D01*
X3275782Y-3213376D01*
X3290068Y-3184805D01*
X3304353Y-3170519D01*
X3332925Y-3156233D01*
X3547211Y-3156233D02*
X3547211Y-3213376D01*
X3661496Y-3156233D02*
X3661496Y-3213376D01*
X4104353Y-3570519D02*
X4090068Y-3556233D01*
X4061496Y-3513376D01*
X4047211Y-3484805D01*
X4032925Y-3441947D01*
X4018639Y-3370519D01*
X4018639Y-3313376D01*
X4032925Y-3241947D01*
X4047211Y-3199090D01*
X4061496Y-3170519D01*
X4090068Y-3127662D01*
X4104353Y-3113376D01*
X4261496Y-3284805D02*
X4232925Y-3270519D01*
X4218639Y-3256233D01*
X4204353Y-3227662D01*
X4204353Y-3213376D01*
X4218639Y-3184805D01*
X4232925Y-3170519D01*
X4261496Y-3156233D01*
X4318639Y-3156233D01*
X4347211Y-3170519D01*
X4361496Y-3184805D01*
X4375782Y-3213376D01*
X4375782Y-3227662D01*
X4361496Y-3256233D01*
X4347211Y-3270519D01*
X4318639Y-3284805D01*
X4261496Y-3284805D01*
X4232925Y-3299090D01*
X4218639Y-3313376D01*
X4204353Y-3341947D01*
X4204353Y-3399090D01*
X4218639Y-3427662D01*
X4232925Y-3441947D01*
X4261496Y-3456233D01*
X4318639Y-3456233D01*
X4347211Y-3441947D01*
X4361496Y-3427662D01*
X4375782Y-3399090D01*
X4375782Y-3341947D01*
X4361496Y-3313376D01*
X4347211Y-3299090D01*
X4318639Y-3284805D01*
X4732925Y-3456233D02*
X4732925Y-3156233D01*
X4861496Y-3456233D02*
X4861496Y-3299090D01*
X4847211Y-3270519D01*
X4818639Y-3256233D01*
X4775782Y-3256233D01*
X4747211Y-3270519D01*
X4732925Y-3284805D01*
X5047211Y-3456233D02*
X5018639Y-3441947D01*
X5004353Y-3427662D01*
X4990068Y-3399090D01*
X4990068Y-3313376D01*
X5004353Y-3284805D01*
X5018639Y-3270519D01*
X5047211Y-3256233D01*
X5090068Y-3256233D01*
X5118639Y-3270519D01*
X5132925Y-3284805D01*
X5147211Y-3313376D01*
X5147211Y-3399090D01*
X5132925Y-3427662D01*
X5118639Y-3441947D01*
X5090068Y-3456233D01*
X5047211Y-3456233D01*
X5318639Y-3456233D02*
X5290068Y-3441947D01*
X5275782Y-3413376D01*
X5275782Y-3156233D01*
X5547211Y-3441947D02*
X5518639Y-3456233D01*
X5461496Y-3456233D01*
X5432925Y-3441947D01*
X5418639Y-3413376D01*
X5418639Y-3299090D01*
X5432925Y-3270519D01*
X5461496Y-3256233D01*
X5518639Y-3256233D01*
X5547211Y-3270519D01*
X5561496Y-3299090D01*
X5561496Y-3327662D01*
X5418639Y-3356233D01*
X5675782Y-3441947D02*
X5704353Y-3456233D01*
X5761496Y-3456233D01*
X5790068Y-3441947D01*
X5804353Y-3413376D01*
X5804353Y-3399090D01*
X5790068Y-3370519D01*
X5761496Y-3356233D01*
X5718639Y-3356233D01*
X5690068Y-3341947D01*
X5675782Y-3313376D01*
X5675782Y-3299090D01*
X5690068Y-3270519D01*
X5718639Y-3256233D01*
X5761496Y-3256233D01*
X5790068Y-3270519D01*
X5904353Y-3570519D02*
X5918639Y-3556233D01*
X5947211Y-3513376D01*
X5961496Y-3484805D01*
X5975782Y-3441947D01*
X5990068Y-3370519D01*
X5990068Y-3313376D01*
X5975782Y-3241947D01*
X5961496Y-3199090D01*
X5947211Y-3170519D01*
X5918639Y-3127662D01*
X5904353Y-3113376D01*
X6447211Y-3570519D02*
X6432925Y-3556233D01*
X6404353Y-3513376D01*
X6390068Y-3484805D01*
X6375782Y-3441947D01*
X6361496Y-3370519D01*
X6361496Y-3313376D01*
X6375782Y-3241947D01*
X6390068Y-3199090D01*
X6404353Y-3170519D01*
X6432925Y-3127662D01*
X6447211Y-3113376D01*
X6561496Y-3256233D02*
X6561496Y-3456233D01*
X6561496Y-3284805D02*
X6575782Y-3270519D01*
X6604353Y-3256233D01*
X6647211Y-3256233D01*
X6675782Y-3270519D01*
X6690068Y-3299090D01*
X6690068Y-3456233D01*
X6875782Y-3456233D02*
X6847211Y-3441947D01*
X6832925Y-3427662D01*
X6818639Y-3399090D01*
X6818639Y-3313376D01*
X6832925Y-3284805D01*
X6847211Y-3270519D01*
X6875782Y-3256233D01*
X6918639Y-3256233D01*
X6947211Y-3270519D01*
X6961496Y-3284805D01*
X6975782Y-3313376D01*
X6975782Y-3399090D01*
X6961496Y-3427662D01*
X6947211Y-3441947D01*
X6918639Y-3456233D01*
X6875782Y-3456233D01*
X7061496Y-3256233D02*
X7175782Y-3256233D01*
X7104353Y-3156233D02*
X7104353Y-3413376D01*
X7118639Y-3441947D01*
X7147211Y-3456233D01*
X7175782Y-3456233D01*
X7504353Y-3256233D02*
X7504353Y-3556233D01*
X7504353Y-3270519D02*
X7532925Y-3256233D01*
X7590068Y-3256233D01*
X7618639Y-3270519D01*
X7632925Y-3284805D01*
X7647211Y-3313376D01*
X7647211Y-3399090D01*
X7632925Y-3427662D01*
X7618639Y-3441947D01*
X7590068Y-3456233D01*
X7532925Y-3456233D01*
X7504353Y-3441947D01*
X7818639Y-3456233D02*
X7790068Y-3441947D01*
X7775782Y-3413376D01*
X7775782Y-3156233D01*
X8061496Y-3456233D02*
X8061496Y-3299090D01*
X8047211Y-3270519D01*
X8018639Y-3256233D01*
X7961496Y-3256233D01*
X7932925Y-3270519D01*
X8061496Y-3441947D02*
X8032925Y-3456233D01*
X7961496Y-3456233D01*
X7932925Y-3441947D01*
X7918639Y-3413376D01*
X7918639Y-3384805D01*
X7932925Y-3356233D01*
X7961496Y-3341947D01*
X8032925Y-3341947D01*
X8061496Y-3327662D01*
X8161496Y-3256233D02*
X8275782Y-3256233D01*
X8204353Y-3156233D02*
X8204353Y-3413376D01*
X8218639Y-3441947D01*
X8247211Y-3456233D01*
X8275782Y-3456233D01*
X8490068Y-3441947D02*
X8461496Y-3456233D01*
X8404353Y-3456233D01*
X8375782Y-3441947D01*
X8361496Y-3413376D01*
X8361496Y-3299090D01*
X8375782Y-3270519D01*
X8404353Y-3256233D01*
X8461496Y-3256233D01*
X8490068Y-3270519D01*
X8504353Y-3299090D01*
X8504353Y-3327662D01*
X8361496Y-3356233D01*
X8761496Y-3456233D02*
X8761496Y-3156233D01*
X8761496Y-3441947D02*
X8732925Y-3456233D01*
X8675782Y-3456233D01*
X8647211Y-3441947D01*
X8632925Y-3427662D01*
X8618639Y-3399090D01*
X8618639Y-3313376D01*
X8632925Y-3284805D01*
X8647211Y-3270519D01*
X8675782Y-3256233D01*
X8732925Y-3256233D01*
X8761496Y-3270519D01*
X8875782Y-3570519D02*
X8890068Y-3556233D01*
X8918639Y-3513376D01*
X8932925Y-3484805D01*
X8947211Y-3441947D01*
X8961496Y-3370519D01*
X8961496Y-3313376D01*
X8947211Y-3241947D01*
X8932925Y-3199090D01*
X8918639Y-3170519D01*
X8890068Y-3127662D01*
X8875782Y-3113376D01*
X-781465Y-3954709D02*
X-582075Y-3755319D01*
X-781465Y-3555929D01*
X-980855Y-3755319D01*
X-781465Y-3954709D01*
X-324218Y-3591033D02*
X-138504Y-3591033D01*
X-238504Y-3705319D01*
X-195646Y-3705319D01*
X-167075Y-3719605D01*
X-152789Y-3733890D01*
X-138504Y-3762462D01*
X-138504Y-3833890D01*
X-152789Y-3862462D01*
X-167075Y-3876747D01*
X-195646Y-3891033D01*
X-281361Y-3891033D01*
X-309932Y-3876747D01*
X-324218Y-3862462D01*
X-9932Y-3862462D02*
X4353Y-3876747D01*
X-9932Y-3891033D01*
X-24218Y-3876747D01*
X-9932Y-3862462D01*
X-9932Y-3891033D01*
X147211Y-3891033D02*
X204353Y-3891033D01*
X232925Y-3876747D01*
X247211Y-3862462D01*
X275782Y-3819605D01*
X290068Y-3762462D01*
X290068Y-3648176D01*
X275782Y-3619605D01*
X261496Y-3605319D01*
X232925Y-3591033D01*
X175782Y-3591033D01*
X147211Y-3605319D01*
X132925Y-3619605D01*
X118639Y-3648176D01*
X118639Y-3719605D01*
X132925Y-3748176D01*
X147211Y-3762462D01*
X175782Y-3776747D01*
X232925Y-3776747D01*
X261496Y-3762462D01*
X275782Y-3748176D01*
X290068Y-3719605D01*
X432925Y-3891033D02*
X490068Y-3891033D01*
X518639Y-3876747D01*
X532925Y-3862462D01*
X561496Y-3819605D01*
X575782Y-3762462D01*
X575782Y-3648176D01*
X561496Y-3619605D01*
X547211Y-3605319D01*
X518639Y-3591033D01*
X461496Y-3591033D01*
X432925Y-3605319D01*
X418639Y-3619605D01*
X404353Y-3648176D01*
X404353Y-3719605D01*
X418639Y-3748176D01*
X432925Y-3762462D01*
X461496Y-3776747D01*
X518639Y-3776747D01*
X547211Y-3762462D01*
X561496Y-3748176D01*
X575782Y-3719605D01*
X704353Y-3891033D02*
X704353Y-3691033D01*
X704353Y-3719605D02*
X718639Y-3705319D01*
X747211Y-3691033D01*
X790068Y-3691033D01*
X818639Y-3705319D01*
X832925Y-3733890D01*
X832925Y-3891033D01*
X832925Y-3733890D02*
X847211Y-3705319D01*
X875782Y-3691033D01*
X918639Y-3691033D01*
X947211Y-3705319D01*
X961496Y-3733890D01*
X961496Y-3891033D01*
X1104353Y-3891033D02*
X1104353Y-3691033D01*
X1104353Y-3719605D02*
X1118639Y-3705319D01*
X1147211Y-3691033D01*
X1190068Y-3691033D01*
X1218639Y-3705319D01*
X1232925Y-3733890D01*
X1232925Y-3891033D01*
X1232925Y-3733890D02*
X1247211Y-3705319D01*
X1275782Y-3691033D01*
X1318639Y-3691033D01*
X1347211Y-3705319D01*
X1361496Y-3733890D01*
X1361496Y-3891033D01*
X1947211Y-3576747D02*
X1690068Y-3962462D01*
X2332925Y-3591033D02*
X2361496Y-3591033D01*
X2390068Y-3605319D01*
X2404353Y-3619605D01*
X2418639Y-3648176D01*
X2432925Y-3705319D01*
X2432925Y-3776747D01*
X2418639Y-3833890D01*
X2404353Y-3862462D01*
X2390068Y-3876747D01*
X2361496Y-3891033D01*
X2332925Y-3891033D01*
X2304353Y-3876747D01*
X2290068Y-3862462D01*
X2275782Y-3833890D01*
X2261496Y-3776747D01*
X2261496Y-3705319D01*
X2275782Y-3648176D01*
X2290068Y-3619605D01*
X2304353Y-3605319D01*
X2332925Y-3591033D01*
X2561496Y-3862462D02*
X2575782Y-3876747D01*
X2561496Y-3891033D01*
X2547211Y-3876747D01*
X2561496Y-3862462D01*
X2561496Y-3891033D01*
X2861496Y-3891033D02*
X2690068Y-3891033D01*
X2775782Y-3891033D02*
X2775782Y-3591033D01*
X2747211Y-3633890D01*
X2718639Y-3662462D01*
X2690068Y-3676747D01*
X3132925Y-3591033D02*
X2990068Y-3591033D01*
X2975782Y-3733890D01*
X2990068Y-3719605D01*
X3018639Y-3705319D01*
X3090068Y-3705319D01*
X3118639Y-3719605D01*
X3132925Y-3733890D01*
X3147211Y-3762462D01*
X3147211Y-3833890D01*
X3132925Y-3862462D01*
X3118639Y-3876747D01*
X3090068Y-3891033D01*
X3018639Y-3891033D01*
X2990068Y-3876747D01*
X2975782Y-3862462D01*
X3247211Y-3591033D02*
X3447211Y-3591033D01*
X3318639Y-3891033D01*
X3547211Y-3591033D02*
X3547211Y-3648176D01*
X3661496Y-3591033D02*
X3661496Y-3648176D01*
X4104353Y-4005319D02*
X4090068Y-3991033D01*
X4061496Y-3948176D01*
X4047211Y-3919605D01*
X4032925Y-3876747D01*
X4018639Y-3805319D01*
X4018639Y-3748176D01*
X4032925Y-3676747D01*
X4047211Y-3633890D01*
X4061496Y-3605319D01*
X4090068Y-3562462D01*
X4104353Y-3548176D01*
X4190068Y-3591033D02*
X4390068Y-3591033D01*
X4261496Y-3891033D01*
X4475782Y-3591033D02*
X4675782Y-3591033D01*
X4547211Y-3891033D01*
X5018639Y-3891033D02*
X5018639Y-3591033D01*
X5147211Y-3891033D02*
X5147211Y-3733890D01*
X5132925Y-3705319D01*
X5104353Y-3691033D01*
X5061496Y-3691033D01*
X5032925Y-3705319D01*
X5018639Y-3719605D01*
X5332925Y-3891033D02*
X5304353Y-3876747D01*
X5290068Y-3862462D01*
X5275782Y-3833890D01*
X5275782Y-3748176D01*
X5290068Y-3719605D01*
X5304353Y-3705319D01*
X5332925Y-3691033D01*
X5375782Y-3691033D01*
X5404353Y-3705319D01*
X5418639Y-3719605D01*
X5432925Y-3748176D01*
X5432925Y-3833890D01*
X5418639Y-3862462D01*
X5404353Y-3876747D01*
X5375782Y-3891033D01*
X5332925Y-3891033D01*
X5604353Y-3891033D02*
X5575782Y-3876747D01*
X5561496Y-3848176D01*
X5561496Y-3591033D01*
X5832925Y-3876747D02*
X5804353Y-3891033D01*
X5747211Y-3891033D01*
X5718639Y-3876747D01*
X5704353Y-3848176D01*
X5704353Y-3733890D01*
X5718639Y-3705319D01*
X5747211Y-3691033D01*
X5804353Y-3691033D01*
X5832925Y-3705319D01*
X5847211Y-3733890D01*
X5847211Y-3762462D01*
X5704353Y-3791033D01*
X5961496Y-3876747D02*
X5990068Y-3891033D01*
X6047211Y-3891033D01*
X6075782Y-3876747D01*
X6090068Y-3848176D01*
X6090068Y-3833890D01*
X6075782Y-3805319D01*
X6047211Y-3791033D01*
X6004353Y-3791033D01*
X5975782Y-3776747D01*
X5961496Y-3748176D01*
X5961496Y-3733890D01*
X5975782Y-3705319D01*
X6004353Y-3691033D01*
X6047211Y-3691033D01*
X6075782Y-3705319D01*
X6190068Y-4005319D02*
X6204353Y-3991033D01*
X6232925Y-3948176D01*
X6247211Y-3919605D01*
X6261496Y-3876747D01*
X6275782Y-3805319D01*
X6275782Y-3748176D01*
X6261496Y-3676747D01*
X6247211Y-3633890D01*
X6232925Y-3605319D01*
X6204353Y-3562462D01*
X6190068Y-3548176D01*
X6732925Y-4005319D02*
X6718639Y-3991033D01*
X6690068Y-3948176D01*
X6675782Y-3919605D01*
X6661496Y-3876747D01*
X6647211Y-3805319D01*
X6647211Y-3748176D01*
X6661496Y-3676747D01*
X6675782Y-3633890D01*
X6690068Y-3605319D01*
X6718639Y-3562462D01*
X6732925Y-3548176D01*
X6847211Y-3691033D02*
X6847211Y-3891033D01*
X6847211Y-3719605D02*
X6861496Y-3705319D01*
X6890068Y-3691033D01*
X6932925Y-3691033D01*
X6961496Y-3705319D01*
X6975782Y-3733890D01*
X6975782Y-3891033D01*
X7161496Y-3891033D02*
X7132925Y-3876747D01*
X7118639Y-3862462D01*
X7104353Y-3833890D01*
X7104353Y-3748176D01*
X7118639Y-3719605D01*
X7132925Y-3705319D01*
X7161496Y-3691033D01*
X7204353Y-3691033D01*
X7232925Y-3705319D01*
X7247211Y-3719605D01*
X7261496Y-3748176D01*
X7261496Y-3833890D01*
X7247211Y-3862462D01*
X7232925Y-3876747D01*
X7204353Y-3891033D01*
X7161496Y-3891033D01*
X7347211Y-3691033D02*
X7461496Y-3691033D01*
X7390068Y-3591033D02*
X7390068Y-3848176D01*
X7404353Y-3876747D01*
X7432925Y-3891033D01*
X7461496Y-3891033D01*
X7790068Y-3691033D02*
X7790068Y-3991033D01*
X7790068Y-3705319D02*
X7818639Y-3691033D01*
X7875782Y-3691033D01*
X7904353Y-3705319D01*
X7918639Y-3719605D01*
X7932925Y-3748176D01*
X7932925Y-3833890D01*
X7918639Y-3862462D01*
X7904353Y-3876747D01*
X7875782Y-3891033D01*
X7818639Y-3891033D01*
X7790068Y-3876747D01*
X8104353Y-3891033D02*
X8075782Y-3876747D01*
X8061496Y-3848176D01*
X8061496Y-3591033D01*
X8347211Y-3891033D02*
X8347211Y-3733890D01*
X8332925Y-3705319D01*
X8304353Y-3691033D01*
X8247211Y-3691033D01*
X8218639Y-3705319D01*
X8347211Y-3876747D02*
X8318639Y-3891033D01*
X8247211Y-3891033D01*
X8218639Y-3876747D01*
X8204353Y-3848176D01*
X8204353Y-3819605D01*
X8218639Y-3791033D01*
X8247211Y-3776747D01*
X8318639Y-3776747D01*
X8347211Y-3762462D01*
X8447211Y-3691033D02*
X8561496Y-3691033D01*
X8490068Y-3591033D02*
X8490068Y-3848176D01*
X8504353Y-3876747D01*
X8532925Y-3891033D01*
X8561496Y-3891033D01*
X8775782Y-3876747D02*
X8747211Y-3891033D01*
X8690068Y-3891033D01*
X8661496Y-3876747D01*
X8647211Y-3848176D01*
X8647211Y-3733890D01*
X8661496Y-3705319D01*
X8690068Y-3691033D01*
X8747211Y-3691033D01*
X8775782Y-3705319D01*
X8790068Y-3733890D01*
X8790068Y-3762462D01*
X8647211Y-3791033D01*
X9047211Y-3891033D02*
X9047211Y-3591033D01*
X9047211Y-3876747D02*
X9018639Y-3891033D01*
X8961496Y-3891033D01*
X8932925Y-3876747D01*
X8918639Y-3862462D01*
X8904353Y-3833890D01*
X8904353Y-3748176D01*
X8918639Y-3719605D01*
X8932925Y-3705319D01*
X8961496Y-3691033D01*
X9018639Y-3691033D01*
X9047211Y-3705319D01*
X9161496Y-4005319D02*
X9175782Y-3991033D01*
X9204353Y-3948176D01*
X9218639Y-3919605D01*
X9232925Y-3876747D01*
X9247211Y-3805319D01*
X9247211Y-3748176D01*
X9232925Y-3676747D01*
X9218639Y-3633890D01*
X9204353Y-3605319D01*
X9175782Y-3562462D01*
X9161496Y-3548176D01*
M02*
