M48
; DRILL file {KiCad (5.1.9)-1} date 06/28/21 23:02:39
; FORMAT={-:-/ absolute / inch / decimal}
; #@! TF.CreationDate,2021-06-28T23:02:39+01:00
; #@! TF.GenerationSoftware,Kicad,Pcbnew,(5.1.9)-1
; #@! TF.FileFunction,NonPlated,1,2,NPTH
FMAT,2
INCH
T1C0.0256
T2C0.0689
T3C0.1181
T4C0.1200
T5C0.1570
%
G90
G05
T1
X6.1709Y3.5209
X6.3984Y3.5209
T2
X0.0748Y0.2748
X0.102Y3.2748
X0.1803Y1.7748
X0.1921Y2.5252
X0.2594Y1.0248
X0.4748Y0.2748
X0.502Y3.2748
X0.5803Y1.7748
X0.5921Y2.5252
X0.6594Y1.0248
X0.8516Y3.276
X1.0134Y0.2756
X1.1295Y2.5252
X1.213Y1.774
X1.2516Y3.276
X1.4134Y0.2756
X1.4819Y1.0252
X1.5295Y2.5252
X1.613Y1.774
X1.6618Y3.3412
X1.8819Y1.0252
X1.9281Y2.5465
X2.0094Y1.7777
X2.0579Y3.2856
X2.2648Y0.227
X2.2763Y0.9828
X2.3242Y2.4908
X2.4047Y3.2373
X2.4055Y1.722
X2.6609Y0.1714
X2.6708Y2.4421
X2.6725Y0.9271
X2.7521Y1.6733
X2.8008Y3.1816
X3.019Y0.8784
X3.0669Y2.3864
X3.1468Y3.133
X3.1482Y1.6176
X3.4135Y2.3377
X3.4152Y0.8227
X3.4948Y1.5689
X3.5429Y3.0773
X3.7502Y0.0183
X3.7618Y0.774
X3.8096Y2.282
X3.8901Y3.0282
X3.8909Y1.5132
X4.1463Y-0.0374
X4.1562Y2.2333
X4.1579Y0.7183
X4.2375Y1.4645
X4.2862Y2.9726
X4.5045Y0.6696
X4.5523Y2.1777
X4.6323Y2.9243
X4.6336Y1.4089
X4.9006Y0.614
X5.0284Y2.8686
X5.5586Y2.1156
X5.5817Y0.6041
X5.8256Y2.9105
X5.8487Y1.399
X5.9547Y2.1713
X5.9778Y0.6598
X6.2217Y2.9662
X6.2448Y1.4547
X6.3013Y2.22
X6.3244Y0.7085
X6.5216Y-0.0211
X6.5683Y3.0149
X6.5914Y1.5034
X6.6974Y2.2757
X6.7205Y0.7642
X6.9178Y0.0345
X6.9644Y3.0706
X6.9875Y1.5591
X7.044Y2.3244
X7.0671Y0.8129
X7.311Y3.1193
X7.3341Y1.6078
X7.4401Y2.3801
X7.4632Y0.8686
X7.7071Y3.1749
X7.7285Y0.1485
X7.7302Y1.6634
X7.7867Y2.4288
X7.8098Y0.9173
X8.0537Y3.2237
X8.0768Y1.7122
X8.1246Y0.2041
X8.1829Y2.4844
X8.2059Y0.9729
X8.4498Y3.2793
X8.4729Y1.7678
X8.5839Y0.276
X8.5843Y2.5255
X8.5843Y1.0255
X8.8462Y3.2763
X8.8655Y1.7755
X8.9839Y0.276
X8.9843Y2.5255
X8.9843Y1.0255
X9.2462Y3.2763
X9.2655Y1.7755
X9.3343Y2.5255
X9.3343Y1.0255
X9.3346Y0.276
X9.5962Y3.2763
X9.6155Y1.7755
X9.7343Y2.5255
X9.7343Y1.0255
X9.7346Y0.276
X9.9962Y3.2763
X10.0155Y1.7755
X10.0843Y2.5255
X10.0843Y1.0255
X10.2799Y0.0811
X10.3462Y3.2763
X10.4843Y2.5255
X10.4843Y1.0255
X10.6799Y0.0811
X10.7462Y3.2763
X10.8343Y1.7755
X11.0218Y2.5255
X11.0291Y0.8307
X11.0291Y0.0807
X11.0962Y3.2763
X11.2343Y1.7755
X11.4218Y2.5255
X11.4291Y0.8307
X11.4291Y0.0807
X11.4962Y3.2763
X11.7783Y0.0811
X12.1783Y0.0811
X12.2441Y2.3528
X12.2441Y1.6039
X12.6441Y2.3528
X12.6441Y1.6039
T3
X0.1248Y0.3748
X0.152Y3.3748
X0.2303Y1.8748
X0.2421Y2.6252
X0.3094Y1.1248
X0.3748Y0.4748
X0.402Y3.4748
X0.4803Y1.9748
X0.4921Y2.7252
X0.5594Y1.2248
X0.9016Y3.376
X1.0634Y0.3756
X1.1516Y3.476
X1.1795Y2.6252
X1.263Y1.874
X1.3134Y0.4756
X1.4295Y2.7252
X1.513Y1.974
X1.5319Y1.1252
X1.7252Y3.4333
X1.7819Y1.2252
X1.9867Y3.4975
X1.9915Y2.6385
X2.0728Y1.8697
X2.253Y2.7028
X2.3282Y0.3191
X2.3343Y1.934
X2.3398Y1.0748
X2.4681Y3.3294
X2.5897Y0.3833
X2.6013Y1.1391
X2.7296Y3.3936
X2.7342Y2.5342
X2.8155Y1.7654
X2.9957Y2.5984
X3.077Y1.8296
X3.0825Y0.9705
X3.2103Y3.225
X3.344Y1.0347
X3.4717Y3.2893
X3.4769Y2.4298
X3.5582Y1.661
X3.7384Y2.494
X3.8136Y0.1103
X3.8197Y1.7252
X3.8252Y0.8661
X3.9536Y3.1203
X4.0751Y0.1746
X4.0867Y0.9303
X4.2151Y3.1845
X4.2196Y2.3254
X4.3009Y1.5566
X4.4811Y2.3896
X4.5624Y1.6208
X4.5679Y0.7617
X4.6957Y3.0164
X4.8294Y0.8259
X4.9572Y3.0806
X5.5942Y2.2216
X5.6173Y0.7101
X5.8279Y2.3554
X5.851Y0.8439
X5.8612Y3.0165
X5.8843Y1.505
X6.0949Y3.1503
X6.1179Y1.6388
X6.3369Y2.326
X6.36Y0.8145
X6.5572Y0.0848
X6.5706Y2.4598
X6.5937Y0.9483
X6.6039Y3.1209
X6.627Y1.6094
X6.7909Y0.2187
X6.8376Y3.2547
X6.8606Y1.7432
X7.0796Y2.4304
X7.1027Y0.9189
X7.3133Y2.5642
X7.3364Y1.0527
X7.3466Y3.2253
X7.3697Y1.7138
X7.5803Y3.3591
X7.6033Y1.8476
X7.7641Y0.2545
X7.8223Y2.5347
X7.8454Y1.0233
X7.9978Y0.3883
X8.056Y2.6686
X8.0791Y1.1571
X8.0893Y3.3296
X8.1124Y1.8181
X8.323Y3.4635
X8.346Y1.952
X8.6339Y0.376
X8.6343Y2.6255
X8.6343Y1.1255
X8.8839Y0.476
X8.8843Y2.7255
X8.8843Y1.2255
X8.8962Y3.3763
X8.9155Y1.8755
X9.1462Y3.4763
X9.1655Y1.9755
X9.3843Y2.6255
X9.3843Y1.1255
X9.3846Y0.376
X9.6343Y2.7255
X9.6343Y1.2255
X9.6346Y0.476
X9.6462Y3.3763
X9.6655Y1.8755
X9.8962Y3.4763
X9.9155Y1.9755
X10.1343Y2.6255
X10.1343Y1.1255
X10.3299Y0.1811
X10.3843Y2.7255
X10.3843Y1.2255
X10.3962Y3.3763
X10.5799Y0.2811
X10.6462Y3.4763
X10.8843Y1.8755
X11.0718Y2.6255
X11.0791Y0.9307
X11.0791Y0.1807
X11.1343Y1.9755
X11.1462Y3.3763
X11.3218Y2.7255
X11.3291Y1.0307
X11.3291Y0.2807
X11.3962Y3.4763
X11.8283Y0.1811
X12.0783Y0.2811
X12.2941Y2.4528
X12.2941Y1.7039
X12.5441Y2.5528
X12.5441Y1.8039
T4
X-0.0106Y1.2998
X0.9294Y1.2998
X3.4446Y-0.2165
X4.3754Y-0.3473
X6.2925Y-0.331
X7.2234Y-0.2002
X10.5643Y2.0505
X11.5043Y2.0505
T5
X-0.0106Y0.6998
X0.2748Y0.2748
X0.302Y3.2748
X0.3803Y1.7748
X0.3921Y2.5252
X0.4594Y1.0248
X0.9294Y0.6998
X1.0516Y3.276
X1.2134Y0.2756
X1.3295Y2.5252
X1.413Y1.774
X1.6819Y1.0252
X1.8598Y3.3134
X2.1261Y2.5186
X2.2074Y1.7498
X2.4629Y0.1992
X2.4744Y0.9549
X2.6028Y3.2094
X2.8688Y2.4142
X2.9501Y1.6455
X3.2171Y0.8506
X3.3449Y3.1051
X3.5281Y0.3777
X3.6115Y2.3099
X3.6928Y1.5411
X3.9483Y-0.0096
X3.9598Y0.7462
X4.0882Y3.0004
X4.3542Y2.2055
X4.4355Y1.4367
X4.4589Y0.2469
X4.7025Y0.6418
X4.8303Y2.8965
X5.7567Y2.1435
X5.7798Y0.632
X6.0237Y2.9383
X6.0467Y1.4269
X6.209Y0.2631
X6.4994Y2.2478
X6.5225Y0.7363
X6.7197Y0.0067
X6.7664Y3.0427
X6.7894Y1.5312
X7.1399Y0.3939
X7.2421Y2.3522
X7.2652Y0.8407
X7.5091Y3.1471
X7.5322Y1.6356
X7.9266Y0.1763
X7.9848Y2.4566
X8.0079Y0.9451
X8.2518Y3.2515
X8.2749Y1.74
X8.7839Y0.276
X8.7843Y2.5255
X8.7843Y1.0255
X9.0462Y3.2763
X9.0655Y1.7755
X9.5343Y2.5255
X9.5343Y1.0255
X9.5346Y0.276
X9.7962Y3.2763
X9.8155Y1.7755
X10.2843Y2.5255
X10.2843Y1.0255
X10.4799Y0.0811
X10.5462Y3.2763
X10.5643Y1.4505
X11.0343Y1.7755
X11.2218Y2.5255
X11.2291Y0.8307
X11.2291Y0.0807
X11.2962Y3.2763
X11.5043Y1.4505
X11.9783Y0.0811
X12.4441Y2.3528
X12.4441Y1.6039
T0
M30
