M48
; DRILL file {KiCad (5.1.9)-1} date 06/28/21 23:02:39
; FORMAT={-:-/ absolute / inch / decimal}
; #@! TF.CreationDate,2021-06-28T23:02:39+01:00
; #@! TF.GenerationSoftware,Kicad,Pcbnew,(5.1.9)-1
; #@! TF.FileFunction,Plated,1,2,PTH
FMAT,2
INCH
T1C0.0157
T2C0.0236
T3C0.0394
T4C0.0591
T5C0.0984
%
G90
G05
T1
X-0.0041Y0.3748
X0.023Y3.3734
X0.1063Y1.8799
X0.1132Y2.6289
X0.1811Y1.1254
X0.2043Y2.1248
X0.7726Y3.376
X0.9344Y0.3774
X1.0506Y2.6254
X1.0652Y2.1573
X1.1341Y1.874
X1.403Y1.1252
X1.5984Y3.4508
X1.8642Y2.6575
X1.9449Y2.1724
X1.9449Y1.8839
X2.2028Y0.3386
X2.2106Y1.0945
X2.3386Y3.3465
X2.6063Y2.5531
X2.687Y2.1106
X2.687Y1.7874
X2.9567Y0.9921
X3.0827Y3.2421
X3.3504Y2.4488
X3.3949Y2.0205
X3.4291Y1.6791
X3.687Y0.1299
X3.6969Y0.8839
X3.8268Y3.1378
X4.0925Y2.3445
X4.1276Y1.9728
X4.1732Y1.5748
X4.439Y0.7815
X4.5689Y3.0335
X4.6024Y2.0354
X4.6457Y1.7165
X4.6811Y2.1614
X4.8898Y2.4449
X4.9902Y2.4449
X4.9965Y2.3642
X5.0591Y2.3638
X5.0886Y2.7894
X5.1024Y1.4882
X5.2193Y2.3295
X5.225Y3.1126
X5.2264Y2.8661
X5.3583Y2.4961
X5.3681Y2.7894
X5.3917Y2.0059
X5.4665Y2.2028
X5.4921Y0.6929
X5.5394Y3.1289
X5.6307Y3.0859
X5.6772Y2.245
X5.6791Y2.561
X5.7343Y3.0
X5.7559Y1.4882
X6.1021Y3.4328
X6.1703Y3.3907
X6.2106Y2.3091
X6.2156Y3.3504
X6.2323Y0.7972
X6.3169Y3.3219
X6.3809Y3.3917
X6.4291Y0.0669
X6.4607Y3.4302
X6.4764Y3.1024
X6.498Y1.5925
X6.9508Y2.4134
X6.9744Y0.9016
X7.2205Y3.2067
X7.2402Y1.6929
X7.6358Y0.2362
X7.6949Y2.5177
X7.7185Y1.0059
X7.9626Y3.311
X7.9862Y1.7972
X8.5039Y1.126
X8.5039Y0.374
X8.5079Y2.628
X8.7657Y3.376
X8.7854Y1.8701
X9.2539Y1.122
X9.2559Y2.626
X9.2559Y0.374
X9.5197Y3.376
X9.5354Y1.872
X10.0059Y2.624
X10.0059Y1.124
X10.2008Y0.1811
X10.2677Y3.376
X10.7559Y1.876
X10.9449Y2.624
X10.9508Y0.9311
X10.9508Y0.1772
X11.0177Y3.378
X11.6988Y0.1772
X12.1654Y2.4528
X12.1673Y1.7047
T3
X12.1685Y3.374
X12.1685Y3.1772
X12.7394Y3.374
X12.7394Y3.2756
X12.7394Y3.1772
T5
X0.0454Y2.1506
X0.6769Y3.1575
X0.7443Y0.2756
X3.0417Y0.1182
X3.7001Y2.9359
X5.2416Y1.3934
X5.8818Y-0.0916
X6.4118Y2.8733
X8.6569Y3.1648
X9.1593Y0.6506
X11.6043Y0.4556
X11.8706Y3.2756
X11.9035Y1.8656
T2
G00X6.1146Y3.6528
M15
G01X6.1146Y3.6764
M16
G05
G00X6.1146Y3.4783
M15
G01X6.1146Y3.5217
M16
G05
G00X6.4547Y3.6528
M15
G01X6.4547Y3.6764
M16
G05
G00X6.4547Y3.4783
M15
G01X6.4547Y3.5217
M16
G05
T4
G00X12.4697Y3.4961
M15
G01X12.4185Y3.4961
M16
G05
G00X12.4697Y3.0551
M15
G01X12.4185Y3.0551
M16
G05
T0
M30
