G04 #@! TF.GenerationSoftware,KiCad,Pcbnew,(5.1.9)-1*
G04 #@! TF.CreationDate,2021-06-30T09:07:23+01:00*
G04 #@! TF.ProjectId,Paul-PCB-KICAD,5061756c-2d50-4434-922d-4b494341442e,rev?*
G04 #@! TF.SameCoordinates,Original*
G04 #@! TF.FileFunction,Soldermask,Top*
G04 #@! TF.FilePolarity,Negative*
%FSLAX46Y46*%
G04 Gerber Fmt 4.6, Leading zero omitted, Abs format (unit mm)*
G04 Created by KiCad (PCBNEW (5.1.9)-1) date 2021-06-30 09:07:23*
%MOMM*%
%LPD*%
G01*
G04 APERTURE LIST*
%ADD10C,2.000000*%
%ADD11C,3.000000*%
%ADD12C,3.987800*%
%ADD13C,1.750000*%
%ADD14C,3.048000*%
%ADD15C,5.000000*%
%ADD16R,3.200000X2.000000*%
%ADD17R,2.000000X2.000000*%
%ADD18C,0.650000*%
%ADD19R,0.300000X1.450000*%
%ADD20R,0.600000X1.450000*%
G04 APERTURE END LIST*
D10*
X296690000Y88250000D03*
X1090000Y90020000D03*
X240000Y290000D03*
X309470000Y-3590000D03*
D11*
X244710000Y69227500D03*
D12*
X242170000Y64147500D03*
D11*
X238360000Y66687500D03*
D13*
X237090000Y64147500D03*
X247250000Y64147500D03*
X71140562Y80813001D03*
X61079438Y82226999D03*
D11*
X62690578Y84565530D03*
D12*
X66110000Y81520000D03*
D11*
X69332280Y86197062D03*
X103801313Y23630114D03*
D12*
X100579033Y18953052D03*
D11*
X97159611Y21998582D03*
D13*
X95548471Y19660051D03*
X105609595Y18246053D03*
D11*
X289463750Y88297500D03*
D12*
X286923750Y83217500D03*
D11*
X283113750Y85757500D03*
D13*
X281843750Y83217500D03*
X292003750Y83217500D03*
D11*
X125912280Y78247062D03*
D12*
X122690000Y73570000D03*
D11*
X119270578Y76615530D03*
D13*
X117659438Y74276999D03*
X127720562Y72863001D03*
D11*
X306790000Y7140000D03*
D12*
X304250000Y2060000D03*
D11*
X300440000Y4600000D03*
D13*
X299170000Y2060000D03*
X309330000Y2060000D03*
D11*
X287760000Y7130000D03*
D12*
X285220000Y2050000D03*
D11*
X281410000Y4590000D03*
D13*
X280140000Y2050000D03*
X290300000Y2050000D03*
D11*
X268730000Y7140000D03*
D12*
X266190000Y2060000D03*
D11*
X262380000Y4600000D03*
D13*
X261110000Y2060000D03*
X271270000Y2060000D03*
D11*
X244720000Y12090000D03*
D12*
X242180000Y7010000D03*
D11*
X238370000Y9550000D03*
D13*
X237100000Y7010000D03*
X247260000Y7010000D03*
D11*
X225650000Y12090000D03*
D12*
X223110000Y7010000D03*
D11*
X219300000Y9550000D03*
D13*
X218030000Y7010000D03*
X228190000Y7010000D03*
D11*
X203143558Y9862189D03*
D12*
X201335276Y4478128D03*
D11*
X197208855Y6463159D03*
D13*
X196304714Y3771129D03*
X206365838Y5185127D03*
D11*
X148614642Y21435865D03*
D12*
X146806360Y16051804D03*
D11*
X142679939Y18036835D03*
D13*
X141775798Y15344805D03*
X151836922Y16758803D03*
D11*
X318620000Y45820000D03*
D12*
X316080000Y40740000D03*
D11*
X312270000Y43280000D03*
D13*
X311000000Y40740000D03*
X321160000Y40740000D03*
D11*
X287760000Y26180000D03*
D12*
X285220000Y21100000D03*
D11*
X281410000Y23640000D03*
D13*
X280140000Y21100000D03*
X290300000Y21100000D03*
D11*
X263760000Y31127500D03*
D12*
X261220000Y26047500D03*
D11*
X257410000Y28587500D03*
D13*
X256140000Y26047500D03*
X266300000Y26047500D03*
D11*
X244710000Y31127500D03*
D12*
X242170000Y26047500D03*
D11*
X238360000Y28587500D03*
D13*
X237090000Y26047500D03*
X247250000Y26047500D03*
D11*
X225660000Y31127500D03*
D12*
X223120000Y26047500D03*
D11*
X219310000Y28587500D03*
D13*
X218040000Y26047500D03*
X228200000Y26047500D03*
D11*
X205208462Y29389608D03*
D12*
X203400180Y24005547D03*
D11*
X199273759Y25990578D03*
D13*
X198369618Y23298548D03*
X208430742Y24712546D03*
D11*
X186343855Y26738360D03*
D12*
X184535573Y21354299D03*
D11*
X180409152Y23339330D03*
D13*
X179505011Y20647300D03*
X189566135Y22061298D03*
D11*
X167479249Y24087113D03*
D12*
X165670967Y18703052D03*
D11*
X161544546Y20688083D03*
D13*
X160640405Y17996053D03*
X170701529Y19410051D03*
D11*
X122665920Y20978866D03*
D12*
X119443640Y16301804D03*
D11*
X116024218Y19347334D03*
D13*
X114413078Y17008803D03*
X124474202Y15594805D03*
D11*
X84936707Y26281361D03*
D12*
X81714427Y21604299D03*
D11*
X78295005Y24649829D03*
D13*
X76683865Y22311298D03*
X86744989Y20897300D03*
D11*
X66072100Y28932609D03*
D12*
X62849820Y24255547D03*
D11*
X59430398Y27301077D03*
D13*
X57819258Y24962546D03*
X67880382Y23548548D03*
D11*
X45260000Y31120000D03*
D12*
X42720000Y26040000D03*
D11*
X38910000Y28580000D03*
D13*
X37640000Y26040000D03*
X47800000Y26040000D03*
D11*
X318620000Y64840000D03*
D12*
X316080000Y59760000D03*
D11*
X312270000Y62300000D03*
D13*
X311000000Y59760000D03*
X321160000Y59760000D03*
D11*
X251853750Y50177500D03*
D12*
X249313750Y45097500D03*
D11*
X245503750Y47637500D03*
D13*
X244233750Y45097500D03*
X254393750Y45097500D03*
D11*
X232803750Y50177500D03*
D12*
X230263750Y45097500D03*
D11*
X226453750Y47637500D03*
D13*
X225183750Y45097500D03*
X235343750Y45097500D03*
D11*
X211989518Y49579838D03*
D12*
X210181236Y44195777D03*
D11*
X206054815Y46180808D03*
D13*
X205150674Y43488778D03*
X215211798Y44902776D03*
D11*
X193124911Y46928591D03*
D12*
X191316629Y41544530D03*
D11*
X187190208Y43529561D03*
D13*
X186286067Y40837531D03*
X196347191Y42251529D03*
D11*
X174260304Y44277343D03*
D12*
X172452022Y38893282D03*
D11*
X168325601Y40878313D03*
D13*
X167421460Y38186283D03*
X177482584Y39600281D03*
D11*
X155395698Y41626096D03*
D12*
X153587416Y36242035D03*
D11*
X149460995Y38227066D03*
D13*
X148556854Y35535036D03*
X158617978Y36949034D03*
D11*
X115884864Y41169097D03*
D12*
X112662584Y36492035D03*
D11*
X109243162Y39537565D03*
D13*
X107632022Y37199034D03*
X117693146Y35785036D03*
D11*
X97020258Y43820344D03*
D12*
X93797978Y39143282D03*
D11*
X90378556Y42188812D03*
D13*
X88767416Y39850281D03*
X98828540Y38436283D03*
D11*
X78155651Y46471592D03*
D12*
X74933371Y41794530D03*
D11*
X71513949Y44840060D03*
D13*
X69902809Y42501529D03*
X79963933Y41087531D03*
D11*
X59291044Y49122839D03*
D12*
X56068764Y44445777D03*
D11*
X52649342Y47491307D03*
D13*
X51038202Y45152776D03*
X61099326Y43738778D03*
D11*
X38430000Y50140000D03*
D12*
X35890000Y45060000D03*
D11*
X32080000Y47600000D03*
D13*
X30810000Y45060000D03*
X40970000Y45060000D03*
D11*
X263760000Y69227500D03*
D12*
X261220000Y64147500D03*
D11*
X257410000Y66687500D03*
D13*
X256140000Y64147500D03*
X266300000Y64147500D03*
D11*
X225660000Y69227500D03*
D12*
X223120000Y64147500D03*
D11*
X219310000Y66687500D03*
D13*
X218040000Y64147500D03*
X228200000Y64147500D03*
D11*
X204622119Y67781633D03*
D12*
X202813837Y62397572D03*
D11*
X198687416Y64382603D03*
D13*
X197783275Y61690573D03*
X207844399Y63104571D03*
D11*
X185757512Y65130386D03*
D12*
X183949230Y59746325D03*
D11*
X179822809Y61731356D03*
D13*
X178918668Y59039326D03*
X188979792Y60453324D03*
D11*
X166892905Y62479138D03*
D12*
X165084623Y57095077D03*
D11*
X160958202Y59080108D03*
D13*
X160054061Y56388078D03*
X170115185Y57802076D03*
D11*
X148028299Y59827890D03*
D12*
X146220017Y54443829D03*
D11*
X142093596Y56428860D03*
D13*
X141189455Y53736830D03*
X151250579Y55150828D03*
D11*
X113819960Y60696515D03*
D12*
X110597680Y56019453D03*
D11*
X107178258Y59064983D03*
D13*
X105567118Y56726452D03*
X115628242Y55312454D03*
D11*
X94955353Y63347763D03*
D12*
X91733073Y58670701D03*
D11*
X88313651Y61716231D03*
D13*
X86702511Y59377700D03*
X96763635Y57963702D03*
D11*
X76090747Y65999010D03*
D12*
X72868467Y61321948D03*
D11*
X69449045Y64367478D03*
D13*
X67837905Y62028947D03*
X77899029Y60614949D03*
D11*
X57226140Y68650258D03*
D12*
X54003860Y63973196D03*
D11*
X50584438Y67018726D03*
D13*
X48973298Y64680195D03*
X59034422Y63266197D03*
D11*
X36310000Y69220000D03*
D12*
X33770000Y64140000D03*
D11*
X29960000Y66680000D03*
D13*
X28690000Y64140000D03*
X38850000Y64140000D03*
D11*
X270413750Y88297500D03*
D12*
X267873750Y83217500D03*
D11*
X264063750Y85757500D03*
D13*
X262793750Y83217500D03*
X272953750Y83217500D03*
D11*
X251363750Y88297500D03*
D12*
X248823750Y83217500D03*
D11*
X245013750Y85757500D03*
D13*
X243743750Y83217500D03*
X253903750Y83217500D03*
D11*
X232313750Y88297500D03*
D12*
X229773750Y83217500D03*
D11*
X225963750Y85757500D03*
D13*
X224693750Y83217500D03*
X234853750Y83217500D03*
D11*
X211403174Y87971864D03*
D12*
X209594892Y82587803D03*
D11*
X205468471Y84572834D03*
D13*
X204564330Y81880804D03*
X214625454Y83294802D03*
D11*
X192538568Y85320616D03*
D12*
X190730286Y79936555D03*
D11*
X186603865Y81921586D03*
D13*
X185699724Y79229556D03*
X195760848Y80643554D03*
D11*
X173673961Y82669368D03*
D12*
X171865679Y77285307D03*
D11*
X167739258Y79270338D03*
D13*
X166835117Y76578308D03*
X176896241Y77992306D03*
D11*
X154809354Y80018121D03*
D12*
X153001072Y74634060D03*
D11*
X148874651Y76619091D03*
D13*
X147970510Y73927061D03*
X158031634Y75341059D03*
D11*
X107062280Y80887062D03*
D12*
X103840000Y76210000D03*
D11*
X100420578Y79255530D03*
D13*
X98809438Y76916999D03*
X108870562Y75503001D03*
D11*
X88182280Y83547062D03*
D12*
X84960000Y78870000D03*
D11*
X81540578Y81915530D03*
D13*
X79929438Y79576999D03*
X89990562Y78163001D03*
D11*
X50462280Y88837062D03*
D12*
X47240000Y84160000D03*
D11*
X43820578Y87205530D03*
D13*
X42209438Y84866999D03*
X52270562Y83453001D03*
D11*
X29250000Y88290000D03*
D12*
X26710000Y83210000D03*
D11*
X22900000Y85750000D03*
D13*
X21630000Y83210000D03*
X31790000Y83210000D03*
D11*
X10210000Y88260000D03*
D12*
X7670000Y83180000D03*
D11*
X3860000Y85720000D03*
D13*
X2590000Y83180000D03*
X12750000Y83180000D03*
D11*
X287572500Y69227500D03*
D12*
X285032500Y64147500D03*
D11*
X281222500Y66687500D03*
D13*
X279952500Y64147500D03*
X290112500Y64147500D03*
D11*
X12500000Y69220000D03*
D12*
X9960000Y64140000D03*
D11*
X6150000Y66680000D03*
D13*
X4880000Y64140000D03*
X15040000Y64140000D03*
D11*
X14210000Y31110000D03*
D12*
X11670000Y26030000D03*
D11*
X7860000Y28570000D03*
D13*
X6590000Y26030000D03*
X16750000Y26030000D03*
D14*
X23608000Y33015000D03*
X-268000Y33015000D03*
D12*
X23608000Y17775000D03*
X-268000Y17775000D03*
D11*
X282810000Y50177500D03*
D12*
X280270000Y45097500D03*
D11*
X276460000Y47637500D03*
D13*
X275190000Y45097500D03*
X285350000Y45097500D03*
D14*
X292208000Y52082500D03*
X268332000Y52082500D03*
D12*
X292208000Y36842500D03*
X268332000Y36842500D03*
D11*
X12200000Y50160000D03*
D12*
X9660000Y45080000D03*
D11*
X5850000Y47620000D03*
D13*
X4580000Y45080000D03*
X14740000Y45080000D03*
D11*
X65778928Y9736596D03*
D12*
X62556648Y5059534D03*
D11*
X59137226Y8105064D03*
D13*
X57526086Y5766533D03*
X67587210Y4352535D03*
D11*
X33360000Y12080000D03*
D12*
X30820000Y7000000D03*
D11*
X27010000Y9540000D03*
D13*
X25740000Y7000000D03*
X35900000Y7000000D03*
D11*
X9520000Y12060000D03*
D12*
X6980000Y6980000D03*
D11*
X3170000Y9520000D03*
D13*
X1900000Y6980000D03*
X12060000Y6980000D03*
D11*
X172488572Y5553912D03*
D12*
X170680290Y169851D03*
D11*
X166553869Y2154882D03*
D13*
X165649728Y-537148D03*
X175710852Y876850D03*
D14*
X183474234Y-5085723D03*
X159830594Y-8408620D03*
D12*
X181353236Y10005962D03*
X157709596Y6683065D03*
D11*
X103508142Y4434101D03*
D12*
X100285862Y-242961D03*
D11*
X96866440Y2802569D03*
D13*
X95255300Y464038D03*
X105316424Y-949960D03*
D14*
X111135558Y-8821432D03*
X87491918Y-5498535D03*
D12*
X113256556Y6270253D03*
X89612916Y9593150D03*
D15*
X133136887Y35392650D03*
X77258161Y3003314D03*
X219885384Y80385180D03*
X18906250Y7000000D03*
X162859822Y72980677D03*
X294750250Y11573500D03*
X93981649Y74572360D03*
X149396946Y-2325869D03*
X302349875Y47386750D03*
X17192000Y80200000D03*
X232647250Y16524999D03*
X301512250Y83200000D03*
X1152800Y54625000D03*
D10*
X309080000Y85700000D03*
X309080000Y80700000D03*
D16*
X316080000Y88800000D03*
X316080000Y77600000D03*
D10*
X323580000Y85700000D03*
X323580000Y83200000D03*
D17*
X323580000Y80700000D03*
D18*
X162520000Y89430000D03*
X156740000Y89430000D03*
D19*
X159880000Y87985000D03*
X159380000Y87985000D03*
X158880000Y87985000D03*
X160380000Y87985000D03*
X158380000Y87985000D03*
X160880000Y87985000D03*
X157880000Y87985000D03*
X161380000Y87985000D03*
D20*
X162080000Y87985000D03*
X157180000Y87985000D03*
X162855000Y87985000D03*
X156405000Y87985000D03*
M02*
