%TF.GenerationSoftware,KiCad,Pcbnew,(5.1.9)-1*%
%TF.CreationDate,2021-06-28T23:02:46+01:00*%
%TF.ProjectId,Paul PCB KICAD,5061756c-2050-4434-9220-4b494341442e,rev?*%
%TF.SameCoordinates,Original*%
%TF.FileFunction,Copper,L2,Bot*%
%TF.FilePolarity,Positive*%
%FSLAX46Y46*%
G04 Gerber Fmt 4.6, Leading zero omitted, Abs format (unit mm)*
G04 Created by KiCad (PCBNEW (5.1.9)-1) date 2021-06-28 23:02:46*
%MOMM*%
%LPD*%
G01*
G04 APERTURE LIST*
%TA.AperFunction,SMDPad,CuDef*%
%ADD10C,0.100000*%
%TD*%
%TA.AperFunction,SMDPad,CuDef*%
%ADD11R,2.550000X2.500000*%
%TD*%
%TA.AperFunction,ComponentPad*%
%ADD12C,5.000000*%
%TD*%
%TA.AperFunction,ComponentPad*%
%ADD13C,2.000000*%
%TD*%
%TA.AperFunction,ComponentPad*%
%ADD14R,3.200000X2.000000*%
%TD*%
%TA.AperFunction,ComponentPad*%
%ADD15R,2.000000X2.000000*%
%TD*%
%TA.AperFunction,ComponentPad*%
%ADD16O,1.000000X1.600000*%
%TD*%
%TA.AperFunction,ComponentPad*%
%ADD17O,1.000000X2.100000*%
%TD*%
%TA.AperFunction,SMDPad,CuDef*%
%ADD18R,1.200000X1.400000*%
%TD*%
%TA.AperFunction,SMDPad,CuDef*%
%ADD19R,1.100000X1.800000*%
%TD*%
%TA.AperFunction,SMDPad,CuDef*%
%ADD20R,0.900000X1.200000*%
%TD*%
%TA.AperFunction,SMDPad,CuDef*%
%ADD21R,1.200000X0.900000*%
%TD*%
%TA.AperFunction,SMDPad,CuDef*%
%ADD22R,0.550000X1.500000*%
%TD*%
%TA.AperFunction,SMDPad,CuDef*%
%ADD23R,1.500000X0.550000*%
%TD*%
%TA.AperFunction,ViaPad*%
%ADD24C,0.800000*%
%TD*%
%TA.AperFunction,Conductor*%
%ADD25C,0.400000*%
%TD*%
%TA.AperFunction,Conductor*%
%ADD26C,0.250000*%
%TD*%
%TA.AperFunction,Conductor*%
%ADD27C,0.350000*%
%TD*%
%TA.AperFunction,Conductor*%
%ADD28C,0.254000*%
%TD*%
%TA.AperFunction,Conductor*%
%ADD29C,0.100000*%
%TD*%
G04 APERTURE END LIST*
%TA.AperFunction,SMDPad,CuDef*%
D10*
%TO.P,MX3,2*%
%TO.N,Net-(D3-Pad2)*%
G36*
X71165587Y84677124D02*
G01*
X71513520Y87152794D01*
X74038703Y86797902D01*
X73690770Y84322232D01*
X71165587Y84677124D01*
G37*
%TD.AperFunction*%
%TA.AperFunction,SMDPad,CuDef*%
%TO.P,MX3,1*%
%TO.N,COL3*%
G36*
X58010892Y83960933D02*
G01*
X58358825Y86436603D01*
X60884008Y86081711D01*
X60536075Y83606041D01*
X58010892Y83960933D01*
G37*
%TD.AperFunction*%
%TD*%
%TA.AperFunction,SMDPad,CuDef*%
%TO.P,MX304,1*%
%TO.N,COL4*%
G36*
X92479925Y21393985D02*
G01*
X92827858Y23869655D01*
X95353041Y23514763D01*
X95005108Y21039093D01*
X92479925Y21393985D01*
G37*
%TD.AperFunction*%
%TA.AperFunction,SMDPad,CuDef*%
%TO.P,MX304,2*%
%TO.N,Net-(D304-Pad2)*%
G36*
X105634620Y22110176D02*
G01*
X105982553Y24585846D01*
X108507736Y24230954D01*
X108159803Y21755284D01*
X105634620Y22110176D01*
G37*
%TD.AperFunction*%
%TD*%
D11*
%TO.P,MX14,1*%
%TO.N,COL14*%
X279838750Y85757500D03*
%TO.P,MX14,2*%
%TO.N,Net-(D14-Pad2)*%
X292765750Y88297500D03*
%TD*%
%TA.AperFunction,SMDPad,CuDef*%
D10*
%TO.P,MX6,1*%
%TO.N,COL6*%
G36*
X114590892Y76010933D02*
G01*
X114938825Y78486603D01*
X117464008Y78131711D01*
X117116075Y75656041D01*
X114590892Y76010933D01*
G37*
%TD.AperFunction*%
%TA.AperFunction,SMDPad,CuDef*%
%TO.P,MX6,2*%
%TO.N,Net-(D6-Pad2)*%
G36*
X127745587Y76727124D02*
G01*
X128093520Y79202794D01*
X130618703Y78847902D01*
X130270770Y76372232D01*
X127745587Y76727124D01*
G37*
%TD.AperFunction*%
%TD*%
D11*
%TO.P,MX414,1*%
%TO.N,COL14*%
X297165000Y4600000D03*
%TO.P,MX414,2*%
%TO.N,Net-(D414-Pad2)*%
X310092000Y7140000D03*
%TD*%
%TO.P,MX412,1*%
%TO.N,COL12*%
X278135000Y4590000D03*
%TO.P,MX412,2*%
%TO.N,Net-(D412-Pad2)*%
X291062000Y7130000D03*
%TD*%
%TO.P,MX411,1*%
%TO.N,COL11*%
X259105000Y4600000D03*
%TO.P,MX411,2*%
%TO.N,Net-(D411-Pad2)*%
X272032000Y7140000D03*
%TD*%
%TO.P,MX410,1*%
%TO.N,COL10*%
X235095000Y9550000D03*
%TO.P,MX410,2*%
%TO.N,Net-(D410-Pad2)*%
X248022000Y12090000D03*
%TD*%
%TO.P,MX409,1*%
%TO.N,COL9*%
X216025000Y9550000D03*
%TO.P,MX409,2*%
%TO.N,Net-(D409-Pad2)*%
X228952000Y12090000D03*
%TD*%
%TA.AperFunction,SMDPad,CuDef*%
D10*
%TO.P,MX408,1*%
%TO.N,COL8*%
G36*
X192877102Y4592086D02*
G01*
X192529169Y7067756D01*
X195054352Y7422648D01*
X195402285Y4946978D01*
X192877102Y4592086D01*
G37*
%TD.AperFunction*%
%TA.AperFunction,SMDPad,CuDef*%
%TO.P,MX408,2*%
%TO.N,Net-(D408-Pad2)*%
G36*
X205324798Y8906458D02*
G01*
X204976865Y11382128D01*
X207502048Y11737020D01*
X207849981Y9261350D01*
X205324798Y8906458D01*
G37*
%TD.AperFunction*%
%TD*%
%TA.AperFunction,SMDPad,CuDef*%
%TO.P,MX405,1*%
%TO.N,COL5*%
G36*
X138348186Y16165762D02*
G01*
X138000253Y18641432D01*
X140525436Y18996324D01*
X140873369Y16520654D01*
X138348186Y16165762D01*
G37*
%TD.AperFunction*%
%TA.AperFunction,SMDPad,CuDef*%
%TO.P,MX405,2*%
%TO.N,Net-(D405-Pad2)*%
G36*
X150795882Y20480134D02*
G01*
X150447949Y22955804D01*
X152973132Y23310696D01*
X153321065Y20835026D01*
X150795882Y20480134D01*
G37*
%TD.AperFunction*%
%TD*%
D11*
%TO.P,MX314,1*%
%TO.N,COL14*%
X308995000Y43280000D03*
%TO.P,MX314,2*%
%TO.N,Net-(D314-Pad2)*%
X321922000Y45820000D03*
%TD*%
%TO.P,MX312,1*%
%TO.N,COL12*%
X278135000Y23640000D03*
%TO.P,MX312,2*%
%TO.N,Net-(D312-Pad2)*%
X291062000Y26180000D03*
%TD*%
%TO.P,MX311,1*%
%TO.N,COL11*%
X254135000Y28587500D03*
%TO.P,MX311,2*%
%TO.N,Net-(D311-Pad2)*%
X267062000Y31127500D03*
%TD*%
%TO.P,MX310,1*%
%TO.N,COL10*%
X235085000Y28587500D03*
%TO.P,MX310,2*%
%TO.N,Net-(D310-Pad2)*%
X248012000Y31127500D03*
%TD*%
%TO.P,MX309,1*%
%TO.N,COL9*%
X216035000Y28587500D03*
%TO.P,MX309,2*%
%TO.N,Net-(D309-Pad2)*%
X228962000Y31127500D03*
%TD*%
%TA.AperFunction,SMDPad,CuDef*%
D10*
%TO.P,MX308,1*%
%TO.N,COL8*%
G36*
X194942006Y24119505D02*
G01*
X194594073Y26595175D01*
X197119256Y26950067D01*
X197467189Y24474397D01*
X194942006Y24119505D01*
G37*
%TD.AperFunction*%
%TA.AperFunction,SMDPad,CuDef*%
%TO.P,MX308,2*%
%TO.N,Net-(D308-Pad2)*%
G36*
X207389702Y28433877D02*
G01*
X207041769Y30909547D01*
X209566952Y31264439D01*
X209914885Y28788769D01*
X207389702Y28433877D01*
G37*
%TD.AperFunction*%
%TD*%
%TA.AperFunction,SMDPad,CuDef*%
%TO.P,MX307,1*%
%TO.N,COL7*%
G36*
X176077399Y21468257D02*
G01*
X175729466Y23943927D01*
X178254649Y24298819D01*
X178602582Y21823149D01*
X176077399Y21468257D01*
G37*
%TD.AperFunction*%
%TA.AperFunction,SMDPad,CuDef*%
%TO.P,MX307,2*%
%TO.N,Net-(D307-Pad2)*%
G36*
X188525095Y25782629D02*
G01*
X188177162Y28258299D01*
X190702345Y28613191D01*
X191050278Y26137521D01*
X188525095Y25782629D01*
G37*
%TD.AperFunction*%
%TD*%
%TA.AperFunction,SMDPad,CuDef*%
%TO.P,MX306,1*%
%TO.N,COL6*%
G36*
X157212793Y18817010D02*
G01*
X156864860Y21292680D01*
X159390043Y21647572D01*
X159737976Y19171902D01*
X157212793Y18817010D01*
G37*
%TD.AperFunction*%
%TA.AperFunction,SMDPad,CuDef*%
%TO.P,MX306,2*%
%TO.N,Net-(D306-Pad2)*%
G36*
X169660489Y23131382D02*
G01*
X169312556Y25607052D01*
X171837739Y25961944D01*
X172185672Y23486274D01*
X169660489Y23131382D01*
G37*
%TD.AperFunction*%
%TD*%
%TA.AperFunction,SMDPad,CuDef*%
%TO.P,MX305,1*%
%TO.N,COL5*%
G36*
X111344532Y18742737D02*
G01*
X111692465Y21218407D01*
X114217648Y20863515D01*
X113869715Y18387845D01*
X111344532Y18742737D01*
G37*
%TD.AperFunction*%
%TA.AperFunction,SMDPad,CuDef*%
%TO.P,MX305,2*%
%TO.N,Net-(D305-Pad2)*%
G36*
X124499227Y19458928D02*
G01*
X124847160Y21934598D01*
X127372343Y21579706D01*
X127024410Y19104036D01*
X124499227Y19458928D01*
G37*
%TD.AperFunction*%
%TD*%
%TA.AperFunction,SMDPad,CuDef*%
%TO.P,MX303,1*%
%TO.N,COL3*%
G36*
X73615319Y24045232D02*
G01*
X73963252Y26520902D01*
X76488435Y26166010D01*
X76140502Y23690340D01*
X73615319Y24045232D01*
G37*
%TD.AperFunction*%
%TA.AperFunction,SMDPad,CuDef*%
%TO.P,MX303,2*%
%TO.N,Net-(D303-Pad2)*%
G36*
X86770014Y24761423D02*
G01*
X87117947Y27237093D01*
X89643130Y26882201D01*
X89295197Y24406531D01*
X86770014Y24761423D01*
G37*
%TD.AperFunction*%
%TD*%
%TA.AperFunction,SMDPad,CuDef*%
%TO.P,MX302,1*%
%TO.N,COL2*%
G36*
X54750712Y26696480D02*
G01*
X55098645Y29172150D01*
X57623828Y28817258D01*
X57275895Y26341588D01*
X54750712Y26696480D01*
G37*
%TD.AperFunction*%
%TA.AperFunction,SMDPad,CuDef*%
%TO.P,MX302,2*%
%TO.N,Net-(D302-Pad2)*%
G36*
X67905407Y27412671D02*
G01*
X68253340Y29888341D01*
X70778523Y29533449D01*
X70430590Y27057779D01*
X67905407Y27412671D01*
G37*
%TD.AperFunction*%
%TD*%
D11*
%TO.P,MX301,1*%
%TO.N,COL1*%
X35635000Y28580000D03*
%TO.P,MX301,2*%
%TO.N,Net-(D301-Pad2)*%
X48562000Y31120000D03*
%TD*%
%TO.P,MX214,1*%
%TO.N,COL14*%
X308995000Y62300000D03*
%TO.P,MX214,2*%
%TO.N,Net-(D214-Pad2)*%
X321922000Y64840000D03*
%TD*%
%TO.P,MX211,1*%
%TO.N,COL11*%
X242228750Y47637500D03*
%TO.P,MX211,2*%
%TO.N,Net-(D211-Pad2)*%
X255155750Y50177500D03*
%TD*%
%TO.P,MX210,1*%
%TO.N,COL10*%
X223178750Y47637500D03*
%TO.P,MX210,2*%
%TO.N,Net-(D210-Pad2)*%
X236105750Y50177500D03*
%TD*%
%TA.AperFunction,SMDPad,CuDef*%
D10*
%TO.P,MX209,1*%
%TO.N,COL9*%
G36*
X201723062Y44309735D02*
G01*
X201375129Y46785405D01*
X203900312Y47140297D01*
X204248245Y44664627D01*
X201723062Y44309735D01*
G37*
%TD.AperFunction*%
%TA.AperFunction,SMDPad,CuDef*%
%TO.P,MX209,2*%
%TO.N,Net-(D209-Pad2)*%
G36*
X214170758Y48624107D02*
G01*
X213822825Y51099777D01*
X216348008Y51454669D01*
X216695941Y48978999D01*
X214170758Y48624107D01*
G37*
%TD.AperFunction*%
%TD*%
%TA.AperFunction,SMDPad,CuDef*%
%TO.P,MX208,1*%
%TO.N,COL8*%
G36*
X182858455Y41658488D02*
G01*
X182510522Y44134158D01*
X185035705Y44489050D01*
X185383638Y42013380D01*
X182858455Y41658488D01*
G37*
%TD.AperFunction*%
%TA.AperFunction,SMDPad,CuDef*%
%TO.P,MX208,2*%
%TO.N,Net-(D208-Pad2)*%
G36*
X195306151Y45972860D02*
G01*
X194958218Y48448530D01*
X197483401Y48803422D01*
X197831334Y46327752D01*
X195306151Y45972860D01*
G37*
%TD.AperFunction*%
%TD*%
%TA.AperFunction,SMDPad,CuDef*%
%TO.P,MX207,1*%
%TO.N,COL7*%
G36*
X163993848Y39007240D02*
G01*
X163645915Y41482910D01*
X166171098Y41837802D01*
X166519031Y39362132D01*
X163993848Y39007240D01*
G37*
%TD.AperFunction*%
%TA.AperFunction,SMDPad,CuDef*%
%TO.P,MX207,2*%
%TO.N,Net-(D207-Pad2)*%
G36*
X176441544Y43321612D02*
G01*
X176093611Y45797282D01*
X178618794Y46152174D01*
X178966727Y43676504D01*
X176441544Y43321612D01*
G37*
%TD.AperFunction*%
%TD*%
%TA.AperFunction,SMDPad,CuDef*%
%TO.P,MX206,1*%
%TO.N,COL6*%
G36*
X145129242Y36355993D02*
G01*
X144781309Y38831663D01*
X147306492Y39186555D01*
X147654425Y36710885D01*
X145129242Y36355993D01*
G37*
%TD.AperFunction*%
%TA.AperFunction,SMDPad,CuDef*%
%TO.P,MX206,2*%
%TO.N,Net-(D206-Pad2)*%
G36*
X157576938Y40670365D02*
G01*
X157229005Y43146035D01*
X159754188Y43500927D01*
X160102121Y41025257D01*
X157576938Y40670365D01*
G37*
%TD.AperFunction*%
%TD*%
%TA.AperFunction,SMDPad,CuDef*%
%TO.P,MX205,1*%
%TO.N,COL5*%
G36*
X104563476Y38932968D02*
G01*
X104911409Y41408638D01*
X107436592Y41053746D01*
X107088659Y38578076D01*
X104563476Y38932968D01*
G37*
%TD.AperFunction*%
%TA.AperFunction,SMDPad,CuDef*%
%TO.P,MX205,2*%
%TO.N,Net-(D205-Pad2)*%
G36*
X117718171Y39649159D02*
G01*
X118066104Y42124829D01*
X120591287Y41769937D01*
X120243354Y39294267D01*
X117718171Y39649159D01*
G37*
%TD.AperFunction*%
%TD*%
%TA.AperFunction,SMDPad,CuDef*%
%TO.P,MX204,1*%
%TO.N,COL4*%
G36*
X85698870Y41584215D02*
G01*
X86046803Y44059885D01*
X88571986Y43704993D01*
X88224053Y41229323D01*
X85698870Y41584215D01*
G37*
%TD.AperFunction*%
%TA.AperFunction,SMDPad,CuDef*%
%TO.P,MX204,2*%
%TO.N,Net-(D204-Pad2)*%
G36*
X98853565Y42300406D02*
G01*
X99201498Y44776076D01*
X101726681Y44421184D01*
X101378748Y41945514D01*
X98853565Y42300406D01*
G37*
%TD.AperFunction*%
%TD*%
%TA.AperFunction,SMDPad,CuDef*%
%TO.P,MX203,1*%
%TO.N,COL3*%
G36*
X66834263Y44235463D02*
G01*
X67182196Y46711133D01*
X69707379Y46356241D01*
X69359446Y43880571D01*
X66834263Y44235463D01*
G37*
%TD.AperFunction*%
%TA.AperFunction,SMDPad,CuDef*%
%TO.P,MX203,2*%
%TO.N,Net-(D203-Pad2)*%
G36*
X79988958Y44951654D02*
G01*
X80336891Y47427324D01*
X82862074Y47072432D01*
X82514141Y44596762D01*
X79988958Y44951654D01*
G37*
%TD.AperFunction*%
%TD*%
%TA.AperFunction,SMDPad,CuDef*%
%TO.P,MX202,1*%
%TO.N,COL2*%
G36*
X47969656Y46886710D02*
G01*
X48317589Y49362380D01*
X50842772Y49007488D01*
X50494839Y46531818D01*
X47969656Y46886710D01*
G37*
%TD.AperFunction*%
%TA.AperFunction,SMDPad,CuDef*%
%TO.P,MX202,2*%
%TO.N,Net-(D202-Pad2)*%
G36*
X61124351Y47602901D02*
G01*
X61472284Y50078571D01*
X63997467Y49723679D01*
X63649534Y47248009D01*
X61124351Y47602901D01*
G37*
%TD.AperFunction*%
%TD*%
D11*
%TO.P,MX201,1*%
%TO.N,COL1*%
X28805000Y47600000D03*
%TO.P,MX201,2*%
%TO.N,Net-(D201-Pad2)*%
X41732000Y50140000D03*
%TD*%
%TO.P,MX112,1*%
%TO.N,COL12*%
X254135000Y66687500D03*
%TO.P,MX112,2*%
%TO.N,Net-(D112-Pad2)*%
X267062000Y69227500D03*
%TD*%
%TO.P,MX111,1*%
%TO.N,COL11*%
X235085000Y66687500D03*
%TO.P,MX111,2*%
%TO.N,Net-(D111-Pad2)*%
X248012000Y69227500D03*
%TD*%
%TO.P,MX110,1*%
%TO.N,COL10*%
X216035000Y66687500D03*
%TO.P,MX110,2*%
%TO.N,Net-(D110-Pad2)*%
X228962000Y69227500D03*
%TD*%
%TA.AperFunction,SMDPad,CuDef*%
D10*
%TO.P,MX109,1*%
%TO.N,COL9*%
G36*
X194355663Y62511530D02*
G01*
X194007730Y64987200D01*
X196532913Y65342092D01*
X196880846Y62866422D01*
X194355663Y62511530D01*
G37*
%TD.AperFunction*%
%TA.AperFunction,SMDPad,CuDef*%
%TO.P,MX109,2*%
%TO.N,Net-(D109-Pad2)*%
G36*
X206803359Y66825902D02*
G01*
X206455426Y69301572D01*
X208980609Y69656464D01*
X209328542Y67180794D01*
X206803359Y66825902D01*
G37*
%TD.AperFunction*%
%TD*%
%TA.AperFunction,SMDPad,CuDef*%
%TO.P,MX108,1*%
%TO.N,COL8*%
G36*
X175491056Y59860283D02*
G01*
X175143123Y62335953D01*
X177668306Y62690845D01*
X178016239Y60215175D01*
X175491056Y59860283D01*
G37*
%TD.AperFunction*%
%TA.AperFunction,SMDPad,CuDef*%
%TO.P,MX108,2*%
%TO.N,Net-(D108-Pad2)*%
G36*
X187938752Y64174655D02*
G01*
X187590819Y66650325D01*
X190116002Y67005217D01*
X190463935Y64529547D01*
X187938752Y64174655D01*
G37*
%TD.AperFunction*%
%TD*%
%TA.AperFunction,SMDPad,CuDef*%
%TO.P,MX107,1*%
%TO.N,COL7*%
G36*
X156626449Y57209035D02*
G01*
X156278516Y59684705D01*
X158803699Y60039597D01*
X159151632Y57563927D01*
X156626449Y57209035D01*
G37*
%TD.AperFunction*%
%TA.AperFunction,SMDPad,CuDef*%
%TO.P,MX107,2*%
%TO.N,Net-(D107-Pad2)*%
G36*
X169074145Y61523407D02*
G01*
X168726212Y63999077D01*
X171251395Y64353969D01*
X171599328Y61878299D01*
X169074145Y61523407D01*
G37*
%TD.AperFunction*%
%TD*%
%TA.AperFunction,SMDPad,CuDef*%
%TO.P,MX106,1*%
%TO.N,COL6*%
G36*
X137761843Y54557787D02*
G01*
X137413910Y57033457D01*
X139939093Y57388349D01*
X140287026Y54912679D01*
X137761843Y54557787D01*
G37*
%TD.AperFunction*%
%TA.AperFunction,SMDPad,CuDef*%
%TO.P,MX106,2*%
%TO.N,Net-(D106-Pad2)*%
G36*
X150209539Y58872159D02*
G01*
X149861606Y61347829D01*
X152386789Y61702721D01*
X152734722Y59227051D01*
X150209539Y58872159D01*
G37*
%TD.AperFunction*%
%TD*%
%TA.AperFunction,SMDPad,CuDef*%
%TO.P,MX105,1*%
%TO.N,COL5*%
G36*
X102498572Y58460386D02*
G01*
X102846505Y60936056D01*
X105371688Y60581164D01*
X105023755Y58105494D01*
X102498572Y58460386D01*
G37*
%TD.AperFunction*%
%TA.AperFunction,SMDPad,CuDef*%
%TO.P,MX105,2*%
%TO.N,Net-(D105-Pad2)*%
G36*
X115653267Y59176577D02*
G01*
X116001200Y61652247D01*
X118526383Y61297355D01*
X118178450Y58821685D01*
X115653267Y59176577D01*
G37*
%TD.AperFunction*%
%TD*%
%TA.AperFunction,SMDPad,CuDef*%
%TO.P,MX104,1*%
%TO.N,COL4*%
G36*
X83633965Y61111634D02*
G01*
X83981898Y63587304D01*
X86507081Y63232412D01*
X86159148Y60756742D01*
X83633965Y61111634D01*
G37*
%TD.AperFunction*%
%TA.AperFunction,SMDPad,CuDef*%
%TO.P,MX104,2*%
%TO.N,Net-(D104-Pad2)*%
G36*
X96788660Y61827825D02*
G01*
X97136593Y64303495D01*
X99661776Y63948603D01*
X99313843Y61472933D01*
X96788660Y61827825D01*
G37*
%TD.AperFunction*%
%TD*%
%TA.AperFunction,SMDPad,CuDef*%
%TO.P,MX103,1*%
%TO.N,COL3*%
G36*
X64769359Y63762881D02*
G01*
X65117292Y66238551D01*
X67642475Y65883659D01*
X67294542Y63407989D01*
X64769359Y63762881D01*
G37*
%TD.AperFunction*%
%TA.AperFunction,SMDPad,CuDef*%
%TO.P,MX103,2*%
%TO.N,Net-(D103-Pad2)*%
G36*
X77924054Y64479072D02*
G01*
X78271987Y66954742D01*
X80797170Y66599850D01*
X80449237Y64124180D01*
X77924054Y64479072D01*
G37*
%TD.AperFunction*%
%TD*%
%TA.AperFunction,SMDPad,CuDef*%
%TO.P,MX102,1*%
%TO.N,COL2*%
G36*
X45904752Y66414129D02*
G01*
X46252685Y68889799D01*
X48777868Y68534907D01*
X48429935Y66059237D01*
X45904752Y66414129D01*
G37*
%TD.AperFunction*%
%TA.AperFunction,SMDPad,CuDef*%
%TO.P,MX102,2*%
%TO.N,Net-(D102-Pad2)*%
G36*
X59059447Y67130320D02*
G01*
X59407380Y69605990D01*
X61932563Y69251098D01*
X61584630Y66775428D01*
X59059447Y67130320D01*
G37*
%TD.AperFunction*%
%TD*%
D11*
%TO.P,MX101,1*%
%TO.N,COL1*%
X26685000Y66680000D03*
%TO.P,MX101,2*%
%TO.N,Net-(D101-Pad2)*%
X39612000Y69220000D03*
%TD*%
%TO.P,MX13,1*%
%TO.N,COL13*%
X260788750Y85757500D03*
%TO.P,MX13,2*%
%TO.N,Net-(D13-Pad2)*%
X273715750Y88297500D03*
%TD*%
%TO.P,MX12,1*%
%TO.N,COL12*%
X241738750Y85757500D03*
%TO.P,MX12,2*%
%TO.N,Net-(D12-Pad2)*%
X254665750Y88297500D03*
%TD*%
%TO.P,MX11,1*%
%TO.N,COL11*%
X222688750Y85757500D03*
%TO.P,MX11,2*%
%TO.N,Net-(D11-Pad2)*%
X235615750Y88297500D03*
%TD*%
%TA.AperFunction,SMDPad,CuDef*%
D10*
%TO.P,MX10,1*%
%TO.N,COL10*%
G36*
X201136718Y82701761D02*
G01*
X200788785Y85177431D01*
X203313968Y85532323D01*
X203661901Y83056653D01*
X201136718Y82701761D01*
G37*
%TD.AperFunction*%
%TA.AperFunction,SMDPad,CuDef*%
%TO.P,MX10,2*%
%TO.N,Net-(D10-Pad2)*%
G36*
X213584414Y87016133D02*
G01*
X213236481Y89491803D01*
X215761664Y89846695D01*
X216109597Y87371025D01*
X213584414Y87016133D01*
G37*
%TD.AperFunction*%
%TD*%
%TA.AperFunction,SMDPad,CuDef*%
%TO.P,MX9,1*%
%TO.N,COL9*%
G36*
X182272112Y80050513D02*
G01*
X181924179Y82526183D01*
X184449362Y82881075D01*
X184797295Y80405405D01*
X182272112Y80050513D01*
G37*
%TD.AperFunction*%
%TA.AperFunction,SMDPad,CuDef*%
%TO.P,MX9,2*%
%TO.N,Net-(D9-Pad2)*%
G36*
X194719808Y84364885D02*
G01*
X194371875Y86840555D01*
X196897058Y87195447D01*
X197244991Y84719777D01*
X194719808Y84364885D01*
G37*
%TD.AperFunction*%
%TD*%
%TA.AperFunction,SMDPad,CuDef*%
%TO.P,MX8,1*%
%TO.N,COL8*%
G36*
X163407505Y77399265D02*
G01*
X163059572Y79874935D01*
X165584755Y80229827D01*
X165932688Y77754157D01*
X163407505Y77399265D01*
G37*
%TD.AperFunction*%
%TA.AperFunction,SMDPad,CuDef*%
%TO.P,MX8,2*%
%TO.N,Net-(D8-Pad2)*%
G36*
X175855201Y81713637D02*
G01*
X175507268Y84189307D01*
X178032451Y84544199D01*
X178380384Y82068529D01*
X175855201Y81713637D01*
G37*
%TD.AperFunction*%
%TD*%
%TA.AperFunction,SMDPad,CuDef*%
%TO.P,MX7,1*%
%TO.N,COL7*%
G36*
X144542898Y74748018D02*
G01*
X144194965Y77223688D01*
X146720148Y77578580D01*
X147068081Y75102910D01*
X144542898Y74748018D01*
G37*
%TD.AperFunction*%
%TA.AperFunction,SMDPad,CuDef*%
%TO.P,MX7,2*%
%TO.N,Net-(D7-Pad2)*%
G36*
X156990594Y79062390D02*
G01*
X156642661Y81538060D01*
X159167844Y81892952D01*
X159515777Y79417282D01*
X156990594Y79062390D01*
G37*
%TD.AperFunction*%
%TD*%
%TA.AperFunction,SMDPad,CuDef*%
%TO.P,MX5,1*%
%TO.N,COL5*%
G36*
X95740892Y78650933D02*
G01*
X96088825Y81126603D01*
X98614008Y80771711D01*
X98266075Y78296041D01*
X95740892Y78650933D01*
G37*
%TD.AperFunction*%
%TA.AperFunction,SMDPad,CuDef*%
%TO.P,MX5,2*%
%TO.N,Net-(D5-Pad2)*%
G36*
X108895587Y79367124D02*
G01*
X109243520Y81842794D01*
X111768703Y81487902D01*
X111420770Y79012232D01*
X108895587Y79367124D01*
G37*
%TD.AperFunction*%
%TD*%
%TA.AperFunction,SMDPad,CuDef*%
%TO.P,MX4,1*%
%TO.N,COL4*%
G36*
X76860892Y81310933D02*
G01*
X77208825Y83786603D01*
X79734008Y83431711D01*
X79386075Y80956041D01*
X76860892Y81310933D01*
G37*
%TD.AperFunction*%
%TA.AperFunction,SMDPad,CuDef*%
%TO.P,MX4,2*%
%TO.N,Net-(D4-Pad2)*%
G36*
X90015587Y82027124D02*
G01*
X90363520Y84502794D01*
X92888703Y84147902D01*
X92540770Y81672232D01*
X90015587Y82027124D01*
G37*
%TD.AperFunction*%
%TD*%
%TA.AperFunction,SMDPad,CuDef*%
%TO.P,MX2,1*%
%TO.N,COL2*%
G36*
X39140892Y86600933D02*
G01*
X39488825Y89076603D01*
X42014008Y88721711D01*
X41666075Y86246041D01*
X39140892Y86600933D01*
G37*
%TD.AperFunction*%
%TA.AperFunction,SMDPad,CuDef*%
%TO.P,MX2,2*%
%TO.N,Net-(D2-Pad2)*%
G36*
X52295587Y87317124D02*
G01*
X52643520Y89792794D01*
X55168703Y89437902D01*
X54820770Y86962232D01*
X52295587Y87317124D01*
G37*
%TD.AperFunction*%
%TD*%
D11*
%TO.P,MX1,1*%
%TO.N,COL1*%
X19625000Y85750000D03*
%TO.P,MX1,2*%
%TO.N,Net-(D1-Pad2)*%
X32552000Y88290000D03*
%TD*%
%TO.P,MX0,1*%
%TO.N,COL0*%
X585000Y85720000D03*
%TO.P,MX0,2*%
%TO.N,Net-(D0-Pad2)*%
X13512000Y88260000D03*
%TD*%
%TO.P,MX113,1*%
%TO.N,COL13*%
X277947500Y66687500D03*
%TO.P,MX113,2*%
%TO.N,Net-(D113-Pad2)*%
X290874500Y69227500D03*
%TD*%
%TO.P,MX100,1*%
%TO.N,COL0*%
X2875000Y66680000D03*
%TO.P,MX100,2*%
%TO.N,Net-(D100-Pad2)*%
X15802000Y69220000D03*
%TD*%
%TO.P,MX300,1*%
%TO.N,COL0*%
X4585000Y28570000D03*
%TO.P,MX300,2*%
%TO.N,Net-(D300-Pad2)*%
X17512000Y31110000D03*
%TD*%
%TO.P,MX212,1*%
%TO.N,COL12*%
X273185000Y47637500D03*
%TO.P,MX212,2*%
%TO.N,Net-(D212-Pad2)*%
X286112000Y50177500D03*
%TD*%
%TO.P,MX200,1*%
%TO.N,COL0*%
X2575000Y47620000D03*
%TO.P,MX200,2*%
%TO.N,Net-(D200-Pad2)*%
X15502000Y50160000D03*
%TD*%
%TA.AperFunction,SMDPad,CuDef*%
D10*
%TO.P,MX402,1*%
%TO.N,COL2*%
G36*
X54457540Y7500467D02*
G01*
X54805473Y9976137D01*
X57330656Y9621245D01*
X56982723Y7145575D01*
X54457540Y7500467D01*
G37*
%TD.AperFunction*%
%TA.AperFunction,SMDPad,CuDef*%
%TO.P,MX402,2*%
%TO.N,Net-(D402-Pad2)*%
G36*
X67612235Y8216658D02*
G01*
X67960168Y10692328D01*
X70485351Y10337436D01*
X70137418Y7861766D01*
X67612235Y8216658D01*
G37*
%TD.AperFunction*%
%TD*%
D11*
%TO.P,MX401,1*%
%TO.N,COL1*%
X23735000Y9540000D03*
%TO.P,MX401,2*%
%TO.N,Net-(D401-Pad2)*%
X36662000Y12080000D03*
%TD*%
%TO.P,MX400,1*%
%TO.N,COL0*%
X-105000Y9520000D03*
%TO.P,MX400,2*%
%TO.N,Net-(D400-Pad2)*%
X12822000Y12060000D03*
%TD*%
%TA.AperFunction,SMDPad,CuDef*%
D10*
%TO.P,MX406,1*%
%TO.N,COL6*%
G36*
X162222116Y283809D02*
G01*
X161874183Y2759479D01*
X164399366Y3114371D01*
X164747299Y638701D01*
X162222116Y283809D01*
G37*
%TD.AperFunction*%
%TA.AperFunction,SMDPad,CuDef*%
%TO.P,MX406,2*%
%TO.N,Net-(D406-Pad2)*%
G36*
X174669812Y4598181D02*
G01*
X174321879Y7073851D01*
X176847062Y7428743D01*
X177194995Y4953073D01*
X174669812Y4598181D01*
G37*
%TD.AperFunction*%
%TD*%
%TA.AperFunction,SMDPad,CuDef*%
%TO.P,MX404,1*%
%TO.N,COL4*%
G36*
X92186754Y2197972D02*
G01*
X92534687Y4673642D01*
X95059870Y4318750D01*
X94711937Y1843080D01*
X92186754Y2197972D01*
G37*
%TD.AperFunction*%
%TA.AperFunction,SMDPad,CuDef*%
%TO.P,MX404,2*%
%TO.N,Net-(D404-Pad2)*%
G36*
X105341449Y2914163D02*
G01*
X105689382Y5389833D01*
X108214565Y5034941D01*
X107866632Y2559271D01*
X105341449Y2914163D01*
G37*
%TD.AperFunction*%
%TD*%
D12*
%TO.P,2.5,1*%
%TO.N,N/C*%
X133136887Y35392650D03*
%TD*%
%TO.P,2.5,1*%
%TO.N,N/C*%
X77258161Y3003314D03*
%TD*%
%TO.P,2.5,1*%
%TO.N,N/C*%
X219885384Y80385180D03*
%TD*%
%TO.P,2.5,1*%
%TO.N,N/C*%
X18906250Y7000000D03*
%TD*%
%TO.P,2.5,1*%
%TO.N,N/C*%
X162859822Y72980677D03*
%TD*%
%TO.P,2.5,1*%
%TO.N,N/C*%
X294750250Y11573500D03*
%TD*%
%TO.P,2.5,1*%
%TO.N,N/C*%
X93981649Y74572360D03*
%TD*%
%TO.P,2.5,1*%
%TO.N,N/C*%
X149396946Y-2325869D03*
%TD*%
%TO.P,2.5,1*%
%TO.N,N/C*%
X302349875Y47386750D03*
%TD*%
%TO.P,2.5,1*%
%TO.N,N/C*%
X17192000Y80200000D03*
%TD*%
%TO.P,2.5,1*%
%TO.N,N/C*%
X232647250Y16524999D03*
%TD*%
%TO.P,2.5,1*%
%TO.N,N/C*%
X301512250Y83200000D03*
%TD*%
%TO.P,2.5,1*%
%TO.N,N/C*%
X1152800Y54625000D03*
%TD*%
D13*
%TO.P,RotaryEncoder1,S1*%
%TO.N,COL14*%
X309080000Y85700000D03*
%TO.P,RotaryEncoder1,S2*%
%TO.N,Rot.Enc.2*%
X309080000Y80700000D03*
D14*
%TO.P,RotaryEncoder1,MP*%
%TO.N,N/C*%
X316080000Y88800000D03*
X316080000Y77600000D03*
D13*
%TO.P,RotaryEncoder1,B*%
%TO.N,Rot.Enc.A*%
X323580000Y85700000D03*
%TO.P,RotaryEncoder1,C*%
%TO.N,Rot.Enc.C*%
X323580000Y83200000D03*
D15*
%TO.P,RotaryEncoder1,A*%
%TO.N,Rot.Enc.B*%
X323580000Y80700000D03*
%TD*%
%TO.P,R3,2*%
%TO.N,Net-(R3-Pad2)*%
%TA.AperFunction,SMDPad,CuDef*%
G36*
G01*
X161219884Y82991948D02*
X161345140Y82100704D01*
G75*
G02*
X161132367Y81818345I-247566J-34793D01*
G01*
X160612475Y81745279D01*
G75*
G02*
X160330116Y81958052I-34793J247566D01*
G01*
X160204860Y82849296D01*
G75*
G02*
X160417633Y83131655I247566J34793D01*
G01*
X160937525Y83204721D01*
G75*
G02*
X161219884Y82991948I34793J-247566D01*
G01*
G37*
%TD.AperFunction*%
%TO.P,R3,1*%
%TO.N,GND*%
%TA.AperFunction,SMDPad,CuDef*%
G36*
G01*
X163027124Y83245938D02*
X163152380Y82354694D01*
G75*
G02*
X162939607Y82072335I-247566J-34793D01*
G01*
X162419715Y81999269D01*
G75*
G02*
X162137356Y82212042I-34793J247566D01*
G01*
X162012100Y83103286D01*
G75*
G02*
X162224873Y83385645I247566J34793D01*
G01*
X162744765Y83458711D01*
G75*
G02*
X163027124Y83245938I34793J-247566D01*
G01*
G37*
%TD.AperFunction*%
%TD*%
%TO.P,R2,1*%
%TO.N,GND*%
%TA.AperFunction,SMDPad,CuDef*%
G36*
G01*
X163852124Y85345938D02*
X163977380Y84454694D01*
G75*
G02*
X163764607Y84172335I-247566J-34793D01*
G01*
X163244715Y84099269D01*
G75*
G02*
X162962356Y84312042I-34793J247566D01*
G01*
X162837100Y85203286D01*
G75*
G02*
X163049873Y85485645I247566J34793D01*
G01*
X163569765Y85558711D01*
G75*
G02*
X163852124Y85345938I34793J-247566D01*
G01*
G37*
%TD.AperFunction*%
%TO.P,R2,2*%
%TO.N,Net-(R2-Pad2)*%
%TA.AperFunction,SMDPad,CuDef*%
G36*
G01*
X162044884Y85091948D02*
X162170140Y84200704D01*
G75*
G02*
X161957367Y83918345I-247566J-34793D01*
G01*
X161437475Y83845279D01*
G75*
G02*
X161155116Y84058052I-34793J247566D01*
G01*
X161029860Y84949296D01*
G75*
G02*
X161242633Y85231655I247566J34793D01*
G01*
X161762525Y85304721D01*
G75*
G02*
X162044884Y85091948I34793J-247566D01*
G01*
G37*
%TD.AperFunction*%
%TD*%
%TO.P,R1,2*%
%TO.N,Net-(C1-Pad2)*%
%TA.AperFunction,SMDPad,CuDef*%
G36*
G01*
X165924431Y86408319D02*
X165565556Y85582963D01*
G75*
G02*
X165236605Y85453386I-229264J99687D01*
G01*
X164755146Y85662730D01*
G75*
G02*
X164625569Y85991681I99687J229264D01*
G01*
X164984444Y86817037D01*
G75*
G02*
X165313395Y86946614I229264J-99687D01*
G01*
X165794854Y86737270D01*
G75*
G02*
X165924431Y86408319I-99687J-229264D01*
G01*
G37*
%TD.AperFunction*%
%TO.P,R1,1*%
%TO.N,GND*%
%TA.AperFunction,SMDPad,CuDef*%
G36*
G01*
X167598065Y85680601D02*
X167239190Y84855245D01*
G75*
G02*
X166910239Y84725668I-229264J99687D01*
G01*
X166428780Y84935012D01*
G75*
G02*
X166299203Y85263963I99687J229264D01*
G01*
X166658078Y86089319D01*
G75*
G02*
X166987029Y86218896I229264J-99687D01*
G01*
X167468488Y86009552D01*
G75*
G02*
X167598065Y85680601I-99687J-229264D01*
G01*
G37*
%TD.AperFunction*%
%TD*%
%TO.P,C1,2*%
%TO.N,Net-(C1-Pad2)*%
%TA.AperFunction,SMDPad,CuDef*%
G36*
G01*
X166697936Y88261229D02*
X166319124Y87390022D01*
G75*
G02*
X165990172Y87260444I-229265J99687D01*
G01*
X165531642Y87459819D01*
G75*
G02*
X165402064Y87788771I99687J229265D01*
G01*
X165780876Y88659978D01*
G75*
G02*
X166109828Y88789556I229265J-99687D01*
G01*
X166568358Y88590181D01*
G75*
G02*
X166697936Y88261229I-99687J-229265D01*
G01*
G37*
%TD.AperFunction*%
%TO.P,C1,1*%
%TO.N,GND*%
%TA.AperFunction,SMDPad,CuDef*%
G36*
G01*
X168440350Y87503605D02*
X168061538Y86632398D01*
G75*
G02*
X167732586Y86502820I-229265J99687D01*
G01*
X167274056Y86702195D01*
G75*
G02*
X167144478Y87031147I99687J229265D01*
G01*
X167523290Y87902354D01*
G75*
G02*
X167852242Y88031932I229265J-99687D01*
G01*
X168310772Y87832557D01*
G75*
G02*
X168440350Y87503605I-99687J-229265D01*
G01*
G37*
%TD.AperFunction*%
%TD*%
D16*
%TO.P,USB1,13*%
%TO.N,Net-(C1-Pad2)*%
X155310000Y93080000D03*
X163950000Y93080000D03*
D17*
X155310000Y88900000D03*
X163950000Y88900000D03*
%TD*%
D18*
%TO.P,Y1,1*%
%TO.N,Net-(C3-Pad1)*%
X143780000Y47120000D03*
%TO.P,Y1,2*%
%TO.N,GND*%
X143780000Y49320000D03*
%TO.P,Y1,3*%
%TO.N,Net-(C4-Pad1)*%
X145480000Y49320000D03*
%TO.P,Y1,4*%
%TO.N,GND*%
X145480000Y47120000D03*
%TD*%
D19*
%TO.P,SW1,1*%
%TO.N,GND*%
X138200000Y71250000D03*
%TO.P,SW1,2*%
%TO.N,/Reset*%
X141900000Y65050000D03*
%TO.P,SW1,3*%
%TO.N,N/C*%
X141900000Y71250000D03*
%TO.P,SW1,4*%
X138200000Y65050000D03*
%TD*%
%TO.P,R7,2*%
%TO.N,Net-(R7-Pad2)*%
%TA.AperFunction,SMDPad,CuDef*%
G36*
G01*
X124550000Y39349999D02*
X124550000Y40250001D01*
G75*
G02*
X124799999Y40500000I249999J0D01*
G01*
X125325001Y40500000D01*
G75*
G02*
X125575000Y40250001I0J-249999D01*
G01*
X125575000Y39349999D01*
G75*
G02*
X125325001Y39100000I-249999J0D01*
G01*
X124799999Y39100000D01*
G75*
G02*
X124550000Y39349999I0J249999D01*
G01*
G37*
%TD.AperFunction*%
%TO.P,R7,1*%
%TO.N,GND*%
%TA.AperFunction,SMDPad,CuDef*%
G36*
G01*
X122725000Y39349999D02*
X122725000Y40250001D01*
G75*
G02*
X122974999Y40500000I249999J0D01*
G01*
X123500001Y40500000D01*
G75*
G02*
X123750000Y40250001I0J-249999D01*
G01*
X123750000Y39349999D01*
G75*
G02*
X123500001Y39100000I-249999J0D01*
G01*
X122974999Y39100000D01*
G75*
G02*
X122725000Y39349999I0J249999D01*
G01*
G37*
%TD.AperFunction*%
%TD*%
%TO.P,R6,2*%
%TO.N,/Reset*%
%TA.AperFunction,SMDPad,CuDef*%
G36*
G01*
X136550001Y66037500D02*
X135649999Y66037500D01*
G75*
G02*
X135400000Y66287499I0J249999D01*
G01*
X135400000Y66812501D01*
G75*
G02*
X135649999Y67062500I249999J0D01*
G01*
X136550001Y67062500D01*
G75*
G02*
X136800000Y66812501I0J-249999D01*
G01*
X136800000Y66287499D01*
G75*
G02*
X136550001Y66037500I-249999J0D01*
G01*
G37*
%TD.AperFunction*%
%TO.P,R6,1*%
%TO.N,+5V*%
%TA.AperFunction,SMDPad,CuDef*%
G36*
G01*
X136550001Y64212500D02*
X135649999Y64212500D01*
G75*
G02*
X135400000Y64462499I0J249999D01*
G01*
X135400000Y64987501D01*
G75*
G02*
X135649999Y65237500I249999J0D01*
G01*
X136550001Y65237500D01*
G75*
G02*
X136800000Y64987501I0J-249999D01*
G01*
X136800000Y64462499D01*
G75*
G02*
X136550001Y64212500I-249999J0D01*
G01*
G37*
%TD.AperFunction*%
%TD*%
D20*
%TO.P,D414,2*%
%TO.N,Net-(D414-Pad2)*%
X297000000Y-2170000D03*
%TO.P,D414,1*%
%TO.N,ROW4*%
X293700000Y-2170000D03*
%TD*%
%TO.P,D314,2*%
%TO.N,Net-(D314-Pad2)*%
X300070000Y32590000D03*
%TO.P,D314,1*%
%TO.N,ROW3*%
X296770000Y32590000D03*
%TD*%
%TO.P,D214,2*%
%TO.N,Net-(D214-Pad2)*%
X294340000Y55540000D03*
%TO.P,D214,1*%
%TO.N,ROW2*%
X291040000Y55540000D03*
%TD*%
D21*
%TO.P,D114,2*%
%TO.N,Rot.Enc.2*%
X307100000Y77800000D03*
%TO.P,D114,1*%
%TO.N,ROW1*%
X307100000Y74500000D03*
%TD*%
%TO.P,D14,2*%
%TO.N,Net-(D14-Pad2)*%
X290100000Y80500000D03*
%TO.P,D14,1*%
%TO.N,ROW0*%
X290100000Y77200000D03*
%TD*%
%TO.P,D113,2*%
%TO.N,Net-(D113-Pad2)*%
X294150000Y67200000D03*
%TO.P,D113,1*%
%TO.N,ROW1*%
X294150000Y70500000D03*
%TD*%
%TO.P,D13,2*%
%TO.N,Net-(D13-Pad2)*%
X271000000Y80400000D03*
%TO.P,D13,1*%
%TO.N,ROW0*%
X271000000Y77100000D03*
%TD*%
%TO.P,D412,2*%
%TO.N,Net-(D412-Pad2)*%
X293720000Y7130000D03*
%TO.P,D412,1*%
%TO.N,ROW4*%
X293720000Y3830000D03*
%TD*%
%TO.P,D312,2*%
%TO.N,Net-(D312-Pad2)*%
X294010000Y24200000D03*
%TO.P,D312,1*%
%TO.N,ROW3*%
X294010000Y27500000D03*
%TD*%
%TO.P,D212,2*%
%TO.N,Net-(D212-Pad2)*%
X288890000Y48140000D03*
%TO.P,D212,1*%
%TO.N,ROW2*%
X288890000Y51440000D03*
%TD*%
%TO.P,D112,2*%
%TO.N,Net-(D112-Pad2)*%
X270400000Y67200000D03*
%TO.P,D112,1*%
%TO.N,ROW1*%
X270400000Y70500000D03*
%TD*%
%TO.P,D12,2*%
%TO.N,Net-(D12-Pad2)*%
X252000000Y80350000D03*
%TO.P,D12,1*%
%TO.N,ROW0*%
X252000000Y77050000D03*
%TD*%
%TO.P,D411,2*%
%TO.N,Net-(D411-Pad2)*%
X274850000Y5090000D03*
%TO.P,D411,1*%
%TO.N,ROW4*%
X274850000Y8390000D03*
%TD*%
%TO.P,D311,2*%
%TO.N,Net-(D311-Pad2)*%
X270080000Y29110000D03*
%TO.P,D311,1*%
%TO.N,ROW3*%
X270080000Y32410000D03*
%TD*%
%TO.P,D211,2*%
%TO.N,Net-(D211-Pad2)*%
X257980000Y48150000D03*
%TO.P,D211,1*%
%TO.N,ROW2*%
X257980000Y51450000D03*
%TD*%
%TO.P,D111,2*%
%TO.N,Net-(D111-Pad2)*%
X251100000Y67200000D03*
%TO.P,D111,1*%
%TO.N,ROW1*%
X251100000Y70500000D03*
%TD*%
%TO.P,D11,2*%
%TO.N,Net-(D11-Pad2)*%
X232800000Y80350000D03*
%TO.P,D11,1*%
%TO.N,ROW0*%
X232800000Y77050000D03*
%TD*%
%TO.P,D410,2*%
%TO.N,Net-(D410-Pad2)*%
X250780000Y10050000D03*
%TO.P,D410,1*%
%TO.N,ROW4*%
X250780000Y13350000D03*
%TD*%
%TO.P,D310,2*%
%TO.N,Net-(D310-Pad2)*%
X250900000Y29100000D03*
%TO.P,D310,1*%
%TO.N,ROW3*%
X250900000Y32400000D03*
%TD*%
%TO.P,D210,2*%
%TO.N,Net-(D210-Pad2)*%
X238950000Y48175000D03*
%TO.P,D210,1*%
%TO.N,ROW2*%
X238950000Y51475000D03*
%TD*%
%TO.P,D110,2*%
%TO.N,Net-(D110-Pad2)*%
X232000000Y67200000D03*
%TO.P,D110,1*%
%TO.N,ROW1*%
X232000000Y70500000D03*
%TD*%
%TO.P,D10,2*%
%TO.N,Net-(D10-Pad2)*%
X212700000Y79850000D03*
%TO.P,D10,1*%
%TO.N,ROW0*%
X212700000Y76550000D03*
%TD*%
D20*
%TO.P,D409,2*%
%TO.N,Net-(D409-Pad2)*%
X228800000Y15880000D03*
%TO.P,D409,1*%
%TO.N,ROW4*%
X225500000Y15880000D03*
%TD*%
D21*
%TO.P,D309,2*%
%TO.N,Net-(D309-Pad2)*%
X231780000Y29080000D03*
%TO.P,D309,1*%
%TO.N,ROW3*%
X231780000Y32380000D03*
%TD*%
%TA.AperFunction,SMDPad,CuDef*%
D10*
%TO.P,D209,2*%
%TO.N,Net-(D209-Pad2)*%
G36*
X217752483Y48844233D02*
G01*
X218940805Y49011240D01*
X219066061Y48119999D01*
X217877739Y47952992D01*
X217752483Y48844233D01*
G37*
%TD.AperFunction*%
%TA.AperFunction,SMDPad,CuDef*%
%TO.P,D209,1*%
%TO.N,ROW2*%
G36*
X217293211Y52112117D02*
G01*
X218481533Y52279124D01*
X218606789Y51387883D01*
X217418467Y51220876D01*
X217293211Y52112117D01*
G37*
%TD.AperFunction*%
%TD*%
%TA.AperFunction,SMDPad,CuDef*%
%TO.P,D109,2*%
%TO.N,Net-(D109-Pad2)*%
G36*
X210472847Y67078175D02*
G01*
X211661169Y67245182D01*
X211786425Y66353941D01*
X210598103Y66186934D01*
X210472847Y67078175D01*
G37*
%TD.AperFunction*%
%TA.AperFunction,SMDPad,CuDef*%
%TO.P,D109,1*%
%TO.N,ROW1*%
G36*
X210013575Y70346059D02*
G01*
X211201897Y70513066D01*
X211327153Y69621825D01*
X210138831Y69454818D01*
X210013575Y70346059D01*
G37*
%TD.AperFunction*%
%TD*%
D21*
%TO.P,D9,2*%
%TO.N,Net-(D9-Pad2)*%
X193850000Y77450000D03*
%TO.P,D9,1*%
%TO.N,ROW0*%
X193850000Y74150000D03*
%TD*%
%TA.AperFunction,SMDPad,CuDef*%
D10*
%TO.P,D408,2*%
%TO.N,Net-(D408-Pad2)*%
G36*
X208763211Y9052117D02*
G01*
X209951533Y9219124D01*
X210076789Y8327883D01*
X208888467Y8160876D01*
X208763211Y9052117D01*
G37*
%TD.AperFunction*%
%TA.AperFunction,SMDPad,CuDef*%
%TO.P,D408,1*%
%TO.N,ROW4*%
G36*
X208303939Y12320001D02*
G01*
X209492261Y12487008D01*
X209617517Y11595767D01*
X208429195Y11428760D01*
X208303939Y12320001D01*
G37*
%TD.AperFunction*%
%TD*%
%TA.AperFunction,SMDPad,CuDef*%
%TO.P,D308,2*%
%TO.N,Net-(D308-Pad2)*%
G36*
X210932483Y28634233D02*
G01*
X212120805Y28801240D01*
X212246061Y27909999D01*
X211057739Y27742992D01*
X210932483Y28634233D01*
G37*
%TD.AperFunction*%
%TA.AperFunction,SMDPad,CuDef*%
%TO.P,D308,1*%
%TO.N,ROW3*%
G36*
X210473211Y31902117D02*
G01*
X211661533Y32069124D01*
X211786789Y31177883D01*
X210598467Y31010876D01*
X210473211Y31902117D01*
G37*
%TD.AperFunction*%
%TD*%
%TA.AperFunction,SMDPad,CuDef*%
%TO.P,D208,2*%
%TO.N,Net-(D208-Pad2)*%
G36*
X198727483Y46169233D02*
G01*
X199915805Y46336240D01*
X200041061Y45444999D01*
X198852739Y45277992D01*
X198727483Y46169233D01*
G37*
%TD.AperFunction*%
%TA.AperFunction,SMDPad,CuDef*%
%TO.P,D208,1*%
%TO.N,ROW2*%
G36*
X198268211Y49437117D02*
G01*
X199456533Y49604124D01*
X199581789Y48712883D01*
X198393467Y48545876D01*
X198268211Y49437117D01*
G37*
%TD.AperFunction*%
%TD*%
%TA.AperFunction,SMDPad,CuDef*%
%TO.P,D108,2*%
%TO.N,Net-(D108-Pad2)*%
G36*
X191593211Y64412117D02*
G01*
X192781533Y64579124D01*
X192906789Y63687883D01*
X191718467Y63520876D01*
X191593211Y64412117D01*
G37*
%TD.AperFunction*%
%TA.AperFunction,SMDPad,CuDef*%
%TO.P,D108,1*%
%TO.N,ROW1*%
G36*
X191133939Y67680001D02*
G01*
X192322261Y67847008D01*
X192447517Y66955767D01*
X191259195Y66788760D01*
X191133939Y67680001D01*
G37*
%TD.AperFunction*%
%TD*%
D21*
%TO.P,D8,2*%
%TO.N,Net-(D8-Pad2)*%
X174950000Y74700000D03*
%TO.P,D8,1*%
%TO.N,ROW0*%
X174950000Y71400000D03*
%TD*%
%TA.AperFunction,SMDPad,CuDef*%
D10*
%TO.P,D307,2*%
%TO.N,Net-(D307-Pad2)*%
G36*
X192032847Y25978175D02*
G01*
X193221169Y26145182D01*
X193346425Y25253941D01*
X192158103Y25086934D01*
X192032847Y25978175D01*
G37*
%TD.AperFunction*%
%TA.AperFunction,SMDPad,CuDef*%
%TO.P,D307,1*%
%TO.N,ROW3*%
G36*
X191573575Y29246059D02*
G01*
X192761897Y29413066D01*
X192887153Y28521825D01*
X191698831Y28354818D01*
X191573575Y29246059D01*
G37*
%TD.AperFunction*%
%TD*%
%TA.AperFunction,SMDPad,CuDef*%
%TO.P,D207,2*%
%TO.N,Net-(D207-Pad2)*%
G36*
X179927483Y43519233D02*
G01*
X181115805Y43686240D01*
X181241061Y42794999D01*
X180052739Y42627992D01*
X179927483Y43519233D01*
G37*
%TD.AperFunction*%
%TA.AperFunction,SMDPad,CuDef*%
%TO.P,D207,1*%
%TO.N,ROW2*%
G36*
X179468211Y46787117D02*
G01*
X180656533Y46954124D01*
X180781789Y46062883D01*
X179593467Y45895876D01*
X179468211Y46787117D01*
G37*
%TD.AperFunction*%
%TD*%
%TA.AperFunction,SMDPad,CuDef*%
%TO.P,D107,2*%
%TO.N,Net-(D107-Pad2)*%
G36*
X172763575Y61762117D02*
G01*
X173951897Y61929124D01*
X174077153Y61037883D01*
X172888831Y60870876D01*
X172763575Y61762117D01*
G37*
%TD.AperFunction*%
%TA.AperFunction,SMDPad,CuDef*%
%TO.P,D107,1*%
%TO.N,ROW1*%
G36*
X172304303Y65030001D02*
G01*
X173492625Y65197008D01*
X173617881Y64305767D01*
X172429559Y64138760D01*
X172304303Y65030001D01*
G37*
%TD.AperFunction*%
%TD*%
D21*
%TO.P,D7,2*%
%TO.N,Net-(D7-Pad2)*%
X156050000Y72350000D03*
%TO.P,D7,1*%
%TO.N,ROW0*%
X156050000Y69050000D03*
%TD*%
%TA.AperFunction,SMDPad,CuDef*%
D10*
%TO.P,D406,2*%
%TO.N,Net-(D406-Pad2)*%
G36*
X178082483Y4794233D02*
G01*
X179270805Y4961240D01*
X179396061Y4069999D01*
X178207739Y3902992D01*
X178082483Y4794233D01*
G37*
%TD.AperFunction*%
%TA.AperFunction,SMDPad,CuDef*%
%TO.P,D406,1*%
%TO.N,ROW4*%
G36*
X177623211Y8062117D02*
G01*
X178811533Y8229124D01*
X178936789Y7337883D01*
X177748467Y7170876D01*
X177623211Y8062117D01*
G37*
%TD.AperFunction*%
%TD*%
%TA.AperFunction,SMDPad,CuDef*%
%TO.P,D306,2*%
%TO.N,Net-(D306-Pad2)*%
G36*
X173162847Y23308175D02*
G01*
X174351169Y23475182D01*
X174476425Y22583941D01*
X173288103Y22416934D01*
X173162847Y23308175D01*
G37*
%TD.AperFunction*%
%TA.AperFunction,SMDPad,CuDef*%
%TO.P,D306,1*%
%TO.N,ROW3*%
G36*
X172703575Y26576059D02*
G01*
X173891897Y26743066D01*
X174017153Y25851825D01*
X172828831Y25684818D01*
X172703575Y26576059D01*
G37*
%TD.AperFunction*%
%TD*%
%TA.AperFunction,SMDPad,CuDef*%
%TO.P,D206,2*%
%TO.N,Net-(D206-Pad2)*%
G36*
X161018211Y40837117D02*
G01*
X162206533Y41004124D01*
X162331789Y40112883D01*
X161143467Y39945876D01*
X161018211Y40837117D01*
G37*
%TD.AperFunction*%
%TA.AperFunction,SMDPad,CuDef*%
%TO.P,D206,1*%
%TO.N,ROW2*%
G36*
X160558939Y44105001D02*
G01*
X161747261Y44272008D01*
X161872517Y43380767D01*
X160684195Y43213760D01*
X160558939Y44105001D01*
G37*
%TD.AperFunction*%
%TD*%
%TA.AperFunction,SMDPad,CuDef*%
%TO.P,D106,2*%
%TO.N,Net-(D106-Pad2)*%
G36*
X153772847Y58653175D02*
G01*
X154961169Y58820182D01*
X155086425Y57928941D01*
X153898103Y57761934D01*
X153772847Y58653175D01*
G37*
%TD.AperFunction*%
%TA.AperFunction,SMDPad,CuDef*%
%TO.P,D106,1*%
%TO.N,ROW1*%
G36*
X153313575Y61921059D02*
G01*
X154501897Y62088066D01*
X154627153Y61196825D01*
X153438831Y61029818D01*
X153313575Y61921059D01*
G37*
%TD.AperFunction*%
%TD*%
D21*
%TO.P,D6,2*%
%TO.N,Net-(D6-Pad2)*%
X125700000Y70550000D03*
%TO.P,D6,1*%
%TO.N,ROW0*%
X125700000Y67250000D03*
%TD*%
%TA.AperFunction,SMDPad,CuDef*%
D10*
%TO.P,D405,2*%
%TO.N,Net-(D405-Pad2)*%
G36*
X155167153Y23161825D02*
G01*
X153978831Y22994818D01*
X153853575Y23886059D01*
X155041897Y24053066D01*
X155167153Y23161825D01*
G37*
%TD.AperFunction*%
%TA.AperFunction,SMDPad,CuDef*%
%TO.P,D405,1*%
%TO.N,ROW4*%
G36*
X155626425Y19893941D02*
G01*
X154438103Y19726934D01*
X154312847Y20618175D01*
X155501169Y20785182D01*
X155626425Y19893941D01*
G37*
%TD.AperFunction*%
%TD*%
%TA.AperFunction,SMDPad,CuDef*%
%TO.P,D305,2*%
%TO.N,Net-(D305-Pad2)*%
G36*
X127969195Y18701240D02*
G01*
X129157517Y18534233D01*
X129032261Y17642992D01*
X127843939Y17809999D01*
X127969195Y18701240D01*
G37*
%TD.AperFunction*%
%TA.AperFunction,SMDPad,CuDef*%
%TO.P,D305,1*%
%TO.N,ROW3*%
G36*
X128428467Y21969124D02*
G01*
X129616789Y21802117D01*
X129491533Y20910876D01*
X128303211Y21077883D01*
X128428467Y21969124D01*
G37*
%TD.AperFunction*%
%TD*%
%TA.AperFunction,SMDPad,CuDef*%
%TO.P,D205,2*%
%TO.N,Net-(D205-Pad2)*%
G36*
X121711169Y37204818D02*
G01*
X120522847Y37371825D01*
X120648103Y38263066D01*
X121836425Y38096059D01*
X121711169Y37204818D01*
G37*
%TD.AperFunction*%
%TA.AperFunction,SMDPad,CuDef*%
%TO.P,D205,1*%
%TO.N,ROW2*%
G36*
X121251897Y33936934D02*
G01*
X120063575Y34103941D01*
X120188831Y34995182D01*
X121377153Y34828175D01*
X121251897Y33936934D01*
G37*
%TD.AperFunction*%
%TD*%
%TA.AperFunction,SMDPad,CuDef*%
%TO.P,D105,2*%
%TO.N,Net-(D105-Pad2)*%
G36*
X119009195Y58311240D02*
G01*
X120197517Y58144233D01*
X120072261Y57252992D01*
X118883939Y57419999D01*
X119009195Y58311240D01*
G37*
%TD.AperFunction*%
%TA.AperFunction,SMDPad,CuDef*%
%TO.P,D105,1*%
%TO.N,ROW1*%
G36*
X119468467Y61579124D02*
G01*
X120656789Y61412117D01*
X120531533Y60520876D01*
X119343211Y60687883D01*
X119468467Y61579124D01*
G37*
%TD.AperFunction*%
%TD*%
D21*
%TO.P,D5,2*%
%TO.N,Net-(D5-Pad2)*%
X106800000Y73150000D03*
%TO.P,D5,1*%
%TO.N,ROW0*%
X106800000Y69850000D03*
%TD*%
%TA.AperFunction,SMDPad,CuDef*%
D10*
%TO.P,D404,2*%
%TO.N,Net-(D404-Pad2)*%
G36*
X108519195Y531240D02*
G01*
X109707517Y364233D01*
X109582261Y-527008D01*
X108393939Y-360001D01*
X108519195Y531240D01*
G37*
%TD.AperFunction*%
%TA.AperFunction,SMDPad,CuDef*%
%TO.P,D404,1*%
%TO.N,ROW4*%
G36*
X108978467Y3799124D02*
G01*
X110166789Y3632117D01*
X110041533Y2740876D01*
X108853211Y2907883D01*
X108978467Y3799124D01*
G37*
%TD.AperFunction*%
%TD*%
%TA.AperFunction,SMDPad,CuDef*%
%TO.P,D304,2*%
%TO.N,Net-(D304-Pad2)*%
G36*
X109149195Y21281240D02*
G01*
X110337517Y21114233D01*
X110212261Y20222992D01*
X109023939Y20389999D01*
X109149195Y21281240D01*
G37*
%TD.AperFunction*%
%TA.AperFunction,SMDPad,CuDef*%
%TO.P,D304,1*%
%TO.N,ROW3*%
G36*
X109608467Y24549124D02*
G01*
X110796789Y24382117D01*
X110671533Y23490876D01*
X109483211Y23657883D01*
X109608467Y24549124D01*
G37*
%TD.AperFunction*%
%TD*%
%TA.AperFunction,SMDPad,CuDef*%
%TO.P,D204,2*%
%TO.N,Net-(D204-Pad2)*%
G36*
X102334195Y41436240D02*
G01*
X103522517Y41269233D01*
X103397261Y40377992D01*
X102208939Y40544999D01*
X102334195Y41436240D01*
G37*
%TD.AperFunction*%
%TA.AperFunction,SMDPad,CuDef*%
%TO.P,D204,1*%
%TO.N,ROW2*%
G36*
X102793467Y44704124D02*
G01*
X103981789Y44537117D01*
X103856533Y43645876D01*
X102668211Y43812883D01*
X102793467Y44704124D01*
G37*
%TD.AperFunction*%
%TD*%
%TA.AperFunction,SMDPad,CuDef*%
%TO.P,D104,1*%
%TO.N,ROW1*%
G36*
X100718467Y64279124D02*
G01*
X101906789Y64112117D01*
X101781533Y63220876D01*
X100593211Y63387883D01*
X100718467Y64279124D01*
G37*
%TD.AperFunction*%
%TA.AperFunction,SMDPad,CuDef*%
%TO.P,D104,2*%
%TO.N,Net-(D104-Pad2)*%
G36*
X100259195Y61011240D02*
G01*
X101447517Y60844233D01*
X101322261Y59952992D01*
X100133939Y60119999D01*
X100259195Y61011240D01*
G37*
%TD.AperFunction*%
%TD*%
D21*
%TO.P,D4,2*%
%TO.N,Net-(D4-Pad2)*%
X88000000Y75650000D03*
%TO.P,D4,1*%
%TO.N,ROW0*%
X88000000Y72350000D03*
%TD*%
%TA.AperFunction,SMDPad,CuDef*%
D10*
%TO.P,D303,2*%
%TO.N,Net-(D303-Pad2)*%
G36*
X90289195Y23951240D02*
G01*
X91477517Y23784233D01*
X91352261Y22892992D01*
X90163939Y23059999D01*
X90289195Y23951240D01*
G37*
%TD.AperFunction*%
%TA.AperFunction,SMDPad,CuDef*%
%TO.P,D303,1*%
%TO.N,ROW3*%
G36*
X90748467Y27219124D02*
G01*
X91936789Y27052117D01*
X91811533Y26160876D01*
X90623211Y26327883D01*
X90748467Y27219124D01*
G37*
%TD.AperFunction*%
%TD*%
%TA.AperFunction,SMDPad,CuDef*%
%TO.P,D203,2*%
%TO.N,Net-(D203-Pad2)*%
G36*
X83393467Y44154124D02*
G01*
X84581789Y43987117D01*
X84456533Y43095876D01*
X83268211Y43262883D01*
X83393467Y44154124D01*
G37*
%TD.AperFunction*%
%TA.AperFunction,SMDPad,CuDef*%
%TO.P,D203,1*%
%TO.N,ROW2*%
G36*
X83852739Y47422008D02*
G01*
X85041061Y47255001D01*
X84915805Y46363760D01*
X83727483Y46530767D01*
X83852739Y47422008D01*
G37*
%TD.AperFunction*%
%TD*%
%TA.AperFunction,SMDPad,CuDef*%
%TO.P,D103,2*%
%TO.N,Net-(D103-Pad2)*%
G36*
X81488831Y63645182D02*
G01*
X82677153Y63478175D01*
X82551897Y62586934D01*
X81363575Y62753941D01*
X81488831Y63645182D01*
G37*
%TD.AperFunction*%
%TA.AperFunction,SMDPad,CuDef*%
%TO.P,D103,1*%
%TO.N,ROW1*%
G36*
X81948103Y66913066D02*
G01*
X83136425Y66746059D01*
X83011169Y65854818D01*
X81822847Y66021825D01*
X81948103Y66913066D01*
G37*
%TD.AperFunction*%
%TD*%
D21*
%TO.P,D3,2*%
%TO.N,Net-(D3-Pad2)*%
X69050000Y77950000D03*
%TO.P,D3,1*%
%TO.N,ROW0*%
X69050000Y74650000D03*
%TD*%
%TA.AperFunction,SMDPad,CuDef*%
D10*
%TO.P,D402,2*%
%TO.N,Net-(D402-Pad2)*%
G36*
X71018467Y7419124D02*
G01*
X72206789Y7252117D01*
X72081533Y6360876D01*
X70893211Y6527883D01*
X71018467Y7419124D01*
G37*
%TD.AperFunction*%
%TA.AperFunction,SMDPad,CuDef*%
%TO.P,D402,1*%
%TO.N,ROW4*%
G36*
X71477739Y10687008D02*
G01*
X72666061Y10520001D01*
X72540805Y9628760D01*
X71352483Y9795767D01*
X71477739Y10687008D01*
G37*
%TD.AperFunction*%
%TD*%
%TA.AperFunction,SMDPad,CuDef*%
%TO.P,D302,2*%
%TO.N,Net-(D302-Pad2)*%
G36*
X71428467Y26579124D02*
G01*
X72616789Y26412117D01*
X72491533Y25520876D01*
X71303211Y25687883D01*
X71428467Y26579124D01*
G37*
%TD.AperFunction*%
%TA.AperFunction,SMDPad,CuDef*%
%TO.P,D302,1*%
%TO.N,ROW3*%
G36*
X71887739Y29847008D02*
G01*
X73076061Y29680001D01*
X72950805Y28788760D01*
X71762483Y28955767D01*
X71887739Y29847008D01*
G37*
%TD.AperFunction*%
%TD*%
%TA.AperFunction,SMDPad,CuDef*%
%TO.P,D202,2*%
%TO.N,Net-(D202-Pad2)*%
G36*
X64468467Y46829124D02*
G01*
X65656789Y46662117D01*
X65531533Y45770876D01*
X64343211Y45937883D01*
X64468467Y46829124D01*
G37*
%TD.AperFunction*%
%TA.AperFunction,SMDPad,CuDef*%
%TO.P,D202,1*%
%TO.N,ROW2*%
G36*
X64927739Y50097008D02*
G01*
X66116061Y49930001D01*
X65990805Y49038760D01*
X64802483Y49205767D01*
X64927739Y50097008D01*
G37*
%TD.AperFunction*%
%TD*%
%TA.AperFunction,SMDPad,CuDef*%
%TO.P,D102,2*%
%TO.N,Net-(D102-Pad2)*%
G36*
X62538831Y66345182D02*
G01*
X63727153Y66178175D01*
X63601897Y65286934D01*
X62413575Y65453941D01*
X62538831Y66345182D01*
G37*
%TD.AperFunction*%
%TA.AperFunction,SMDPad,CuDef*%
%TO.P,D102,1*%
%TO.N,ROW1*%
G36*
X62998103Y69613066D02*
G01*
X64186425Y69446059D01*
X64061169Y68554818D01*
X62872847Y68721825D01*
X62998103Y69613066D01*
G37*
%TD.AperFunction*%
%TD*%
D21*
%TO.P,D2,2*%
%TO.N,Net-(D2-Pad2)*%
X50000000Y80050000D03*
%TO.P,D2,1*%
%TO.N,ROW0*%
X50000000Y76750000D03*
%TD*%
%TO.P,D401,2*%
%TO.N,Net-(D401-Pad2)*%
X39500000Y10100000D03*
%TO.P,D401,1*%
%TO.N,ROW4*%
X39500000Y13400000D03*
%TD*%
%TO.P,D301,2*%
%TO.N,Net-(D301-Pad2)*%
X51390000Y29100000D03*
%TO.P,D301,1*%
%TO.N,ROW3*%
X51390000Y32400000D03*
%TD*%
%TO.P,D201,2*%
%TO.N,Net-(D201-Pad2)*%
X44650000Y48125000D03*
%TO.P,D201,1*%
%TO.N,ROW2*%
X44650000Y51425000D03*
%TD*%
%TO.P,D101,2*%
%TO.N,Net-(D101-Pad2)*%
X42600000Y67200000D03*
%TO.P,D101,1*%
%TO.N,ROW1*%
X42600000Y70500000D03*
%TD*%
%TO.P,D1,2*%
%TO.N,Net-(D1-Pad2)*%
X29800000Y80250000D03*
%TO.P,D1,1*%
%TO.N,ROW0*%
X29800000Y76950000D03*
%TD*%
%TO.P,D400,2*%
%TO.N,Net-(D400-Pad2)*%
X15640000Y14490000D03*
%TO.P,D400,1*%
%TO.N,ROW4*%
X15640000Y11190000D03*
%TD*%
%TO.P,D300,2*%
%TO.N,Net-(D300-Pad2)*%
X20280000Y29090000D03*
%TO.P,D300,1*%
%TO.N,ROW3*%
X20280000Y32390000D03*
%TD*%
%TO.P,D200,2*%
%TO.N,Net-(D200-Pad2)*%
X18425000Y48150000D03*
%TO.P,D200,1*%
%TO.N,ROW2*%
X18425000Y51450000D03*
%TD*%
%TO.P,D100,2*%
%TO.N,Net-(D100-Pad2)*%
X18850000Y67200000D03*
%TO.P,D100,1*%
%TO.N,ROW1*%
X18850000Y70500000D03*
%TD*%
%TO.P,D0,2*%
%TO.N,Net-(D0-Pad2)*%
X10800000Y80250000D03*
%TO.P,D0,1*%
%TO.N,ROW0*%
X10800000Y76950000D03*
%TD*%
%TO.P,C8,2*%
%TO.N,GND*%
%TA.AperFunction,SMDPad,CuDef*%
G36*
G01*
X124675000Y59900000D02*
X123725000Y59900000D01*
G75*
G02*
X123475000Y60150000I0J250000D01*
G01*
X123475000Y60650000D01*
G75*
G02*
X123725000Y60900000I250000J0D01*
G01*
X124675000Y60900000D01*
G75*
G02*
X124925000Y60650000I0J-250000D01*
G01*
X124925000Y60150000D01*
G75*
G02*
X124675000Y59900000I-250000J0D01*
G01*
G37*
%TD.AperFunction*%
%TO.P,C8,1*%
%TO.N,+5V*%
%TA.AperFunction,SMDPad,CuDef*%
G36*
G01*
X124675000Y58000000D02*
X123725000Y58000000D01*
G75*
G02*
X123475000Y58250000I0J250000D01*
G01*
X123475000Y58750000D01*
G75*
G02*
X123725000Y59000000I250000J0D01*
G01*
X124675000Y59000000D01*
G75*
G02*
X124925000Y58750000I0J-250000D01*
G01*
X124925000Y58250000D01*
G75*
G02*
X124675000Y58000000I-250000J0D01*
G01*
G37*
%TD.AperFunction*%
%TD*%
%TO.P,C7,2*%
%TO.N,Net-(C7-Pad2)*%
%TA.AperFunction,SMDPad,CuDef*%
G36*
G01*
X130325000Y58550000D02*
X131275000Y58550000D01*
G75*
G02*
X131525000Y58300000I0J-250000D01*
G01*
X131525000Y57800000D01*
G75*
G02*
X131275000Y57550000I-250000J0D01*
G01*
X130325000Y57550000D01*
G75*
G02*
X130075000Y57800000I0J250000D01*
G01*
X130075000Y58300000D01*
G75*
G02*
X130325000Y58550000I250000J0D01*
G01*
G37*
%TD.AperFunction*%
%TO.P,C7,1*%
%TO.N,GND*%
%TA.AperFunction,SMDPad,CuDef*%
G36*
G01*
X130325000Y60450000D02*
X131275000Y60450000D01*
G75*
G02*
X131525000Y60200000I0J-250000D01*
G01*
X131525000Y59700000D01*
G75*
G02*
X131275000Y59450000I-250000J0D01*
G01*
X130325000Y59450000D01*
G75*
G02*
X130075000Y59700000I0J250000D01*
G01*
X130075000Y60200000D01*
G75*
G02*
X130325000Y60450000I250000J0D01*
G01*
G37*
%TD.AperFunction*%
%TD*%
%TO.P,C6,2*%
%TO.N,GND*%
%TA.AperFunction,SMDPad,CuDef*%
G36*
G01*
X134400000Y39425000D02*
X134400000Y40375000D01*
G75*
G02*
X134650000Y40625000I250000J0D01*
G01*
X135150000Y40625000D01*
G75*
G02*
X135400000Y40375000I0J-250000D01*
G01*
X135400000Y39425000D01*
G75*
G02*
X135150000Y39175000I-250000J0D01*
G01*
X134650000Y39175000D01*
G75*
G02*
X134400000Y39425000I0J250000D01*
G01*
G37*
%TD.AperFunction*%
%TO.P,C6,1*%
%TO.N,+5V*%
%TA.AperFunction,SMDPad,CuDef*%
G36*
G01*
X132500000Y39425000D02*
X132500000Y40375000D01*
G75*
G02*
X132750000Y40625000I250000J0D01*
G01*
X133250000Y40625000D01*
G75*
G02*
X133500000Y40375000I0J-250000D01*
G01*
X133500000Y39425000D01*
G75*
G02*
X133250000Y39175000I-250000J0D01*
G01*
X132750000Y39175000D01*
G75*
G02*
X132500000Y39425000I0J250000D01*
G01*
G37*
%TD.AperFunction*%
%TD*%
%TO.P,C5,2*%
%TO.N,GND*%
%TA.AperFunction,SMDPad,CuDef*%
G36*
G01*
X139850000Y50755000D02*
X139850000Y51705000D01*
G75*
G02*
X140100000Y51955000I250000J0D01*
G01*
X140600000Y51955000D01*
G75*
G02*
X140850000Y51705000I0J-250000D01*
G01*
X140850000Y50755000D01*
G75*
G02*
X140600000Y50505000I-250000J0D01*
G01*
X140100000Y50505000D01*
G75*
G02*
X139850000Y50755000I0J250000D01*
G01*
G37*
%TD.AperFunction*%
%TO.P,C5,1*%
%TO.N,+5V*%
%TA.AperFunction,SMDPad,CuDef*%
G36*
G01*
X137950000Y50755000D02*
X137950000Y51705000D01*
G75*
G02*
X138200000Y51955000I250000J0D01*
G01*
X138700000Y51955000D01*
G75*
G02*
X138950000Y51705000I0J-250000D01*
G01*
X138950000Y50755000D01*
G75*
G02*
X138700000Y50505000I-250000J0D01*
G01*
X138200000Y50505000D01*
G75*
G02*
X137950000Y50755000I0J250000D01*
G01*
G37*
%TD.AperFunction*%
%TD*%
%TO.P,C4,1*%
%TO.N,Net-(C4-Pad1)*%
%TA.AperFunction,SMDPad,CuDef*%
G36*
G01*
X147730000Y49145000D02*
X147730000Y50095000D01*
G75*
G02*
X147980000Y50345000I250000J0D01*
G01*
X148480000Y50345000D01*
G75*
G02*
X148730000Y50095000I0J-250000D01*
G01*
X148730000Y49145000D01*
G75*
G02*
X148480000Y48895000I-250000J0D01*
G01*
X147980000Y48895000D01*
G75*
G02*
X147730000Y49145000I0J250000D01*
G01*
G37*
%TD.AperFunction*%
%TO.P,C4,2*%
%TO.N,GND*%
%TA.AperFunction,SMDPad,CuDef*%
G36*
G01*
X149630000Y49145000D02*
X149630000Y50095000D01*
G75*
G02*
X149880000Y50345000I250000J0D01*
G01*
X150380000Y50345000D01*
G75*
G02*
X150630000Y50095000I0J-250000D01*
G01*
X150630000Y49145000D01*
G75*
G02*
X150380000Y48895000I-250000J0D01*
G01*
X149880000Y48895000D01*
G75*
G02*
X149630000Y49145000I0J250000D01*
G01*
G37*
%TD.AperFunction*%
%TD*%
%TO.P,C3,1*%
%TO.N,Net-(C3-Pad1)*%
%TA.AperFunction,SMDPad,CuDef*%
G36*
G01*
X147755000Y46320000D02*
X147755000Y47270000D01*
G75*
G02*
X148005000Y47520000I250000J0D01*
G01*
X148505000Y47520000D01*
G75*
G02*
X148755000Y47270000I0J-250000D01*
G01*
X148755000Y46320000D01*
G75*
G02*
X148505000Y46070000I-250000J0D01*
G01*
X148005000Y46070000D01*
G75*
G02*
X147755000Y46320000I0J250000D01*
G01*
G37*
%TD.AperFunction*%
%TO.P,C3,2*%
%TO.N,GND*%
%TA.AperFunction,SMDPad,CuDef*%
G36*
G01*
X149655000Y46320000D02*
X149655000Y47270000D01*
G75*
G02*
X149905000Y47520000I250000J0D01*
G01*
X150405000Y47520000D01*
G75*
G02*
X150655000Y47270000I0J-250000D01*
G01*
X150655000Y46320000D01*
G75*
G02*
X150405000Y46070000I-250000J0D01*
G01*
X149905000Y46070000D01*
G75*
G02*
X149655000Y46320000I0J250000D01*
G01*
G37*
%TD.AperFunction*%
%TD*%
%TO.P,C2,2*%
%TO.N,GND*%
%TA.AperFunction,SMDPad,CuDef*%
G36*
G01*
X120675000Y44950000D02*
X119725000Y44950000D01*
G75*
G02*
X119475000Y45200000I0J250000D01*
G01*
X119475000Y45700000D01*
G75*
G02*
X119725000Y45950000I250000J0D01*
G01*
X120675000Y45950000D01*
G75*
G02*
X120925000Y45700000I0J-250000D01*
G01*
X120925000Y45200000D01*
G75*
G02*
X120675000Y44950000I-250000J0D01*
G01*
G37*
%TD.AperFunction*%
%TO.P,C2,1*%
%TO.N,+5V*%
%TA.AperFunction,SMDPad,CuDef*%
G36*
G01*
X120675000Y43050000D02*
X119725000Y43050000D01*
G75*
G02*
X119475000Y43300000I0J250000D01*
G01*
X119475000Y43800000D01*
G75*
G02*
X119725000Y44050000I250000J0D01*
G01*
X120675000Y44050000D01*
G75*
G02*
X120925000Y43800000I0J-250000D01*
G01*
X120925000Y43300000D01*
G75*
G02*
X120675000Y43050000I-250000J0D01*
G01*
G37*
%TD.AperFunction*%
%TD*%
D22*
%TO.P,U1,1*%
%TO.N,Net-(U1-Pad1)*%
X125730000Y54230000D03*
%TO.P,U1,2*%
%TO.N,+5V*%
X126530000Y54230000D03*
%TO.P,U1,3*%
%TO.N,/Data_N*%
X127330000Y54230000D03*
%TO.P,U1,4*%
%TO.N,/Data_P*%
X128130000Y54230000D03*
%TO.P,U1,5*%
%TO.N,GND*%
X128930000Y54230000D03*
%TO.P,U1,6*%
%TO.N,Net-(C7-Pad2)*%
X129730000Y54230000D03*
%TO.P,U1,7*%
%TO.N,+5V*%
X130530000Y54230000D03*
%TO.P,U1,8*%
%TO.N,Net-(U1-Pad8)*%
X131330000Y54230000D03*
%TO.P,U1,9*%
%TO.N,Net-(U1-Pad9)*%
X132130000Y54230000D03*
%TO.P,U1,10*%
%TO.N,Net-(U1-Pad10)*%
X132930000Y54230000D03*
%TO.P,U1,11*%
%TO.N,Net-(U1-Pad11)*%
X133730000Y54230000D03*
D23*
%TO.P,U1,12*%
%TO.N,Net-(U1-Pad12)*%
X135430000Y52530000D03*
%TO.P,U1,13*%
%TO.N,/Reset*%
X135430000Y51730000D03*
%TO.P,U1,14*%
%TO.N,+5V*%
X135430000Y50930000D03*
%TO.P,U1,15*%
%TO.N,GND*%
X135430000Y50130000D03*
%TO.P,U1,16*%
%TO.N,Net-(C4-Pad1)*%
X135430000Y49330000D03*
%TO.P,U1,17*%
%TO.N,Net-(C3-Pad1)*%
X135430000Y48530000D03*
%TO.P,U1,18*%
%TO.N,Net-(U1-Pad18)*%
X135430000Y47730000D03*
%TO.P,U1,19*%
%TO.N,Net-(U1-Pad19)*%
X135430000Y46930000D03*
%TO.P,U1,20*%
%TO.N,Net-(U1-Pad20)*%
X135430000Y46130000D03*
%TO.P,U1,21*%
%TO.N,Net-(U1-Pad21)*%
X135430000Y45330000D03*
%TO.P,U1,22*%
%TO.N,Net-(U1-Pad22)*%
X135430000Y44530000D03*
D22*
%TO.P,U1,23*%
%TO.N,GND*%
X133730000Y42830000D03*
%TO.P,U1,24*%
%TO.N,+5V*%
X132930000Y42830000D03*
%TO.P,U1,25*%
%TO.N,Net-(U1-Pad25)*%
X132130000Y42830000D03*
%TO.P,U1,26*%
%TO.N,Net-(U1-Pad26)*%
X131330000Y42830000D03*
%TO.P,U1,27*%
%TO.N,Net-(U1-Pad27)*%
X130530000Y42830000D03*
%TO.P,U1,28*%
%TO.N,Net-(U1-Pad28)*%
X129730000Y42830000D03*
%TO.P,U1,29*%
%TO.N,Net-(U1-Pad29)*%
X128930000Y42830000D03*
%TO.P,U1,30*%
%TO.N,Net-(U1-Pad30)*%
X128130000Y42830000D03*
%TO.P,U1,31*%
%TO.N,Net-(U1-Pad31)*%
X127330000Y42830000D03*
%TO.P,U1,32*%
%TO.N,Net-(U1-Pad32)*%
X126530000Y42830000D03*
%TO.P,U1,33*%
%TO.N,Net-(R7-Pad2)*%
X125730000Y42830000D03*
D23*
%TO.P,U1,34*%
%TO.N,+5V*%
X124030000Y44530000D03*
%TO.P,U1,35*%
%TO.N,GND*%
X124030000Y45330000D03*
%TO.P,U1,36*%
%TO.N,COL0*%
X124030000Y46130000D03*
%TO.P,U1,37*%
%TO.N,COL1*%
X124030000Y46930000D03*
%TO.P,U1,38*%
%TO.N,COL2*%
X124030000Y47730000D03*
%TO.P,U1,39*%
%TO.N,COL3*%
X124030000Y48530000D03*
%TO.P,U1,40*%
%TO.N,COL4*%
X124030000Y49330000D03*
%TO.P,U1,41*%
%TO.N,COL5*%
X124030000Y50130000D03*
%TO.P,U1,42*%
%TO.N,Net-(U1-Pad42)*%
X124030000Y50930000D03*
%TO.P,U1,43*%
%TO.N,GND*%
X124030000Y51730000D03*
%TO.P,U1,44*%
%TO.N,+5V*%
X124030000Y52530000D03*
%TD*%
D24*
%TO.N,+5V*%
X118000000Y43600000D03*
X118900000Y54900000D03*
X129600000Y37800000D03*
X136950000Y50950000D03*
X132570000Y59170000D03*
X136100000Y63400000D03*
%TO.N,GND*%
X126750000Y62100000D03*
X124200000Y62100000D03*
X116900000Y51700000D03*
X132750000Y72800000D03*
X132713878Y79061122D03*
X154992414Y87192414D03*
X164101262Y87126262D03*
%TO.N,VCC*%
X156725000Y86125000D03*
X162075000Y86150000D03*
%TO.N,COL0*%
X585000Y85685000D03*
X2875000Y66775000D03*
X2700000Y47750000D03*
X4600000Y28585000D03*
X-105000Y9520000D03*
X5190000Y53970000D03*
%TO.N,D-*%
X140700000Y79475000D03*
X143019117Y78380883D03*
%TO.N,COL4*%
X93650000Y3300000D03*
X93900000Y22450000D03*
X87100000Y42650000D03*
X85100000Y62200000D03*
X78300000Y82350000D03*
X86230000Y51320000D03*
%TO.N,Net-(R2-Pad2)*%
X160450000Y84375000D03*
%TO.N,Net-(R3-Pad2)*%
X157875000Y85100000D03*
%TO.N,COL1*%
X23735000Y9585000D03*
X35635000Y28580000D03*
X28805000Y47600000D03*
X26685000Y66685000D03*
X19625000Y85750000D03*
X27055000Y54795000D03*
%TO.N,COL2*%
X55950000Y8600000D03*
X56150000Y27800000D03*
X49400000Y47850000D03*
X47350000Y67500000D03*
X40600000Y87650000D03*
X49400000Y55180000D03*
%TO.N,COL3*%
X75100000Y25200000D03*
X68250000Y45400000D03*
X66200000Y64850000D03*
X59400000Y85000000D03*
X68250000Y53610000D03*
%TO.N,COL5*%
X139500000Y17600000D03*
X112750000Y19850000D03*
X106000000Y40000000D03*
X103950000Y59550000D03*
X97200000Y79700000D03*
X104840000Y50110000D03*
%TO.N,COL6*%
X163300000Y1700000D03*
X158300000Y20250000D03*
X146200000Y37800000D03*
X138850000Y55950000D03*
X116050000Y77050000D03*
X136350000Y70850000D03*
X129250000Y70850000D03*
%TO.N,COL7*%
X177150000Y22900000D03*
X165050000Y40450000D03*
X157750000Y58650000D03*
X145650000Y76200000D03*
%TO.N,COL8*%
X193950000Y6000000D03*
X196050000Y25550000D03*
X183900000Y43000000D03*
X176550000Y61300000D03*
X164500000Y78800000D03*
%TO.N,COL9*%
X216000000Y9500000D03*
X216000000Y28600000D03*
X202850000Y45650000D03*
X195450000Y63950000D03*
X183400000Y81450000D03*
%TO.N,COL10*%
X235100000Y9500000D03*
X235050000Y28500000D03*
X223150000Y47500000D03*
X216100000Y66750000D03*
X202250000Y84100000D03*
%TO.N,COL11*%
X259100000Y4600000D03*
X254150000Y28550000D03*
X242200000Y47550000D03*
X235100000Y66700000D03*
X222650000Y85750000D03*
%TO.N,COL12*%
X278150000Y4500000D03*
X278150000Y23650000D03*
X273200000Y47650000D03*
X254150000Y66650000D03*
X241800000Y85750000D03*
%TO.N,COL13*%
X278000000Y66650000D03*
X260800000Y85750000D03*
%TO.N,COL14*%
X297150000Y4500000D03*
X309050000Y43300000D03*
X309000000Y62300000D03*
X279850000Y85800000D03*
%TO.N,/Reset*%
X144250000Y65050000D03*
X144200000Y57023458D03*
%TO.N,/Data_N*%
X126910000Y60050000D03*
%TO.N,/Data_P*%
X128500000Y60040000D03*
%TD*%
D25*
%TO.N,+5V*%
X132930000Y39970000D02*
X133000000Y39900000D01*
X132930000Y42830000D02*
X132930000Y39970000D01*
X122150000Y43550000D02*
X120200000Y43550000D01*
X123130000Y44530000D02*
X122150000Y43550000D01*
X124030000Y44530000D02*
X123130000Y44530000D01*
X120150000Y43600000D02*
X120200000Y43550000D01*
X118000000Y43600000D02*
X120150000Y43600000D01*
X125300000Y57400000D02*
X124200000Y58500000D01*
X126000000Y57400000D02*
X125300000Y57400000D01*
X126550000Y54250000D02*
X126550000Y56850000D01*
X126550000Y56850000D02*
X126000000Y57400000D01*
X126530000Y54230000D02*
X126550000Y54250000D01*
X121270000Y52530000D02*
X118900000Y54900000D01*
X124030000Y52530000D02*
X121270000Y52530000D01*
X129600000Y37800000D02*
X131500000Y39700000D01*
X132800000Y39700000D02*
X133000000Y39900000D01*
X131500000Y39700000D02*
X132800000Y39700000D01*
X135450000Y50950000D02*
X135430000Y50930000D01*
X136950000Y50950000D02*
X135450000Y50950000D01*
X131500000Y56850000D02*
X132350000Y56850000D01*
X130654999Y56004999D02*
X131500000Y56850000D01*
X130654999Y54954999D02*
X130654999Y56004999D01*
X130530000Y54830000D02*
X130654999Y54954999D01*
X130530000Y54230000D02*
X130530000Y54830000D01*
X136100000Y64725000D02*
X136100000Y63400000D01*
X136100000Y63400000D02*
X136100000Y63400000D01*
X132570000Y57070000D02*
X132350000Y56850000D01*
X132570000Y59170000D02*
X132570000Y57070000D01*
X136950000Y50950000D02*
X137260000Y50950000D01*
X137540000Y51230000D02*
X138450000Y51230000D01*
X137260000Y50950000D02*
X137540000Y51230000D01*
%TO.N,GND*%
X145480000Y47299998D02*
X145480000Y47120000D01*
D26*
X143780000Y48999998D02*
X145480000Y47299998D01*
D25*
X143780000Y49320000D02*
X143780000Y48999998D01*
X145480000Y47120000D02*
X146155000Y47120000D01*
X134900000Y39900000D02*
X134900000Y40900000D01*
X134900000Y40900000D02*
X134300000Y41500000D01*
X134300000Y41500000D02*
X133800000Y41500000D01*
X133800000Y42760000D02*
X133730000Y42830000D01*
X133800000Y41500000D02*
X133800000Y42760000D01*
X121650000Y45450000D02*
X120200000Y45450000D01*
X121770000Y45330000D02*
X121650000Y45450000D01*
X124030000Y45330000D02*
X121770000Y45330000D01*
X128930000Y54230000D02*
X128930000Y53020000D01*
X124030000Y51730000D02*
X125320000Y51730000D01*
X124030000Y45330000D02*
X125420000Y45330000D01*
X133730000Y42830000D02*
X133730000Y44320000D01*
X135430000Y50130000D02*
X134080000Y50130000D01*
X150130000Y46820000D02*
X150155000Y46795000D01*
X150130000Y49620000D02*
X150130000Y46820000D01*
X126750000Y62100000D02*
X124200000Y62100000D01*
X124200000Y62100000D02*
X124200000Y62100000D01*
X126750000Y62100000D02*
X130350000Y62100000D01*
X130800000Y61650000D02*
X130800000Y59950000D01*
X130350000Y62100000D02*
X130800000Y61650000D01*
X128930000Y54230000D02*
X128930000Y58830000D01*
X130050000Y59950000D02*
X130800000Y59950000D01*
X128930000Y58830000D02*
X130050000Y59950000D01*
D26*
X123237500Y39800000D02*
X123237500Y42037500D01*
X123237500Y42037500D02*
X125450000Y44250000D01*
D25*
X124200000Y62100000D02*
X124200000Y60400000D01*
X124000000Y51700000D02*
X124030000Y51730000D01*
X116900000Y51700000D02*
X124000000Y51700000D01*
X136650000Y72800000D02*
X138200000Y71250000D01*
X132750000Y72800000D02*
X136650000Y72800000D01*
X132713878Y79061122D02*
X132750000Y72800000D01*
X154992414Y87192414D02*
X164101262Y87126262D01*
X164101262Y87126262D02*
X164100000Y86700000D01*
X164100000Y86700000D02*
X164100000Y84900000D01*
X164100000Y84900000D02*
X163407240Y84828990D01*
X164125000Y82950000D02*
X162582240Y82728990D01*
X166948634Y85472282D02*
X166425000Y84200000D01*
X166425000Y84200000D02*
X164109178Y84184178D01*
X164109178Y84184178D02*
X164125000Y82950000D01*
X164100000Y84900000D02*
X164109178Y84184178D01*
X167792414Y87267376D02*
X166948634Y85472282D01*
D26*
X140340000Y51220000D02*
X140350000Y51230000D01*
D25*
X135460000Y50130000D02*
X135490000Y50100000D01*
X135430000Y50130000D02*
X135460000Y50130000D01*
X135490000Y50100000D02*
X140110000Y50100000D01*
X140350000Y50340000D02*
X140350000Y51230000D01*
X140110000Y50100000D02*
X140350000Y50340000D01*
X150130000Y49620000D02*
X150130000Y51340000D01*
X150130000Y51340000D02*
X149640000Y51830000D01*
X149640000Y51830000D02*
X145050000Y51830000D01*
X145050000Y51830000D02*
X144710000Y52170000D01*
X144710000Y52170000D02*
X142210000Y52170000D01*
X141270000Y51230000D02*
X140350000Y51230000D01*
X142210000Y52170000D02*
X141270000Y51230000D01*
D26*
%TO.N,Net-(R7-Pad2)*%
X125062500Y39800000D02*
X125062500Y41162500D01*
X125730000Y41830000D02*
X125730000Y42830000D01*
X125062500Y41162500D02*
X125730000Y41830000D01*
%TO.N,Net-(C3-Pad1)*%
X146230000Y45670000D02*
X147355000Y46795000D01*
X147355000Y46795000D02*
X148255000Y46795000D01*
X144280000Y45670000D02*
X146230000Y45670000D01*
X143780000Y46170000D02*
X144280000Y45670000D01*
X143780000Y47120000D02*
X143780000Y46170000D01*
X142810000Y47120000D02*
X143780000Y47120000D01*
X141400000Y48530000D02*
X142810000Y47120000D01*
X135430000Y48530000D02*
X141400000Y48530000D01*
%TO.N,Net-(C4-Pad1)*%
X145480000Y49320000D02*
X146980000Y49320000D01*
X147280000Y49620000D02*
X148230000Y49620000D01*
X146980000Y49320000D02*
X147280000Y49620000D01*
X135430000Y49330000D02*
X140230000Y49330000D01*
X140230000Y49330000D02*
X142510000Y51610000D01*
X145480000Y50657524D02*
X145480000Y49320000D01*
X144527524Y51610000D02*
X145480000Y50657524D01*
X142510000Y51610000D02*
X144527524Y51610000D01*
%TO.N,Net-(C7-Pad2)*%
X130800000Y57000000D02*
X130800000Y58050000D01*
X129730000Y55930000D02*
X130800000Y57000000D01*
X129730000Y54230000D02*
X129730000Y55930000D01*
%TO.N,Net-(D1-Pad2)*%
X32552000Y88290000D02*
X32500000Y88238000D01*
X32500000Y88238000D02*
X32500000Y87200000D01*
X29800000Y84500000D02*
X29800000Y80250000D01*
X32500000Y87200000D02*
X29800000Y84500000D01*
%TO.N,ROW0*%
X19500000Y76950000D02*
X29800000Y76950000D01*
X18800000Y76250000D02*
X19500000Y76950000D01*
X15800000Y76250000D02*
X18800000Y76250000D01*
X15100000Y76950000D02*
X15800000Y76250000D01*
X10800000Y76950000D02*
X15100000Y76950000D01*
X125700000Y67250000D02*
X130500000Y67250000D01*
X130500000Y67250000D02*
X132300000Y69050000D01*
X271100000Y77200000D02*
X271000000Y77100000D01*
X290100000Y77200000D02*
X271100000Y77200000D01*
X252050000Y77100000D02*
X252000000Y77050000D01*
X271000000Y77100000D02*
X252050000Y77100000D01*
X252000000Y77050000D02*
X232800000Y77050000D01*
X232800000Y77050000D02*
X222050000Y77050000D01*
X222050000Y77050000D02*
X221450000Y76450000D01*
X221450000Y76450000D02*
X217450000Y76450000D01*
X217350000Y76550000D02*
X212700000Y76550000D01*
X217450000Y76450000D02*
X217350000Y76550000D01*
X212700000Y76550000D02*
X204750000Y76550000D01*
X202350000Y74150000D02*
X193850000Y74150000D01*
X204750000Y76550000D02*
X202350000Y74150000D01*
X193850000Y74150000D02*
X187300000Y74150000D01*
X184550000Y71400000D02*
X174950000Y71400000D01*
X187300000Y74150000D02*
X184550000Y71400000D01*
X174950000Y71400000D02*
X167300000Y71400000D01*
X164950000Y69050000D02*
X156050000Y69050000D01*
X167300000Y71400000D02*
X164950000Y69050000D01*
X132300000Y69050000D02*
X156050000Y69050000D01*
X49800000Y76950000D02*
X50000000Y76750000D01*
X29800000Y76950000D02*
X49800000Y76950000D01*
X106800000Y69850000D02*
X117750000Y69850000D01*
X120350000Y67250000D02*
X125700000Y67250000D01*
X117750000Y69850000D02*
X120350000Y67250000D01*
X61950000Y76750000D02*
X50000000Y76750000D01*
X64050000Y74650000D02*
X61950000Y76750000D01*
X69050000Y74650000D02*
X64050000Y74650000D01*
X81950000Y72350000D02*
X79650000Y74650000D01*
X79650000Y74650000D02*
X69050000Y74650000D01*
X88000000Y72350000D02*
X81950000Y72350000D01*
X90650000Y72350000D02*
X88000000Y72350000D01*
X92400000Y70600000D02*
X90650000Y72350000D01*
X99450000Y69850000D02*
X98700000Y70600000D01*
X98700000Y70600000D02*
X92400000Y70600000D01*
X106800000Y69850000D02*
X99450000Y69850000D01*
%TO.N,Net-(D2-Pad2)*%
X50000000Y83488026D02*
X50000000Y80050000D01*
X53732145Y87220171D02*
X50000000Y83488026D01*
X53732145Y88377513D02*
X53732145Y87220171D01*
%TO.N,ROW1*%
X18850000Y70500000D02*
X18850000Y71850000D01*
X18850000Y71850000D02*
X19500000Y72500000D01*
X42600000Y70500000D02*
X42600000Y71350000D01*
X42600000Y71350000D02*
X43750000Y72500000D01*
X19500000Y72500000D02*
X43750000Y72500000D01*
X51500000Y72500000D02*
X48000000Y72500000D01*
X48000000Y72500000D02*
X48250000Y72500000D01*
X43750000Y72500000D02*
X48000000Y72500000D01*
X51500000Y72500000D02*
X62000000Y72500000D01*
X62000000Y72500000D02*
X63500000Y71000000D01*
X63500000Y71000000D02*
X70250000Y71000000D01*
X70250000Y71000000D02*
X79750000Y71000000D01*
X79750000Y71000000D02*
X82500000Y68250000D01*
X82500000Y68250000D02*
X90500000Y68250000D01*
X90500000Y68250000D02*
X98750000Y68250000D01*
X98750000Y68250000D02*
X101250000Y65750000D01*
X101250000Y65750000D02*
X104000000Y65750000D01*
X104000000Y65750000D02*
X117250000Y65750000D01*
X117250000Y65750000D02*
X120000000Y63000000D01*
X307100000Y74500000D02*
X296100000Y74500000D01*
X294150000Y72550000D02*
X294150000Y70500000D01*
X296100000Y74500000D02*
X294150000Y72550000D01*
X294150000Y72550000D02*
X270550000Y72550000D01*
X270550000Y72550000D02*
X251150000Y72550000D01*
X251150000Y72550000D02*
X251100000Y72500000D01*
X251100000Y72500000D02*
X232000000Y72500000D01*
X232000000Y72500000D02*
X211100000Y72500000D01*
X211100000Y72500000D02*
X210600000Y72000000D01*
X210600000Y72000000D02*
X199600000Y72000000D01*
X199600000Y72000000D02*
X194700000Y72000000D01*
X194700000Y72000000D02*
X191800000Y69100000D01*
X191800000Y69100000D02*
X186900000Y69100000D01*
X186900000Y69100000D02*
X175600000Y69100000D01*
X175600000Y69100000D02*
X173000000Y66500000D01*
X173000000Y66500000D02*
X172900000Y66400000D01*
X172900000Y66400000D02*
X156700000Y66400000D01*
X156700000Y66400000D02*
X153900000Y63600000D01*
X153900000Y63600000D02*
X152500000Y63600000D01*
X151574999Y62674999D02*
X142074999Y62674999D01*
X152500000Y63600000D02*
X151574999Y62674999D01*
%TO.N,Net-(D3-Pad2)*%
X72582145Y85727513D02*
X72582145Y85182145D01*
X69050000Y77950000D02*
X69050000Y80990000D01*
X72602145Y84542145D02*
X72602145Y85737513D01*
X69050000Y80990000D02*
X72602145Y84542145D01*
%TO.N,ROW2*%
X18425000Y51450000D02*
X18425000Y52425000D01*
X100500000Y48750000D02*
X103250000Y46000000D01*
X120500000Y33750000D02*
X120500000Y34245694D01*
X63500000Y53500000D02*
X65500000Y51500000D01*
X116750000Y33750000D02*
X120500000Y33750000D01*
X120500000Y34245694D02*
X120720364Y34466058D01*
X81500000Y51500000D02*
X84250000Y48750000D01*
X107250000Y46000000D02*
X115750000Y37500000D01*
X115750000Y37500000D02*
X115750000Y34750000D01*
X18425000Y52425000D02*
X19500000Y53500000D01*
X115750000Y34750000D02*
X116750000Y33750000D01*
X44650000Y51425000D02*
X44650000Y52640000D01*
X44650000Y52640000D02*
X45510000Y53500000D01*
X45510000Y53500000D02*
X63500000Y53500000D01*
X19500000Y53500000D02*
X45510000Y53500000D01*
X65459272Y50769272D02*
X66190000Y51500000D01*
X65459272Y49567884D02*
X65459272Y50769272D01*
X66190000Y51500000D02*
X81500000Y51500000D01*
X65500000Y51500000D02*
X66190000Y51500000D01*
X84384272Y48014272D02*
X85120000Y48750000D01*
X84384272Y46892884D02*
X84384272Y48014272D01*
X85120000Y48750000D02*
X100500000Y48750000D01*
X84250000Y48750000D02*
X85120000Y48750000D01*
X103325000Y45285000D02*
X104040000Y46000000D01*
X103325000Y44175000D02*
X103325000Y45285000D01*
X104040000Y46000000D02*
X107250000Y46000000D01*
X103250000Y46000000D02*
X104040000Y46000000D01*
%TO.N,Net-(D4-Pad2)*%
X91452145Y83087513D02*
X91452145Y82702145D01*
X88000000Y79250000D02*
X88000000Y75650000D01*
X91452145Y82702145D02*
X88000000Y79250000D01*
%TO.N,Net-(D5-Pad2)*%
X106800000Y76895368D02*
X110332145Y80427513D01*
X106800000Y73150000D02*
X106800000Y76895368D01*
%TO.N,Net-(D6-Pad2)*%
X129182145Y77787513D02*
X129087513Y77787513D01*
X129182145Y77787513D02*
X129182145Y77682145D01*
X125700000Y74200000D02*
X125700000Y70550000D01*
X129182145Y77682145D02*
X125700000Y74200000D01*
%TO.N,Net-(D7-Pad2)*%
X158079219Y78529219D02*
X158079219Y80477671D01*
X156050000Y76500000D02*
X158079219Y78529219D01*
X156050000Y72350000D02*
X156050000Y76500000D01*
%TO.N,Net-(D8-Pad2)*%
X176943826Y83128918D02*
X176943826Y81243826D01*
X174950000Y79250000D02*
X174950000Y74700000D01*
X176943826Y81243826D02*
X174950000Y79250000D01*
%TO.N,Net-(D9-Pad2)*%
X195808433Y85780166D02*
X195808433Y83958433D01*
X193850000Y82000000D02*
X193850000Y77450000D01*
X195808433Y83958433D02*
X193850000Y82000000D01*
%TO.N,Net-(D10-Pad2)*%
X214673039Y88431414D02*
X214673039Y86223039D01*
X212700000Y84250000D02*
X212700000Y79850000D01*
X214673039Y86223039D02*
X212700000Y84250000D01*
%TO.N,Net-(D11-Pad2)*%
X235615750Y88297500D02*
X235615750Y87815750D01*
X232800000Y85000000D02*
X232800000Y80350000D01*
X235615750Y87815750D02*
X232800000Y85000000D01*
%TO.N,Net-(D12-Pad2)*%
X254665750Y88297500D02*
X254665750Y87115750D01*
X252000000Y84450000D02*
X252000000Y80350000D01*
X254665750Y87115750D02*
X252000000Y84450000D01*
%TO.N,Net-(D13-Pad2)*%
X273715750Y88297500D02*
X273715750Y86965750D01*
X271000000Y84250000D02*
X271000000Y80400000D01*
X273715750Y86965750D02*
X271000000Y84250000D01*
%TO.N,Net-(D14-Pad2)*%
X292765750Y88297500D02*
X292765750Y86915750D01*
X290100000Y84250000D02*
X290100000Y80500000D01*
X292765750Y86915750D02*
X290100000Y84250000D01*
D25*
%TO.N,VCC*%
X156725000Y86125000D02*
X162075000Y86150000D01*
D26*
%TO.N,COL0*%
X2700000Y47745000D02*
X2575000Y47620000D01*
X4600000Y28585000D02*
X4585000Y28570000D01*
X121190000Y46130000D02*
X124030000Y46130000D01*
X121044990Y46275010D02*
X121190000Y46130000D01*
X107611400Y46275010D02*
X121044990Y46275010D01*
X107436401Y46450009D02*
X107611400Y46275010D01*
X103436400Y46450010D02*
X107436401Y46450009D01*
X84436400Y49200010D02*
X100686401Y49200009D01*
X81686401Y51950009D02*
X84436400Y49200010D01*
X100686401Y49200009D02*
X103436400Y46450010D01*
X65686400Y51950010D02*
X81686401Y51950009D01*
X63666410Y53970000D02*
X65686400Y51950010D01*
X5190000Y53970000D02*
X63666410Y53970000D01*
%TO.N,Net-(C1-Pad2)*%
X155310000Y93080000D02*
X163950000Y93080000D01*
X163950000Y88900000D02*
X163950000Y93080000D01*
X155310000Y93080000D02*
X155310000Y88900000D01*
D27*
X165275000Y86200000D02*
X166050000Y88025000D01*
X166050000Y88025000D02*
X163950000Y88900000D01*
D26*
%TO.N,D-*%
X143019117Y78380883D02*
X140700000Y79475000D01*
%TO.N,COL4*%
X86230000Y51320000D02*
X87010046Y51320000D01*
X87010046Y51320000D02*
X87330000Y51000046D01*
X87330000Y51000046D02*
X101432005Y51000045D01*
X103102050Y49330000D02*
X124030000Y49330000D01*
X101432005Y51000045D02*
X103102050Y49330000D01*
%TO.N,Net-(R2-Pad2)*%
X161600000Y84575000D02*
X160450000Y84375000D01*
X160450000Y84375000D02*
X160450000Y84375000D01*
%TO.N,Net-(R3-Pad2)*%
X159375000Y83100000D02*
X157875000Y85100000D01*
X159375000Y83100000D02*
X159875000Y82400000D01*
X159875000Y82400000D02*
X160775000Y82475000D01*
%TO.N,Net-(D0-Pad2)*%
X13512000Y87012000D02*
X10850000Y84350000D01*
X13512000Y88260000D02*
X13512000Y87012000D01*
X10850000Y80300000D02*
X10800000Y80250000D01*
X10850000Y84350000D02*
X10850000Y80300000D01*
%TO.N,Net-(D100-Pad2)*%
X17822000Y67200000D02*
X15802000Y69220000D01*
X18850000Y67200000D02*
X17822000Y67200000D01*
%TO.N,Net-(D101-Pad2)*%
X41632000Y67200000D02*
X39612000Y69220000D01*
X42600000Y67200000D02*
X41632000Y67200000D01*
%TO.N,Net-(D102-Pad2)*%
X63070364Y65816058D02*
X61533942Y65816058D01*
X60496005Y66853995D02*
X60496005Y68190709D01*
X61533942Y65816058D02*
X60496005Y66853995D01*
%TO.N,Net-(D103-Pad2)*%
X82020364Y63116058D02*
X80233942Y63116058D01*
X79360612Y63989388D02*
X79360612Y65539461D01*
X80233942Y63116058D02*
X79360612Y63989388D01*
%TO.N,Net-(D104-Pad2)*%
X100790728Y60482116D02*
X99567884Y60482116D01*
X98225218Y61824782D02*
X98225218Y62888214D01*
X99567884Y60482116D02*
X98225218Y61824782D01*
%TO.N,Net-(D107-Pad2)*%
X171701458Y61400000D02*
X170162770Y62938688D01*
X173420364Y61400000D02*
X171701458Y61400000D01*
%TO.N,Net-(D108-Pad2)*%
X190567313Y64050000D02*
X189027377Y65589936D01*
X192250000Y64050000D02*
X190567313Y64050000D01*
%TO.N,Net-(D109-Pad2)*%
X209417109Y66716058D02*
X207891984Y68241183D01*
X211129636Y66716058D02*
X209417109Y66716058D01*
%TO.N,Net-(D110-Pad2)*%
X232000000Y67200000D02*
X229300000Y67200000D01*
X228962000Y67538000D02*
X228962000Y69227500D01*
X229300000Y67200000D02*
X228962000Y67538000D01*
%TO.N,Net-(D111-Pad2)*%
X248012000Y67838000D02*
X248012000Y69227500D01*
X248650000Y67200000D02*
X248012000Y67838000D01*
X251100000Y67200000D02*
X248650000Y67200000D01*
%TO.N,Net-(D112-Pad2)*%
X270400000Y67200000D02*
X268050000Y67200000D01*
X267062000Y68188000D02*
X267062000Y69227500D01*
X268050000Y67200000D02*
X267062000Y68188000D01*
%TO.N,Net-(D113-Pad2)*%
X294150000Y67200000D02*
X291900000Y67200000D01*
X290874500Y68225500D02*
X290874500Y69227500D01*
X291900000Y67200000D02*
X290874500Y68225500D01*
%TO.N,Net-(D200-Pad2)*%
X15502000Y50160000D02*
X16800000Y48150000D01*
X16800000Y48150000D02*
X18425000Y48150000D01*
%TO.N,Net-(D201-Pad2)*%
X41732000Y50140000D02*
X42900000Y48125000D01*
X42900000Y48125000D02*
X44650000Y48125000D01*
%TO.N,Net-(D205-Pad2)*%
X119154729Y39758849D02*
X121179636Y37733942D01*
X119154729Y40709548D02*
X119154729Y39758849D01*
%TO.N,COL1*%
X19625000Y85750000D02*
X19625000Y85750000D01*
X23735000Y9585000D02*
X23735000Y9540000D01*
X35635000Y28580000D02*
X35635000Y28580000D01*
X28805000Y47600000D02*
X28805000Y47600000D01*
X26685000Y66685000D02*
X26685000Y66680000D01*
X28310000Y54420010D02*
X27935010Y54795000D01*
X65872801Y52400019D02*
X63852811Y54420009D01*
X63852811Y54420009D02*
X28310000Y54420010D01*
X81872802Y52400018D02*
X65872801Y52400019D01*
X27935010Y54795000D02*
X27055000Y54795000D01*
X84622801Y49650019D02*
X81872802Y52400018D01*
X100872802Y49650018D02*
X84622801Y49650019D01*
X103592820Y46930000D02*
X100872802Y49650018D01*
X124030000Y46930000D02*
X103592820Y46930000D01*
%TO.N,COL2*%
X103429230Y47730000D02*
X124030000Y47730000D01*
X101059203Y50100027D02*
X103429230Y47730000D01*
X82059203Y52850027D02*
X84809202Y50100028D01*
X66059202Y52850028D02*
X82059203Y52850027D01*
X64039212Y54870018D02*
X66059202Y52850028D01*
X50070019Y55180000D02*
X50380000Y54870019D01*
X84809202Y50100028D02*
X101059203Y50100027D01*
X50380000Y54870019D02*
X64039212Y54870018D01*
X49400000Y55180000D02*
X50070019Y55180000D01*
%TO.N,COL3*%
X68815685Y53610000D02*
X69125648Y53300037D01*
X68250000Y53610000D02*
X68815685Y53610000D01*
X69125648Y53300037D02*
X82245604Y53300036D01*
X84995603Y50550037D02*
X101245604Y50550036D01*
X82245604Y53300036D02*
X84995603Y50550037D01*
X103265640Y48530000D02*
X124030000Y48530000D01*
X101245604Y50550036D02*
X103265640Y48530000D01*
%TO.N,COL5*%
X124030000Y50130000D02*
X104840000Y50130000D01*
%TO.N,COL6*%
X136350000Y70850000D02*
X136350000Y70850000D01*
X129250000Y70850000D02*
X136350000Y70850000D01*
%TO.N,Rot.Enc.2*%
X309080000Y80700000D02*
X307250000Y80700000D01*
X307100000Y80550000D02*
X307100000Y77800000D01*
X307250000Y80700000D02*
X307100000Y80550000D01*
%TO.N,/Reset*%
X140400000Y66550000D02*
X141900000Y65050000D01*
X136100000Y66550000D02*
X140400000Y66550000D01*
X135430000Y51730000D02*
X136930000Y51730000D01*
X136930000Y51730000D02*
X137600000Y52400000D01*
X141628627Y52400000D02*
X143550000Y54321373D01*
X137600000Y52400000D02*
X141628627Y52400000D01*
X143550000Y55184262D02*
X144200000Y55834262D01*
X143550000Y54321373D02*
X143550000Y55184262D01*
X144200000Y55834262D02*
X144200000Y57023458D01*
X141900000Y65050000D02*
X144250000Y65050000D01*
X144250000Y65050000D02*
X144250000Y65050000D01*
X144200000Y57023458D02*
X144200000Y57023458D01*
%TO.N,/Data_N*%
X127330000Y59630000D02*
X127330000Y54230000D01*
X126910000Y60050000D02*
X127330000Y59630000D01*
%TO.N,/Data_P*%
X128130000Y59670000D02*
X128130000Y54230000D01*
X128500000Y60040000D02*
X128130000Y59670000D01*
%TD*%
D28*
%TO.N,GND*%
X129003815Y53028815D02*
X129100506Y52949463D01*
X129123667Y52937083D01*
X129215750Y52845000D01*
X129329337Y52854546D01*
X129330518Y52854188D01*
X129455000Y52841928D01*
X130005000Y52841928D01*
X130129482Y52854188D01*
X130130000Y52854345D01*
X130130518Y52854188D01*
X130255000Y52841928D01*
X130805000Y52841928D01*
X130929482Y52854188D01*
X130930000Y52854345D01*
X130930518Y52854188D01*
X131055000Y52841928D01*
X131605000Y52841928D01*
X131729482Y52854188D01*
X131730000Y52854345D01*
X131730518Y52854188D01*
X131855000Y52841928D01*
X132405000Y52841928D01*
X132529482Y52854188D01*
X132530000Y52854345D01*
X132530518Y52854188D01*
X132655000Y52841928D01*
X133205000Y52841928D01*
X133329482Y52854188D01*
X133330000Y52854345D01*
X133330518Y52854188D01*
X133455000Y52841928D01*
X134005000Y52841928D01*
X134045962Y52845962D01*
X134041928Y52805000D01*
X134041928Y52255000D01*
X134054188Y52130518D01*
X134054345Y52130000D01*
X134054188Y52129482D01*
X134041928Y52005000D01*
X134041928Y51455000D01*
X134054188Y51330518D01*
X134054345Y51330000D01*
X134054188Y51329482D01*
X134041928Y51205000D01*
X134041928Y50655000D01*
X134054188Y50530518D01*
X134054546Y50529337D01*
X134045000Y50415750D01*
X134137083Y50323667D01*
X134149463Y50300506D01*
X134228815Y50203815D01*
X134318759Y50130000D01*
X134228815Y50056185D01*
X134149463Y49959494D01*
X134137083Y49936333D01*
X134045000Y49844250D01*
X134054546Y49730663D01*
X134054188Y49729482D01*
X134041928Y49605000D01*
X134041928Y49055000D01*
X134054188Y48930518D01*
X134054345Y48930000D01*
X134054188Y48929482D01*
X134041928Y48805000D01*
X134041928Y48255000D01*
X134054188Y48130518D01*
X134054345Y48130000D01*
X134054188Y48129482D01*
X134041928Y48005000D01*
X134041928Y47455000D01*
X134054188Y47330518D01*
X134054345Y47330000D01*
X134054188Y47329482D01*
X134041928Y47205000D01*
X134041928Y46655000D01*
X134054188Y46530518D01*
X134054345Y46530000D01*
X134054188Y46529482D01*
X134041928Y46405000D01*
X134041928Y45855000D01*
X134054188Y45730518D01*
X134054345Y45730000D01*
X134054188Y45729482D01*
X134041928Y45605000D01*
X134041928Y45055000D01*
X134054188Y44930518D01*
X134054345Y44930000D01*
X134054188Y44929482D01*
X134041928Y44805000D01*
X134041928Y44255000D01*
X134046119Y44212448D01*
X134015750Y44215000D01*
X133857000Y44056250D01*
X133857000Y43477000D01*
X133843072Y43477000D01*
X133843072Y43580000D01*
X133830812Y43704482D01*
X133794502Y43824180D01*
X133735537Y43934494D01*
X133656185Y44031185D01*
X133559494Y44110537D01*
X133536333Y44122917D01*
X133444250Y44215000D01*
X133330663Y44205454D01*
X133329482Y44205812D01*
X133205000Y44218072D01*
X132655000Y44218072D01*
X132530518Y44205812D01*
X132530000Y44205655D01*
X132529482Y44205812D01*
X132405000Y44218072D01*
X131855000Y44218072D01*
X131730518Y44205812D01*
X131730000Y44205655D01*
X131729482Y44205812D01*
X131605000Y44218072D01*
X131055000Y44218072D01*
X130930518Y44205812D01*
X130930000Y44205655D01*
X130929482Y44205812D01*
X130805000Y44218072D01*
X130255000Y44218072D01*
X130130518Y44205812D01*
X130130000Y44205655D01*
X130129482Y44205812D01*
X130005000Y44218072D01*
X129455000Y44218072D01*
X129330518Y44205812D01*
X129330000Y44205655D01*
X129329482Y44205812D01*
X129205000Y44218072D01*
X128655000Y44218072D01*
X128530518Y44205812D01*
X128530000Y44205655D01*
X128529482Y44205812D01*
X128405000Y44218072D01*
X127855000Y44218072D01*
X127730518Y44205812D01*
X127730000Y44205655D01*
X127729482Y44205812D01*
X127605000Y44218072D01*
X127055000Y44218072D01*
X126930518Y44205812D01*
X126930000Y44205655D01*
X126929482Y44205812D01*
X126805000Y44218072D01*
X126255000Y44218072D01*
X126130518Y44205812D01*
X126130000Y44205655D01*
X126129482Y44205812D01*
X126005000Y44218072D01*
X125455000Y44218072D01*
X125414038Y44214038D01*
X125418072Y44255000D01*
X125418072Y44805000D01*
X125405812Y44929482D01*
X125405454Y44930663D01*
X125415000Y45044250D01*
X125322917Y45136333D01*
X125310537Y45159494D01*
X125231185Y45256185D01*
X125141241Y45330000D01*
X125231185Y45403815D01*
X125310537Y45500506D01*
X125322917Y45523667D01*
X125415000Y45615750D01*
X125405454Y45729337D01*
X125405812Y45730518D01*
X125418072Y45855000D01*
X125418072Y46405000D01*
X125405812Y46529482D01*
X125405655Y46530000D01*
X125405812Y46530518D01*
X125418072Y46655000D01*
X125418072Y47205000D01*
X125405812Y47329482D01*
X125405655Y47330000D01*
X125405812Y47330518D01*
X125418072Y47455000D01*
X125418072Y48005000D01*
X125405812Y48129482D01*
X125405655Y48130000D01*
X125405812Y48130518D01*
X125418072Y48255000D01*
X125418072Y48805000D01*
X125405812Y48929482D01*
X125405655Y48930000D01*
X125405812Y48930518D01*
X125418072Y49055000D01*
X125418072Y49605000D01*
X125405812Y49729482D01*
X125405655Y49730000D01*
X125405812Y49730518D01*
X125418072Y49855000D01*
X125418072Y50405000D01*
X125405812Y50529482D01*
X125405655Y50530000D01*
X125405812Y50530518D01*
X125418072Y50655000D01*
X125418072Y51205000D01*
X125405812Y51329482D01*
X125405454Y51330663D01*
X125415000Y51444250D01*
X125322917Y51536333D01*
X125310537Y51559494D01*
X125231185Y51656185D01*
X125141241Y51730000D01*
X125231185Y51803815D01*
X125310537Y51900506D01*
X125322917Y51923667D01*
X125415000Y52015750D01*
X125405454Y52129337D01*
X125405812Y52130518D01*
X125418072Y52255000D01*
X125418072Y52805000D01*
X125414038Y52845962D01*
X125455000Y52841928D01*
X126005000Y52841928D01*
X126129482Y52854188D01*
X126130000Y52854345D01*
X126130518Y52854188D01*
X126255000Y52841928D01*
X126805000Y52841928D01*
X126929482Y52854188D01*
X126930000Y52854345D01*
X126930518Y52854188D01*
X127055000Y52841928D01*
X127605000Y52841928D01*
X127729482Y52854188D01*
X127730000Y52854345D01*
X127730518Y52854188D01*
X127855000Y52841928D01*
X128405000Y52841928D01*
X128529482Y52854188D01*
X128530663Y52854546D01*
X128644250Y52845000D01*
X128736333Y52937083D01*
X128759494Y52949463D01*
X128856185Y53028815D01*
X128930000Y53118759D01*
X129003815Y53028815D01*
%TA.AperFunction,Conductor*%
D29*
G36*
X129003815Y53028815D02*
G01*
X129100506Y52949463D01*
X129123667Y52937083D01*
X129215750Y52845000D01*
X129329337Y52854546D01*
X129330518Y52854188D01*
X129455000Y52841928D01*
X130005000Y52841928D01*
X130129482Y52854188D01*
X130130000Y52854345D01*
X130130518Y52854188D01*
X130255000Y52841928D01*
X130805000Y52841928D01*
X130929482Y52854188D01*
X130930000Y52854345D01*
X130930518Y52854188D01*
X131055000Y52841928D01*
X131605000Y52841928D01*
X131729482Y52854188D01*
X131730000Y52854345D01*
X131730518Y52854188D01*
X131855000Y52841928D01*
X132405000Y52841928D01*
X132529482Y52854188D01*
X132530000Y52854345D01*
X132530518Y52854188D01*
X132655000Y52841928D01*
X133205000Y52841928D01*
X133329482Y52854188D01*
X133330000Y52854345D01*
X133330518Y52854188D01*
X133455000Y52841928D01*
X134005000Y52841928D01*
X134045962Y52845962D01*
X134041928Y52805000D01*
X134041928Y52255000D01*
X134054188Y52130518D01*
X134054345Y52130000D01*
X134054188Y52129482D01*
X134041928Y52005000D01*
X134041928Y51455000D01*
X134054188Y51330518D01*
X134054345Y51330000D01*
X134054188Y51329482D01*
X134041928Y51205000D01*
X134041928Y50655000D01*
X134054188Y50530518D01*
X134054546Y50529337D01*
X134045000Y50415750D01*
X134137083Y50323667D01*
X134149463Y50300506D01*
X134228815Y50203815D01*
X134318759Y50130000D01*
X134228815Y50056185D01*
X134149463Y49959494D01*
X134137083Y49936333D01*
X134045000Y49844250D01*
X134054546Y49730663D01*
X134054188Y49729482D01*
X134041928Y49605000D01*
X134041928Y49055000D01*
X134054188Y48930518D01*
X134054345Y48930000D01*
X134054188Y48929482D01*
X134041928Y48805000D01*
X134041928Y48255000D01*
X134054188Y48130518D01*
X134054345Y48130000D01*
X134054188Y48129482D01*
X134041928Y48005000D01*
X134041928Y47455000D01*
X134054188Y47330518D01*
X134054345Y47330000D01*
X134054188Y47329482D01*
X134041928Y47205000D01*
X134041928Y46655000D01*
X134054188Y46530518D01*
X134054345Y46530000D01*
X134054188Y46529482D01*
X134041928Y46405000D01*
X134041928Y45855000D01*
X134054188Y45730518D01*
X134054345Y45730000D01*
X134054188Y45729482D01*
X134041928Y45605000D01*
X134041928Y45055000D01*
X134054188Y44930518D01*
X134054345Y44930000D01*
X134054188Y44929482D01*
X134041928Y44805000D01*
X134041928Y44255000D01*
X134046119Y44212448D01*
X134015750Y44215000D01*
X133857000Y44056250D01*
X133857000Y43477000D01*
X133843072Y43477000D01*
X133843072Y43580000D01*
X133830812Y43704482D01*
X133794502Y43824180D01*
X133735537Y43934494D01*
X133656185Y44031185D01*
X133559494Y44110537D01*
X133536333Y44122917D01*
X133444250Y44215000D01*
X133330663Y44205454D01*
X133329482Y44205812D01*
X133205000Y44218072D01*
X132655000Y44218072D01*
X132530518Y44205812D01*
X132530000Y44205655D01*
X132529482Y44205812D01*
X132405000Y44218072D01*
X131855000Y44218072D01*
X131730518Y44205812D01*
X131730000Y44205655D01*
X131729482Y44205812D01*
X131605000Y44218072D01*
X131055000Y44218072D01*
X130930518Y44205812D01*
X130930000Y44205655D01*
X130929482Y44205812D01*
X130805000Y44218072D01*
X130255000Y44218072D01*
X130130518Y44205812D01*
X130130000Y44205655D01*
X130129482Y44205812D01*
X130005000Y44218072D01*
X129455000Y44218072D01*
X129330518Y44205812D01*
X129330000Y44205655D01*
X129329482Y44205812D01*
X129205000Y44218072D01*
X128655000Y44218072D01*
X128530518Y44205812D01*
X128530000Y44205655D01*
X128529482Y44205812D01*
X128405000Y44218072D01*
X127855000Y44218072D01*
X127730518Y44205812D01*
X127730000Y44205655D01*
X127729482Y44205812D01*
X127605000Y44218072D01*
X127055000Y44218072D01*
X126930518Y44205812D01*
X126930000Y44205655D01*
X126929482Y44205812D01*
X126805000Y44218072D01*
X126255000Y44218072D01*
X126130518Y44205812D01*
X126130000Y44205655D01*
X126129482Y44205812D01*
X126005000Y44218072D01*
X125455000Y44218072D01*
X125414038Y44214038D01*
X125418072Y44255000D01*
X125418072Y44805000D01*
X125405812Y44929482D01*
X125405454Y44930663D01*
X125415000Y45044250D01*
X125322917Y45136333D01*
X125310537Y45159494D01*
X125231185Y45256185D01*
X125141241Y45330000D01*
X125231185Y45403815D01*
X125310537Y45500506D01*
X125322917Y45523667D01*
X125415000Y45615750D01*
X125405454Y45729337D01*
X125405812Y45730518D01*
X125418072Y45855000D01*
X125418072Y46405000D01*
X125405812Y46529482D01*
X125405655Y46530000D01*
X125405812Y46530518D01*
X125418072Y46655000D01*
X125418072Y47205000D01*
X125405812Y47329482D01*
X125405655Y47330000D01*
X125405812Y47330518D01*
X125418072Y47455000D01*
X125418072Y48005000D01*
X125405812Y48129482D01*
X125405655Y48130000D01*
X125405812Y48130518D01*
X125418072Y48255000D01*
X125418072Y48805000D01*
X125405812Y48929482D01*
X125405655Y48930000D01*
X125405812Y48930518D01*
X125418072Y49055000D01*
X125418072Y49605000D01*
X125405812Y49729482D01*
X125405655Y49730000D01*
X125405812Y49730518D01*
X125418072Y49855000D01*
X125418072Y50405000D01*
X125405812Y50529482D01*
X125405655Y50530000D01*
X125405812Y50530518D01*
X125418072Y50655000D01*
X125418072Y51205000D01*
X125405812Y51329482D01*
X125405454Y51330663D01*
X125415000Y51444250D01*
X125322917Y51536333D01*
X125310537Y51559494D01*
X125231185Y51656185D01*
X125141241Y51730000D01*
X125231185Y51803815D01*
X125310537Y51900506D01*
X125322917Y51923667D01*
X125415000Y52015750D01*
X125405454Y52129337D01*
X125405812Y52130518D01*
X125418072Y52255000D01*
X125418072Y52805000D01*
X125414038Y52845962D01*
X125455000Y52841928D01*
X126005000Y52841928D01*
X126129482Y52854188D01*
X126130000Y52854345D01*
X126130518Y52854188D01*
X126255000Y52841928D01*
X126805000Y52841928D01*
X126929482Y52854188D01*
X126930000Y52854345D01*
X126930518Y52854188D01*
X127055000Y52841928D01*
X127605000Y52841928D01*
X127729482Y52854188D01*
X127730000Y52854345D01*
X127730518Y52854188D01*
X127855000Y52841928D01*
X128405000Y52841928D01*
X128529482Y52854188D01*
X128530663Y52854546D01*
X128644250Y52845000D01*
X128736333Y52937083D01*
X128759494Y52949463D01*
X128856185Y53028815D01*
X128930000Y53118759D01*
X129003815Y53028815D01*
G37*
%TD.AperFunction*%
%TD*%
D28*
%TO.N,GND*%
X151602069Y44997000D02*
X141657000Y44997000D01*
X141657000Y47421644D01*
X142363420Y46715223D01*
X142382263Y46692263D01*
X142405223Y46673420D01*
X142405227Y46673416D01*
X142460916Y46627714D01*
X142473929Y46617034D01*
X142578510Y46561134D01*
X142691988Y46526711D01*
X142700693Y46525854D01*
X142700693Y46420000D01*
X142709903Y46326492D01*
X142737178Y46236577D01*
X142781471Y46153711D01*
X142841079Y46081079D01*
X142913711Y46021471D01*
X142996577Y45977178D01*
X143086492Y45949903D01*
X143180000Y45940693D01*
X143220472Y45940693D01*
X143221134Y45938511D01*
X143240923Y45901489D01*
X143277035Y45833929D01*
X143352264Y45742263D01*
X143375229Y45723416D01*
X143833415Y45265229D01*
X143852263Y45242263D01*
X143943929Y45167034D01*
X144048510Y45111134D01*
X144161988Y45076711D01*
X144250434Y45068000D01*
X144250443Y45068000D01*
X144280000Y45065089D01*
X144309556Y45068000D01*
X146200444Y45068000D01*
X146230000Y45065089D01*
X146259556Y45068000D01*
X146259566Y45068000D01*
X146348012Y45076711D01*
X146461490Y45111134D01*
X146566071Y45167034D01*
X146657737Y45242263D01*
X146676589Y45265233D01*
X147373374Y45962018D01*
X147398603Y45914819D01*
X147489302Y45804302D01*
X147599819Y45713603D01*
X147725906Y45646208D01*
X147862719Y45604706D01*
X148005000Y45590693D01*
X148505000Y45590693D01*
X148647281Y45604706D01*
X148784094Y45646208D01*
X148910181Y45713603D01*
X149020698Y45804302D01*
X149058173Y45849966D01*
X149065498Y45825820D01*
X149124463Y45715506D01*
X149203815Y45618815D01*
X149300506Y45539463D01*
X149410820Y45480498D01*
X149530518Y45444188D01*
X149655000Y45431928D01*
X149869250Y45435000D01*
X150028000Y45593750D01*
X150028000Y46668000D01*
X150282000Y46668000D01*
X150282000Y45593750D01*
X150440750Y45435000D01*
X150655000Y45431928D01*
X150779482Y45444188D01*
X150899180Y45480498D01*
X151009494Y45539463D01*
X151106185Y45618815D01*
X151185537Y45715506D01*
X151244502Y45825820D01*
X151280812Y45945518D01*
X151293072Y46070000D01*
X151290000Y46509250D01*
X151131250Y46668000D01*
X150282000Y46668000D01*
X150028000Y46668000D01*
X150008000Y46668000D01*
X150008000Y46922000D01*
X150028000Y46922000D01*
X150028000Y47996250D01*
X150282000Y47996250D01*
X150282000Y46922000D01*
X151131250Y46922000D01*
X151290000Y47080750D01*
X151293072Y47520000D01*
X151280812Y47644482D01*
X151244502Y47764180D01*
X151185537Y47874494D01*
X151106185Y47971185D01*
X151009494Y48050537D01*
X150899180Y48109502D01*
X150779482Y48145812D01*
X150655000Y48158072D01*
X150440750Y48155000D01*
X150282000Y47996250D01*
X150028000Y47996250D01*
X149869250Y48155000D01*
X149655000Y48158072D01*
X149530518Y48145812D01*
X149410820Y48109502D01*
X149300506Y48050537D01*
X149203815Y47971185D01*
X149124463Y47874494D01*
X149065498Y47764180D01*
X149058173Y47740034D01*
X149020698Y47785698D01*
X148910181Y47876397D01*
X148784094Y47943792D01*
X148647281Y47985294D01*
X148505000Y47999307D01*
X148005000Y47999307D01*
X147862719Y47985294D01*
X147725906Y47943792D01*
X147599819Y47876397D01*
X147489302Y47785698D01*
X147398603Y47675181D01*
X147331208Y47549094D01*
X147289706Y47412281D01*
X147287836Y47393297D01*
X147236988Y47388289D01*
X147123510Y47353866D01*
X147018929Y47297966D01*
X147018927Y47297965D01*
X147018928Y47297965D01*
X146950227Y47241584D01*
X146950223Y47241580D01*
X146927263Y47222737D01*
X146908420Y47199777D01*
X146628947Y46920303D01*
X146556250Y46993000D01*
X145607000Y46993000D01*
X145607000Y46973000D01*
X145353000Y46973000D01*
X145353000Y46993000D01*
X145333000Y46993000D01*
X145333000Y47247000D01*
X145353000Y47247000D01*
X145353000Y47267000D01*
X145607000Y47267000D01*
X145607000Y47247000D01*
X146556250Y47247000D01*
X146715000Y47405750D01*
X146718072Y47820000D01*
X146705812Y47944482D01*
X146669502Y48064180D01*
X146610537Y48174494D01*
X146531185Y48271185D01*
X146459250Y48330220D01*
X146478529Y48353711D01*
X146522822Y48436577D01*
X146550097Y48526492D01*
X146559307Y48620000D01*
X146559307Y48718000D01*
X146950444Y48718000D01*
X146980000Y48715089D01*
X147009556Y48718000D01*
X147009566Y48718000D01*
X147098012Y48726711D01*
X147211490Y48761134D01*
X147316071Y48817034D01*
X147327373Y48826309D01*
X147373603Y48739819D01*
X147464302Y48629302D01*
X147574819Y48538603D01*
X147700906Y48471208D01*
X147837719Y48429706D01*
X147980000Y48415693D01*
X148480000Y48415693D01*
X148622281Y48429706D01*
X148759094Y48471208D01*
X148885181Y48538603D01*
X148995698Y48629302D01*
X149033173Y48674966D01*
X149040498Y48650820D01*
X149099463Y48540506D01*
X149178815Y48443815D01*
X149275506Y48364463D01*
X149385820Y48305498D01*
X149505518Y48269188D01*
X149630000Y48256928D01*
X149844250Y48260000D01*
X150003000Y48418750D01*
X150003000Y49493000D01*
X150257000Y49493000D01*
X150257000Y48418750D01*
X150415750Y48260000D01*
X150630000Y48256928D01*
X150754482Y48269188D01*
X150874180Y48305498D01*
X150984494Y48364463D01*
X151081185Y48443815D01*
X151160537Y48540506D01*
X151219502Y48650820D01*
X151255812Y48770518D01*
X151268072Y48895000D01*
X151265000Y49334250D01*
X151106250Y49493000D01*
X150257000Y49493000D01*
X150003000Y49493000D01*
X149983000Y49493000D01*
X149983000Y49747000D01*
X150003000Y49747000D01*
X150003000Y50821250D01*
X150257000Y50821250D01*
X150257000Y49747000D01*
X151106250Y49747000D01*
X151265000Y49905750D01*
X151268072Y50345000D01*
X151255812Y50469482D01*
X151219502Y50589180D01*
X151160537Y50699494D01*
X151081185Y50796185D01*
X150984494Y50875537D01*
X150874180Y50934502D01*
X150754482Y50970812D01*
X150630000Y50983072D01*
X150415750Y50980000D01*
X150257000Y50821250D01*
X150003000Y50821250D01*
X149844250Y50980000D01*
X149630000Y50983072D01*
X149505518Y50970812D01*
X149385820Y50934502D01*
X149275506Y50875537D01*
X149178815Y50796185D01*
X149099463Y50699494D01*
X149040498Y50589180D01*
X149033173Y50565034D01*
X148995698Y50610698D01*
X148885181Y50701397D01*
X148759094Y50768792D01*
X148622281Y50810294D01*
X148480000Y50824307D01*
X147980000Y50824307D01*
X147837719Y50810294D01*
X147700906Y50768792D01*
X147574819Y50701397D01*
X147464302Y50610698D01*
X147373603Y50500181D01*
X147306208Y50374094D01*
X147264706Y50237281D01*
X147263326Y50223269D01*
X147250443Y50222000D01*
X147250434Y50222000D01*
X147161988Y50213289D01*
X147048510Y50178866D01*
X146943929Y50122966D01*
X146852263Y50047737D01*
X146833415Y50024771D01*
X146730644Y49922000D01*
X146559307Y49922000D01*
X146559307Y50020000D01*
X146550097Y50113508D01*
X146522822Y50203423D01*
X146478529Y50286289D01*
X146418921Y50358921D01*
X146346289Y50418529D01*
X146263423Y50462822D01*
X146173508Y50490097D01*
X146082000Y50499110D01*
X146082000Y50627968D01*
X146084911Y50657525D01*
X146082000Y50687081D01*
X146082000Y50687090D01*
X146073289Y50775536D01*
X146038866Y50889014D01*
X145982966Y50993595D01*
X145935745Y51051134D01*
X145926584Y51062297D01*
X145926580Y51062301D01*
X145907737Y51085261D01*
X145884778Y51104103D01*
X145395880Y51593000D01*
X151553923Y51593000D01*
X151602069Y44997000D01*
%TA.AperFunction,Conductor*%
D29*
G36*
X151602069Y44997000D02*
G01*
X141657000Y44997000D01*
X141657000Y47421644D01*
X142363420Y46715223D01*
X142382263Y46692263D01*
X142405223Y46673420D01*
X142405227Y46673416D01*
X142460916Y46627714D01*
X142473929Y46617034D01*
X142578510Y46561134D01*
X142691988Y46526711D01*
X142700693Y46525854D01*
X142700693Y46420000D01*
X142709903Y46326492D01*
X142737178Y46236577D01*
X142781471Y46153711D01*
X142841079Y46081079D01*
X142913711Y46021471D01*
X142996577Y45977178D01*
X143086492Y45949903D01*
X143180000Y45940693D01*
X143220472Y45940693D01*
X143221134Y45938511D01*
X143240923Y45901489D01*
X143277035Y45833929D01*
X143352264Y45742263D01*
X143375229Y45723416D01*
X143833415Y45265229D01*
X143852263Y45242263D01*
X143943929Y45167034D01*
X144048510Y45111134D01*
X144161988Y45076711D01*
X144250434Y45068000D01*
X144250443Y45068000D01*
X144280000Y45065089D01*
X144309556Y45068000D01*
X146200444Y45068000D01*
X146230000Y45065089D01*
X146259556Y45068000D01*
X146259566Y45068000D01*
X146348012Y45076711D01*
X146461490Y45111134D01*
X146566071Y45167034D01*
X146657737Y45242263D01*
X146676589Y45265233D01*
X147373374Y45962018D01*
X147398603Y45914819D01*
X147489302Y45804302D01*
X147599819Y45713603D01*
X147725906Y45646208D01*
X147862719Y45604706D01*
X148005000Y45590693D01*
X148505000Y45590693D01*
X148647281Y45604706D01*
X148784094Y45646208D01*
X148910181Y45713603D01*
X149020698Y45804302D01*
X149058173Y45849966D01*
X149065498Y45825820D01*
X149124463Y45715506D01*
X149203815Y45618815D01*
X149300506Y45539463D01*
X149410820Y45480498D01*
X149530518Y45444188D01*
X149655000Y45431928D01*
X149869250Y45435000D01*
X150028000Y45593750D01*
X150028000Y46668000D01*
X150282000Y46668000D01*
X150282000Y45593750D01*
X150440750Y45435000D01*
X150655000Y45431928D01*
X150779482Y45444188D01*
X150899180Y45480498D01*
X151009494Y45539463D01*
X151106185Y45618815D01*
X151185537Y45715506D01*
X151244502Y45825820D01*
X151280812Y45945518D01*
X151293072Y46070000D01*
X151290000Y46509250D01*
X151131250Y46668000D01*
X150282000Y46668000D01*
X150028000Y46668000D01*
X150008000Y46668000D01*
X150008000Y46922000D01*
X150028000Y46922000D01*
X150028000Y47996250D01*
X150282000Y47996250D01*
X150282000Y46922000D01*
X151131250Y46922000D01*
X151290000Y47080750D01*
X151293072Y47520000D01*
X151280812Y47644482D01*
X151244502Y47764180D01*
X151185537Y47874494D01*
X151106185Y47971185D01*
X151009494Y48050537D01*
X150899180Y48109502D01*
X150779482Y48145812D01*
X150655000Y48158072D01*
X150440750Y48155000D01*
X150282000Y47996250D01*
X150028000Y47996250D01*
X149869250Y48155000D01*
X149655000Y48158072D01*
X149530518Y48145812D01*
X149410820Y48109502D01*
X149300506Y48050537D01*
X149203815Y47971185D01*
X149124463Y47874494D01*
X149065498Y47764180D01*
X149058173Y47740034D01*
X149020698Y47785698D01*
X148910181Y47876397D01*
X148784094Y47943792D01*
X148647281Y47985294D01*
X148505000Y47999307D01*
X148005000Y47999307D01*
X147862719Y47985294D01*
X147725906Y47943792D01*
X147599819Y47876397D01*
X147489302Y47785698D01*
X147398603Y47675181D01*
X147331208Y47549094D01*
X147289706Y47412281D01*
X147287836Y47393297D01*
X147236988Y47388289D01*
X147123510Y47353866D01*
X147018929Y47297966D01*
X147018927Y47297965D01*
X147018928Y47297965D01*
X146950227Y47241584D01*
X146950223Y47241580D01*
X146927263Y47222737D01*
X146908420Y47199777D01*
X146628947Y46920303D01*
X146556250Y46993000D01*
X145607000Y46993000D01*
X145607000Y46973000D01*
X145353000Y46973000D01*
X145353000Y46993000D01*
X145333000Y46993000D01*
X145333000Y47247000D01*
X145353000Y47247000D01*
X145353000Y47267000D01*
X145607000Y47267000D01*
X145607000Y47247000D01*
X146556250Y47247000D01*
X146715000Y47405750D01*
X146718072Y47820000D01*
X146705812Y47944482D01*
X146669502Y48064180D01*
X146610537Y48174494D01*
X146531185Y48271185D01*
X146459250Y48330220D01*
X146478529Y48353711D01*
X146522822Y48436577D01*
X146550097Y48526492D01*
X146559307Y48620000D01*
X146559307Y48718000D01*
X146950444Y48718000D01*
X146980000Y48715089D01*
X147009556Y48718000D01*
X147009566Y48718000D01*
X147098012Y48726711D01*
X147211490Y48761134D01*
X147316071Y48817034D01*
X147327373Y48826309D01*
X147373603Y48739819D01*
X147464302Y48629302D01*
X147574819Y48538603D01*
X147700906Y48471208D01*
X147837719Y48429706D01*
X147980000Y48415693D01*
X148480000Y48415693D01*
X148622281Y48429706D01*
X148759094Y48471208D01*
X148885181Y48538603D01*
X148995698Y48629302D01*
X149033173Y48674966D01*
X149040498Y48650820D01*
X149099463Y48540506D01*
X149178815Y48443815D01*
X149275506Y48364463D01*
X149385820Y48305498D01*
X149505518Y48269188D01*
X149630000Y48256928D01*
X149844250Y48260000D01*
X150003000Y48418750D01*
X150003000Y49493000D01*
X150257000Y49493000D01*
X150257000Y48418750D01*
X150415750Y48260000D01*
X150630000Y48256928D01*
X150754482Y48269188D01*
X150874180Y48305498D01*
X150984494Y48364463D01*
X151081185Y48443815D01*
X151160537Y48540506D01*
X151219502Y48650820D01*
X151255812Y48770518D01*
X151268072Y48895000D01*
X151265000Y49334250D01*
X151106250Y49493000D01*
X150257000Y49493000D01*
X150003000Y49493000D01*
X149983000Y49493000D01*
X149983000Y49747000D01*
X150003000Y49747000D01*
X150003000Y50821250D01*
X150257000Y50821250D01*
X150257000Y49747000D01*
X151106250Y49747000D01*
X151265000Y49905750D01*
X151268072Y50345000D01*
X151255812Y50469482D01*
X151219502Y50589180D01*
X151160537Y50699494D01*
X151081185Y50796185D01*
X150984494Y50875537D01*
X150874180Y50934502D01*
X150754482Y50970812D01*
X150630000Y50983072D01*
X150415750Y50980000D01*
X150257000Y50821250D01*
X150003000Y50821250D01*
X149844250Y50980000D01*
X149630000Y50983072D01*
X149505518Y50970812D01*
X149385820Y50934502D01*
X149275506Y50875537D01*
X149178815Y50796185D01*
X149099463Y50699494D01*
X149040498Y50589180D01*
X149033173Y50565034D01*
X148995698Y50610698D01*
X148885181Y50701397D01*
X148759094Y50768792D01*
X148622281Y50810294D01*
X148480000Y50824307D01*
X147980000Y50824307D01*
X147837719Y50810294D01*
X147700906Y50768792D01*
X147574819Y50701397D01*
X147464302Y50610698D01*
X147373603Y50500181D01*
X147306208Y50374094D01*
X147264706Y50237281D01*
X147263326Y50223269D01*
X147250443Y50222000D01*
X147250434Y50222000D01*
X147161988Y50213289D01*
X147048510Y50178866D01*
X146943929Y50122966D01*
X146852263Y50047737D01*
X146833415Y50024771D01*
X146730644Y49922000D01*
X146559307Y49922000D01*
X146559307Y50020000D01*
X146550097Y50113508D01*
X146522822Y50203423D01*
X146478529Y50286289D01*
X146418921Y50358921D01*
X146346289Y50418529D01*
X146263423Y50462822D01*
X146173508Y50490097D01*
X146082000Y50499110D01*
X146082000Y50627968D01*
X146084911Y50657525D01*
X146082000Y50687081D01*
X146082000Y50687090D01*
X146073289Y50775536D01*
X146038866Y50889014D01*
X145982966Y50993595D01*
X145935745Y51051134D01*
X145926584Y51062297D01*
X145926580Y51062301D01*
X145907737Y51085261D01*
X145884778Y51104103D01*
X145395880Y51593000D01*
X151553923Y51593000D01*
X151602069Y44997000D01*
G37*
%TD.AperFunction*%
D28*
X144740833Y50545335D02*
X144734494Y50550537D01*
X144624180Y50609502D01*
X144504482Y50645812D01*
X144380000Y50658072D01*
X144065750Y50655000D01*
X143907000Y50496250D01*
X143907000Y49447000D01*
X143927000Y49447000D01*
X143927000Y49193000D01*
X143907000Y49193000D01*
X143907000Y49173000D01*
X143653000Y49173000D01*
X143653000Y49193000D01*
X142703750Y49193000D01*
X142545000Y49034250D01*
X142541928Y48620000D01*
X142554188Y48495518D01*
X142590498Y48375820D01*
X142649463Y48265506D01*
X142728815Y48168815D01*
X142800750Y48109780D01*
X142781471Y48086289D01*
X142751374Y48029982D01*
X141846589Y48934766D01*
X141827737Y48957737D01*
X141736071Y49032966D01*
X141657000Y49075231D01*
X141657000Y49905645D01*
X141771355Y50020000D01*
X142541928Y50020000D01*
X142545000Y49605750D01*
X142703750Y49447000D01*
X143653000Y49447000D01*
X143653000Y50496250D01*
X143494250Y50655000D01*
X143180000Y50658072D01*
X143055518Y50645812D01*
X142935820Y50609502D01*
X142825506Y50550537D01*
X142728815Y50471185D01*
X142649463Y50374494D01*
X142590498Y50264180D01*
X142554188Y50144482D01*
X142541928Y50020000D01*
X141771355Y50020000D01*
X142759356Y51008000D01*
X144278169Y51008000D01*
X144740833Y50545335D01*
%TA.AperFunction,Conductor*%
D29*
G36*
X144740833Y50545335D02*
G01*
X144734494Y50550537D01*
X144624180Y50609502D01*
X144504482Y50645812D01*
X144380000Y50658072D01*
X144065750Y50655000D01*
X143907000Y50496250D01*
X143907000Y49447000D01*
X143927000Y49447000D01*
X143927000Y49193000D01*
X143907000Y49193000D01*
X143907000Y49173000D01*
X143653000Y49173000D01*
X143653000Y49193000D01*
X142703750Y49193000D01*
X142545000Y49034250D01*
X142541928Y48620000D01*
X142554188Y48495518D01*
X142590498Y48375820D01*
X142649463Y48265506D01*
X142728815Y48168815D01*
X142800750Y48109780D01*
X142781471Y48086289D01*
X142751374Y48029982D01*
X141846589Y48934766D01*
X141827737Y48957737D01*
X141736071Y49032966D01*
X141657000Y49075231D01*
X141657000Y49905645D01*
X141771355Y50020000D01*
X142541928Y50020000D01*
X142545000Y49605750D01*
X142703750Y49447000D01*
X143653000Y49447000D01*
X143653000Y50496250D01*
X143494250Y50655000D01*
X143180000Y50658072D01*
X143055518Y50645812D01*
X142935820Y50609502D01*
X142825506Y50550537D01*
X142728815Y50471185D01*
X142649463Y50374494D01*
X142590498Y50264180D01*
X142554188Y50144482D01*
X142541928Y50020000D01*
X141771355Y50020000D01*
X142759356Y51008000D01*
X144278169Y51008000D01*
X144740833Y50545335D01*
G37*
%TD.AperFunction*%
%TD*%
M02*
