M48
; DRILL file {KiCad (5.1.9)-1} date 06/30/21 09:07:24
; FORMAT={-:-/ absolute / metric / decimal}
; #@! TF.CreationDate,2021-06-30T09:07:24+01:00
; #@! TF.GenerationSoftware,Kicad,Pcbnew,(5.1.9)-1
; #@! TF.FileFunction,Plated,1,2,PTH
FMAT,2
METRIC
T1C0.400
T2C0.600
T3C1.000
T4C1.152
T5C1.500
T6C2.500
%
G90
G05
T1
X-0.105Y9.52
X0.585Y85.685
X2.7Y47.75
X2.875Y66.775
X4.6Y28.585
X5.19Y53.97
X17.39Y34.56
X19.625Y85.75
X23.735Y9.585
X26.685Y66.685
X27.055Y54.795
X28.805Y47.6
X35.635Y28.58
X40.6Y87.65
X47.35Y67.5
X49.4Y55.18
X49.4Y47.85
X55.95Y8.6
X56.15Y27.8
X59.4Y85.0
X66.2Y64.85
X68.25Y53.61
X68.25Y45.4
X75.1Y25.2
X78.3Y82.35
X85.1Y62.2
X86.23Y51.32
X87.1Y42.65
X93.65Y3.3
X93.9Y22.45
X97.2Y79.7
X103.95Y59.55
X104.84Y50.11
X106.0Y40.0
X112.75Y19.85
X116.05Y77.05
X116.9Y51.7
X118.0Y43.6
X118.85Y53.29
X118.9Y54.9
X123.17Y59.17
X123.19Y38.15
X123.2Y62.1
X126.75Y62.1
X126.91Y60.05
X128.5Y60.04
X128.6Y27.2
X129.25Y70.85
X130.97Y63.91
X131.82Y76.87
X132.57Y59.17
X132.645Y62.245
X132.72Y74.42
X132.93Y41.39
X135.58Y54.28
X135.976Y77.384
X136.1Y63.4
X136.35Y70.85
X136.855Y75.475
X136.95Y50.95
X138.42Y31.11
X138.85Y62.19
X138.85Y55.95
X139.5Y17.6
X140.7Y41.12
X141.687Y78.173
X143.019Y78.381
X143.13Y63.69
X143.13Y60.53
X144.18Y66.22
X144.2Y57.023
X145.21Y62.19
X145.65Y76.2
X146.2Y37.8
X154.97Y87.13
X156.725Y86.125
X157.75Y58.65
X157.875Y85.1
X158.3Y20.25
X160.45Y84.375
X162.075Y86.15
X163.3Y1.7
X164.101Y87.126
X164.5Y78.8
X165.05Y40.45
X165.199Y88.379
X176.55Y61.3
X177.15Y22.9
X180.7Y52.25
X183.4Y81.45
X183.9Y43.0
X193.95Y6.0
X195.45Y63.95
X196.05Y25.55
X199.925Y54.675
X202.25Y84.1
X202.85Y45.65
X216.0Y28.6
X216.0Y9.5
X216.1Y66.75
X221.895Y55.055
X222.65Y85.75
X223.15Y47.5
X235.05Y28.5
X235.1Y66.7
X235.1Y9.5
X241.27Y54.63
X241.8Y85.75
X242.2Y47.55
X254.15Y66.65
X254.15Y28.55
X259.1Y4.6
X260.8Y85.75
X273.2Y47.65
X273.2Y39.7
X274.785Y73.315
X278.0Y66.65
X278.15Y23.65
X278.15Y4.5
X279.85Y85.8
X296.82Y56.85
X297.15Y4.5
X301.84Y34.18
X307.97Y56.85
X309.0Y62.3
X309.05Y43.3
X319.73Y83.2
T3
X309.08Y85.7
X309.08Y80.7
X323.58Y85.7
X323.58Y83.2
X323.58Y80.7
T4
X0.24Y0.29
X1.09Y90.02
X296.69Y88.25
X309.47Y-3.59
T6
X1.153Y54.625
X17.192Y80.2
X18.906Y7.0
X77.258Y3.003
X93.982Y74.572
X133.137Y35.393
X149.397Y-2.326
X162.86Y72.981
X219.885Y80.385
X232.647Y16.525
X294.75Y11.573
X301.512Y83.2
X302.35Y47.387
T2
X155.31Y92.78G85X155.31Y93.38
G05
X155.31Y88.35G85X155.31Y89.45
G05
X163.95Y92.78G85X163.95Y93.38
G05
X163.95Y88.35G85X163.95Y89.45
G05
T5
X316.73Y88.8G85X315.43Y88.8
G05
X316.73Y77.6G85X315.43Y77.6
G05
T0
M30
