M48
; DRILL file {KiCad (5.1.9)-1} date 06/30/21 09:07:24
; FORMAT={-:-/ absolute / metric / decimal}
; #@! TF.CreationDate,2021-06-30T09:07:24+01:00
; #@! TF.GenerationSoftware,Kicad,Pcbnew,(5.1.9)-1
; #@! TF.FileFunction,NonPlated,1,2,NPTH
FMAT,2
METRIC
T1C0.650
T2C1.750
T3C3.000
T4C3.048
T5C3.988
%
G90
G05
T1
X156.74Y89.43
X162.52Y89.43
T2
X1.9Y6.98
X2.59Y83.18
X4.58Y45.08
X4.88Y64.14
X6.59Y26.03
X12.06Y6.98
X12.75Y83.18
X14.74Y45.08
X15.04Y64.14
X16.75Y26.03
X21.63Y83.21
X25.74Y7.0
X28.69Y64.14
X30.81Y45.06
X31.79Y83.21
X35.9Y7.0
X37.64Y26.04
X38.85Y64.14
X40.97Y45.06
X42.209Y84.867
X47.8Y26.04
X48.973Y64.68
X51.038Y45.153
X52.271Y83.453
X57.526Y5.767
X57.819Y24.963
X59.034Y63.266
X61.079Y82.227
X61.099Y43.739
X67.587Y4.353
X67.838Y62.029
X67.88Y23.549
X69.903Y42.502
X71.141Y80.813
X76.684Y22.311
X77.899Y60.615
X79.929Y79.577
X79.964Y41.088
X86.703Y59.378
X86.745Y20.897
X88.767Y39.85
X89.991Y78.163
X95.255Y0.464
X95.548Y19.66
X96.764Y57.964
X98.809Y76.917
X98.829Y38.436
X105.316Y-0.95
X105.567Y56.726
X105.61Y18.246
X107.632Y37.199
X108.871Y75.503
X114.413Y17.009
X115.628Y55.312
X117.659Y74.277
X117.693Y35.785
X124.474Y15.595
X127.721Y72.863
X141.189Y53.737
X141.776Y15.345
X147.971Y73.927
X148.557Y35.535
X151.251Y55.151
X151.837Y16.759
X158.032Y75.341
X158.618Y36.949
X160.054Y56.388
X160.64Y17.996
X165.65Y-0.537
X166.835Y76.578
X167.421Y38.186
X170.115Y57.802
X170.702Y19.41
X175.711Y0.877
X176.896Y77.992
X177.483Y39.6
X178.919Y59.039
X179.505Y20.647
X185.7Y79.23
X186.286Y40.838
X188.98Y60.453
X189.566Y22.061
X195.761Y80.644
X196.305Y3.771
X196.347Y42.252
X197.783Y61.691
X198.37Y23.299
X204.564Y81.881
X205.151Y43.489
X206.366Y5.185
X207.844Y63.105
X208.431Y24.713
X214.625Y83.295
X215.212Y44.903
X218.03Y7.01
X218.04Y64.147
X218.04Y26.047
X224.694Y83.218
X225.184Y45.097
X228.19Y7.01
X228.2Y64.147
X228.2Y26.047
X234.854Y83.218
X235.344Y45.097
X237.09Y64.147
X237.09Y26.047
X237.1Y7.01
X243.744Y83.218
X244.234Y45.097
X247.25Y64.147
X247.25Y26.047
X247.26Y7.01
X253.904Y83.218
X254.394Y45.097
X256.14Y64.147
X256.14Y26.047
X261.11Y2.06
X262.794Y83.218
X266.3Y64.147
X266.3Y26.047
X271.27Y2.06
X272.954Y83.218
X275.19Y45.097
X279.952Y64.147
X280.14Y21.1
X280.14Y2.05
X281.844Y83.218
X285.35Y45.097
X290.113Y64.147
X290.3Y21.1
X290.3Y2.05
X292.004Y83.218
X299.17Y2.06
X309.33Y2.06
X311.0Y59.76
X311.0Y40.74
X321.16Y59.76
X321.16Y40.74
T3
X3.17Y9.52
X3.86Y85.72
X5.85Y47.62
X6.15Y66.68
X7.86Y28.57
X9.52Y12.06
X10.21Y88.26
X12.2Y50.16
X12.5Y69.22
X14.21Y31.11
X22.9Y85.75
X27.01Y9.54
X29.25Y88.29
X29.96Y66.68
X32.08Y47.6
X33.36Y12.08
X36.31Y69.22
X38.43Y50.14
X38.91Y28.58
X43.821Y87.206
X45.26Y31.12
X50.462Y88.837
X50.584Y67.019
X52.649Y47.491
X57.226Y68.65
X59.137Y8.105
X59.291Y49.123
X59.43Y27.301
X62.691Y84.566
X65.779Y9.737
X66.072Y28.933
X69.332Y86.197
X69.449Y64.367
X71.514Y44.84
X76.091Y65.999
X78.156Y46.472
X78.295Y24.65
X81.541Y81.916
X84.937Y26.281
X88.182Y83.547
X88.314Y61.716
X90.379Y42.189
X94.955Y63.348
X96.866Y2.803
X97.02Y43.82
X97.16Y21.999
X100.421Y79.256
X103.508Y4.434
X103.801Y23.63
X107.062Y80.887
X107.178Y59.065
X109.243Y39.538
X113.82Y60.697
X115.885Y41.169
X116.024Y19.347
X119.271Y76.616
X122.666Y20.979
X125.912Y78.247
X142.094Y56.429
X142.68Y18.037
X148.028Y59.828
X148.615Y21.436
X148.875Y76.619
X149.461Y38.227
X154.809Y80.018
X155.396Y41.626
X160.958Y59.08
X161.545Y20.688
X166.554Y2.155
X166.893Y62.479
X167.479Y24.087
X167.739Y79.27
X168.326Y40.878
X172.489Y5.554
X173.674Y82.669
X174.26Y44.277
X179.823Y61.731
X180.409Y23.339
X185.758Y65.13
X186.344Y26.738
X186.604Y81.922
X187.19Y43.53
X192.539Y85.321
X193.125Y46.929
X197.209Y6.463
X198.687Y64.383
X199.274Y25.991
X203.144Y9.862
X204.622Y67.782
X205.208Y29.39
X205.468Y84.573
X206.055Y46.181
X211.403Y87.972
X211.99Y49.58
X219.3Y9.55
X219.31Y66.688
X219.31Y28.587
X225.65Y12.09
X225.66Y69.227
X225.66Y31.127
X225.964Y85.757
X226.454Y47.637
X232.314Y88.297
X232.804Y50.177
X238.36Y66.688
X238.36Y28.587
X238.37Y9.55
X244.71Y69.227
X244.71Y31.127
X244.72Y12.09
X245.014Y85.757
X245.504Y47.637
X251.364Y88.297
X251.854Y50.177
X257.41Y66.688
X257.41Y28.587
X262.38Y4.6
X263.76Y69.227
X263.76Y31.127
X264.064Y85.757
X268.73Y7.14
X270.414Y88.297
X276.46Y47.637
X281.222Y66.688
X281.41Y23.64
X281.41Y4.59
X282.81Y50.177
X283.114Y85.757
X287.572Y69.227
X287.76Y26.18
X287.76Y7.13
X289.464Y88.297
X300.44Y4.6
X306.79Y7.14
X312.27Y62.3
X312.27Y43.28
X318.62Y64.84
X318.62Y45.82
T4
X-0.268Y33.015
X23.608Y33.015
X87.492Y-5.499
X111.136Y-8.821
X159.831Y-8.409
X183.474Y-5.086
X268.332Y52.082
X292.208Y52.082
T5
X-0.268Y17.775
X6.98Y6.98
X7.67Y83.18
X9.66Y45.08
X9.96Y64.14
X11.67Y26.03
X23.608Y17.775
X26.71Y83.21
X30.82Y7.0
X33.77Y64.14
X35.89Y45.06
X42.72Y26.04
X47.24Y84.16
X54.004Y63.973
X56.069Y44.446
X62.557Y5.06
X62.85Y24.256
X66.11Y81.52
X72.868Y61.322
X74.933Y41.795
X81.714Y21.604
X84.96Y78.87
X89.613Y9.593
X91.733Y58.671
X93.798Y39.143
X100.286Y-0.243
X100.579Y18.953
X103.84Y76.21
X110.598Y56.019
X112.663Y36.492
X113.257Y6.27
X119.444Y16.302
X122.69Y73.57
X146.22Y54.444
X146.806Y16.052
X153.001Y74.634
X153.587Y36.242
X157.71Y6.683
X165.085Y57.095
X165.671Y18.703
X170.68Y0.17
X171.866Y77.285
X172.452Y38.893
X181.353Y10.006
X183.949Y59.746
X184.536Y21.354
X190.73Y79.937
X191.317Y41.545
X201.335Y4.478
X202.814Y62.398
X203.4Y24.006
X209.595Y82.588
X210.181Y44.196
X223.11Y7.01
X223.12Y64.147
X223.12Y26.047
X229.774Y83.218
X230.264Y45.097
X242.17Y64.147
X242.17Y26.047
X242.18Y7.01
X248.824Y83.218
X249.314Y45.097
X261.22Y64.147
X261.22Y26.047
X266.19Y2.06
X267.874Y83.218
X268.332Y36.843
X280.27Y45.097
X285.032Y64.147
X285.22Y21.1
X285.22Y2.05
X286.924Y83.218
X292.208Y36.843
X304.25Y2.06
X316.08Y59.76
X316.08Y40.74
T0
M30
